<?xml version="1.0" encoding="utf-8"?>
<!-- Generator: Adobe Illustrator 18.1.1, SVG Export Plug-In . SVG Version: 6.00 Build 0)  -->
<svg version="1.1" id="Camada_1" xmlns="http://www.w3.org/2000/svg" xmlns:xlink="http://www.w3.org/1999/xlink" x="0px" y="0px"
	 viewBox="0 0 1920 1080" enable-background="new 0 0 1920 1080" xml:space="preserve">
<g>
	<g>
		<path fill="#FEFEFE" d="M725,623c0-99.7,0-199.3,0-299c99.7,0,199.3,0,299,0c0,99.7,0,199.3,0,299C924.3,623,824.7,623,725,623z"
			/>
		<path fill="#DAB68B" d="M790,464c0-1.3,0-2.7,0-4c1.6-0.6,1.8,1.7,3.1,1.7c1-0.5,1.2-1.9,2.3-2.4c0.5-0.2,1-0.4,1.5-0.5
			c3.5-0.3,7-0.2,10.5-0.3c3,0,5.9,0.2,8.2,2.7c2,2.1,5.2,0.8,7.4,2.4c1.1,1,1.4,2.7,2.7,3.3c5.5,1.9,11.5-1.2,16.6,2.3
			c2,6,1.3,11.9,0.1,18.7c-8.8-0.5-17.4,3.4-25.4-2.4c-2.3-1.6-5.3-0.6-7.7-1.8c-1.5-0.7-1.2-2.7-2.9-3.6c-1.6,1.4-2.4,3.7-4.3,4.9
			c0.9,2.2,2.5,3.3,4.2,5c3-3.1,6.6-4.1,10.6-2.8c1.8,0.5,2.1,2.7,3.9,3.1c3.6,0.8,7.4-0.4,11,1.2c1.4,2.2,3.1,4.1,5.5,5.4
			c1.4,2.6,3.5,3.7,6.5,3.6c2.8-0.1,5.6-0.1,8.4,0.1c2.8,0.1,4.8,1.1,5.1,4.3c0.3,2.4-0.4,4.8,0.4,7.2c1.5,0.9,1.9-1.8,3.3-1
			c0,1.6,0,3.2,0,5c-1.8,0-3.4,0-5,0c-3,1.1-3.5,3.6-3.5,6.4c0,6.5,0,13,0,19.4c0,2.1,0.1,4.4-1.5,6.1c-1.7,1.7-4.1,1-6.1,1.7
			c-1.5,0.6-1.8,2.3-2.9,3.3c-4.7,2.4-9.3,2.4-14,0c-1-0.8-1.1-2.3-2.3-3.2c-2.3-1-5.1,0.1-7.5-1.2c-1.6-1.8-2.6-4.2-4.7-5.6
			c-0.6-1.2-0.7-2.4-0.2-3.6c0.5-1.2,2.2-1.3,2.7-2.6c0.1-1.5-1.3-1.6-2.1-2.4c-2.2-3.1,0.2-5.2,1.9-7c-0.5-1-1.1-1.3-1.6-1.7
			c-0.4-0.3-0.7-0.7-0.9-1.1c-0.6-1.5-0.5-3,0.2-4.5c0.3-0.4,0.7-0.8,1.1-1.1c3.1-1.8,1.2-5.7,3.5-8.2c3.2-2.3,7.5-0.2,12.3-2.2
			c-5.8-2.2-11-0.2-15-1.6c-2.3-0.9-2.7-2.8-4-3.8c-2.3-1.2-4.9-0.6-7.3-0.8c-4.3,0.3-6-3.8-9.1-5.4c-0.9-0.6-0.9-2-2-2.5
			c-1.1,0.5-1.1,1.9-2,2.5c-0.3-0.4-0.9-0.8-1-1.2c-0.1-1.3,0-2.5,0-3.8c-0.6-0.6-1.1-1.3-1.8-1.8c-1.2,0-1.4,1.2-2.2,1.8
			c-2.1-0.7-0.4-2.5-1.1-3.6c-1-1.4-3.3,0.9-3.9-1.4c1-1,2.4-1.7,2.9-2.6c1.8-5.3-0.9-10.7,2.1-15.4
			C787.9,467.8,788.7,465.7,790,464z"/>
		<path fill="#1C3A59" d="M879,389c0-1.2,0-2.3,0-3.5c4.4-0.7,53.3-1,70-0.3c0,1.3,0,2.6,0,3.8c-0.2,0.2-0.4,0.4-0.5,0.6
			c-2.7,1.3-5.5,0.7-8.3,0.8c-2,0.1-3.6,0.3-3.6,2.9c-0.1,4.7,0,9.3-0.1,13.9c0,2,0.1,4-1.3,5.7c-1.3,1.3-2.7,1.4-4.2,0.6
			c-2.5-4.4-0.7-9.4-2.3-13.9c-0.4-2.6,0.9-5.2-0.3-8.3c-7.4-1.3-14.9-0.5-21.9-0.5c-2,1.2-2,2.7-2,4.2c0.2,14.9,0.2,29.9,0,44.8
			c0.1,2.6-1,5.2-0.5,7.8c1.6,1.6,3.4,1.2,5,0.8c4.2-3.4,6.1-8.1,8.1-12.8c1.3-0.6,2.6-0.6,3.8,0.1c1.9,1.8,1,4.5,2.1,7
			c1.7,1.4,4,2.8,5,5.3c2.9,1.1,5.6,0.9,8.7,0.5c-5.3-5.1-2.5-11.4-3.2-17c0.4-6.1-1.5-12.3,1.3-18.2c1.7-1.4,3.5-1.5,5.3-0.1
			c1.7,2.3,1.3,5.1,1.4,7.7c0.2,7.1-0.4,14.3,0.4,21.3c1.6,2.2,3.8,3.6,5.2,5.6c6.4,2.1,13.1-0.5,19.1,1.8c1.5,1.5,1.3,2.9,0.9,4.3
			c-0.9,1.2-2.2,0.8-3.3,0.8c-19,0-38,0-57,0c-10.7,0-21.3,0-32,0c-1.6,0-3.3-0.5-4.9,0.5c-1.4,1.2-3,1.4-4.8,1.3
			c-1.4,0-2.9-0.1-4.1-1c-0.4-0.4-0.8-0.9-1-1.4c-0.4-1.5-0.3-2.9,0.6-4.2c1.2-0.9,2.6-1.1,4.1-1.1c1.7-0.1,3.3-0.1,5,0
			c1.4,0,2.8,0,4.1,0c1.7,0,3.3,0,5,0c1.7,0,3.3-0.1,5,0c1.6,0,3.3,0,4.9,0c1.3,0,2.6,0,3.9,0c1.1,0,2.3,0,3.3-0.8
			c0.9-1.5,0.6-3.2,0.6-4.8c-0.1-4.1,0-8.2-0.1-12.3c-0.1-8.8-0.1-17.5,0-26.3c0.2-3.2-0.1-6.4,0.1-9.6c0-1.3,0.1-2.6-1.1-3.9
			c-2.8-1.1-5.9-0.4-8.6-0.4c-1.5,1.4-1.5,2.9-1.4,4.4c0.1,4.5,0.1,9,0,13.5c-0.1,7.5,0.9,15.2-0.7,22c-2.2,1.9-3.9,1.8-6.3,0.6
			c-2.1-7.1-0.8-14.7-1-22.2c-0.1-3.3-0.2-6.6,0-9.9c0.2-3.4-5.2-4.9-2.8-8.7C876,388.9,877.8,390.1,879,389z"/>
		<path fill="#D13838" d="M992,511c-0.3,0-0.7,0-1,0c-2.5,2.2-7,0.3-8.8,4.1c-1.8,1.4-4.1,1-6.1,1.8c-1.4,0.7-2.1,2.1-3.1,3.1
			c0,8.6,0,17.2,0,25.7c0,0.8,0.7,2.1-1,2.3c-1.7-1.9-1.4-4.4-1.5-6.7c-0.2-5.8,0.3-11.6-0.5-17.4c-1.3,4.4,0.2,9-1.4,13.4
			c-4.1,5.4-9.4,2.6-15,2.7c-3.1-9.9,1.6-20.9-5.8-29.3c-0.9-4.3-0.5-8.6-0.5-12.9c0-5,4-10.5,8.9-10.9c11.2-0.8,22.5-1.1,33.7,0.2
			c0.3,0,0.6,0.3,0.9,0.5c1.6,1.8,1.6,4,1.5,6.1C992.2,499.5,993.3,505.3,992,511z"/>
		<path fill="#1C3A59" d="M777,459c-2.2-0.6-0.1-2.7-1.5-3.9c-0.8,0-1.9,0-3.4,0c0-1.7,0-3.3,0-5.1c-1.8,0-3.2,0-4.9,0
			c0-1.3,0-2.4,0-3.6c-1.8-0.4-3.4-0.8-5.1-1.2c0-3.2,0-6,0-9.2c-1.4,0-2.6,0-4,0c0-3.1,0-5.9,0-9c-1.7,0-3.3,0-5,0
			c0-8.1,0-15.9,0-23.9c1.5,0,2.9,0,4.6,0c0.2-1.4,0.3-2.6,0.4-4c4.5,0,8.9,0,13.7,0c0-3.4,0-6.6,0-10c1.5-0.1,2.6-0.1,4-0.2
			c0-1.2,0-2.4,0-3.9c1.8,0,3.2,0,4.9,0c0-1.6,0-3.1,0-4.4c0.4-0.3,0.7-0.6,0.9-0.6c9,0,17.9,0,27.2,0c0,1.8,0,3.4,0,5
			c-0.2,0.2-0.4,0.4-0.7,0.6c-3.8,1.6-7.9,1-11.8,0.8c-5.6-0.4-10.1,1-13.7,6.6c-0.9,6.9-0.1,14.7-0.4,22.5
			c-0.2,5.3,0.8,10.6-0.8,15.8c-3.9,2.4-6.2,1.6-6.9-2.6c-0.7-3.6-0.4-7.2-0.2-10.8c-0.2-3.9,0.7-8-0.8-11.8c-3.1-2.3-6-1.6-9.2,0.3
			c-2.3,5.8-0.8,11.9-1.2,17.3c1,2.2,2.9,2.1,3.9,3.2c1.4,1.8,0.8,4.2,1.5,6.2c0.6,1.7,2.7,1.9,3.6,3.3c1.4,2.2,0.6,4.9,1.5,7.2
			c2.6,3.9,7.2,5.6,9.4,9.4c4,1.9,8.6-0.7,12.1,2.5c0.7,1.5,0.7,2.9-0.6,4.1C788.9,459.8,782.9,459.7,777,459z"/>
		<path fill="#2A5581" d="M870,455c0.3-0.3,0.5-0.9,0.8-1c1.5-0.1,3,0,4.5,0c30.4,0,60.9,0,91.5,0c0-1.3,0-2.5,0-3.9
			c-7.2,0-14.3,0-21.5,0c-0.8-1.6,0.6-4-2.5-5.1c-0.3,0-1.4,0-2.8,0c0-10.8,0-21.4,0-32c0.2-0.2,0.4-0.4,0.6-0.6
			c1.5-0.7,2.9-0.5,4.5,0.4c2.9,5-0.1,11.1,2.1,16.2c5.3,2.5,7.7,2.1,11-1.8c1-1.3,2.9-1.7,3.5-3.5c0.5-1.5,1.8-2.4,2.8-3.6
			c-1.5-1.7-4-0.5-5.4-1.9c-0.3-0.4-0.3-0.8-0.1-1.3c2.9,0,5.8,0,9,0c0,1.8,0,3.4,0,5c0.9,0.6,0.9,2,2,2.5c1.1-0.5,1.1-1.9,2-2.5
			c0.3,0.4,0.9,0.8,1,1.2c0.1,1.3,0,2.5,0,3.8c2.7,5.8,1.7,11.6-0.1,17.4c-1.8,1.8-3.7,3.4-4.9,5.6c0,1.5,0,3,0,4.5
			c-0.1,0.1-0.2,0.2-0.3,0.3c-0.1,0.1-0.3,0.2-0.4,0.2C934.8,455,902.4,455,870,455z"/>
		<path fill="#782323" d="M921,548c0,1.5,0,3,0,4.5c-4.2,0.7-37.4,0.9-51,0.3c0-13.9,0-27.9,0-41.8c-1.2-1.5-1.3-3.1-0.4-4.8
			c0.9-1.2,2.6-1.4,3.2-2.4c1.4-2.6,0.2-5.5,2.4-7.3c1.5-0.6,2.9-0.5,4.1,0.6c1.4,2.1,1,4.5,1,6.8c0.1,12.8-0.1,25.6,0.1,38.5
			c0,1-0.1,2,0.5,2.9c0.9,1.1,2,1.4,3.3,1.4c1.6,0,3.2,0,4.8,0c1.4-0.1,2.8,0,4.2,0c3.2-0.1,6.3-0.1,9.5,0c1.5,0,2.9-0.1,4.4,0
			c4.4,0.2,8.9-0.8,13.2,0.8C920.6,547.6,920.8,547.8,921,548z"/>
		<path fill="#782323" d="M884,469c32.6,0,65.1,0,98,0c0,1.4,0,2.7,0,4c-1.7,1.8-4,1.4-6.1,1.4c-8.4,0.1-16.9,0.2-25.3-0.1
			c-4.4-0.1-8.1,0.7-11,4.2c-3.3,1.6-5.2-1-7.2-2.5c-2.5-0.8-4.8-0.4-7.2-0.5c-12,0.3-23.9,0.1-35.9,0.1c-1.8,0-3.7-0.1-5.3-1.1
			C882.5,472.7,882.6,470.8,884,469z"/>
		<path fill="#792424" d="M968,548c0,1.5,0,3,0,4.8c-6.9,0.3-13.7,0.1-20.6,0.1c-7,0-13.9,0-21.2,0c-0.1-1.5-0.2-3.1-0.3-5
			c-1.6,0-3.2,0-4.9,0c-2.6-3.8,1.3-4.7,2.9-6.4c1-3.3,0.4-6.5,0.7-9.6c0.3-2.2,1.1-3.9,3.7-3.8c2.4,0.2,3.5,1.8,3.8,4
			c0.4,2.5,0.8,4.9,3.1,6.5c1.6,2.1,0.7,4.9,2,7.2c3.6,1.4,7.4,0.4,11.2,0.8c0.6,0,1.1,0,1.7,0c1.4,0,2.8,0,4.2,0
			c4.3,0.2,8.8-0.8,13,0.8C967.6,547.6,967.8,547.8,968,548z"/>
		<path fill="#29547F" d="M959,417c0,0.3,0,0.7,0,1c-3.1-0.7-2.2-3.3-2.3-5.2c-0.3-4.7,0.1-9.5-0.3-15.1c-1.5,2.5-0.8,4.5-1.9,6.1
			c-2.1,1.8-4.8-0.1-7.4,1.5c-1.2,3.2-5.4,4.3-7.1,7.8c-1.7,0-3.3,0-5,0c0-7,0-14,0-21c0.6-0.6,0.5-1.6,1.3-2.3
			c3.6-0.5,7.4-0.1,11.2-0.2c0.5,0,1,0.1,1.5,0.2c1.2,2,3.1,3.1,5,4.3c1.5,0,3,0,4.5,0c0.1,0.1,0.3,0.2,0.4,0.3
			c0.1,0.1,0.2,0.3,0.2,0.4C959,402.2,959,409.6,959,417z"/>
		<path fill="#1D3B5A" d="M832,380c-5.8,0-11.6,0-17.8,0c-0.1-1.2-0.2-2.4-0.4-4.2c-1.3-0.3-2.8-0.7-4.6-1.2c0-4.2,0-8.7,0-13.5
			c1.4,0,2.8,0,4.5,0c0.1-1.4,0.2-2.6,0.4-4.1c6,0,11.9,0,17.8,0c0.9,1.2,0.4,2.5,0.4,3.8c-3.6,3.1-8.4,0.3-12.1,2.8
			c-1.2,3.1-1.2,6.3-0.4,9.6c0.3,0.4,0.7,0.7,1.1,1c3.5,1.4,7.6-0.6,10.9,1.6C832.7,377.2,832.7,378.6,832,380z"/>
		<path fill="#A32D2D" d="M939,478c2.1-0.7,0.4-2.6,1.1-3.5c3.5-1.9,7-1.5,10.6-1.5c10.5,0,20.9,0,31.4,0c2.6,0,5.2,0,7.8,0
			c0.4,0,0.8,0.6,1.2,1c-2.7,2.1-5.9,1.4-9,1.5c-11.4,0.3-22.8-0.3-33.8,0.3c-2.2,2.5-1.4,4.9-1.7,7.2c-0.1,8.9,0.6,17.9-0.4,26.8
			c-0.2,0.6-0.6,1.2-1,1.6c-0.5,0.4-1.1,0.6-1.8,0.7c-4,0.2-4.6-2.5-4.7-5.5c-0.2-6-0.1-11.9-0.1-17.9
			C939,485.1,937.8,481.5,939,478z"/>
		<path fill="#2A5581" d="M879,389c-1.6,0.9-2,1-3.8,1.2c0,1.1,0,2.2,0,3.6c1.1,0.1,2.3,0.2,3.8,0.3c0,4.7,0,9.3,0,13.8
			c-3.6,1.9-3.4,5.8-4.6,8.6c-1.5,1.4-2.9,1.5-4.4,0.7c-0.5-0.4-0.8-0.8-1-1.4c-1-8.4-0.7-16.7-0.2-25.1c0.8-2.8,3.7-3.7,5.2-5.9
			c2.2,0.6,0,2.7,1.9,4C876.4,389,877.7,389,879,389z"/>
		<path fill="#1C3A59" d="M874,385c0,1.2,0,2.3,0,3.5c-0.9,1.6-3.4-0.8-4,1.5c-1.2,2.2-3.1,2.3-5.2,1.6c-6.6-2.5-13.3-0.8-19.6-1.2
			c-1.7,1.1-2,2.8-3,3.8c-1.6,1-3.3,1.1-5,0.3c-1.3-1-1.4-2.5-1.5-3.9c0-0.6,0-1.1,0-1.7c0-1.5,0.3-2.8,1.3-3.9
			C849.3,385,861.7,385,874,385z"/>
		<path fill="#27507A" d="M819.1,374.9c-0.4-0.3-1.1-0.7-1.1-1.1c-0.1-3.8,0-7.5,0-11.2c0.5-0.5,1-1,1.6-1.6c4,0,8,0,12.4,0
			c0-1.4,0-2.7,0-3.9c2.2,0.6,0.2,2.6,0.7,3c1.4,2,3.7-0.3,4.3,2c-0.9,1-2.3,1.3-3,2.7c-0.7,3.3,1.7,7.1-1,10.3c0,1.3,0.1,2.5,0,3.8
			c0,0.4-0.6,0.8-1,1.2c0-1.2,0-2.3,0-3.9c-1.9,0-3.8-0.1-5.7-0.1c-1.8,0-3.6,0-5.5,0C820.1,376,819,376.4,819.1,374.9
			c3.2-2,6.7-0.6,9.7-1.9C825.3,372.3,821.7,371.4,819.1,374.9z"/>
		<path fill="#7A2424" d="M992,511c-1-1.2-1-2.6-1-4.1c0-6.3,0-12.6,0-18.9c-2-3-1.7-6.2-0.6-9.4c0.2-0.2,0.4-0.4,0.6-0.6
			c1.5,0,3,0,4.5,0c0.1,0.1,0.2,0.2,0.3,0.4c0.1,0.1,0.2,0.3,0.2,0.4c0,10.6,0,21.2,0,32.2C994.6,511,993.3,511,992,511z"/>
		<path fill="#564633" d="M851,548c0-10.5,0-21.1,0-31.3c1.5-2.5,3.2-1.9,5-0.7c0,10.6,0,21.1,0,32C854.2,548,852.6,548,851,548z"/>
		<path fill="#7D2C2C" d="M968,537c0-5.5,0-11,0-16.8c1.2-0.1,2.4-0.1,4-0.2c0,9.5,0,18.8,0,28c-1.3,0-2.7,0-4,0
			C965.4,544.3,966.6,540.7,968,537z"/>
		<path fill="#4F3F2C" d="M837,385c0,1.3,0,2.7,0,4c-0.5,0.4-1.1,1-1.7,1c-8.7,0.3-17.5,1.3-26.1-0.5c-1.4-1.4-1.3-2.9-0.2-4.5
			C818.3,385,827.7,385,837,385z"/>
		<path fill="#50402D" d="M800,525c0-7.7,0-15.3,0-23c1.5-0.7,3-0.9,4.4,0.2c2.1,6.8,1.1,13.8,0.7,20.7c-0.2,2.3-1.9,3.4-4.3,2.7
			C800.5,525.4,800.3,525.2,800,525z"/>
		<path fill="#554431" d="M786,469c0,5.9,0,11.8,0,18c-1.8,0-3.4,0-5,0c0-5.9,0-11.8,0-18C782.8,469,784.4,469,786,469z"/>
		<path fill="#534330" d="M870,506c0,1.7,0,3.3,0,5c-3,0-6,0-9,0c-1,1.7-1,1.7-1.2,3.8c-1.2,0-2.4,0-3.8,0c0-3,0-5.9,0-8.8
			c1.4-1.2,3.1-1.4,4.9-1.4c2.8,0.1,5.8-0.4,8.5,0.8C869.6,505.6,869.8,505.8,870,506z"/>
		<path fill="#1F3C5B" d="M972,445c0.3-3,0.8-6,1-9c0.2-3,0-6,0-9c1.2,0,2.3,0,4,0c0.1,6.2,0,12.4,0,19c-1.4,0-2.7,0-4,0
			C972.1,446.2,971.8,445.9,972,445z"/>
		<path fill="#594A38" d="M828,553c4.7,0,9.3,0,14,0c0,1.5,0,3,0,4.8c-2.2,0.5-4.5,0.2-6.8,0.2c-2.3,0.1-4.6,0-7.2,0
			C828,556.2,828,554.6,828,553z"/>
		<path fill="#203D5C" d="M833,375c0.6-4.3-0.9-8.5-1.2-13c2,0,3.6,0,5.2,0c0,4.2,0,8.5,0,13C835.5,375,834.3,375,833,375z"/>
		<path fill="#564632" d="M796,525c1,0,2,0,3,0c2.6,5.3,1.4,11,0.9,16.4c-0.2,2-2,2.3-4.3,1.6C795.6,537,795,531,796,525z"/>
		<path fill="#52412D" d="M884,469c0,1.7,0,3.3,0,5c1,1.3,1.1,2.7,0.1,4.1c-1.2,1.1-2.7,1.2-4.2,0.8c-0.6-0.2-1-0.5-1.4-1
			c-1.2-2.7-1.2-5.5-0.1-8.3c0.2-0.2,0.4-0.4,0.6-0.6C880.7,469,882.3,469,884,469z"/>
		<path fill="#584734" d="M842,553c0-1.6,0-3.2,0-5c3.2,0,6.1,0,9,0c0,1.6,0,3.2,0,5C847.8,553,844.9,553,842,553z"/>
		<path fill="#6C5A46" d="M818,548c3.2,0,6.5,0,10,0c0,1.8,0,3.4,0,5c-6.2,0-12.5,0-19,0c0-1.8,0-3.4,0-5c0.2-0.2,0.4-0.4,0.6-0.6
			c0.5-0.3,1-0.5,1.5-0.6C813.5,546.7,815.9,546.2,818,548z"/>
		<path fill="#782323" d="M973,520c0-1.1,0-2.3,0-3.4c2.7-2.3,5.9-1.4,9-1.6c0.1,0.2,0.3,0.3,0.4,0.5c-0.1,0.2-0.3,0.3-0.4,0.5
			c0,1.3,0,2.5,0,4C978.8,520,975.9,520,973,520z"/>
		<path fill="#604F3A" d="M796,525c0,5.9,0,11.9,0,17.9c1.1,0,1.9,0,3,0c0-6,0-12,0-17.9c0.3,0,0.7,0,1,0c2.7,6,1.7,12.2,0.6,18.3
			c-0.2,0.2-0.4,0.5-0.6,0.7c-1.5,0-3,0-4.9,0c0-1.9-0.1-3.8-0.1-5.8c0-1.8,0-3.7,0-5.5c0-2.2-0.1-4.3,0-6.5
			C795.1,525.8,795.7,525.4,796,525z"/>
		<path fill="#604F3A" d="M809,548c-2.9,0-5.8,0-9,0c0-1.5,0-2.7,0-4c2.8-2.2,5.8-1.4,8.4-0.7C810.1,545,810.1,546.5,809,548z"/>
		<path fill="#823333" d="M982,474c3,0,6,0,9,0c0,1.3,0,2.7,0,4c-2.9,2-5.9,1.9-9,0.4C980.8,476.9,980.9,475.5,982,474z"/>
		<path fill="#823333" d="M982,515c0-1.3,0-2.5,0-4c3.2,0,6.1,0,9,0c0,1.3,0,2.7,0,4C988,515.8,985,515.8,982,515z"/>
		<path fill="#4B4032" d="M777,459c6,0,12,0,18,0c0.3,0.2,0.3,0.4,0.3,0.7c-0.1,0.2-0.2,0.3-0.3,0.3c0,1.3,0,2.5,0,3.9
			c-1.4,0-2.4,0-3.7,0c-1.4-0.9,1-3.2-1.3-3.9c-3.9,0-7.8,0-11.7,0C777.8,459.9,777.4,459.3,777,459z"/>
		<path fill="#604F3A" d="M874,460c2.1,0.7,0.4,2.5,1.4,3.9c1,0,2.2,0,3.6,0c0,1.9,0,3.5,0,5.1c-1.5,1.3-3.2,1.3-4.7,0.4
			c-1.4-1.3-1.6-2.9-1.7-4.5c0-1.5,0-2.9,0.8-4.3C873.6,460.4,873.8,460.2,874,460z"/>
		<path fill="#665744" d="M804,502c-1.3,0-2.7,0-4,0c-1.6,0-3.2,0-5,0c0-1.8,0-3.4,0-5c1.5,0,3,0,4.8,0c0.1,1.2,0.3,2.4,0.4,4
			c1.2,0,2.5,0,3.8,0c0.3,0.2,0.3,0.4,0.3,0.7C804.2,501.9,804.1,502,804,502z"/>
		<path fill="#604E3A" d="M865,455c1.7,0,3.3,0,5,0c0,1.2,0,2.3,0,3.5c0.9,1.6,3.4-0.8,4,1.5c-1.1,1-2.5,1.3-4,1.3
			c-1.5,0-2.9-0.1-4.2-0.9C863.9,458.9,863.5,457.1,865,455z"/>
		<path fill="#2C4865" d="M972,445c0.3,0.3,0.7,0.7,1,1c0,1.3,0,2.5,0,4c-1.8,0-3.4,0-5,0c0-1.6,0-3.2,0-5
			C969.5,445,970.7,445,972,445z"/>
		<path fill="#2E4A67" d="M972,422c0,1.5,0,3,0,4.8c-1.2,0.1-2.4,0.1-4,0.2c0-1.8,0-3.4,0-5C969.3,422,970.7,422,972,422z"/>
		<path fill="#2D4966" d="M954,394c-1.6,0-3.2,0-5,0c0-1.5,0-2.7,0-4c1.7-0.8,3.3-0.7,5,0C954,391.3,954,392.7,954,394z"/>
		<path fill="#564632" d="M791,497c0-1.5,0-3,0-4.8c1.2-0.1,2.4-0.1,4-0.2c0,1.8,0,3.4,0,5C793.7,497,792.3,497,791,497z"/>
		<path fill="#564532" d="M790,464c0,1.6,0,3.2,0,5c-1.5,0-2.7,0-4,0c0-1.6,0-3.2,0-5C787.5,464,788.7,464,790,464z"/>
		<path fill="#4F3F2C" d="M786,492c0-1.2,0-2.3,0-3.8c1.2-0.1,2.4-0.1,4-0.2c0,1.5,0,2.8,0,4C788.7,492,787.3,492,786,492z"/>
		<path fill="#D13838" d="M982,515c3,0,6,0,9,0c-0.4,0.3-0.8,0.9-1.2,1c-2.6,0.1-5.2,0-7.8,0C982,515.7,982,515.3,982,515z"/>
		<path fill="#29547F" d="M954,390c-1.7,0-3.3,0-5,0c-0.3-0.2-0.4-0.4-0.3-0.7c0.1-0.2,0.2-0.3,0.3-0.3c1.3,0,2.5-0.1,3.8,0
			C953.2,389.1,953.6,389.7,954,390z"/>
		<path fill="#CDA87D" d="M804,502c0-0.3,0-0.7,0-1c2.8,0,5.6,0,9,0c0.5,1.5,0.9,3.1,1.5,4.9c5.5,0,11.3,0,17.3,0c0,1.7,0,3.3,0,5
			c-4.4,0-8.8,0-13.6,0c0,3,0,5.9,0,9.2c-1.6,0-2.9,0-4.2,0c-0.9-0.6-1.1-2-2.6-2c0.5,1.2,2,1.1,2.6,2c0,1.7,0,3.4,0,5.1
			c-0.6,1-2.1,0.8-2.6,2c1.4-0.1,1.7-1.5,2.6-2c1.3,0,2.5,0,3.9,0c0,1.4,0,2.5,0,3.6c-1.2,0.4-2.5,0.9-3.9,1.4c0,1.5,0,2.8,0,4.1
			c-1.3,1.3-2.7,1.3-4.3,0.6c-1.4-0.8-1.8-2.6-4.1-3.8c1,2.4,3.1,2.4,3.8,3.7c0.9,1.4,0.9,2.7,0,4.1c-0.8,1-2,1.5-3.8,2.6
			c2.4-0.4,2.9-2,4-2.6c1.6-0.8,3-0.8,4.4,0.5c0,1.3,0,2.7,0,4c-1.4,1.6-2.8,3.2-4,5c-0.3,0-0.7,0-1,0c0-1.3,0-2.5,0-4
			c-3.2,0-6.1,0-9,0c0-6.3,0-12.7,0-19c1.2,0,2.3,0,3.5,0c0.1-0.1,0.3-0.2,0.4-0.3c0.1-0.1,0.2-0.3,0.2-0.4
			C804,516.8,804,509.4,804,502z"/>
		<path fill="#CDA87D" d="M842,469c-6.2,0-12.5,0-19,0c0-1.8,0-3.4,0-5c1.5-1.7,3.7-1,5.7-2.2c-7.2,0.2-12.3-5.5-18.3-5.9
			c-9.1-6.1-8.7-14.4-7.2-23.1c0.3-0.5,0.7-0.9,1.2-1.1c0.6,0.1,1,0.4,1.3,1c1.4,3.1,0,6.6,1.5,9.6c1.5,1.1,2.8,1.1,4.2,0.2
			c1.6-1.9,0.8-4.6,2.7-6.8c2.7-1.6,5.8-1.6,9.1,0.2c2.7,5.2,0,11.2,1.9,16.3c1.5,1.3,2.9,1,4.7,0.2c2-8.6-0.7-17.7,1.5-26
			c1.7-1.7,3.3-1.8,5-1.2c0.5,0.2,0.8,0.7,0.9,1.2c-3.2,2.6-2.9,6.2-2.8,9.7c0.2,2.4-0.4,4.9,0.6,7.2c2,2,5.2,0.5,7.2,2.3
			c0.8,1.2,0.9,2.5,0.4,3.8c-1.7,1.8-4.6,2.5-5.2,5.4c-2.5,1.7-4.2,3.6-2.4,6.8c1.8,1.5,4.2,0.6,6.1,1.3c0.5,0.2,0.9,0.5,1.2,0.8
			c0.8,1.5,0.9,3,0.2,4.5C842.4,468.6,842.2,468.8,842,469z"/>
		<path fill="#C4A178" d="M804,432c0,5.5,0,10.9,0,16.1c0.9,2.7,3.1,1.6,4.9,2.1c0,1.5,0,2.9,0,4.7c3,0,6,0,8.7,0
			c0.5,1.5,0.8,2.7,1.2,3.8c4.5,0.5,8.6,1,13.1,1.6c0.1,1,0.1,2.2,0.2,3.8c-3.2,0-6.1,0-9,0c-2.8,0-5.7,0-8.8,0
			c-0.1-1.2-0.3-2.4-0.4-4c-5.9,0-11.9,0-17.8,0c0.4-2.4,3.7-3.7,2.6-6.7c-0.1-1.4,0-2.8,0-4.2c0.4-5.7-1-11.6,0.9-16.9
			C801.3,431,802.6,430.9,804,432z"/>
		<path fill="#CFAA7F" d="M819,492c-2.1-0.7-0.4-2.6-1.3-3.8c-2.6,0-5.4,0-8.5,0c-0.1,1.1-0.2,2.3-0.4,3.7c-1.5,0-2.9,0-4.7,0
			c-0.1-1.1-0.2-2.3-0.3-3.5c-1.3-0.4-2.4-0.7-3.7-1.1c0-1.4,0-2.5,0-4c1-0.1,2.2-0.2,3.6-0.4c0-1.4,0-2.9,0-4.6
			c1.7-0.1,3.3-0.1,5.2-0.2c0,1.8,0,3.4,0,5c3.9,3.7,5.1,3.7,9,0c2.1,0.7,0.4,2.6,1.3,3.8c7.4,0,14.9,0,22.7,0c0-6,0-11.9,0-17.8
			c1.6-1.3,3.3-1.3,5.4,0.2c1.9,5.2,1.5,11,0.5,16.6c-0.4,2.6-2.8,3.5-5.3,3.6c-5.6,0.3-11.3,0-16.9,0.1
			C823.2,489.6,820.7,489.7,819,492z"/>
		<path fill="#C5A37A" d="M861,506c-1.7,0-3.3,0-5,0c0-1.2,0-2.3,0-3.5c-0.1-0.1-0.2-0.2-0.3-0.3c-0.1-0.1-0.3-0.2-0.4-0.2
			c-6,0-11.9,0-18.2,0c0-1.8,0-3.4,0-5c0.2-0.2,0.4-0.4,0.6-0.6c4.3-1.5,8.8-0.6,13.2-0.8c1.7,0,3.5,0,5.1,0.9
			c1.4,1.3,2.5,2.9,4.1,4.1C862,501.9,862.6,503.8,861,506z"/>
		<path fill="#C3A178" d="M819,492c0-1.2,0-2.3,0-3.5c0.1-0.1,0.2-0.3,0.3-0.4c0.1-0.1,0.3-0.2,0.4-0.2c7.4,0,14.8,0,22.3,0
			c1.5,2,1.1,3.7-1,4.8c-1.8,1-2.7,2.7-4,4.2c-1.5,0-3,0-4.8,0c-0.1-1.5-0.2-3.1-0.3-5C827.6,492,823.3,492,819,492z"/>
		<path fill="#D3AE83" d="M814,539c-1.7,0-3.3,0-5,0c0-1.7,0-3.3,0-5c1.7,0,3.3,0,5,0c1.2,0,2.3,0,3.8,0c0.1,1.5,0.1,3.1,0.2,5
			C816.6,539,815.3,539,814,539z"/>
		<path fill="#D3AE83" d="M810,548c0-1.1,0-2.2,0-3.7c1.3-0.4,2.6-0.9,4-1.3c1.4,0,2.9-0.4,4,1.9c0,0.6,0,1.9,0,3.1
			C815.3,548,812.7,548,810,548z"/>
		<path fill="#C3A178" d="M818,483c0,1.2,0,2.3,0,3.8c-2.9,0.4-5.8,0-9,0.2c0-1.5,0-2.8,0-4.1C812,483,815,483,818,483z"/>
		<path fill="#5E4C37" d="M800,454c0,1.5,0,3,0,4.5c-0.9,1.6-3.4-0.8-4,1.5c-0.3,0-0.7,0-1,0c0-0.3,0-0.7,0-1c0-1.3,0-2.7,0-4
			c0.2-0.2,0.3-0.3,0.5-0.5C796.9,453.9,798.4,453.2,800,454z"/>
		<path fill="#CDA87D" d="M836.8,516.3c-1.4-0.4-2.5-0.7-3.7-1.1c0-1.5,0-2.6,0-4.1c1.1,0,2.3-0.1,3.7-0.2
			C836.8,512.7,836.8,514.3,836.8,516.3z"/>
		<path fill="#2E6091" d="M870,417c1.2,0,2.3,0,3.7,0c0.3-2.9,0.7-5.8,1.1-9c1.7,0,3,0,4.3,0c0,7.5,0,15,0,22.8
			c1.5,0.1,3.1,0.1,5,0.2c0-7.8,0-15.4,0-23c1.4-1.2,2.5-2.6,3.7-3.9c2.9-3.2,6.6-3.2,10.3-0.1c0,9,0,18,0,27
			c-8.6,5.8-17.8,8.6-28.7,5.2C868.5,429.7,867.1,423.4,870,417z"/>
		<path fill="#2E6091" d="M935,413c0,6.3,0,12.7,0,19c-3.1,2-7.3,1.4-10,4.6c-0.9,1.1-2.8,0.4-4-0.6c-1.3,0-2.7,0-4,0
			c-3.4,2.2-6.9,2.1-10.3,0.1c-1.7-2.7-1.3-5.8-1.2-8.7c0.2-6.4-0.9-12.9,0.8-18.8c1.7-1.7,3.3-1.9,5-1.4c2.3,1.3,2,3.6,2.2,5.6
			c0.2,2.3-0.3,4.6,0.8,6.6c1.8,1.3,3.6,1.2,5.3,0.2c1.6-1.5,1.3-3.5,1.1-5.2c-0.8-5,2.5-8,5.2-11.3c1.1-1.3,2.6-1.3,4.2-0.3
			c1.4,3.1-0.4,6.8,1,10.1C932.3,413,933.7,413,935,413z"/>
		<path fill="#2A5681" d="M931,413c-0.3-0.4-0.9-0.8-1-1.3c-0.1-2.8,0-5.6,0-8.5c-1.3,0-2.4,0-3.8,0c-0.1,1.4-0.2,2.9-0.3,4.7
			c-1.2,0-2.3,0-3.5,0c-0.2,0.6-0.4,1-0.4,1.5c0,3.8,0,7.6-0.1,11.4c0,0.4-0.6,0.9-1,1.3c-2.6-3.4-0.4-7.5-1.9-11.5
			c-1.1-1.5-2.9-3-4.2-4.9c-1.9-0.3-1.8,1.8-2.9,2.4c-1.5,0-3,0-4.5,0c-0.1,0.1-0.3,0.2-0.4,0.3c-0.1,0.1-0.2,0.3-0.2,0.4
			c0,9.1,0,18.2,0,27.3c1.3,4.7,0.6,5.6-4,5c0-15.7,0-31.3,0-47c3.5-2.5,4.5,1,6.2,2.7c2-0.2,1.7-2.8,3.1-3.1c3.3-1.5,4.3,1.3,6.1,3
			c2.1-1.6,3.6-5.3,7.6-2.7c1.3,1.3,2,3.7,3.9,5.1c0.3,2.3,0.8,4.7,1,7C931.1,408.4,931,410.7,931,413z"/>
		<path fill="#295581" d="M870,417c0,6.2,0,12.3,0,19c5.9,0.1,11.8,0,17.6,0c0.7-1.5,1.2-2.7,1.8-3.9c2.9-0.5,6,0.8,8.6-1.1
			c0,4.3,0,8.7,0,13c-0.9,1-1.9,1.8-3.5,1.5c-1.5-0.3-2.2-2-3.9-2.5c-2.1-0.1-2.8,3.3-4.9,2.7c-2.2-0.1-2.6-2.1-4-2.6
			c-2-0.1-2.7,2.5-4.5,2.4c-2.1,0-2.8-1.9-4.3-2.4c-2.1-0.1-3,2.3-5,2.1c-2.1-0.1-3.2-1.3-3.9-3.2c-1.3-7.1,0.5-14.5-1-21.1
			c-2.7-2.4-6.6-0.1-8.2-3.7c2.7-2.5,6-1.3,9-1.6c0.8,0,1.6,0.1,2.5,0.1c0.5,0,1.1,0.1,1.6,0.2C868.7,416,869.4,416.5,870,417z"/>
		<path fill="#28537D" d="M921,436c1.5,0,3,0,4.8,0c0.1-1.2,0.3-2.4,0.4-4c2.9,0,5.9,0,8.8,0c0,4.6,0,9.2,0,14c1.8,0,3.2,0,4.8,0
			c0,1.3,0,2.4,0,3.7c0.1-0.1,0,0.2-0.2,0.2c-4.4,0-8.9,0-13.5,0c0-1.4,0-2.9,0-4.6c-1.7-0.1-3.3-0.2-5.2-0.3
			C921,441.9,921,438.9,921,436z"/>
		<path fill="#27517B" d="M930,399c-1.2,0-2.3,0-3.8,0c-0.1-1.6-0.2-3.1-0.3-4.9c-1.5,0-3,0-4.8,0c0,1.5,0,3,0,4.6
			c-2,0.3-3.6,0.7-4.9-1.2c0-0.9,0-2,0-3.3c-1.4,0-2.6,0-4.1,0c0,1.4,0,2.9,0,4.6c-1.7,0-3.3,0-5.1,0c0-1.5,0-3,0-4.8
			c-1.5,0-2.7,0-4,0c0-1.5,0-3,0-4.5c0.1-0.1,0.2-0.3,0.3-0.4c0.1-0.1,0.3-0.2,0.4-0.2c8.6,0,17.2,0,25.7,0c0.5,0.5,1,1,1.5,1.5
			C931.4,393.4,929.2,396,930,399z"/>
		<path fill="#29537D" d="M865,443c0.8,0.5,1.6,1.1,2.5,1.8c0.7-0.3,1.6-0.8,2.5-1.2c0-0.7,0-1.4,0-2.3c1.6,0,3.1,0,4.7,0
			c0.5,2.1,0.5,2.1,2.2,3.8c1.8-1.5,1.8-1.5,2.3-3.9c1.4,0,2.9,0,4.7,0c0,1.1,0,2.4,0,4.2c1.5-0.5,2.6-0.6,3.3-1.2
			c0.6-0.5,0.7-1.7,1.1-2.9c1.2,0,2.8,0,4.3,0c0.5,1.3,1,2.6,1.4,3.8c1.6-0.4,2.8-0.8,3.9-1.1c0,1.9,0,3.8,0,6c-1.8,0-3.4,0-5,0
			c-0.6-0.5-1-1.2-1.8-1.5c-1.1-0.1-1.5,1-2.2,1.5c-1.7,0-3.3,0-5,0c-0.7-0.7-1.3-1.5-2-1.8c-1.6,0-2.2,1-3,1.8c-1.7,0-3.3,0-5,0
			c-0.6-0.5-1-1.2-1.8-1.5c-1.1-0.1-1.5,1-2.2,1.5c-1.7,0-3.3,0-5,0c-1.1-1.3-2-2.7-3.2-4C861.9,444,863.5,443.6,865,443z"/>
		<path fill="#2A5581" d="M898,404c-1-0.3-2-0.9-3-1c-1.8-0.2-3.6,0-5.7,0c-0.5,1.5-1.1,3.1-1.7,5c-1,0-2.3,0-3.6,0
			c0-4.7,0-9.3,0-14c1.6-1.2,2.7-2.9,4-4.2c1.7-0.4,3.1-0.4,4.8-0.1c1.5,1.6,3.4,3,5.3,4.3C898,397.3,898,400.7,898,404z"/>
		<path fill="#27517B" d="M903,441c1.4-0.1,3,0.5,4-2.4c0-0.1,0-1.4,0-2.6c3.3,0,6.7,0,10,0c0.9,3-1.5,5.6-0.9,8.8
			c-1.3,0.1-2.6,0.3-4,0.4c0,1.4,0,2.9,0,4.6c-3.4,0-6.6,0-10.3,0C902.3,446.9,902.6,443.9,903,441z"/>
		<path fill="#254D75" d="M898,394c-1.5,0-3,0-4.8,0c-0.1-1.2-0.3-2.4-0.4-3.8c-1.4,0-2.9,0-4.6,0c-0.1,1-0.2,2.3-0.4,3.8
			c-1.2,0-2.5,0-3.8,0c0-1.5,0-3,0-4.8c2.2-0.5,4.5-0.2,6.8-0.2c2.3-0.1,4.6,0,7.2,0C898,390.8,898,392.4,898,394z"/>
		<path fill="#CDA87D" d="M865,455c0,1.7-0.3,3.5,1,5c0.4,1.5,0.1,2.8-0.8,3.9c-1.5,1.2-2.9,1.2-4.4,0.3c-1.7-2.8-1.4-5.7-0.4-8.6
			c0.2-0.2,0.4-0.4,0.6-0.6C862.3,455,863.7,455,865,455z"/>
		<path fill="#295581" d="M879,450c0-0.8,0-1.6,0-2.5c1-0.5,2.1-1.1,3.5-1.7c0.4,0.7,0.8,1.4,1.5,2.6c0,0,0,0.8,0,1.6
			C882.3,450,880.7,450,879,450z"/>
		<path fill="#2D4966" d="M949,389c0,0.3,0,0.7,0,1c-4.1,0-8.3,0-12.4,0c-0.5,0.7-1,1.3-1.6,2c0-0.8,0-1.6,0-2.8
			c2.3-0.5,4.7-0.1,7.1-0.2C944.4,389,946.7,389,949,389z"/>
		<path fill="#295581" d="M862,446c0.9,0,1.8,0,3,0c0,1.5,0,2.8,0,4c-1.3,0-2.7,0-4,0c-0.9-0.8-1-1.8-0.7-2.9
			C860.6,446.3,861,445.8,862,446z"/>
		<path fill="#295581" d="M889,450c0-0.8,0-1.6,0-2.1c0.6-0.9,1.1-1.5,1.7-2.4c1,0.8,1.7,1.4,2.3,1.9c0,0.9,0,1.7,0,2.6
			C891.7,450,890.3,450,889,450z"/>
		<path fill="#295581" d="M870,450c0-0.8,0-1.6,0-2.1c0.6-0.9,1.1-1.5,1.7-2.4c1,0.8,1.7,1.4,2.3,1.9c0,0.9,0,1.7,0,2.6
			C872.7,450,871.3,450,870,450z"/>
		<path fill="#29537D" d="M861,447c0,1,0,2,0,3c0,1.3,0,2.7,0,4c-0.5,0.3-0.9,0.3-1.4-0.1c-0.8-1.1-0.8-2.4-0.8-3.8
			c0-1.1,0.2-2.1,0.8-3C860,446.7,860.5,446.7,861,447z"/>
		<path fill="#CDA87D" d="M860,454c0.3,0,0.7,0,1,0c0,0.3,0,0.7,0,1c-0.3,0.4-0.7,0.4-1.1,0.2C859.7,454.8,859.8,454.4,860,454z"/>
		<path fill="#C33434" d="M982,478c3,0,6,0,9,0c0,3.3,0,6.7,0,10c-12.2,0-24.5,0-36.9,0c0,1.3,0,2.4,0,3.9c-1.7,0-3.3,0-5.1,0
			c0,6.6,0,12.9,0,19.1c-0.2,0.2-0.4,0.3-0.5,0.5c-1.3,0.5-2.4,0.6-3.5-0.5c0-9.3,0-18.7,0-28c2-1.4,2.7-3.7,4.1-5.3
			c1.4-0.8,2.7-0.8,4-0.4c1.7,0.6,1.8,2.7,3.4,3.4c1.7-0.5,1.6-2.6,3.1-3.2c3.2-1.6,4,1.8,5.7,3.1c1.8-0.4,1.7-2.5,3.2-3.1
			c3.1-1.5,4.3,1.4,6.1,2.8c1.6-0.5,1.7-2.5,3-2.9C979.4,476.8,980.8,476.8,982,478z"/>
		<path fill="#BE3333" d="M968,537c0,3.7,0,7.3,0,11c-4.7,0-9.3,0-14,0c-1.2-1.1-1.6-2.8-3-3.7c-2.2-1.3-3.3-3.3-3.4-5.8
			c-0.3-8-0.2-15.9,0-23.9c0-1.4,0.5-2.6,1.4-3.6c2.2,0.6,0.1,2.7,1.6,3.9c0.9,0.4,2.1,1,3.5,1.6c0,7.4,0,14.8,0,22.4
			c4.2,0,8.3,0,12.5,0C967,538.3,967.5,537.7,968,537z"/>
		<path fill="#7C2424" d="M959.2,492.1c3,0,5.7,0,8.7,0c0,1.5,0,2.9,0,4.7c1.7,0.1,3.3,0.2,5,0.3c0,1.1,0,2.2,0,3.5
			c-0.3,0.3-0.8,0.8-1.3,1.2c-4.1,0-8.2,0-12.4,0C959.2,498.7,959.2,495.6,959.2,492.1z"/>
		<path fill="#2E6091" d="M804,432c-1.2,0-2.3,0-3.8,0c-0.5,6-0.1,12-0.2,18c-0.5,0.3-1,0.3-1.4-0.2c-1.9-3.2-0.4-6.9-1.6-10.9
			c-2,3.2-5.1,3.4-8.7,3.9c-4.1,8.1-10.5,3-16.4,2.1c0-2.8,0-5.6,0-8.8c-1.5-0.1-3.1-0.2-5-0.3c0-3,0-5.9,0-8.8
			c-1.1-1-2.6-0.1-3.8-0.9c-1.1-1.2-0.6-2.7-0.4-3.9c1.8-1.9,4.2-1.3,7.2-2.5c1.3-0.7,2.1-5.5,6.1-2.7c0,4.5,0,8.9,0,13.4
			c2.5,2.1,2.5,2.1,5,0.6c2.8-1.8,3.6-4.4,3.6-7.6c0-3.5-0.8-7.3,1.2-10.4c2-1.7,4.3-1.2,6.5-2.2c4.4-6.1,10.5-4.9,16.7-3.2
			c2.3,3.4,0.5,5.5-2.2,7.3c-2.3,2.2-1.2,5-1.3,7.5C805.2,425.7,806.3,429.1,804,432z"/>
		<path fill="#295580" d="M809,408c-4.5,0-9,0-13.8,0c-0.1,1.5-0.2,3.1-0.3,4.8c-2.8,0-5.6,0-8.2,0c-0.3,0.3-0.4,0.4-0.5,0.5
			c-0.1,0.1-0.2,0.3-0.2,0.4c0,5.6,0,11.3,0,17.2c-1.8,0-3.4,0-5,0c0-13.6,0-27.1,0-40.7c1.6-0.6,3-1.1,4.9-1.8c0-0.8,0-2.1,0-3.5
			c7.9,0,15.5,0,23.1,0c0,1.3,0,2.7,0,4C811.5,395.3,811.5,401.7,809,408z"/>
		<path fill="#2A5580" d="M772,445c4.3-0.8,8.3,1.5,12.5,1c0.4-0.4,0.7-0.7,1.4-1.4c0-0.9,0-2.1,0-3.5c3.1,0,5.9,0,9,0
			c0-1.7,0-3.3,0-5c1.5,0,2.6,0,4,0c0,4.7,0,9.3,0,13.9c-1.8,1.3-2.8,3.2-4,5c-4.6,0-9.1,0-13.9,0c0-1.6,0-3.1,0-4.8
			c-1.7-0.1-3.3-0.2-5-0.3c0-1.2,0-2.3,0-3.1C775.1,445,772.7,447.3,772,445z"/>
		<path fill="#2A5581" d="M776,417c-1.3,0-2.6,0-4,0c0,1.7,0,3.2,0,4.9c-3,0-5.9,0-8.9,0c0,1.4,0,2.5,0,3.8c0.8,1.3,3.2-1,3.8,1.3
			c-1.5,0-3,0-4.9,0c-0.3-2.6-0.1-5.2-0.1-7.8c0-2.5,0.2-5-0.1-7.5c-0.2-2.6,0.8-5,1.3-7.5c4.1-0.7,8.3-2.7,12.8,0.5
			C776,408.4,776,412.7,776,417z"/>
		<path fill="#2E5F91" d="M940,413c0-1.6,0-3.2,0-4.9c1.7,0,3.1,0,4.9,0c0-1.7,0-3.2,0-5.2c3.3,0.5,6.3-0.7,9.1,1.1
			c2,2.2,1.3,5,1.5,7.5c0.2,4.1-0.4,8.2,0.3,11.8c0.7,2,2.4,2.4,3.2,3.6c0,1.2,0,2.3,0,3.7c-4.6,2.1-9.2,1.9-14,0.1
			c0-5.9,0-11.7,0-17.8C943.2,413,941.6,413,940,413z"/>
		<path fill="#203D5B" d="M959,427c-1.5,0-3,0-4.5,0c-0.1-0.1-0.3-0.2-0.4-0.3c-0.1-0.1-0.2-0.3-0.2-0.4c0-7.4,0-14.8,0-22.3
			c0-2.9,0-5.9,0-8.9c1.4,0,2.5,0,4,0c0,6.9,0,13.8,0,20.6c0,0.8-0.7,2.1,1,2.3c2.5,0,5,0,7.8,0c0.1,1.2,0.2,2.4,0.2,3.8
			c-1.3,0-2.4,0-3.8,0c-0.1,1.7-0.2,3.3-0.3,5.2C961.6,427,960.3,427,959,427z"/>
		<path fill="#C13334" d="M926,532c0,3.8,0,7.6,0,11.8c-1.5,0.1-3.1,0.2-5,0.4c0,1.3,0,2.6,0,3.8c-4.7,0-9.3,0-14,0
			c-1.5-1.6-1.6-3.6-1.6-5.6c-0.1-13.3-0.1-26.5,0-39.8c0-1.8,0.1-3.7,1.1-5.3c1.5-1.6,3.3-1.7,5.2-0.9c1.9,1.6,1.7,3.8,1.7,5.9
			c0.1,5.8,0,11.6,0,17.3C913.5,529.5,916.5,532.4,926,532z"/>
		<path fill="#A12D2D" d="M907,497c0,17,0,34,0,51c-1.3,0-2.7,0-4,0c-2.1-2.8-2.3-6.1-2.3-9.4c-0.1-10.3-0.4-20.5-0.3-30.8
			c0-2.8,0.1-5.6,1-8.4c0.8-2.3,2-3.8,4.8-3C906.5,496.6,906.8,496.8,907,497z"/>
		<path fill="#B83232" d="M902,539c0.3,3,0.7,6,1,9c-3.3,0-6.7,0-10,0c-0.6-0.6-1.1-1.3-1.8-1.8c-1.2,0-1.4,1.2-2.2,1.8
			c-1.7,0-3.3,0-5,0c-0.6-0.6-1.1-1.3-1.8-1.8c-1.2,0-1.4,1.2-2.2,1.8c-1.9-0.3-0.9-1.9-1-2.8c-0.1-12.4,0-24.9,0-37.3
			c0-3.6,0-7.3,0-10.9c0.3-0.1,0.5-0.2,0.8-0.2c0.2,0.2,0.4,0.3,0.6,0.5c0.1,0.2,0.3,0.4,0.4,0.7c1.2,8.3,0.3,16.6,0.6,24.9
			c0.2,4.5-0.4,9,0.4,13.3c1.2,1.8,2.7,3.1,4.2,4.4c2.1-0.4,3.3-3.2,5.5-2.3c2.1,0.3,2.5,2.1,3.9,2.8c1.6,0,1.7-1.9,2.8-2.5
			C899.5,537.8,900.8,538,902,539z"/>
		<path fill="#584632" d="M879,497c-1.3,0-2.7,0-4,0c-0.7,0.3-1.2,0.1-1.6-0.5c-1.7-5-1.1-10.1-0.6-15.1c0.4-3.8,2.1-4.5,6.2-3.4
			C881.3,484.3,881.2,490.7,879,497z"/>
		<path fill="#523D2B" d="M874,497c0.3,0,0.7,0,1,0c0,2.9,0,5.8,0,9c-1.8,0-3.4,0-5,0c-2.2-3-1.7-6-0.4-8.8
			C871.3,495.9,872.7,496,874,497z"/>
		<path fill="#C13434" d="M880,548c0-1.2,0-2.3,0-3.8c1.2-0.1,2.4-0.1,4-0.2c0,1.5,0,2.8,0,4C882.7,548,881.3,548,880,548z"/>
		<path fill="#C13434" d="M889,548c0-1.2,0-2.3,0-3.8c1.2-0.1,2.4-0.1,4-0.2c0,1.5,0,2.8,0,4C891.7,548,890.3,548,889,548z"/>
		<path fill="#C13434" d="M879,497c0-6.3,0-12.7,0-19c1.6,0,3.2,0,5,0c0-1.5,0-2.7,0-4c14,0,28,0,42,0c2.7,5.7,1.6,11.5,0.8,17.3
			c-0.3,0.6-0.7,1-1.3,1.4c-6.1,1.2-12.2,1.4-18.2-0.1c-1.7-3.8-1-5.5,2.6-6.6c2.4-0.7,5-0.1,7.3-1.2c-10.3,0.9-21.1-3.4-30.8,2.9
			c-1.9,0.4-2.8-1.2-4.4-1.5c-1.8,3.4,0.7,7.7-2.1,10.8C879.7,497,879.3,497,879,497z"/>
		<path fill="#BC3233" d="M926,492c0-6,0-12,0-18c2.8,0,5.6,0,8.8,0c0.1,1.2,0.3,2.4,0.4,4c1.2,0,2.5,0,3.8,0c0.3,1,0.9,2,1,3.1
			c0.1,2.3,0,4.6,0,6.9c-3.3,0.8-6.7,1-9.1,4.1C929.8,493.6,927.6,493.5,926,492z"/>
		<path fill="#D13838" d="M926,492c1.5,0,3,0,4.8,0c0.1-1.2,0.2-2.4,0.4-3.9c2.9,0.4,5.8-2.6,8.9-0.1c0,7.6,0,15.1,0,23
			c1.4,0,2.7,0,4,0c0.9,1,1.3,2.3,1.3,3.7c0.1,7,0.2,14,0,21c0,1.2-0.3,2.3-1.3,3.5c-2.8,1.7-5.9,2-9-0.2c-1.3,0-2.5,0-3.9,0
			c0-3,0-5.8,0-8.4c-0.6-0.6-1-1-1.5-1.5c-1.1,0-2.2,0-3.6,0c0,1,0,2,0,2.9c-0.4,0.5-0.9,1.1-1.5,1.9c-2.1,0-4.6,0-7.2,0
			c-0.1-0.8-0.3-1.7-0.5-2.8c-1.4-0.8-2.9-1.6-4.8-2.6c0-10.2,0-20.8,0-31.4c3.3-2.7,7.4-0.5,10.9-1.9C924.4,494.5,925,493,926,492z
			"/>
		<path fill="#A32D2D" d="M949,511c0,10.1,0,20.2,0,30.4c0.2,2.6,3.4,0.7,4,2.6c-0.7,1.6-1.8,2.8-3,4c-0.3,0-0.7,0-1,0
			c-4.1-2.7-5.4-6.1-4.7-11.3c1.1-8.5-0.4-17.1,0.7-25.7C946.3,511,947.7,511,949,511z"/>
		<path fill="#B83232" d="M945,511c0,10.8,0,21.6,0,32.8c1.2,0.1,2.4,0.3,4,0.4c0,1.2,0,2.5,0,3.8c-4.6,0-9.2,0-14,0
			c0-3.1,0-6.1,0-9c2.9,0,5.9,0,9,0c0-9.5,0-18.8,0-28C944.3,511,944.7,511,945,511z"/>
		<path fill="#A32D2D" d="M950,548c0.4-1.3,0.7-2.5,1.2-4c0.6,0,1.2,0,1.8,0c0.3,0.4,0.9,0.7,1,1.2c0.1,0.9,0,1.9,0,2.8
			C952.7,548,951.3,548,950,548z"/>
		<path fill="#B93232" d="M982,478c-1.5,0-3,0-4.8,0c-0.1,1.5-0.2,3.1-0.3,4.8c-1.2,0-2.3,0-3.5,0c-0.5-1.5-1.1-3.1-1.6-4.7
			c-1.2,0-2.3,0-3.6,0c0,1.5,0,2.9,0,4.6c-1.7,0-3.3,0-5,0c0-1.4,0-2.8,0-4.5c-1.4,0-2.6,0-4,0c0,1.4,0,2.9,0,4.5c-1.7,0-3.3,0-5,0
			c0-1.5,0-2.9,0-4.6c-1.7,0-3.3,0-5,0c0,1.6,0,3,0,4.8c-1.4,0-2.7,0-4,0c0-2.9,0-5.9,0-9c12.5,0,24.8,0,37,0
			C982,475.3,982,476.7,982,478z"/>
		<path fill="#1C3B5A" d="M867,417c-0.7,0-1.3,0-2,0c-2.7-4.3-1.2-9.1-1.4-13.6c0-3-0.2-6,0.1-9.1c0.1-1.2,0.3-2.4,1.3-3.3
			c1.7,0,3.5,0.3,5-1c0,9,0,18,0,27c-0.7,0-1.3,0-2,0c-0.9-1.1-0.3-2.5-0.5-3.6C867.3,414.5,867.9,415.9,867,417z"/>
		<path fill="#DAB68B" d="M837,426c-1.5,0-3,0-4.5,0c-0.1,0.1-0.3,0.2-0.3,0.4c-0.1,0.1-0.1,0.3-0.1,0.4c0,9.2,0,18.3,0,27.5
			c0,0.1-0.1,0.3-0.3,0.6c-2.7,0-5.5,0-8.6,0c0-6.1,0-12.4,0-18.7c-3.1,0-5.9,0-9.1,0c0,2.9,0,5.8,0,8.8c-3.1,0-5.9,0-9.1,0
			c0-4.3,0-8.6,0-12.9c2.3-3.2,3.1-6.7,2.6-10.6c0-1.5,0.2-2.9,1-4.2c1.4-1.4,3.1-1.6,4.9-1.6c1.4,0,2.8,0,3.9,0.9
			c1.3,1,1.7,2.7,2.9,3.6c1.7,0.7,3.3,0.6,4.8,0.2c1.5-0.7,1.7-2.4,2.8-3.3c0.9-1,2.3-1.2,3.2-2.6c0.7-2.7,0.6-5.6-0.1-8.7
			c-1.8-1.5-3.7-3-5.4-4.8c-1.7-0.5-3.3-1-5.3,0.1c2.4,1.4,5.5-0.1,7.3,2.3c2.5,4.5,2.4,9,0.2,13.6c-3.1,2.1-6.3,2-9.6,0.5
			c-1.2-0.9-1.6-2.1-1.1-3.6c0.6-1.7,3.2-1.6,3.8-4.1c-2.4,0.7-2.4,3.2-4.1,3.9c-1.5,0.4-2.8,0.3-3.8-1.1c-1.6-7.5-1.3-15,0-23
			c8.2,0.2,16-0.6,23.7,0.5c0,1.3,0,2.7,0,4c0.4,0.5,1,1,1,1.7c1,9.6,0.9,19.1,0,28.7C838,425,837.5,425.5,837,426z"/>
		<path fill="#2A5681" d="M837,426c0-10.7,0-21.3,0-32c1.7,0,3.3,0,5,0c1.6-1.2,2.7-2.9,4.1-4.2c2.9-0.7,5.4-0.6,7,2.3
			c2.3-1.2,3.8-3.8,6.6-2.3c1.9,1.1,3.5,2.8,5.3,4.2c0,3,0,6,0,9c-3.6,2.5-7.7,1.2-11.6,1.4c-3.1,0.1-5.5,0.8-7,3.7
			c-3.4,3.3-4.1,8-2.3,15.2c1.6,2.8,6.4-0.4,6.7,4.2c-4.4,1.8-8.8,1.5-13.2,0.3c-0.2-0.2-0.4-0.4-0.7-0.6
			C837,426.7,837,426.3,837,426z"/>
		<path fill="#CDA87D" d="M814,417c-1.6,0-3.2,0-5,0c0,1.8,0,3.4,0,5c-1.3,1-2.6,1-4.3,0c-0.2-3-0.6-6,0.3-9c1.3,0,2.5,0,4,0
			c0-1.8,0-3.4,0-5c0-6.3,0-12.7,0-19c9.3,0,18.7,0,28,0c0,0.3,0,0.7,0,1c-7.6,0-15.2,0-23,0c0,7.8,0,15.4,0,23
			C815.1,414.3,815.1,415.7,814,417z"/>
		<path fill="#254D75" d="M865,394c-1.2,0-2.3,0-3.6,0c-0.5-1.2-1.1-2.4-1.8-3.9c-1,0-2.1,0-3.5,0c-0.1,1.1-0.2,2.3-0.3,3.7
			c-1.5,0-2.9,0-4.7,0c-0.1-1.1-0.2-2.3-0.4-3.7c-1.5,0-2.9,0-4.6,0c-0.1,1.1-0.2,2.3-0.4,3.8c-1.3,0-2.5,0-3.8,0c0-1.5,0-3,0-5
			c7.5-0.1,15.1,0,23,0c0,0.8,0,1.4,0,2C865,392,865,393,865,394z"/>
		<path fill="#2E6091" d="M819,374.9c0-1,0-2.2,0-3.6c2-0.5,4.1-0.2,6.2-0.2c2.1-0.1,4.3,0,6.6,0c0,1.3,0,2.5,0,3.9
			C827.5,374.9,823.3,374.9,819,374.9z"/>
		<path fill="#DAB68B" d="M874,497c-1.3,0-2.5,0-4,0c0,3.2,0,6.1,0,9c-3,0-6,0-9,0c0-1.2,0-2.3,0-4c-1.4-0.5-3-1-5-1.6
			c0-0.9,0-2.2,0-3.5c-1.4-1.6-1.3-3.3-0.1-5c3.2-2.2,4.7,0.3,6.7,3c-0.3-2.4-2.3-2.8-2.3-4.5c-0.7-2.3,1.8-3.3,2.4-5.4
			c-3-3.1-4.2-6.4,0.6-9.4c-3.4-3.7-5-7.5-2.2-11.8c1.2,0,2.3,0,3.5,0c1.6-0.9-0.8-3.4,1.5-4c1.3,0,2.7,0,4,0c1.2,1.5,2.5,2.8,4,4
			c0,1.6,0,3.2,0,5c1.8,0,3.4,0,5,0c0,3,0,6,0,9c-3,0.1-3,0.1-5,1.5C874,485.2,874,491.1,874,497z"/>
		<path fill="#4F3F2C" d="M810.1,551.8c0-0.9,0-1.7,0-2.7c5.6,0,11.2,0,16.8,0c0,0.9,0,1.7,0,2.7
			C821.3,551.8,815.7,551.8,810.1,551.8z"/>
		<path fill="#4F3F2C" d="M874,464c-1.3,0-2.5,0-4,0c0-1.5,0-2.7,0-4c1.3,0,2.7,0,4,0C874,461.3,874,462.7,874,464z"/>
		<path fill="#D9B58A" d="M808.8,534c-1.3,0-2.8,0-4.6,0c-0.3-1.7-0.7-3.4,1-4.7c1.1,0.3,2.2,0.7,3.6,1.1
			C808.8,531.4,808.8,532.7,808.8,534z"/>
		<path fill="#D3AE83" d="M808.9,539.1c0,1.1,0,2.4,0,3.8c-1.6,0-3,0-4.6,0c0-1.2,0-2.4,0-3.8C805.8,539.1,807.4,539.1,808.9,539.1z
			"/>
		<path fill="#DAB68B" d="M813.9,525.1c0,1.1,0,2.4,0,3.8c-1.6,0-3,0-4.6,0c0-1.2,0-2.4,0-3.8C810.8,525.1,812.4,525.1,813.9,525.1z
			"/>
		<path fill="#D9B58B" d="M813.9,519.9c-1.5,0-3,0-4.7,0c0-1.2,0-2.3,0-3.6c1.5,0,3,0,4.7,0C813.9,517.5,813.9,518.7,813.9,519.9z"
			/>
		<path fill="#DAB68B" d="M860,454c0,0.3,0,0.7,0,1c1.1,2.7,0,5.5,0.6,8.3c-2.9,2.6-3.3,5.8-3.2,9.4c0.1,3.1,0.4,6.2-0.5,9.3
			c-0.2,0.5-0.5,1-0.9,1.4c-1,0.8-2.4,1.1-3.1,2.3c-1.6,3.6,0.7,7.9-2,11.3c-4.7,0-9.3,0-14,0c0-1.5,0-3,0-4.8
			c1.5-0.1,3.1-0.2,5-0.3c0-1.3,0-2.6,0-3.8c1.2,0,2.3,0,3.5,0c0.4-0.5,0.9-0.9,1.4-1.5c0-5.7,0-11.4,0-17.5c-1.7,0-3.3,0-4.9,0
			c0-1.7,0-3.3,0-5c0.6-1,2.1-1,2.7-2.5c-0.9-1.8-4.7-2.4-3.3-5.6c0.5-1.9,2.9-1.7,3.5-3.4c-0.3-1.6-2.2-1.4-2.9-2.6
			c0-1.3,0-2.7,0-4c-0.2-1.4,0.8-1.9,1.7-1.7c3.9,0.7,7.8-0.4,11.6,0.5c0.4,0.3,0.7,0.6,1,0.9c0.6,1.9,2.1,3.1,3.6,4.3
			C860,451.3,860,452.7,860,454z"/>
		<path fill="#29537D" d="M856,446c-0.5-0.3-1.1-0.6-1.7-1c-3.1,1.2-6.3,1.7-9.7,0.2c-0.9-0.4-2.2-1.1-2.7,0.8c-2.9,0-5.8,0-9,0
			c0-3.5,0-6.7,0-10c3.2-2.5,7.1-0.6,11.3-2c-2.2-0.8-4-0.4-5.4-1c-1.1-0.4-2.8-0.7-1.4-2.6c4.2-1.6,8.6-0.8,12.9-0.7
			c2.4,0.2,4.8,1.5,7.1,0.2c2.3-2.3-0.2-6.3,3-8.1c1.7,1,1.8,2.7,1.9,4.3c0.2,6.4,0.6,12.9-1.8,18.5C859,446.2,857.5,446.3,856,446z
			"/>
		<path fill="#D2AD82" d="M842,450c1.5,0,3,0,4.8,0c0.1,1.5,0.2,3.1,0.3,5c-1.7,0-3.3,0-5,0c0,1.4,0,2.6,0,3.8c1.1,0,2.2,0,3,0
			c2.1,1.3,2.1,3.1,1.6,5.2c-1.5,0-3.2,0-4.8,0c-1.4-1.9-3.6-2.6-5.1-3.9c-1.2-1.9-1.2-3.6,0.1-5.1c0-1.6,0-3.2,0-5
			C838.8,450,840.4,450,842,450z"/>
		<path fill="#2E6091" d="M837,431c0.4,0.3,0.8,0.9,1.3,1c2.8,0.1,5.6,0,8.5,0c0,1.3,0,2.6,0,4c-4.7,0-9.2,0-13.8,0c0-2.9,0-5.8,0-9
			c1.5,0,2.7,0,4,0C838.1,428.3,838.1,429.7,837,431z"/>
		<path fill="#DAB68B" d="M837,455c0,1.5,0,3,0,4.8c1.5,0.1,3.1,0.2,5,0.3c0,1.3,0,2.6,0,3.8c-2.8,0-5.6,0-8.9,0
			c-0.2-2.9,0-5.8-0.1-9C834.4,455,835.7,455,837,455z"/>
		<path fill="#C3A078" d="M805,413c0,2.9,0,5.8,0,9c1.5,0,2.7,0,4,0c0,2.8,0,5.6,0,8.5c-0.9,1.6-3.4-0.8-4,1.5c-0.3,0-0.7,0-1,0
			c0-5.7,0-11.5,0-17.2C804,414,803.7,413,805,413z"/>
		<path fill="#253F5A" d="M795,455c0-1.6,0-3.2,0-5c1.5,0,2.7,0,4,0c0.3,0,0.7,0,1,0c0,1.3,0,2.7,0,4C798.5,455.3,796.7,455,795,455
			z"/>
		<path fill="#CEA97E" d="M851,497c0-4.6,0-9.1,0-14c1.8,0,3.4,0,5,0c0.6,0.4,0.8,1.2,1.5,1.5c-0.4-0.7-1.1-1-1.5-1.5
			c0-6.2,0-12.3,0-18.8c1.2-0.1,2.4-0.3,4-0.4c0-2.9,0-5.9,0-8.8c0.3,0,0.7,0,1,0c0,3,0,6,0,9c0,2.8,0,5.6,0,8.7
			c1.2,0.1,2.4,0.3,3.8,0.4c0,1.4,0,2.9,0,4.6c-1.1,0.1-2.3,0.2-3.7,0.3c0,1.5,0,2.9,0,4.7c1.1,0.1,2.4,0.2,3.7,0.3
			c0,1.2,0,2.3,0,3.5c-0.4,0.4-0.9,0.9-1.4,1.4c-0.7,0-1.3,0-2.3,0c-0.1,1.2-0.1,2.4-0.2,3.9c1.3,0,2.4,0,3.8,0c0,1.7,0,3.3,0,4.9
			c-1.6,0.2-3.2,0.9-4.6-1.4c0-0.6,0-1.7,0-3.2c-1.4-0.1-2.6-0.2-4.2-0.3c0,1.8,0,3.4,0,5C854.3,497,852.7,497,851,497z"/>
		<path fill="#1C3A59" d="M912,408c0-1.5,0-3,0-4.8c1.7-0.4,3.4-0.8,4.9,1.2c0,0.9,0,2,0,3.4c1.4,0.1,2.6,0.2,4.1,0.3
			c0,4.7,0,9.3,0,13.9c-2.9,0-5.9,0-9,0C912,417.2,912,412.6,912,408z"/>
		<path fill="#2E5F91" d="M846,408c0.1-3,0.1-3,1.5-5c5.8,0,11.7,0,17.5,0c0,4.7,0,9.3,0,14c-3.3,0-6.7,0-10,0c-1,1-2.2,1.1-3.5,0.7
			c-0.4-0.2-0.8-0.5-1.1-0.9c-1.3-2.7,0.7-7.1-4-8.2C846.3,408.3,846.1,408.2,846,408z"/>
		<path fill="#1C3B5A" d="M851,417c1.3,0,2.7,0,4,0c0.4,0.3,0.9,0.9,1.3,1c2.8,0.1,5.6,0,8.7,0c0,8.5,0,16.7,0,25c0,0.5,0,1,0,1.5
			c-0.6,1.4-2.8-0.6-3,1.5c-0.3,0.3-0.7,0.7-1,1c-0.3,0-0.7,0-1,0c-1.5,0.3-2.9,0.1-4-1c0.7-2.1,2.6-0.4,3.8-1.3
			c0.4-3.3,1-6.7,1.2-10.1c0.2-3.6,0.1-7.2,0-10.8c0-0.7,0.4-1.7-1-1.8c-3.1,2.2-6.1,1.7-9,0.4C849.7,420.3,849.6,418.6,851,417z"/>
		<path fill="#1C3A59" d="M867,417c0-1.3,0-2.6,0-4.8c1.4,2.1,0.8,3.5,1,4.8C867.7,417,867.3,417,867,417z"/>
		<path fill="#1C3A59" d="M856,446c0.9,0,1.9-0.1,2.8,0c0.4,0.1,0.8,0.6,1.2,1c0,1,0,2,0,3c-1.3,0-2.5,0-4,0
			C856,448.5,856,447.3,856,446z"/>
		<path fill="#A32D2D" d="M926,492c0,1.6,0,3.2,0,5c-4.9,0-9.4,0-14,0c-1.7,0-3.3,0-5,0c-1.3-1.7-1.5-3.3,0-5
			C913.3,492,919.7,492,926,492z"/>
		<path fill="#D13838" d="M907,492c0,1.7,0,3.3,0,5c-1.2,0-2.3,0-3.5,0c-1.8,4.5-1.5,9.2-1.5,13.9c0,6.2,0,12.3,0,18.5
			c0,1.4-0.3,2.7,0.8,4.2c1.2,1.7-1,3.5-0.8,5.5c-1.3,0-2.7,0-4,0c-1.1-0.8-1.5-2.2-2.7-2.9c-2.3-1.2-5.4-0.2-7.3-2.6
			c-1.2-1.7-0.6-3.5-0.6-5.3c0-2,0.2-4.4-1.4-5.7c-3.8-3.1-3.5-7.2-3.5-11.4c0-3,0.1-6,0-9c-0.1-2.1-0.8-3.9-2.5-5.2
			c0-4.5,0-9,0-13.8c1.2-0.1,2.5-0.1,3.9-0.2c0,1.4,0,2.5,0,3.8c1.3,0,2.4,0,3.8,0c0.4-0.9,1-2.2,1.7-3.6c10.3,0,20.7,0,31.4,0
			c0,1.1,0,2.3,0,3.6c-4.4,0.9-9.1-1-13.8,1.6C907,489.4,907,490.7,907,492z"/>
		<path fill="#C13434" d="M880,497c1.2,0,2.3,0,3.8,0c0.4,7.5,0,15.1,0.2,22.8c1.2,0,2.3,0,3.7,0c0.4,4.3,3,8.3,0.1,12.4
			c0.6,0.6,1.1,1.1,1.7,1.7c2.6,0,5.4,0,8.5,0c0,1.8,0,3.4,0,5c0,1.2,0,2.3,0,3.5c-2.4,1.9-2.4,1.9-5,0.1c0-1,0-2.1,0-3.4
			c-1.3,0-2.4,0-3.9,0c-0.7,1.5-1.6,3.2-2.4,4.9c-3.3-0.5-2.6-2.8-2.8-5c-1.2,0-2.5,0-3.9,0C880,524.8,880,510.9,880,497z"/>
		<path fill="#802525" d="M930.9,502.4c0,2.9,0,5.7,0,8.5c-3.2,0-6.3,0-9.6,0c0-1.5,0-3.1,0-4.8c1.5,0,2.9,0,4.7,0c0-1.7,0-3.3,0-5
			c1.4,0,2.6,0,3.7,0C930.1,501.6,930.5,502,930.9,502.4z"/>
		<path fill="#C4A278" d="M828,417c0-3.6,0.1-7.3,0-10.9c0-1-0.6-2-1-3.1c-1.1-1.3-1.1-2.7,0-4c0.9,1.6,1,1.9,1.2,3.8
			c1.1,0,2.2,0,3.2,0c0.6,0.6,1.1,1.1,1.6,1.6c0,4.1,0,8.2,0,12.6C831.2,417,829.6,417,828,417z"/>
		<path fill="#C4A278" d="M818,417c3.3,0,6.7,0,10,0c0,1.5,0,3,0,4.8c-1.6,0.1-3.2,0.1-4.8,0.2c-1.6,0-3.3,0-5.2,0
			C818,420.2,818,418.6,818,417z"/>
		<path fill="#C09E75" d="M827,399c0,1.3,0,2.7,0,4c-2.8,0-5.6,0-8.8,0c-0.1-1.2-0.1-2.4-0.2-4C821.1,399,824.1,399,827,399z"/>
		<path fill="#C4A278" d="M818.1,412.9c0-1.5,0-3.1,0-4.8c1.6,0,3,0,4.6,0c0,1.5,0,3.1,0,4.8C821.2,412.9,819.6,412.9,818.1,412.9z"
			/>
		<path fill="#C4A278" d="M814,417c0-1.3,0-2.7,0-4c1.3,0,2.7,0,4,0c0,1.3,0,2.7,0,4C816.7,417,815.3,417,814,417z"/>
		<path fill="#2E5F91" d="M851,417c0,1.6,0,3.2,0,5c3.2,0,6.1,0,9,0c0,3.2,0,6.5,0,10.1c-3.2-0.5-6.2,0.7-9-1.1
			c-1.1-1.3-1.1-2.7,0-4c-0.4-0.3-0.8-0.9-1.3-1c-2.4-0.1-4.9,0-7.5,0c0-6,0-11.8,0-18c1.3,0,2.5,0,3.8,0c1.7,1.7,1,4.1,1.7,6.1
			C848.3,415.6,850,415.9,851,417z"/>
		<path fill="#1C3A59" d="M851,427c0,1.3,0,2.7,0,4c-4.7,0-9.3,0-14,0c0-1.3,0-2.7,0-4C841.7,427,846.3,427,851,427z"/>
		<path fill="#DAB68B" d="M856.1,483.1c1.1,0,2.4,0,3.8,0c0,1.2,0,2.3,0,3.6c-1.2,0-2.4,0-3.8,0
			C856.1,485.5,856.1,484.3,856.1,483.1z"/>
		<path fill="#1D3D5D" d="M851,417c-1.6,0-3.2,0-5,0c0-3.2,0-6.1,0-9c1.6,0,3.2,0,5,0C851,411.2,851,414.1,851,417z"/>
	</g>
</g>
<g>
	<g>
		<path fill="#FEFEFE" d="M581,606c-21.3,0-42.7,0-64,0c0-21.3,0-42.7,0-64c21.3,0,42.7,0,64,0C581,563.3,581,584.7,581,606z
			 M571,600c0-0.7-0.3-1-1-1c0.1-0.9-0.5-1-1.2-1c-0.9,0-1.9,0-2.8,0c-0.1-1.2,0-2.3-0.9-3.5c-1.2-1.6-3.1-3.1-3.1-5.5
			c0.8,0,1.6,0,2.5,0c0.8-0.8,1.7-1.7,2.5-2.5c0-1,0-1.7,0-2.5c0-0.3,0-0.7,0-1c0.6-2.6-1.5-4.9-1-7.5c-1.1-0.7-1.5-2.2-3-2.5
			c0-0.5,0-1,0-1.6c-1.2-0.5-2.5-1.1-3.3-1.5c-1.5-1.9-2.1-4.1-4.7-3.9c-0.1-0.9,0.7-0.8,1.2-1c2.3-1.2,4.6-2.4,5.8-5
			c0.6,0.1,0.8-0.3,1-0.8c1.2-2,0.7-4.6,2.1-6.5c-2.9-1.3-4.5-3.8-6.7-5.7c-1.6,0-3.5-0.5-4.9,0.1c-2.1,0.9-5.9,0-5.6,4.3
			c0,0.7-1.2,1.4-1.9,2.1c0,1.8,0,3.6,0,5.5c-0.7,0-1,0.3-1,1c-1-0.7-2-1.3-3-2c0.3-3.6-1.9-6.9-0.9-10.4c-0.6-0.6-1.1-1.1-1.5-1.5
			c-1.6,0-3,0-4.3,0c-0.6,0.8-1.5,1.1-1.3,2.3c0.2,0.3,0.6,0.7,0.9,1c-0.4,1-1.8,1.3-1.9,3c1.6,1.6,0,4.8,2.6,6.5c0.8,0,1.6,0,2.5,0
			c-0.6,1.6-2.1,2.3-3.1,3.6c-0.3,0.4-0.5,0.5-0.9-0.2c-0.1-0.4-0.8-0.5-1-0.5c-1.3,1-2.3,1.8-3,2.4c0,1.7,0,3,0,4.2
			c0.7,0.4,0.9,1.4,1.9,1.4c0.5,2.1,2.7,2,4,3.1c1.8-1.7,4-1,6-1.1c0.3,0,0.7,0,1,0c-0.1,1.3,0.4,2.6-0.9,3.5c0.3,0.4,0.6,0.7,1,1.1
			c0.1,1.4-1.8,2.1-1,3.6c0.2,0.5,0.4,0.9,1,0.8c-0.3,0.7-0.7,1.3-1,2c-1.1,1.3-2,3.1-3.3,3.7c-1.9,0.8-3.4,2.2-4.3,3.7
			c-1.5,2.5-3.9,4.2-5.3,6.7c0,0.3,0,0.7,0,1c-1.6,0-3.2,0-5.1,0c1.2,2.3,3.6,2.3,5,3.4c0.1,0.5,0.2,1,0.3,1.5
			c1.7,0,3.3,0.3,4.8-0.2c0-0.7,0-1.2,0-1.7c1.3-1.7,2.4-3.6,3.8-5.4c2-2.5,5-3.6,7.2-5.6c2.7,0,5.3,0,8,0c0.2,1.2,1.3,2.3,2.1,2.5
			c2.2,0.6,2.8,2.3,3.9,4.5c0,0.7,0,2,0,3.3c0,0.5,0.4,0.9,1,0.8c0,0.6,0,1.2,0,2c1.5,0,2.8,0,4,0c2.6-0.1,5.3,0.3,8.5-0.4
			c-0.9-0.4-1.2-0.5-1.5-0.6C571,601.3,571,600.7,571,600z"/>
		<path fill="#2E6091" d="M555,566c2.7-0.1,3.3,2,4.7,3.9c0.8,0.4,2,0.9,3.3,1.5c0,0.6,0,1.1,0,1.6c-1.4,0.6-2.4,1.6-3,3
			c-1,0-1.2-1-1.9-1.4c-0.4-1.2,0.3-2.5-0.6-3.6c-1.4,1.9-1.7,3.9-1.5,6c0,0.3,0,0.7,0,1c-1.9,0.5-0.6,2-1,3c0,0.7,0.3,1,1,1
			c0,0.3,0,0.7,0,1c0,0.7,0,1.3,0,2c-1,0.2-2,0-3.2,0.5c-1.5,0.7-3.4,1.5-4.8-0.5c0-0.5,0-1,0-1.8c-1.4-0.1-2.6-0.7-3-2.2
			c0-2.6,0.2-5.3-0.1-7.9c-0.1-1.3,0.9-2,1.1-3.1c1.5-1.8,0.9-4,1-6c1,0,2,0,3,0C550.8,566.8,553.1,565.8,555,566z"/>
		<path fill="#313B45" d="M548,585c1.4,2,3.4,1.2,4.8,0.5c1.1-0.5,2.1-0.3,3.2-0.5c0.3,0,0.7,0,1,0c1.3,1,2.7,2,4,3c0.7,0,1,0.3,1,1
			c0,2.4,1.9,3.8,3.1,5.5c0.9,1.2,0.8,2.3,0.9,3.5c-0.7,0.3-1.3,0.7-2,1c-1.4-0.8-2.4-1.8-3.1-3.4c-1.1-2.6-2.8-5.1-5.7-6
			c0.1-0.8,1.1-0.8,0.5-1.4c-0.9-0.2-1.9-0.6-2.7,0.3c0,0.5,0,1,0,1.5c-2.7,0-5.3,0-8,0c-0.8-1.8-2-1.1-3-0.4
			c-3.4,2.2-6.4,4.7-8.2,8.3c-2,1-3.1-1.3-4.8-0.8c1.4-2.5,3.8-4.2,5.3-6.7c0.9-1.5,2.4-2.8,4.3-3.7c1.4-0.6,2.2-2.4,3.3-3.7
			c1.2,0.2,1.6,1.4,2.6,2C545.7,585,546.9,585,548,585z"/>
		<path fill="#DAB68B" d="M547,564c-0.1,2,0.5,4.2-1,6c-0.9,0.1-2.1-0.4-2,1.2c0,0.5-0.4,0.9-1,0.8c-0.3,0-0.7,0-1,0
			c-0.2-2,2.1-3.7,0.6-5.9c-2.1,1.9-4.3,3.7-7.4,2.7c-0.5-1.6,0.4-3.3-0.8-4.8c-0.8,2.1-1.6,4.1-2.4,6.1c-1,0.1-1.2-1-1.9-1.4
			c0-1.3,0-2.6,0-4.2c0.7-0.6,1.7-1.4,3-2.4c0.2,0,0.8,0.1,1,0.5c0.4,0.6,0.6,0.5,0.9,0.2c1-1.2,2.5-2,3.1-3.6c0.9,0,1.9,0,2.8,0
			c0.7,0,1.2-0.1,1.2-1c1,0.7,2,1.3,3,2C545.7,561.3,546.3,562.7,547,564z"/>
		<path fill="#1D1C1A" d="M546,559c0-1.8,0-3.6,0-5.5c0.7-0.7,1.9-1.5,1.9-2.1c-0.2-4.3,3.5-3.4,5.6-4.3c1.4-0.6,3.3-0.1,4.9-0.1
			c2.2,1.8,3.8,4.4,6.7,5.7c-1.5,1.9-0.9,4.5-2.1,6.5c-0.3,0.4-0.4,0.9-1,0.8c0-1,0-2,0-3c0.1-1-1-1.2-1.4-2c-2,0-4.1,0-6,0
			c-1.3-0.7-1.6-2.6-3.6-1.7c0,0.8,0,1.8,0,2.7c0,0.5-0.1,0.9-0.7,0.8c-0.8-0.4,0.3-1.8-2-1.8c-0.2,0-0.7,0.9-1.3,1.6
			c0,0.8,0,1.6,0,2.4C546.7,559,546.3,559,546,559z"/>
		<path fill="#DAB68B" d="M562,557c0,1,0,2,0,3c-1.2,2.5-3.5,3.8-5.8,5c-0.5,0.3-1.3,0.1-1.2,1c-1.9-0.2-4.2,0.8-5-2
			c-0.7-1-1.3-2-2-3c0.3-0.6,0.6-1.1,1-2c-0.9,0-1.4,0-2,0c0-0.8,0-1.6,0-2.4c0.7-0.6,1.1-1.5,1.3-1.6c2.3,0,1.2,1.5,2,1.8
			c0.6,0.1,0.7-0.3,0.7-0.8c1.7-0.5,2.9,1,4.5,1c1.7,0,3.5-0.2,4.7,1.2C561,557.7,561.2,556.9,562,557z"/>
		<path fill="#DAB68B" d="M538,559c-0.8,0-1.7,0-2.5,0c-2.5-1.7-1-4.9-2.6-6.5c0.1-1.7,1.5-2,1.9-3c-0.3-0.4-0.6-0.7-0.9-1
			c-0.2-1.1,0.7-1.5,1.3-2.3c1.3,0,2.8,0,4.3,0c0.4,0.4,0.8,0.8,1.5,1.5c-1.1,3.5,1.1,6.8,0.9,10.4c-0.9,0-1.9,0-2.8,0
			C538.5,558,537.9,558.1,538,559z"/>
		<path fill="#CDA87D" d="M562,589c0-0.7-0.3-1-1-1c0-0.8,0-1.6,0-2.8c0.9-0.8,2-1.7,3-2.5c0.3-2.6-1.2-3.7-3-4.7
			c-0.3-0.7-0.7-1.3-1-2c0.6-1.4,1.6-2.4,3-3c1.4,0.3,1.9,1.7,3,2.5c-0.5,2.6,1.6,4.9,1,7.5c-0.3,0.1-0.8,0.2-0.8,0.3
			c-0.1,0.6,0.3,0.7,0.8,0.7c0,0.8,0,1.6,0,2.5c-0.8,0.8-1.7,1.7-2.5,2.5C563.6,589,562.8,589,562,589z"/>
		<path fill="#CCA87C" d="M532,570c0.8-2,1.6-4,2.4-6.1c1.2,1.6,0.2,3.3,0.8,4.8c3.1,1.1,5.3-0.8,7.4-2.7c1.5,2.2-0.8,3.9-0.6,5.9
			c-2.1,0.1-4.2-0.6-6,1.1C534.7,572,532.5,572.1,532,570z"/>
		<path fill="#252C33" d="M529,597c1.7-0.5,2.8,1.8,4.8,0.8c1.7-3.5,4.8-6.1,8.2-8.3c1.1-0.7,2.3-1.4,3,0.4c-2.3,2-5.2,3.1-7.2,5.6
			c-1.4,1.7-2.4,3.6-3.8,5.4c-2.3,0-3.4-1.9-5-3C529,597.7,529,597.3,529,597z"/>
		<path fill="#252C33" d="M553,590c0-0.5,0-1,0-1.5c0.8-0.9,1.8-0.5,2.7-0.3c0.5,0.7-0.4,0.7-0.5,1.4c2.8,0.9,4.5,3.4,5.7,6
			c0.7,1.6,1.7,2.6,3.1,3.4c0,1.3-1,0.9-1.8,1c-0.8,0.2-2.1-0.7-2.2,1c-0.6,0.1-1-0.3-1-0.8c-0.1-1.3,0-2.6,0-3.3
			c-1.1-2.2-1.7-3.9-3.9-4.5C554.3,592.3,553.2,591.2,553,590z"/>
		<path fill="#D13838" d="M529,598c1.6,1.1,2.7,3,5,3c0,0.5,0,1,0,1.7c-1.5,0.6-3.1,0.2-4.8,0.2c-0.1-0.6-0.2-1-0.3-1.5
			c-1.5-1.1-3.8-1.1-5-3.4C525.8,598,527.4,598,529,598z"/>
		<path fill="#99CEBC" d="M543,572c0.6,0.1,1-0.3,1-0.8c0-1.7,1.2-1.2,2-1.2c-0.2,1.1-1.2,1.8-1.1,3.1c0.2,2.6,0.1,5.3,0.1,7.9
			c-0.7,0-1.3,0-2,0c-0.6,0.1-0.8-0.3-1-0.8c-0.7-1.5,1.1-2.3,1-3.6c-0.3-0.3-0.6-0.7-1-1.1C543.4,574.6,542.9,573.3,543,572z"/>
		<path fill="#D13838" d="M560,601c0.2-1.6,1.4-0.8,2.2-1c0.7-0.2,1.7,0.3,1.8-1c0.7-0.3,1.3-0.7,2-1c0.9,0,1.9,0,2.8,0
			c0.7,0,1.2,0.1,1.2,1c-1,0.4-2.5-0.9-3,1c-1.4,0.6-2.4,1.6-3,3c-1.2,0-2.5,0-4,0C560,602.2,560,601.6,560,601z"/>
		<path fill="#2C5781" d="M543,581c0.7,0,1.3,0,2,0c0.4,1.6,1.6,2.1,3,2.2c0,0.8,0,1.3,0,1.8c-1.1,0-2.3,0-3.4,0
			c-1-0.6-1.4-1.8-2.6-2C542.3,582.3,542.7,581.7,543,581z"/>
		<path fill="#FEFEFE" d="M548,561c0.7,1,1.3,2,2,3c-1,0-2,0-3,0c-0.7-1.3-1.3-2.7-2-4c0-0.7,0.3-1,1-1c0.3,0,0.7,0,1,0
			C547.2,559.8,546.5,560.9,548,561z"/>
		<path fill="#EAEAEA" d="M564,603c0.6-1.4,1.6-2.4,3-3c0,0.6,0,1.2,0,2c1.5,0,2.8,0,4,0c0.3,0.1,0.6,0.2,1.5,0.6
			C569.3,603.3,566.6,602.9,564,603z"/>
		<path fill="#FEFEFE" d="M571,602c-1.2,0-2.5,0-4,0c0-0.8,0-1.4,0-2c1.3,0,2.7,0,4,0C571,600.7,571,601.3,571,602z"/>
		<path fill="#EAEAEA" d="M571,600c-1.3,0-2.7,0-4,0c0.5-1.9,2-0.6,3-1C570.7,599,571,599.3,571,600z"/>
		<path fill="#FEFEFE" d="M567,584c-0.5,0-0.9-0.1-0.8-0.7c0-0.2,0.5-0.2,0.8-0.3C567,583.3,567,583.7,567,584z"/>
		<path fill="#FEFEFE" d="M561,578c1.8,0.9,3.3,2,3,4.7c-0.9,0.8-2,1.7-3,2.5c0,1.2,0,2,0,2.8c-1.3-1-2.7-2-4-3
			c-0.2-0.8,0.5-1.9-1-2c0-0.3,0-0.7,0-1s0-0.7,0-1c0-1,0-2,0-3c0-0.3,0-0.7,0-1c0.8,0.2,1-0.7,1.6-0.9c0.8,1,0.7,2.9,2.7,2.9
			C560.7,578.9,561.1,578.6,561,578z"/>
		<path fill="#2C5781" d="M561,578c0.1,0.6-0.3,0.9-0.8,1c-2,0-1.8-1.9-2.7-2.9c-0.6,0.2-0.8,1.1-1.6,0.9c-0.2-2.1,0.1-4.1,1.5-6
			c0.9,1.1,0.2,2.5,0.6,3.6c0.7,0.4,0.9,1.4,1.9,1.4C560.3,576.7,560.7,577.3,561,578z"/>
		<path fill="#2C5781" d="M556,578c0,1,0,2,0,3c-0.3,0-0.7,0-1,0C555.4,580,554.1,578.5,556,578z"/>
		<path fill="#2C5781" d="M556,583c1.5,0.1,0.8,1.2,1,2c-0.3,0-0.7,0-1,0C556,584.3,556,583.7,556,583z"/>
		<path fill="#FEFEFE" d="M555,581c0.3,0,0.7,0,1,0c0,0.3,0,0.7,0,1C555.3,582,555,581.7,555,581z"/>
		<path fill="#DAB68B" d="M538,559c-0.1-0.9,0.5-1,1.2-1c0.9,0,1.9,0,2.8,0c0.1,0.9-0.5,1-1.2,1C539.9,559,538.9,559,538,559z"/>
		<path fill="#CBA679" d="M562,557c-0.8-0.1-1,0.7-1.9,1.1c-1.2-1.3-2.9-1.1-4.7-1.2c-1.5,0-2.8-1.5-4.5-1c0-0.9,0-1.9,0-2.7
			c2-0.9,2.4,1,3.6,1.7c1.8,0,3.9,0,6,0C561,555.8,562.1,556,562,557z"/>
		<path fill="#1D1C1A" d="M548,561c-1.5-0.1-0.8-1.2-1-2c0.6,0,1.2,0,2,0C548.6,559.9,548.3,560.4,548,561z"/>
	</g>
</g>
<g>
	<g>
		<path fill="#FEFEFE" d="M1143,269c170.7,0,341.3,0,512,0c0,170.7,0,341.3,0,512c-170.7,0-341.3,0-512,0
			C1143,610.3,1143,439.7,1143,269z M1287,389c0,5.2,0,10.5,0,16c2.8,0,5.4,0,8,0c0,2.7,0,5.3,0,8c-5.3,0-10.5,0-16.1,0
			c0,2.8,0,5.4,0,8.1c-2.8,0-5.2,0-7.9,0c0,5.4,0,10.7,0,15.9c-5.3,0-10.6,0-16.2,0c0,2.9,0,5.5,0,8.2c-2.8,0-5.2,0-7.6,0
			c0,13.4,0,26.6,0,40c2.7,0,5.1,0,7.9,0c0,2.7,0,5.3,0,7.8c2.8,0,5.3,0,7.8,0c0,2.6,0,5.2,0,8.1c5.5,0,10.7,0,16,0
			c0,2.7,0,5.2,0,7.9c2.7,0,5.3,0,8,0c0,2.6,0,5.2,0,7.8c10.9,0,21.4,0,32.1,0c0-2.6,0-5.1,0-7.8c8.1,0,16,0,23.9,0
			c0,7.9,0,15.9,0,24.2c-2.9,0-5.5,0-8,0c0,18.8,0,37.3,0,55.8c-2.6,0-5.2,0-8,0c0,8.2,0,16.1,0,24c0,2.6,0,5.2,0,8.2
			c-2.9,0-5.5,0-8.2,0c0,2.8,0,5.3,0,7.9c-2.6,0-5.1,0-7.9,0c0,2.7,0,5.3,0,8c-5.5,0-10.6,0-16,0c0,2.7,0,5.3,0,8c-2.8,0-5.2,0-8,0
			c0,2.7,0,5.3,0,8c-2.8,0-5.3,0-7.9,0c0,2.8,0,5.4,0,8.1c0,2.6,0.2,5.2-0.2,7.9c-2.8,0-5.2,0-7.9,0c0,2.6,0,5.1,0,7.9
			c-2.7,0-5.3,0-8,0c0,2.8,0,5.2,0,8c-2.7,0-5.3,0-8,0c0,2.8,0,5.2,0,8c-2.7,0-5.3,0-8,0c0,2.8,0,5.3,0,8c-2.7,0-5.3,0-7.9,0
			c0,2.8,0,5.3,0,7.8c0,2.7,0,5.3,0,8c-13.3,0-26.5,0-40.1,0c0.3,2.9-0.2,5.5,0.3,8c5.5,0,10.6,0,15.8,0c0,2.6,0,5.2,0,8
			c2.8,0,5.4,0,8,0c0,2.6,0,5.2,0,8.2c2.9,0,5.5,0,7.8,0c0,2.8,0,5.2,0,8c-16,0-31.9,0-47.7,0c0,2.7,0,5.2,0,7.8
			c21.4,0,42.6,0,63.9,0c2.7,0,5.3,0,8,0c0,2.6,0,5.2,0,8c10.6,0,20.9,0,31.2,0c0.1,0,0.3-0.1,0.4-0.2c0.1-0.1,0.3-0.2,0.3-0.3
			c0-2.5,0-5,0-7.5c0-8,0-16,0-24c0-2.6,0-5.2,0-8c2.8,0,5.3,0,8.1,0c0-5.4,0-10.6,0-16.1c2.8,0,5.3,0,8.1,0c0-2.7,0-5.3,0-8.1
			c2.8,0,5.3,0,8.1,0c0-2.7,0-5.3,0-8c2.8,0,5.3,0,7.9,0c0-2.6,0-5.1,0-7.9c2.7,0,5.3,0,8.1,0c0-2.8,0-5.3,0-8.1c2.7,0,5.3,0,8.1,0
			c0-2.8,0-5.3,0-7.9c2.8,0,5.5,0,8.1,0c2.6,0,5.2,0.1,7.9-0.1c0-2.9,0-5.4,0-8c5.3,0,10.4,0,15.9,0c0-2.7,0-5.3,0-7.8
			c21.5,0,42.6,0,64,0c0,2.7,0,5.3,0,8c2.8,0,5.3,0,8.1,0c0,2.7,0,5.3,0,8c5.5,0,10.6,0,15.9,0c0,2.6,0,5.1,0,7.9c2.7,0,5.3,0,8.1,0
			c0,2.8,0,5.3,0,8.1c2.7,0,5.3,0,8.1,0c0,5.5,0,10.6,0,16.1c2.7,0,5.3,0,7.9,0c0,10.8,0,21.3,0,31.8c0,8,0,16,0,24
			c0,2.6,0,5.2,0,7.8c14.2,0.6,35.9,0.4,40-0.3c0-2.5,0-5,0-7.5c21.3,0,42.5,0,63.8,0c0-2.8,0-5.4,0-8.1c-13.3,0-26.4,0-39.5,0
			c0-2.7,0-5.3,0-8c2.7,0,5.1,0,7.9,0c0-2.7,0-5.3,0-8c8.1,0,15.9,0,23.9,0c-0.1-2.7,0.1-5.3-0.2-7.8c-2.9,0-5.4,0-7.9,0
			c0-2.6,0-5.2,0-8c-10.9,0-21.4,0-32,0c0-5.3,0-10.6,0-16c-2.8,0-5.2,0-8,0c0-5.4,0-10.6,0-16c-2.8,0-5.3,0-8,0c0-2.7,0-5.3,0-8
			c-2.8,0-5.3,0-8,0c0-5.4,0-10.6,0-16c-2.8,0-5.3,0-7.7,0c-0.5-2.7,0.3-5.4-0.5-8c-2.6,0-5.1,0-7.7,0c0-5.3,0-10.4,0-15.9
			c-2.7,0-5.3,0-8,0c0-2.8,0-5.3,0-8c-2.7,0-5.3,0-8,0c0-2.8,0-5.3,0-7.9c-2.8,0-5.4,0-8.1,0c-2.6,0-5.2,0.2-7.8-0.1
			c0-2.9,0-5.4,0-7.9c0-5.3,0-10.6,0-15.8c-2.9-0.6-5.5,0.3-8.2-0.6c0-2.6,0-5,0-7.6c-2.6,0-5.1,0-7.6,0c0-2.7,0-5.3,0-8
			c2.7,0,5.1,0,7.9,0c0-10.7,0-21.3,0-32c2.8,0,5.2,0,8,0c0-2.7,0-5.3,0-7.8c2.8,0,5.2,0,8,0c0,5.4,0,10.6,0,16c2.8,0,5.2,0,8,0
			c0,2.7,0,5.3,0,7.9c2.8,0,5.3,0,7.8,0c2.7,0,5.3,0,8,0c2.6,0,5.2,0,8.1,0c0,2.9,0,5.4,0,8.1c2.8,0,5.2,0,8,0c0,2.7,0,5.3,0,8
			c2.8,0,5.2,0,7.9,0c0,5.4,0,10.7,0,15.9c-2.6,0-5.2,0-8,0c0,2.8,0,5.4,0,8c-2.6,0-5.2,0-7.8,0c0,8.2,0,16.1,0,24.1
			c2.7,0,5.1,0,7.9,0c0,2.7,0,5.3,0,7.9c7.9,0,15.6,0,23.2,0c0.1,0,0.3-0.1,0.4-0.2c0.1-0.1,0.2-0.2,0.3-0.4c0-2.5,0-5,0-7.5
			c2.6,0,5.2,0,7.9,0c0-8.1,0-15.9,0-24.1c-2.7,0-5.3,0-7.8,0c0-2.8,0-5.3,0-8.1c2.7,0,5.3,0,7.7,0c0-10.8,0-21.3,0-31.7
			c-2.7-0.5-5.4,0.3-8-0.5c0-8,0-15.7,0-23.7c-2.6,0-5.1,0-7.9,0c0-5.4,0-10.7,0-16.1c-2.8,0-5.3,0-8.1,0c0-2.7,0-5.3,0-7.9
			c-2.9,0-5.4,0-7.9,0c0-5.3,0-10.6,0-16c-3,0-5.6,0-8.3,0c-2.6,0-5.2,0.1-7.9-0.1c0-2.9,0-5.4,0-8c-5.3,0-10.4,0-15.9,0
			c0-2.7,0-5.3,0-8c-2.8,0-5.3,0-8,0c0-5.4,0-10.6,0-16c-5.5,0-10.6,0-16,0c0-2.7,0-5.3,0-7.9c-2.8,0-5.3,0-7.8,0c0-2.7,0-5.3,0-8
			c5.3,0,10.6,0,15.8,0c0.6-2.9-0.3-5.5,0.7-8.2c5.2,0,10.3,0,15.6,0c0-2.6,0-5.1,0-7.9c2.7,0,5.3,0,8,0c0-2.8,0-5.3,0-8
			c2.7,0,5.3,0,8,0c0-2.8,0-5.3,0-8c2.7,0,5.3,0,7.9,0c0-2.8,0-5.3,0-7.8c2.6,0,5.2,0,8,0c0-5.5,0-10.6,0-16.1c2.7,0,5.3,0,8,0
			c0-10.8,0-21.2,0-32c2.7,0,5.3,0,7.8,0c0-5.5,0-10.6,0-16.1c-5.4,0-10.6,0-16,0c0-2.8,0-5.3,0-7.9c-2.6,0-5.1,0-7.9,0
			c0-2.7,0-5.3,0-8.1c-2.8,0-5.3,0-8.1,0c0-2.7,0-5.3,0-8.1c-2.8,0-5.3,0-8.1,0c0-2.7,0-5.3,0-8c-2.8,0-5.3,0-7.9,0
			c0-2.6,0-5.1,0-7.6c-18.7,0-37.3,0-56,0c0,2.7,0,5.1,0,7.9c-8.1,0-16,0-24,0c0,2.8,0,5.3,0,8.1c-2.7,0-5.3,0-8,0
			c0,8.1,0,15.9,0,23.9c-2.6,0-5.1,0-7.9,0c0,5.4,0,10.7,0,16.1c-2.8,0-5.3,0-7.7,0c0,13.4,0,26.6,0,40c2.7,0,5.1,0,7.8,0
			c0,2.8,0,5.5,0,8.1c0,2.6-0.2,5.2,0.1,7.8c2.9,0,5.4,0,7.9,0c0,2.6,0,5.2,0,8.2c2.9,0,5.5,0,8.2,0c0,2.8,0,5.2,0,7.7
			c2.7,0.6,5.4-0.4,7.8,0.5c0,2.7,0,5.1,0,7.6c-5.3,0-10.7,0-16,0c0-2.6,0-5.2,0-8c-2.8,0-5.4,0-8,0c-2.6,0-5.2,0-8.2,0
			c0-5.5,0-10.8,0-16.2c-2.8,0-5.2,0-8,0c0-2.7,0-5.3,0-8c-2.8,0-5.2,0-8,0c0-2.7,0-5.3,0-8c-2.8,0-5.2,0-7.7,0
			c-0.6-2.7,0.4-5.4-0.5-7.8c-2.7,0-5.1,0-7.6,0c0-10.6,0-21.2,0-32.1c-2.8,0-5.4,0-8.1,0c0-18.8,0-37.2,0-55.9c-2.7,0-5.3,0-8,0
			c0-2.8,0-5.2,0-8c-10.8,0-21.4,0-31.9,0c-2.6,0-5.2,0-8,0c0,2.8,0,5.4,0,8c-2.6,0-5.2,0-8,0c0,8.2,0,16.1,0,24c-2.6,0-5.2,0-8,0
			c0,10.6,0,20.9,0,31.2c0,0.1,0.1,0.3,0.2,0.4c0.1,0.1,0.2,0.3,0.3,0.3c2.5,0,5,0,7.5,0c0,7.9,0,15.8,0,24
			C1281.8,389,1284.4,389,1287,389z"/>
		<path fill="#2E6091" d="M1391,445c5.3,0,10.7,0,16,0c0,2.7,0,5.3,0,8c0,5.2,0,10.5,0,16c2.8,0,5.4,0,8,0c0,5.2,0,10.5,0,16
			c2.8,0,5.4,0,8,0c0,2.7,0,5.3,0,8c0,7.9,0,15.9,0,24c2.9-0.1,5.5,0.1,8-0.2c0-8.2,0-16,0-23.9c0-2.7,0-5.3,0-8c2.6,0,5.2,0,8,0
			c0-8.2,0-16.1,0-24c2.7,0,5.3,0,8,0c2.5,0,5,0,7.8,0c0,2.5,0,5.1,0,7.9c5.5,0,10.6,0,16,0c0,5.4,0,10.6,0,16c2.8,0,5.2,0,8,0
			c0,2.7,0,5.3,0,8c5.5,0,10.6,0,15.9,0c0,2.6,0,5.1,0,8c2.7,0.2,5.3,0.1,7.9,0.1c2.6,0,5.3,0,8.3,0c0,5.4,0,10.7,0,16
			c-2.6,0-5.2,0-8,0c0,2.8,0,5.4,0,8c-2.6,0-5.2,0-8,0c0,2.8,0,5.4,0,8c-2.6,0-5.2,0-8,0c0,2.8,0,5.4,0,8c-2.6,0-5.2,0-7.8,0
			c-0.6-2.9,0.3-5.5-0.7-8.2c-2.6,0-5,0-7.6,0c0-10.5,0-20.8,0-31c0-0.1-0.1-0.3-0.2-0.4c-0.1-0.1-0.2-0.2-0.2-0.2
			c-2.6,0-5.1,0-7.7,0c0,2.8,0,5.5,0,8.1c0,2.6,0.1,5.2-0.1,7.9c-2.9,0-5.4,0-7.9,0c0,7.8,0,15.4,0,23.1c0,0.1-0.1,0.3-0.2,0.4
			c-0.1,0.1-0.2,0.2-0.6,0.5c-2.2,0-4.7,0-7.2,0c0,10.5,0,20.8,0,31c0,0.1-0.1,0.3-0.2,0.4c-0.1,0.1-0.2,0.2-0.4,0.3
			c-2.5,0-5,0-7.6-0.1c-0.1-2.5-0.1-5.1-0.1-7.7c-5.4,0-10.6,0-15.7,0c0,2.7,0,5.1,0,7.7c5.4,0,10.6,0,15.8,0.1
			c0.1,8,0.1,15.9,0.1,24.2c2.9,0,5.4,0,8.2,0c0,2.8,0,5.2,0,8c2.7,0,5.3,0,7.8,0c0,2.8,0,5.3,0,7.8c-7.9,0-15.9,0-24.2,0
			c0,2.9,0,5.5,0,8c-2.8,0-5.3,0-7.8,0c0-2.6,0-5.2,0-8c-8.1,0-15.9,0-24,0c0-2.7,0-5.3,0-8.1c-2.8,0-5.3,0-8.1,0c0-2.7,0-5.3,0-8.1
			c-5.5,0-10.6,0-16.1,0c0-2.7,0-5.3,0-7.9c-2.9,0-5.3,0-7.8,0c0-2.7,0-5.3,0-8c0-24,0-48,0-72c0-2.7,0-5.3,0-8c5.3,0,10.5,0,16,0
			c0-5.5,0-10.7,0-16c2.6,0,5.2,0,8,0C1391,471.5,1391,458.2,1391,445z M1407,500.8c2.7,0.2,5.3,0.3,7.8,0c0-2.8,0-5.3,0-7.9
			c-2.7,0.1-5.3-0.1-7.8,0.1C1407,495.9,1407,498.2,1407,500.8z"/>
		<path fill="#313B45" d="M1423,621c2.5,0,5,0,7.8,0c0-2.5,0-5.1,0-8c8.3,0,16.2,0,24.2,0c2.7,0,5.3,0,8,0c0,2.5,0,5,0,7.9
			c2.6,0.3,5.2,0.1,7.8,0.1c2.6,0,5.3,0,8.1,0c0,2.6,0,5.1,0,7.9c2.7,0,5.3,0,8,0c0,2.8,0,5.2,0,8c2.7,0,5.3,0,8,0
			c0,5.5,0,10.6,0,15.9c2.6,0,5.1,0,7.7,0c0.8,2.7,0,5.3,0.5,8c2.5,0,4.9,0,7.7,0c0,5.4,0,10.6,0,16c2.8,0,5.2,0,8,0
			c0,2.7,0,5.3,0,8c2.8,0,5.2,0,8,0c0,5.4,0,10.6,0,16c2.8,0,5.2,0,8,0c0,5.4,0,10.7,0,16c-2.6,0-5.2,0-8,0c0,2.8,0,5.4,0,8
			c-5.3,0-10.7,0-16,0c0-2.6,0-5.2,0-8c-2.8,0-5.3,0-8.1,0c0-2.7,0-5.3,0-8.1c-2.8,0-5.3,0-8.1,0c0-5.4,0-10.7,0-16
			c-2.8,0-5.3,0-8,0c0-5.4,0-10.7,0-16c-2.8,0-5.3,0-7.9,0c0-2.6,0-5.1,0-7.9c-2.7,0-5.3,0-8.1,0c0-2.8,0-5.3,0-8.1
			c-2.7,0-5.3,0-8.1,0c0-2.8,0-5.3,0-7.9c-2.8,0-5.4,0-8.1,0c-2.6,0-5.2,0.2-7.6-0.1c0-2.8,0-5.3,0-7.9c2.6,0,5.1,0,7.6,0
			c0-2.7,0-5.3,0-7.9c-8,0-15.8,0-23.9,0c0,2.7,0,5.3,0,8c-29.5,0-58.6,0-88,0c0,2.7,0,5.3,0,8c-2.8,0-5.3,0-8.1,0c0,2.7,0,5.3,0,8
			c-5.5,0-10.6,0-15.9,0c0,2.6,0,5.1,0,7.9c-2.7,0-5.3,0-8.1,0c0,2.8,0,5.3,0,8.1c-2.7,0-5.3,0-8.1,0c0,2.8,0,5.3,0,8.1
			c-2.7,0-5.3,0-8,0c0,2.8,0,5.3,0,7.9c-2.6,0-5.1,0-7.9,0c0,5.4,0,10.6,0,16c-2.8,0-5.3,0-8.1,0c0,2.7,0,5.3,0,7.8
			c-8.1,0-15.9,0-24,0c0-2.7,0-5.3,0-7.8c-5.5,0-10.7,0-15.8,0c0-2.5,0-5,0-7.8c2.5,0,5.1,0,7.9,0c0-2.8,0-5.2,0-8c2.7,0,5.3,0,8,0
			c0-2.8,0-5.2,0-8c2.7,0,5.3,0,8,0c0-2.8,0-5.2,0-8c2.7,0,5.3,0,8,0c0-2.8,0-5.2,0-7.9c2.6,0,5.1,0,7.9,0c0.4-2.7,0.1-5.3,0.2-7.9
			c0-2.6,0-5.3,0-8.1c2.6,0,5.1,0,7.9,0c0-2.7,0-5.3,0-8c2.8,0,5.2,0,8,0c0-2.7,0-5.3,0-8c5.5,0,10.6,0,16,0c0-2.7,0-5.3,0-8
			c2.8,0,5.2,0,7.9,0c0-2.6,0-5,0-7.9c2.7,0,5.3,0,8.2,0c0-3,0-5.6,0-8.2c2.7,0,5.3,0,8,0s5.3,0,8,0c5.3,0,10.7,0,16,0
			c10.6,0,21.2,0,31.8,0c0.5,2.9-0.3,5.5,0.5,8C1402,621,1412.5,621,1423,621z"/>
		<path fill="#1D1C1A" d="M1391,421c-2.5,0-5,0-7.9,0c-0.3-2.6-0.1-5.2-0.1-7.8c0-2.6,0-5.3,0-8.1c-2.6,0-5.1,0-7.8,0
			c0-13.4,0-26.6,0-40c2.5,0,4.9,0,7.7,0c0-5.4,0-10.6,0-16.1c2.8,0,5.3,0,7.9,0c0-8,0-15.7,0-23.9c2.7,0,5.3,0,8,0
			c0-2.8,0-5.3,0-8.1c8.1,0,16,0,24,0c0-2.8,0-5.2,0-7.9c18.7,0,37.3,0,56,0c0,2.5,0,5,0,7.6c2.6,0,5.1,0,7.9,0c0,2.7,0,5.3,0,8
			c2.8,0,5.3,0,8.1,0c0,2.7,0,5.3,0,8.1c2.8,0,5.3,0,8.1,0c0,2.7,0,5.3,0,8.1c2.8,0,5.3,0,7.9,0c0,2.6,0,5.1,0,7.9
			c5.4,0,10.6,0,16,0c0,5.5,0,10.6,0,16.1c-2.5,0-5,0-7.8,0c0,10.8,0,21.2,0,32c-2.7,0-5.3,0-8,0c0,5.5,0,10.6,0,16.1
			c-2.8,0-5.4,0-8,0c0-8,0-16,0-24c0-2.6,0-5.2,0-8.1c-2.8,0-5.4,0-8.1,0c0-2.8,0-5.2,0-7.9c-2.7,0-5.3,0-7.9,0c-2.7,0-5.3,0-8,0
			s-5.3,0-8,0s-5.3,0-8,0c-7.9,0-15.8,0-24.1,0c0-2.8,0-5.4,0-8.1c-2.8,0-5.2,0-8,0c0-2.7,0-5.3,0-7.8c-5.4,0-10.5,0-15.9,0
			c0,8,0,16,0,23.9c0,2.6,0,5.2,0,8c-2.9-0.1-5.5,0.1-8.2-0.2c0-5.5,0-10.6,0-15.9c-2.8,0-5.4,0-8.1,0c-2.6,0-5.2-0.2-7.7,0.1
			c0,2.9,0,5.4,0,7.8c-2.6,0-5.2,0-8,0c0,3,0,5.6,0,8.2c0,2.6-0.2,5.2,0.1,7.8c2.9,0,5.4,0,7.8,0c0,2.6,0,5.2,0,8c2.8,0,5.4,0,8,0
			c0,2.6,0,5.2,0,8.2c-2.9,0-5.5,0-8,0C1391,416,1391,418.5,1391,421z"/>
		<path fill="#252C33" d="M1239,709c5.2,0,10.3,0,15.8,0c0,2.5,0,5.1,0,7.8c8.1,0,15.9,0,24,0c0-2.4,0-5,0-7.8c2.8,0,5.2,0,8.1,0
			c0-5.4,0-10.6,0-16c2.8,0,5.3,0,7.9,0c0-2.6,0-5.1,0-7.9c2.7,0,5.3,0,8,0c0-2.8,0-5.3,0-8.1c2.7,0,5.3,0,8.1,0c0-2.8,0-5.2,0-8.1
			c2.7,0,5.3,0,8.1,0c0-2.8,0-5.3,0-7.9c5.3,0,10.4,0,15.9,0c0-2.7,0-5.3,0-8c2.8,0,5.2,0,8.1,0c0-2.7,0-5.3,0-8c29.5,0,58.6,0,88,0
			c0-2.7,0-5.3,0-8c8.1,0,15.9,0,23.9,0c0,2.5,0,5.1,0,7.9c-2.5,0-5,0-7.6,0c0,2.6,0,5.1,0,7.9c2.4,0.3,5,0.1,7.6,0.1
			c2.6,0,5.3,0,8.1,0c0,2.6,0,5.1,0,7.9c2.7,0,5.3,0,8.1,0c0,2.8,0,5.3,0,8.1c2.7,0,5.3,0,8.1,0c0,2.8,0,5.3,0,7.9
			c2.6,0,5.1,0,7.9,0c0,5.4,0,10.6,0,16c2.8,0,5.2,0,8,0c0,5.4,0,10.6,0,16c2.8,0,5.2,0,8.1,0c0,2.7,0,5.3,0,8.1c2.8,0,5.3,0,8.1,0
			c0,2.8,0,5.4,0,8c0,2.7,0,5.3,0,8c-5.3,0-10.7,0-16,0s-10.7,0-16,0c0-10.5,0-21,0-31.8c-2.5,0-5.1,0-7.9,0c0-5.5,0-10.6,0-16.1
			c-2.7,0-5.3,0-8.1,0c0-2.8,0-5.3,0-8.1c-2.7,0-5.3,0-8.1,0c0-2.8,0-5.3,0-7.9c-5.3,0-10.4,0-15.9,0c0-2.7,0-5.3,0-8
			c-2.8,0-5.3,0-8.1,0c0-2.7,0-5.3,0-8c-21.5,0-42.6,0-64,0c0,2.5,0,5.1,0,7.8c-5.5,0-10.6,0-15.9,0c0,2.6,0,5.1,0,8
			c-2.7,0.2-5.3,0.1-7.9,0.1c-2.6,0-5.3,0-8.1,0c0,2.6,0,5.1,0,7.9c-2.7,0-5.3,0-8.1,0c0,2.8,0,5.3,0,8.1c-2.7,0-5.3,0-8.1,0
			c0,2.8,0,5.3,0,7.9c-2.6,0-5.1,0-7.9,0c0,2.7,0,5.3,0,8c-2.8,0-5.3,0-8.1,0c0,2.7,0,5.3,0,8.1c-2.8,0-5.3,0-8.1,0
			c0,5.4,0,10.6,0,16.1c-2.8,0-5.3,0-8.1,0c0,2.8,0,5.4,0,8c-8,0-16,0-24,0c0-2.6,0-5.2,0-8c-2.8,0-5.4,0-8,0c-2.7,0-5.3,0-8,0
			c0-2.6,0-5.2,0-8c-2.8,0-5.4,0-8,0C1239,714.3,1239,711.7,1239,709z"/>
		<path fill="#DAB68B" d="M1343,397c2.5,0,5,0,7.6,0c0.9,2.5,0,5.1,0.5,7.8c2.4,0,4.9,0,7.7,0c0,2.7,0,5.3,0,8c2.8,0,5.2,0,8,0
			c0,2.7,0,5.3,0,8c2.8,0,5.2,0,8,0c0,5.4,0,10.6,0,16.2c2.9,0,5.5,0,8.2,0c0,16,0,32,0,48c-2.6,0-5.2,0-7.8,0
			c-0.6,2.9,0.3,5.5-0.5,8c-2.7,0-5.2,0-7.7,0c-2.6,0-5.2,0-8,0c0,2.8,0,5.4,0,8c-2.7,0-5.3,0-8,0s-5.3,0-8,0c0-2.6,0-5.2,0-7.8
			c2.9-0.6,5.5,0.3,8-0.6c0-8,0-15.8,0-23.6c2.6,0,5.2,0,8,0c0-3,0-5.6,0-8.2c0-2.6,0.2-5.2-0.1-7.6c-5.5,0-10.6,0-15.7,0
			c-0.5,2.7,0.3,5.4-0.6,8c-2.6,0-5,0-7.6,0c0,2.6,0,5.1,0,7.9c-5.4,0-10.6,0-16,0c0,2.8,0,5.2,0,8c-10.8,0-21.4,0-32,0
			c0-8,0-16,0-24c2.6,0,5.2,0,8,0c0-5.5,0-10.8,0-16c2.6,0,5.2,0,8,0c0-2.8,0-5.4,0-8c5.2,0,10.5,0,16,0c0-2.8,0-5.4,0-8
			c2.6,0,5.2,0,8,0c0-2.8,0-5.4,0-8c2.6,0,5.2,0,8,0c0-2.8,0-5.4,0-8c2.6,0,5.2,0,8,0C1343,402.2,1343,399.6,1343,397z"/>
		<path fill="#DAB68B" d="M1503,389c0,8,0,16,0,24c0,2.5,0,5,0,7.8c-2.5,0-5.1,0-7.9,0c0,2.8,0,5.2,0,8c-2.7,0-5.3,0-8,0
			c0,2.8,0,5.2,0,8c-2.7,0-5.3,0-8,0c0,2.8,0,5.2,0,7.9c-5.3,0-10.4,0-15.6,0c-1,2.7,0,5.3-0.7,8.2c-5.2,0-10.5,0-15.8,0
			c-5.3,0-10.6,0-15.8,0c-0.6-2.9,0.3-5.5-0.6-8c-8,0-15.8,0-23.6,0c0-2.5,0-5,0-7.6c-2.5-0.9-5.1,0-7.8-0.5c0-2.4,0-4.9,0-7.7
			c-2.7,0-5.3,0-8.2,0c0-2.9,0-5.6,0-8.2c0-2.5,0-5,0-7.8c2.5,0,5.1,0,8,0c0-2.9,0-5.6,0-8.2c0-2.6,0-5.2,0-8c-2.8,0-5.4,0-8,0
			c0-5.3,0-10.7,0-16c0-2.5,0-5,0-7.8c2.5-0.4,5.2-0.1,7.7-0.1c2.6,0,5.3,0,8.1,0c0,5.3,0,10.4,0,15.9c2.7,0.3,5.3,0.1,8.2,0.2
			c0-2.8,0-5.4,0-8c5.3,0,10.7,0,16,0c0,2.6,0,5.2,0,8c2.8,0,5.4,0,8,0c0,2.6,0,5.2,0,8c2.8,0,5.4,0,8,0c0,2.7,0,5.3-0.1,8.1
			c-5.2,0.1-10.4,0.1-15.7,0.1c0,2.7,0,5.2,0,7.8c5.3,0,10.4,0,15.6,0c0-2.7,0-5.3,0.1-7.8c2.7-0.1,5.3-0.1,8.1-0.1
			c-0.1-2.9,0.1-5.5-0.2-8c-2.9,0-5.4,0-7.9,0c0-2.7,0-5.3,0-8c10.7,0,21.3,0,32,0c0,2.7,0,5.3,0,8c-2.6,0-5.2,0-8,0
			c0.1,2.9-0.1,5.5,0.2,8c2.9,0,5.4,0,7.9,0.1c0.1,2.5,0.1,5.1,0.1,7.7c2.7,0,5.2,0,7.8,0c0-2.6,0-5.1,0-7.6c-2.7,0-5.3,0-7.8-0.1
			c-0.1-2.7-0.1-5.4-0.1-8.1c5.2,0,10.5,0,16,0c0-2.8,0-5.4,0-8C1497.7,389,1500.3,389,1503,389z M1439,437c5.3,0,10.5,0,15.8,0
			c0-5.5,0-10.7,0-16c-7.8,0-15.4,0-23,0c-0.1,0-0.3,0.1-0.4,0.2c-0.1,0.1-0.2,0.2-0.3,0.4c0,2.5,0,5,0,7.5c-2.6,0-5.2,0-8,0
			c0.1,2.9-0.1,5.5,0.2,8C1428.7,437,1433.8,437,1439,437z"/>
		<path fill="#CDA87D" d="M1511,517c2.5,0,5,0,7.9,0c0,2.6,0,5.1,0,7.9c2.8,0,5.3,0,8.1,0c0,5.4,0,10.6,0,16.1c2.8,0,5.3,0,7.9,0
			c0,8,0,15.7,0,23.7c2.7,0.8,5.3,0,8,0.5c0,10.5,0,20.9,0,31.7c-2.4,0-5,0-7.7,0c0,2.8,0,5.3,0,8.1c2.5,0,5.1,0,7.8,0
			c0,8.1,0,15.9,0,24.1c-2.7,0-5.3,0-7.9,0c-2.6,0-5.2,0-8.1,0c0-2.8,0-5.4,0-8.1c-2.8,0-5.2,0-8,0c0-2.7,0-5.3,0-8
			c-2.8,0-5.2,0-7.9,0c0-2.7,0-5.3,0-7.9c2.6,0,5.2,0,8,0c0-2.8,0-5.4,0-8c2.6,0,5.2,0,8,0c0-8,0-15.6,0-23.3c0-0.1-0.1-0.3-0.2-0.4
			c-0.1-0.1-0.2-0.2-0.6-0.5c-2.2,0-4.7,0-7.3,0c0-2.6,0-5.1,0-7.9c-2.7,0-5.3,0-8,0c0-2.8,0-5.3,0-8c-2.7,0-5.3,0-8,0
			c0-2.8,0-5.3,0-8c-2.7,0-5.3,0-7.9,0c0-5.5,0-10.7,0-15.8c2.6,0,5.2,0,8,0c0-2.8,0-5.4,0-8c2.6,0,5.2,0,8,0
			C1511,522.2,1511,519.6,1511,517z"/>
		<path fill="#CDA87D" d="M1287,453c0,8,0,16,0,24c0,2.6,0,5.2,0,7.8c13.5,0,26.7,0,40,0c0-2.6,0-5.1,0-7.8c5.4,0,10.6,0,15.7,0
			c0.6-2.8-0.3-5.5,0.6-8c2.7,0,5.2,0,7.6,0c0,7.8,0,15.6,0,23.6c-2.5,0.9-5.1,0-8,0.6c0,2.5,0,5.2,0,7.8c-13.3,0-26.5,0-40.2,0
			c0,2.9,0,5.5,0,8c-5.5,0-10.7,0-15.8,0c-2.6,0-5.2,0-8,0c0-2.7,0-5.2,0-7.9c-5.3,0-10.6,0-16,0c0-2.9,0-5.5,0-8.1
			c0-2.6,0-5.2,0-7.8c2.9-0.6,5.5,0.3,8.2-0.6c0-7.9,0-15.7,0-23.4c2.7-0.5,5.3,0.3,7.8-0.4c0-2.7,0-5.2,0-7.7
			C1281.7,453,1284.3,453,1287,453z"/>
		<path fill="#DAB68B" d="M1295,301c10.6,0,21.2,0,31.9,0c0,2.7,0,5.2,0,8c2.7,0,5.3,0,8,0c0,18.8,0,37.2,0,55.9c2.7,0,5.2,0,8.1,0
			c0,10.9,0,21.5,0,32.1c-2.7,0-5.3,0-8,0c0-2.6,0-5.2,0-8.1c-2.9,0-5.4,0-8.1,0c0-5.4,0-10.5,0-15.9c-2.7,0-5.3,0-7.9,0
			c0-2.8,0-5.2,0-7.9c-2.7,0-5.4,0-8,0c0-2.7,0-5.3,0-8c2.6,0,5.2,0,8,0c0-2.8,0-5.4,0-8c2.6,0,5.2,0,8,0c0-8,0-15.6,0-23.2
			c0-0.1-0.1-0.3-0.2-0.4c-0.1-0.1-0.2-0.2-0.4-0.3c-2.5,0-5,0-7.5,0c0-2.6,0-5.2,0-8c-8,0-15.6,0-23.2,0c-0.1,0-0.3,0.1-0.4,0.2
			c-0.1,0.1-0.2,0.2-0.3,0.4c0,2.5,0,5,0,7.5c-2.7,0-5.3,0-8,0c0-5.3,0-10.7,0-16c2.6,0,5.2,0,8,0C1295,306.2,1295,303.6,1295,301z"
			/>
		<path fill="#2C5781" d="M1463,613c-2.7,0-5.3,0-8,0c0-2.5,0-5,0-7.8c-2.5,0-5.1,0-7.8,0c0-2.8,0-5.2,0-8c-2.7,0-5.3,0-8.2,0
			c0-8.3,0-16.2,0-24.1c2.5,0,5,0,7.5,0c0.1-0.1,0.3-0.2,0.4-0.3c0.1-0.1,0.2-0.3,0.2-0.4c0-10.3,0-20.6,0-31c2.6,0,5,0,7.2,0
			c0.3-0.3,0.5-0.4,0.6-0.5c0.1-0.1,0.2-0.3,0.2-0.4c0-7.6,0-15.3,0-23.1c2.6,0,5,0,7.9,0c0.2-2.7,0.1-5.3,0.1-7.9
			c0-2.6,0-5.3,0-8.1c2.6,0,5,0,7.7,0c-0.1-0.1,0.1,0,0.2,0.2c0.1,0.1,0.2,0.3,0.2,0.4c0,10.3,0,20.6,0,31c2.6,0,5,0,7.6,0
			c1,2.7,0,5.3,0.7,8.2c2.6,0,5.2,0,7.8,0c0,5.3,0,10.7,0,16c0,2.7,0,5.3,0,8c-2.5,0-5,0-7.8,0c0-2.5,0-5.1,0-7.9c-2.8,0-5.2,0-8,0
			c0-5.4,0-10.6,0-16c-2.8,0-5.2,0-8,0c0,2.5,0,5,0,7.8c-2.8,0-5.2,0-8,0c0,10.7,0,21.3,0,32c-2.8,0-5.2,0-7.9,0c0,2.7,0,5.3,0,8
			c2.5,0,5,0,7.6,0c0,2.6,0,5.1,0,7.6c2.7,0.9,5.3,0,8.2,0.6C1463,602.4,1463,607.7,1463,613z"/>
		<path fill="#DAB68B" d="M1279,453c0,2.5,0,5,0,7.7c-2.5,0.7-5.1,0-7.8,0.4c0,7.8,0,15.6,0,23.4c-2.6,0.9-5.3,0-8.2,0.6
			c0,2.6,0,5.2,0,7.8c-2.5,0-5,0-7.8,0c0-2.5,0-5.1,0-7.8c-2.8,0-5.2,0-7.9,0c0-13.4,0-26.6,0-40c2.3,0,4.8,0,7.6,0
			c0-2.7,0-5.3,0-8.2c5.6,0,10.9,0,16.2,0c0,2.7,0,5.3,0,8c0,2.6,0,5.2,0,8C1273.8,453,1276.4,453,1279,453z"/>
		<path fill="#EAEAEA" d="M1567,725c2.5,0,5,0,7.9,0c0.3,2.5,0.1,5.1,0.2,7.8c-8,0-15.8,0-23.9,0c0,2.7,0,5.3,0,8
			c-2.8,0-5.2,0-7.9,0c0,2.7,0,5.3,0,8c13.1,0,26.2,0,39.5,0c0,2.7,0,5.3,0,8.1c-21.3,0-42.5,0-63.8,0c0-2.6,0-5.2,0-8
			c2.8,0,5.3,0,8.1,0c0-2.7,0-5.3,0-8.1c2.8,0,5.3,0,8.1,0c0-2.7,0-5.3,0-8.1c2.8,0,5.3,0,8.1,0c0-2.7,0-5.3,0-7.9
			C1551.3,725,1559.2,725,1567,725z"/>
		<path fill="#D13838" d="M1567,725c-7.8,0-15.7,0-23.8,0c0,2.5,0,5.1,0,7.9c-2.8,0-5.3,0-8.1,0c0,2.7,0,5.3,0,8.1
			c-2.8,0-5.3,0-8.1,0c0,2.7,0,5.3,0,8.1c-2.8,0-5.3,0-8.1,0c0,2.8,0,5.4,0,8c-2.7,0-5.3,0-8,0c0-2.6,0-5.2,0-8c-3,0-5.6,0-8.3,0
			c-2.6,0-5.2,0.1-7.7-0.1c0-5.6,0-10.8,0-15.9c5.3,0,10.7,0,16,0c5.2,0,10.5,0,16,0c0-2.8,0-5.4,0-8c2.6,0,5.2,0,8,0
			c0-2.8,0-5.4,0-8c10.6,0,21.1,0,32,0C1567,719.8,1567,722.4,1567,725z"/>
		<path fill="#D13838" d="M1247,725c2.7,0,5.3,0,8,0c0,2.6,0,5.2,0,8c2.8,0,5.4,0,8,0c0,2.6,0,5.2,0,7.8c2.9,0.6,5.5-0.3,7.8,0.5
			c0,2.7,0,5.1,0,7.7c-2.8,0-5.4,0-8.1,0c-2.6,0-5.2-0.1-7.7,0.1c0,2.9,0,5.4,0,7.9c-2.7,0-5.3,0-8,0c0-5.3,0-10.5,0-16.1
			c-2.8,0-5.4,0-8.1,0c0-2.8,0-5.2,0-7.9c-5.4,0-10.7,0-15.9,0c0-2.6,0-5.2,0-8c-2.8,0-5.4,0-8,0c-5.2,0-10.3,0-15.8,0
			c-0.5-2.5,0-5.1-0.3-8c13.6,0,26.8,0,40.1,0c0,2.6,0,5.2,0,8C1241.8,725,1244.4,725,1247,725z"/>
		<path fill="#2C5781" d="M1343,501c2.7,0,5.3,0,8,0c0,2.7,0,5.3,0,8c0,10.7,0,21.3,0,32c-2.6,0-5.2,0-8,0c0,5.5,0,10.8,0,16
			c0,10.7,0,21.3,0,32c-2.7,0-5.3,0-8,0c0-18.5,0-37,0-55.8c2.5,0,5.1,0,8,0c0-8.3,0-16.2,0-24.2C1343,506.3,1343,503.7,1343,501z"
			/>
		<path fill="#EAEAEA" d="M1223,733c5.3,0,10.5,0,15.9,0c0,2.7,0,5.1,0,7.9c2.7,0,5.3,0,8.1,0c0,5.6,0,10.8,0,16.1
			c-21.2,0-42.5,0-63.9,0c0-2.6,0-5.1,0-7.8c15.8,0,31.6,0,47.7,0c0-2.7,0-5.2,0-8c-2.4,0-4.9,0-7.8,0
			C1223,738.2,1223,735.6,1223,733z"/>
		<path fill="#BD986D" d="M1487,557c0-5.3,0-10.7,0-16c0-2.6,0-5.2,0-8c2.8,0,5.4,0,8,0c0,5.2,0,10.3,0,15.8c2.5,0,5.1,0,7.9,0
			c0,2.8,0,5.2,0,8c2.7,0,5.3,0,8,0c0,2.8,0,5.2,0,8c2.7,0,5.3,0,8,0c0,2.8,0,5.2,0,7.9c2.6,0,5.1,0,7.3,0c0.3,0.3,0.5,0.4,0.6,0.5
			c0.1,0.1,0.2,0.3,0.2,0.4c0,7.6,0,15.3,0,23.3c-2.8,0-5.4,0-8,0c0-5.3,0-10.5,0-15.9c-2.7,0-5.1,0-7.9,0c0-2.7,0-5.3,0-8
			c-2.8,0-5.2,0-8,0c0-2.7,0-5.3,0-8.1c-2.9,0-5.5,0-8.1,0c0-2.6,0-5.2,0-8C1492.2,557,1489.6,557,1487,557z"/>
		<path fill="#DAB68B" d="M1271,437c0-5.3,0-10.5,0-15.9c2.7,0,5.1,0,7.9,0c0-2.7,0-5.3,0-8.1c5.6,0,10.8,0,16.1,0
			c5.2,0,10.5,0,16,0c0,2.8,0,5.4,0,8c-2.6,0-5.2,0-8,0c0,2.8,0,5.4,0,8c-2.6,0-5.2,0-8,0c0,2.8,0,5.4,0,8c-2.6,0-5.2,0-8,0
			c0,2.8,0,5.4,0,8c-2.7,0-5.3,0-8,0c0-2.6,0-5.2,0-8C1276.2,437,1273.6,437,1271,437z"/>
		<path fill="#BD986D" d="M1511,605c0,2.6,0,5.2,0,7.9c2.7,0,5.2,0,7.9,0c0,2.7,0,5.3,0,8c2.8,0,5.2,0,8,0c0,2.7,0,5.3,0,8.1
			c2.9,0,5.5,0,8.1,0c0,2.5,0,5,0,7.5c-0.1,0.1-0.2,0.3-0.3,0.4c-0.1,0.1-0.3,0.2-0.4,0.2c-7.6,0-15.2,0-23.2,0c0-2.6,0-5.2,0-7.9
			c-2.8,0-5.2,0-7.9,0c0-8,0-15.9,0-24.1C1505.8,605,1508.4,605,1511,605z"/>
		<path fill="#DAB68B" d="M1343,501c0,2.7,0,5.3,0,8c-7.9,0-15.8,0-23.9,0c0,2.7,0,5.1,0,7.8c-10.7,0-21.2,0-32.1,0
			c0-2.6,0-5.2,0-7.8c5.2,0,10.3,0,15.8,0c0-2.5,0-5.1,0-8C1316.5,501,1329.7,501,1343,501z"/>
		<path fill="#AF916C" d="M1311,421c0-2.6,0-5.2,0-8c-5.5,0-10.8,0-16,0c0-2.7,0-5.3,0-8c5.3,0,10.6,0,16.2,0c0-5.6,0-10.8,0-15.8
			c2.8,0,5.2,0,7.7,0c0.6,2.7-0.4,5.4,0.5,7.8c5.3,0,10.5,0,15.6,0c0,2.7,0,5.3,0,8c-2.6,0-5.2,0-8,0c0,2.8,0,5.4,0,8
			c-2.6,0-5.2,0-8,0c0,2.8,0,5.4,0,8C1316.3,421,1313.7,421,1311,421z"/>
		<path fill="#A12D2D" d="M1255,757c0-2.5,0-5,0-7.9c2.5-0.2,5.1,0,7.7-0.1c2.6,0,5.3,0,8.1,0c0-2.6,0-5,0-7.7
			c-2.3-0.7-5,0.1-7.8-0.5c0-2.6,0-5.2,0-7.8c8,0,16,0,24,0c0,8,0,16,0,24C1276.3,757,1265.7,757,1255,757z"/>
		<path fill="#A12D2D" d="M1495,733c0,5.2,0,10.3,0,15.9c2.5,0.2,5.2,0,7.7,0.1c2.6,0,5.3,0,8.3,0c0,2.8,0,5.4,0,8
			c-10.7,0-21.3,0-32,0c0-8,0-16,0-24C1484.3,733,1489.7,733,1495,733z"/>
		<path fill="#BD986D" d="M1407,445c7.8,0,15.6,0,23.6,0c0.9,2.5,0,5.1,0.6,8c5.2,0,10.5,0,15.8,0c0,2.7,0,5.3,0,8c-2.7,0-5.3,0-8,0
			c-5.3,0-10.7,0-16,0c0-2.6,0-5.2,0-8c-5.5,0-10.8,0-16,0C1407,450.3,1407,447.7,1407,445z"/>
		<path fill="#2C5781" d="M1383,485c0-16,0-32,0-48c2.6,0,5.2,0,8,0c0,2.8,0,5.4,0,8c0,13.2,0,26.5,0,40
			C1388.2,485,1385.6,485,1383,485z"/>
		<path fill="#EAEAEA" d="M1479,757c10.7,0,21.3,0,32,0c2.7,0,5.3,0,8,0c0,2.5,0,5,0,7.5c-4.1,0.7-25.8,0.9-40,0.3
			C1479,762.2,1479,759.6,1479,757z"/>
		<path fill="#CDA87D" d="M1287,309c0,5.3,0,10.7,0,16c0,2.7,0,5.3,0,8c0,2.6,0,5.2,0,8c-2.8,0-5.4,0-8,0c0-2.7,0-5.3,0-8
			c0-7.9,0-15.8,0-24C1281.8,309,1284.4,309,1287,309z"/>
		<path fill="#AF916C" d="M1279,333c0,2.7,0,5.3,0,8c0,5.3,0,10.7,0,16c0,2.7,0,5.3,0,8c-2.5,0-5,0-7.5,0c-0.1-0.1-0.2-0.2-0.3-0.3
			c-0.1-0.1-0.2-0.3-0.2-0.4c0-10.3,0-20.6,0-31.2C1273.8,333,1276.4,333,1279,333z"/>
		<path fill="#EAEAEA" d="M1255,757c10.7,0,21.3,0,32,0c0,2.5,0,5,0,7.5c-0.1,0.1-0.2,0.2-0.3,0.3c-0.1,0.1-0.3,0.2-0.4,0.2
			c-10.3,0-20.6,0-31.2,0C1255,762.2,1255,759.6,1255,757z"/>
		<path fill="#AF916C" d="M1287,389c-2.6,0-5.2,0-8,0c0-8.2,0-16.1,0-24c2.7,0,5.3,0,8,0c0,2.7,0,5.3,0,8
			C1287,378.3,1287,383.7,1287,389z"/>
		<path fill="#2C5781" d="M1335,613c-2.7,0-5.3,0-8,0c0-7.9,0-15.8,0-24c2.8,0,5.4,0,8,0C1335,597,1335,605,1335,613z"/>
		<path fill="#AF916C" d="M1295,405c-2.6,0-5.2,0-8,0c0-5.5,0-10.8,0-16c2.7,0,5.3,0,8,0C1295,394.3,1295,399.7,1295,405z"/>
		<path fill="#313B45" d="M1487,557c2.6,0,5.2,0,8,0c0,2.8,0,5.4,0,8c-2.7,0-5.3,0-8,0C1487,562.3,1487,559.7,1487,557z"/>
		<path fill="#BD986D" d="M1519,597c0,2.6,0,5.2,0,8c-2.8,0-5.4,0-8,0c0-2.6,0-5.2,0-8C1513.8,597,1516.4,597,1519,597z"/>
		<path fill="#CDA87D" d="M1295,301c0,2.6,0,5.2,0,8c-2.8,0-5.4,0-8,0c0-2.6,0-5.2,0-8C1289.8,301,1292.4,301,1295,301z"/>
		<path fill="#EAEAEA" d="M1215,725c2.6,0,5.2,0,8,0c0,2.8,0,5.4,0,8c-2.6,0-5.2,0-8,0C1215,730.2,1215,727.6,1215,725z"/>
		<path fill="#2C5781" d="M1423,621c-10.5,0-21,0-31.7,0c-0.8-2.5,0-5.1-0.5-8c-10.6,0-21.2,0-31.8,0c0-7.9,0-15.8,0-24
			c2.8,0,5.4,0,8,0c2.5,0,5,0,7.8,0c0,2.6,0,5.1,0,7.9c5.5,0,10.6,0,16.1,0c0,2.7,0,5.3,0,8.1c2.8,0,5.3,0,8.1,0c0,2.7,0,5.3,0,8.1
			c8.1,0,15.9,0,24,0C1423,615.8,1423,618.4,1423,621z"/>
		<path fill="#9AD0BE" d="M1367,509c0,24,0,48,0,72c-2.6,0-5.2,0-8.2,0c0-2.9,0-5.5,0-8c-2.8,0-5.3,0-7.8,0c0-5.3,0-10.7,0-16
			s0-10.7,0-16c2.6,0,5.2,0,8,0c0-10.9,0-21.4,0-32C1361.7,509,1364.3,509,1367,509z"/>
		<path fill="#8DBEAE" d="M1351,573c2.5,0,5,0,7.8,0c0,2.5,0,5.1,0,8c2.9,0,5.6,0,8.2,0c0,2.7,0,5.3,0,8c-2.6,0-5.2,0-8,0
			c0,8.2,0,16.1,0,24c-5.3,0-10.7,0-16,0c0-8,0-16,0-24c2.6,0,5.2,0,8,0C1351,583.5,1351,578.2,1351,573z"/>
		<path fill="#DAB68B" d="M1423,461c5.3,0,10.7,0,16,0c0,7.9,0,15.8,0,24c-2.8,0-5.4,0-8,0c-2.7,0-5.3,0-8,0c0-5.2,0-10.5,0-16
			c-2.8,0-5.4,0-8,0c0-2.6,0-5.2,0-8C1417.8,461,1420.4,461,1423,461z"/>
		<path fill="#CDA87D" d="M1423,461c-2.6,0-5.2,0-8,0c0,2.8,0,5.4,0,8c-2.6,0-5.2,0-8,0c0-5.5,0-10.8,0-16c5.2,0,10.5,0,16,0
			C1423,455.8,1423,458.4,1423,461z"/>
		<path fill="#2C5781" d="M1367,493c2.5,0,5,0,7.7,0c0.8-2.5,0-5.1,0.5-8c2.6,0,5.2,0,7.8,0c0,5.3,0,10.5,0,16c-5.5,0-10.7,0-16,0
			C1367,498.3,1367,495.7,1367,493z"/>
		<path fill="#2C5781" d="M1431,493c0,7.8,0,15.6,0,23.9c-2.5,0.3-5.1,0.1-8,0.2c0-8.1,0-16.1,0-24C1425.7,493,1428.3,493,1431,493z
			"/>
		<path fill="#8DBEAE" d="M1367,493c0,2.7,0,5.3,0,8s0,5.3,0,8c-2.7,0-5.3,0-8,0c0-2.7,0-5.3,0-8c0-2.6,0-5.2,0-8
			C1361.8,493,1364.4,493,1367,493z"/>
		<path fill="#2C5781" d="M1438.8,572.9c-5.1,0-10.4,0-15.7,0c0-2.6,0-5,0-7.7c5.2,0,10.4,0,15.7,0
			C1438.8,567.8,1438.8,570.4,1438.8,572.9z"/>
		<path fill="#CDA87D" d="M1415,469c2.6,0,5.2,0,8,0c0,5.5,0,10.8,0,16c-2.6,0-5.2,0-8,0C1415,479.5,1415,474.2,1415,469z"/>
		<path fill="#BD986D" d="M1511,517c0,2.6,0,5.2,0,8c-2.8,0-5.4,0-8,0c0-2.6,0-5.2,0-8C1505.8,517,1508.4,517,1511,517z"/>
		<path fill="#BD986D" d="M1503,525c0,2.6,0,5.2,0,8c-2.8,0-5.4,0-8,0c0-2.6,0-5.2,0-8C1497.8,525,1500.4,525,1503,525z"/>
		<path fill="#CDA87D" d="M1431,493c-2.7,0-5.3,0-8,0c0-2.7,0-5.3,0-8c2.7,0,5.3,0,8,0C1431,487.7,1431,490.3,1431,493z"/>
		<path fill="#EAEAEA" d="M1407,500.8c0-2.7,0-5,0-7.7c2.5-0.3,5.1,0,7.8-0.1c0,2.6,0,5,0,7.9C1412.3,501.1,1409.7,501.1,1407,500.8
			z"/>
		<path fill="#EAEAEA" d="M1343,589c0,8,0,16,0,24c-2.7,0-5.3,0-8,0c0-8,0-16,0-24C1337.7,589,1340.3,589,1343,589z"/>
		<path fill="#A12D2D" d="M1527,725c0,2.6,0,5.2,0,8c-5.5,0-10.8,0-16,0c0-2.7,0-5.3,0-8C1516.3,725,1521.7,725,1527,725z"/>
		<path fill="#A12D2D" d="M1535,717c0,2.6,0,5.2,0,8c-2.8,0-5.4,0-8,0c0-2.6,0-5.2,0-8C1529.8,717,1532.4,717,1535,717z"/>
		<path fill="#CDA87D" d="M1431,381c-5.3,0-10.7,0-16,0c0-7.9,0-15.8,0-23.9c5.4,0,10.5,0,15.9,0c0,2.5,0,5.1,0,7.8c2.8,0,5.2,0,8,0
			c0,2.7,0,5.3,0,8.1c8.3,0,16.2,0,24.1,0c0,2.6,0,5.2,0,8c2.9-0.1,5.5,0.1,8-0.2c0-2.9,0-5.4,0-7.9c2.7,0,5.3,0,8,0
			c0,2.6,0,5.2,0,8c2.9-0.1,5.5,0.1,8-0.2c0-2.9,0-5.4,0-7.9c2.6,0,5.2,0,7.9,0c0,2.7,0,5.1,0,7.9c2.7,0,5.2,0,8.1,0
			c0,2.9,0,5.5,0,8.1c-2.7,0-5.3,0-8,0c-5.3,0-10.7,0-16,0c-10.7,0-21.3,0-32,0c0-2.6,0-5.2,0-8c-2.8,0-5.4,0-8,0
			C1436.3,381,1433.7,381,1431,381z"/>
		<path fill="#CDA87D" d="M1391,381c0,5.3,0,10.7,0,16c-2.5,0-5,0-7.8,0c-0.4-2.5-0.1-5.2-0.1-7.8c0-2.6,0-5.3,0-8.2
			C1385.8,381,1388.4,381,1391,381z"/>
		<path fill="#BD986D" d="M1487,373c0,2.5,0,5,0,7.9c-2.5,0.3-5.1,0.1-8,0.2c0-2.8,0-5.4,0-8C1481.7,373,1484.3,373,1487,373z"/>
		<path fill="#BD986D" d="M1471,373c0,2.5,0,5,0,7.9c-2.5,0.3-5.1,0.1-8,0.2c0-2.8,0-5.4,0-8C1465.7,373,1468.3,373,1471,373z"/>
		<path fill="#CDA87D" d="M1391,397c2.6,0,5.2,0,8,0c0,2.8,0,5.4,0,8c-2.6,0-5.2,0-8,0C1391,402.2,1391,399.6,1391,397z"/>
		<path fill="#A12D2D" d="M1247,725c-2.6,0-5.2,0-8,0c0-2.8,0-5.4,0-8c2.6,0,5.2,0,8,0C1247,719.8,1247,722.4,1247,725z"/>
		<path fill="#A12D2D" d="M1263,733c-2.6,0-5.2,0-8,0c0-2.8,0-5.4,0-8c2.6,0,5.2,0,8,0C1263,727.8,1263,730.4,1263,733z"/>
		<path fill="#AF916C" d="M1351,469c-2.5,0-5,0-7.6,0c-0.9,2.5,0,5.1-0.6,8c-5.1,0-10.4,0-15.7,0c0,2.8,0,5.2,0,7.8
			c-13.3,0-26.5,0-40,0c0-2.6,0-5.2,0-7.8c10.6,0,21.2,0,32,0c0-2.7,0-5.2,0-8c5.4,0,10.6,0,16,0c0-2.8,0-5.2,0-7.9c2.6,0,5,0,7.6,0
			c0.9-2.7,0-5.3,0.6-8c5.1,0,10.2,0,15.7,0c0.3,2.4,0.1,5,0.1,7.6c0,2.6,0,5.3,0,8.2C1356.2,469,1353.6,469,1351,469z"/>
		<path fill="#CDA87D" d="M1311,421c2.7,0,5.3,0,8,0c0,2.6,0,5.2,0,8c-5.5,0-10.8,0-16,0c0-2.6,0-5.2,0-8
			C1305.8,421,1308.4,421,1311,421z"/>
		<path fill="#CDA87D" d="M1287,445c0-2.6,0-5.2,0-8c2.8,0,5.4,0,8,0c0,5.2,0,10.5,0,16c-2.8,0-5.4,0-8,0
			C1287,450.3,1287,447.7,1287,445z"/>
		<path fill="#CDA87D" d="M1295,437c0-2.6,0-5.2,0-8c2.8,0,5.4,0,8,0c0,2.6,0,5.2,0,8C1300.2,437,1297.6,437,1295,437z"/>
		<path fill="#CDA87D" d="M1319,421c0-2.6,0-5.2,0-8c2.8,0,5.4,0,8,0c0,2.6,0,5.2,0,8C1324.2,421,1321.6,421,1319,421z"/>
		<path fill="#CDA87D" d="M1327,413c0-2.6,0-5.2,0-8c2.8,0,5.4,0,8,0c0,2.6,0,5.2,0,8C1332.2,413,1329.6,413,1327,413z"/>
		<path fill="#CDA87D" d="M1335,405c0-2.7,0-5.3,0-8c2.7,0,5.3,0,8,0c0,2.6,0,5.2,0,8C1340.2,405,1337.6,405,1335,405z"/>
		<path fill="#EAEAEA" d="M1359,501c0,2.7,0,5.3,0,8c-2.7,0-5.3,0-8,0c0-2.7,0-5.3,0-8C1353.7,501,1356.3,501,1359,501z"/>
		<path fill="#A12D2D" d="M1431,429c0-2.5,0-5,0-7.5c0.1-0.1,0.2-0.3,0.3-0.4c0.1-0.1,0.3-0.2,0.4-0.2c7.6,0,15.2,0,23,0
			c0,5.3,0,10.5,0,16c-5.3,0-10.5,0-15.8,0c0-2.6,0-5.2,0-8C1436.2,429,1433.6,429,1431,429z"/>
		<path fill="#746149" d="M1479,389c5.3,0,10.7,0,16,0c0,2.6,0,5.2,0,8c-5.5,0-10.8,0-16,0C1479,394.3,1479,391.7,1479,389z"/>
		<path fill="#746149" d="M1446.8,405.1c0,2.5,0,5.1,0,7.8c-5.2,0-10.3,0-15.6,0c0-2.5,0-5.1,0-7.8
			C1436.5,405.1,1441.7,405.1,1446.8,405.1z"/>
		<path fill="#D13838" d="M1431,429c2.6,0,5.2,0,8,0c0,2.8,0,5.4,0,8c-5.2,0-10.3,0-15.9,0c-0.3-2.5-0.1-5.1-0.2-8
			C1425.8,429,1428.4,429,1431,429z"/>
		<path fill="#746149" d="M1447,397c-2.6,0-5.2,0-8,0c0-2.8,0-5.4,0-8c2.7,0,5.3,0,8,0C1447,391.7,1447,394.3,1447,397z"/>
		<path fill="#746149" d="M1431,381c2.7,0,5.3,0,8,0c0,2.7,0,5.3,0,8c-2.6,0-5.2,0-8,0C1431,386.2,1431,383.6,1431,381z"/>
		<path fill="#746149" d="M1479,405c-2.5,0-5,0-7.9,0c-0.3-2.5-0.1-5.1-0.2-8c2.8,0,5.4,0,8,0C1479,399.7,1479,402.3,1479,405z"/>
		<path fill="#746149" d="M1479.1,405.1c2.5,0,5.1,0,7.8,0c0,2.6,0,5,0,7.6c-2.5,0-5.1,0-7.8,0
			C1479.1,410.2,1479.1,407.6,1479.1,405.1z"/>
		<path fill="#746149" d="M1447,397c2.5,0,5,0,7.9,0c0.3,2.5,0.1,5.1,0.2,8c-2.8,0-5.4,0-8,0C1447,402.3,1447,399.7,1447,397z"/>
		<path fill="#AF916C" d="M1287,445c0,2.7,0,5.3,0,8c-2.7,0-5.3,0-8,0c0-2.7,0-5.3,0-8C1281.7,445,1284.3,445,1287,445z"/>
		<path fill="#CDA87D" d="M1295,405c0-5.3,0-10.7,0-16c2.6,0,5.2,0,8,0c0-8.2,0-16.1,0-24c2.7,0,5.3,0,8,0c2.6,0,5.2,0,8,0
			c0,2.7,0,5.2,0,7.9c2.7,0,5.3,0,7.9,0c0,5.4,0,10.5,0,15.9c2.7,0,5.2,0,8.1,0c0,2.9,0,5.5,0,8.1c-5.2,0-10.3,0-15.6,0
			c-0.9-2.5,0-5.1-0.5-7.8c-2.4,0-4.9,0-7.7,0c0,5,0,10.3,0,15.8C1305.6,405,1300.3,405,1295,405z"/>
		<path fill="#AF916C" d="M1319,325c2.5,0,5,0,7.5,0c0.1,0.1,0.3,0.2,0.4,0.3c0.1,0.1,0.2,0.3,0.2,0.4c0,7.6,0,15.3,0,23.2
			c-2.8,0-5.4,0-8,0C1319,341,1319,333,1319,325z"/>
		<path fill="#AF916C" d="M1295,325c0-2.5,0-5,0-7.5c0.1-0.1,0.2-0.3,0.3-0.4c0.1-0.1,0.3-0.2,0.4-0.2c7.6,0,15.3,0,23.2,0
			c0,2.8,0,5.4,0,8C1311,325,1303,325,1295,325z"/>
		<path fill="#AF916C" d="M1319,349c0,2.6,0,5.2,0,8c-2.8,0-5.4,0-8,0c0-2.6,0-5.2,0-8C1313.8,349,1316.4,349,1319,349z"/>
		<path fill="#AF916C" d="M1311,365c-2.7,0-5.3,0-8,0c0-2.7,0-5.3,0-8c2.7,0,5.3,0,8,0C1311,359.7,1311,362.3,1311,365z"/>
		<path fill="#AF916C" d="M1287,333c0-2.7,0-5.3,0-8c2.7,0,5.3,0,8,0c0,2.6,0,5.2,0,8C1292.2,333,1289.6,333,1287,333z"/>
		<path fill="#CDA87D" d="M1279,445c0,2.7,0,5.3,0,8c-2.6,0-5.2,0-8,0c0-2.8,0-5.4,0-8C1273.7,445,1276.3,445,1279,445z"/>
		<path fill="#AF916C" d="M1279,445c-2.7,0-5.3,0-8,0c0-2.7,0-5.3,0-8c2.6,0,5.2,0,8,0C1279,439.8,1279,442.4,1279,445z"/>
		<path fill="#FEFEFE" d="M1351,509c2.7,0,5.3,0,8,0c0,10.6,0,21.1,0,32c-2.8,0-5.4,0-8,0C1351,530.3,1351,519.7,1351,509z"/>
		<path fill="#EAEAEA" d="M1351,573c0,5.2,0,10.5,0,16c-2.8,0-5.4,0-8,0c0-10.7,0-21.3,0-32c2.7,0,5.3,0,8,0
			C1351,562.3,1351,567.7,1351,573z"/>
		<path fill="#FEFEFE" d="M1351,557c-2.7,0-5.3,0-8,0c0-5.2,0-10.5,0-16c2.8,0,5.4,0,8,0C1351,546.3,1351,551.7,1351,557z"/>
		<path fill="#DAB68B" d="M1287,333c2.6,0,5.2,0,8,0c0-2.8,0-5.4,0-8c8,0,16,0,24,0c0,8,0,16,0,24c-2.6,0-5.2,0-8,0c0,2.8,0,5.4,0,8
			c-2.7,0-5.3,0-8,0c0-5.3,0-10.7,0.1-16.1c2.5-0.1,5.1-0.1,7.7-0.1c0-2.7,0-5.2,0-7.8c-2.6,0-5.1,0-7.6,0c0,2.7,0,5.3-0.1,7.8
			c-2.7,0.1-5.3,0.1-8.1,0.1c0,3,0,5.6,0,8.2c0,2.6-0.2,5.2,0.1,7.8c2.9,0,5.4,0,7.8,0c0,2.7,0,5.3,0,8c0,7.9,0,15.8,0,24
			c-2.8,0-5.4,0-8,0c0-5.2,0-10.5,0-16c-2.8,0-5.4,0-8,0c0-2.7,0-5.3,0-8c0-2.6,0-5.2,0-8c-2.8,0-5.4,0-8,0c0-5.3,0-10.7,0-16
			c2.6,0,5.2,0,8,0C1287,338.2,1287,335.6,1287,333z"/>
		<path fill="#CDA87D" d="M1279,357c2.6,0,5.2,0,8,0c0,2.8,0,5.4,0,8c-2.7,0-5.3,0-8,0C1279,362.3,1279,359.7,1279,357z"/>
		<path fill="#CDA87D" d="M1287,373c2.6,0,5.2,0,8,0c0,5.5,0,10.8,0,16c-2.7,0-5.3,0-8,0C1287,383.7,1287,378.3,1287,373z"/>
		<path fill="#DAB68B" d="M1439,389c0-2.7,0-5.3,0-8c2.6,0,5.2,0,8,0c0,2.8,0,5.4,0,8C1444.3,389,1441.7,389,1439,389z"/>
		<path fill="#AF916C" d="M1303,357c-2.5,0-5,0-7.8,0c-0.4-2.5-0.1-5.2-0.1-7.8c0-2.6,0-5.3,0-8.2c2.8,0,5.4,0,8,0
			C1303,346.3,1303,351.7,1303,357z"/>
		<path fill="#AF916C" d="M1303.1,340.9c0-2.5,0-5.1,0-7.8c2.6,0,5,0,7.6,0c0,2.5,0,5.1,0,7.8
			C1308.2,340.9,1305.6,340.9,1303.1,340.9z"/>
	</g>
</g>
</svg>
