<?xml version="1.0" encoding="utf-8"?>
<!-- Generator: Adobe Illustrator 18.1.1, SVG Export Plug-In . SVG Version: 6.00 Build 0)  -->
<svg version="1.1" id="Camada_1" xmlns="http://www.w3.org/2000/svg" xmlns:xlink="http://www.w3.org/1999/xlink" x="0px" y="0px"
	 viewBox="0 0 324 324" enable-background="new 0 0 324 324" xml:space="preserve">
<g>
	<g>
		<path fill="#FEFEFE" d="M1.1,325.1c0-108,0-216,0-324c108,0,216,0,324,0c0,108,0,216,0,324C217.1,325.1,109.1,325.1,1.1,325.1z"/>
		<path fill="#DAB68B" d="M71.5,152.8c0-1.4,0-2.9,0-4.3c1.8-0.6,1.9,1.9,3.4,1.8c1.1-0.6,1.3-2,2.5-2.6c0.5-0.3,1.1-0.4,1.6-0.5
			c3.8-0.3,7.6-0.3,11.4-0.3c3.3,0,6.4,0.2,8.9,2.9c2.1,2.3,5.7,0.9,8.1,2.6c1.2,1.1,1.5,2.9,2.9,3.5c6,2.1,12.5-1.3,18,2.5
			c2.2,6.5,1.5,12.9,0.1,20.3c-9.5-0.5-18.9,3.7-27.5-2.6c-2.5-1.8-5.7-0.7-8.4-2c-1.6-0.8-1.3-2.9-3.2-3.9c-1.8,1.5-2.7,4-4.7,5.4
			c1,2.3,2.7,3.6,4.5,5.4c3.2-3.3,7.1-4.4,11.5-3c1.9,0.5,2.2,2.9,4.2,3.3c3.9,0.9,8-0.4,11.9,1.3c1.5,2.4,3.4,4.5,5.9,5.9
			c1.5,2.9,3.8,4,7,3.9c3-0.1,6.1-0.1,9.1,0.1c3,0.1,5.2,1.2,5.5,4.6c0.3,2.6-0.4,5.2,0.4,7.8c1.7,0.9,2-1.9,3.6-1.1
			c0,1.7,0,3.4,0,5.4c-2,0-3.7,0-5.4,0c-3.3,1.2-3.8,3.9-3.8,7c0,7,0,14,0,21.1c0,2.3,0.1,4.7-1.6,6.7c-1.8,1.9-4.4,1.1-6.6,1.9
			c-1.6,0.7-2,2.5-3.2,3.5c-5.1,2.6-10.1,2.6-15.2,0c-1.1-0.9-1.2-2.5-2.5-3.5c-2.5-1.1-5.5,0.2-8.1-1.3c-1.7-2-2.8-4.5-5.1-6.1
			c-0.7-1.3-0.7-2.6-0.2-3.9c0.6-1.3,2.4-1.4,2.9-2.8c0.1-1.6-1.5-1.8-2.3-2.6c-2.4-3.4,0.2-5.6,2.1-7.6c-0.5-1.1-1.2-1.4-1.7-1.8
			c-0.4-0.3-0.8-0.7-1-1.2c-0.6-1.7-0.6-3.3,0.2-4.9c0.3-0.5,0.7-0.9,1.2-1.2c3.3-2,1.3-6.2,3.8-8.9c3.4-2.5,8.1-0.3,13.4-2.4
			c-6.3-2.4-11.9-0.2-16.3-1.7c-2.5-1-2.9-3-4.4-4.1c-2.5-1.3-5.3-0.6-7.9-0.9c-4.6,0.3-6.5-4.1-9.9-5.8c-1-0.7-0.9-2.2-2.2-2.8
			c-1.2,0.5-1.2,2.1-2.2,2.8c-0.4-0.4-1-0.8-1-1.3c-0.1-1.4,0-2.7,0-4.1c-0.6-0.6-1.2-1.4-1.9-1.9c-1.3,0-1.6,1.3-2.4,1.9
			c-2.3-0.7-0.4-2.7-1.2-3.9c-1-1.5-3.5,1-4.2-1.5c1.1-1.1,2.7-1.8,3.1-2.9c1.9-5.8-1-11.6,2.3-16.6
			C69.3,156.9,70.2,154.7,71.5,152.8z"/>
		<path fill="#1C3A59" d="M168,71.5c0-1.3,0-2.5,0-3.8c4.7-0.8,57.7-1.1,75.9-0.4c0,1.4,0,2.8,0,4.2c-0.2,0.2-0.4,0.4-0.6,0.6
			c-2.9,1.4-6,0.7-8.9,0.8c-2.2,0.1-3.9,0.4-3.9,3.1c-0.1,5,0,10.1-0.1,15.1c0,2.1,0.2,4.4-1.4,6.2c-1.4,1.4-2.9,1.5-4.6,0.6
			c-2.8-4.7-0.7-10.2-2.5-15.1c-0.5-2.8,0.9-5.7-0.3-9c-8-1.4-16.1-0.6-23.8-0.5c-2.2,1.3-2.2,3-2.2,4.6c0.2,16.2,0.2,32.4,0,48.6
			c0.1,2.8-1.1,5.6-0.5,8.5c1.7,1.7,3.7,1.3,5.4,0.9c4.6-3.7,6.6-8.8,8.8-13.9c1.4-0.7,2.8-0.7,4.1,0.1c2,2,1.1,4.8,2.3,7.6
			c1.8,1.5,4.3,3,5.5,5.7c3.1,1.2,6.1,0.9,9.4,0.5c-5.7-5.5-2.7-12.3-3.5-18.5c0.4-6.6-1.6-13.3,1.5-19.7c1.9-1.5,3.8-1.7,5.8-0.1
			c1.8,2.5,1.4,5.5,1.5,8.4c0.2,7.7-0.4,15.5,0.4,23.1c1.7,2.4,4.1,3.9,5.7,6c6.9,2.3,14.2-0.5,20.7,1.9c1.6,1.6,1.4,3.1,0.9,4.6
			c-1,1.2-2.4,0.9-3.6,0.9c-20.6,0-41.2,0-61.7,0c-11.6,0-23.1,0-34.7,0c-1.8,0-3.6-0.5-5.3,0.5c-1.5,1.3-3.3,1.5-5.2,1.4
			c-1.6,0-3.1-0.1-4.5-1.1c-0.5-0.4-0.8-0.9-1.1-1.5c-0.4-1.6-0.4-3.1,0.7-4.5c1.3-1,2.9-1.2,4.4-1.2c1.8-0.1,3.6-0.1,5.4,0
			c1.5,0,3,0,4.5,0c1.8-0.1,3.6,0,5.4,0c1.8,0,3.6-0.1,5.4,0c1.8,0,3.5-0.1,5.3,0c1.4,0,2.8,0,4.2,0c1.2,0,2.5,0,3.5-0.9
			c1-1.6,0.7-3.4,0.6-5.2c-0.2-4.4,0-8.9-0.1-13.3c-0.1-9.5-0.1-19,0-28.5c0.2-3.5-0.1-6.9,0.1-10.4c0-1.4,0.1-2.8-1.1-4.2
			c-3.1-1.2-6.4-0.5-9.3-0.5c-1.7,1.6-1.6,3.2-1.6,4.8c0.1,4.9,0.1,9.7,0,14.6c-0.1,8.2,1,16.4-0.7,23.9c-2.4,2.1-4.3,1.9-6.9,0.6
			c-2.3-7.7-0.8-15.9-1-24c-0.1-3.6-0.2-7.2,0-10.7c0.2-3.7-5.6-5.3-3-9.4C164.7,71.4,166.7,72.7,168,71.5z"/>
		<path fill="#D13838" d="M290.4,203.7c-0.4,0-0.7,0-1.1,0c-2.7,2.4-7.6,0.4-9.5,4.4c-1.9,1.6-4.5,1.1-6.6,1.9
			c-1.5,0.7-2.2,2.3-3.4,3.4c0,9.3,0,18.6,0,27.9c0,0.9,0.7,2.3-1,2.5c-1.9-2.1-1.5-4.7-1.6-7.2c-0.2-6.3,0.3-12.6-0.5-18.9
			c-1.4,4.7,0.2,9.8-1.5,14.5c-4.5,5.9-10.2,2.8-16.2,2.9c-3.3-10.7,1.7-22.6-6.3-31.7c-0.9-4.6-0.6-9.3-0.5-14
			c0.1-5.4,4.4-11.4,9.7-11.8c12.2-0.9,24.4-1.2,36.6,0.2c0.3,0,0.6,0.3,0.9,0.5c1.7,1.9,1.7,4.3,1.6,6.6
			C290.7,191.2,291.8,197.5,290.4,203.7z"/>
		<path fill="#1C3A59" d="M57.4,147.4c-2.4-0.7-0.1-2.9-1.7-4.2c-0.8,0-2.1,0-3.6,0c0-1.9,0-3.6,0-5.5c-1.9,0-3.5,0-5.3,0
			c0-1.4,0-2.6,0-3.9c-1.9-0.5-3.7-0.9-5.5-1.3c0-3.5,0-6.5,0-9.9c-1.5,0-2.9,0-4.4,0c0-3.4,0-6.4,0-9.8c-1.9,0-3.6,0-5.4,0
			c0-8.8,0-17.2,0-25.9c1.6,0,3.2,0,5,0c0.2-1.5,0.3-2.9,0.5-4.4c4.8,0,9.7,0,14.8,0c0-3.7,0-7.2,0-10.9c1.6-0.1,2.8-0.1,4.4-0.2
			c0-1.3,0-2.7,0-4.2c2,0,3.5,0,5.3,0c0-1.7,0-3.3,0-4.7c0.5-0.3,0.7-0.7,1-0.7c9.7,0,19.4,0,29.5,0c0,1.9,0,3.7,0,5.4
			c-0.2,0.2-0.5,0.4-0.7,0.7c-4.2,1.7-8.5,1.1-12.8,0.9c-6.1-0.4-10.9,1.1-14.8,7.1c-0.9,7.5-0.1,16-0.4,24.4
			c-0.2,5.7,0.8,11.5-0.8,17.1c-4.2,2.6-6.7,1.8-7.5-2.8c-0.7-3.9-0.4-7.8-0.3-11.7c-0.2-4.3,0.8-8.6-0.8-12.8
			c-3.3-2.5-6.5-1.8-9.9,0.3c-2.5,6.3-0.8,12.9-1.3,18.8c1.1,2.4,3.1,2.3,4.2,3.5c1.5,2,0.9,4.5,1.6,6.7c0.7,1.8,2.9,2.1,3.9,3.6
			c1.5,2.4,0.7,5.3,1.7,7.8c2.8,4.2,7.8,6.1,10.2,10.1c4.4,2,9.3-0.8,13.1,2.7c0.7,1.6,0.8,3.1-0.6,4.4
			C70.3,148.2,63.9,148.1,57.4,147.4z"/>
		<path fill="#2A5581" d="M158.2,143c0.3-0.4,0.6-1,0.9-1c1.6-0.1,3.2,0,4.9,0c33,0,65.9,0,99.2,0c0-1.4,0-2.7,0-4.3
			c-7.7,0-15.5,0-23.3,0c-0.9-1.8,0.6-4.3-2.7-5.5c-0.3,0-1.5,0-3,0c0-11.7,0-23.2,0-34.7c0.2-0.2,0.4-0.4,0.6-0.6
			c1.6-0.8,3.1-0.6,4.9,0.4c3.1,5.4-0.1,12,2.3,17.6c5.8,2.7,8.4,2.2,12-1.9c1.1-1.4,3.2-1.9,3.8-3.7c0.5-1.6,1.9-2.6,3-3.9
			c-1.6-1.9-4.3-0.5-5.9-2.1c-0.3-0.5-0.3-0.9-0.1-1.4c3.2,0,6.3,0,9.8,0c0,2,0,3.7,0,5.4c1,0.7,0.9,2.2,2.2,2.7
			c1.2-0.5,1.2-2.1,2.2-2.7c0.4,0.4,1,0.8,1,1.3c0.1,1.4,0,2.7,0,4.1c2.9,6.3,1.9,12.6-0.1,18.8c-1.9,1.9-4,3.7-5.3,6.1
			c0,1.6,0,3.2,0,4.9c-0.1,0.1-0.2,0.2-0.4,0.3c-0.1,0.1-0.3,0.2-0.5,0.2C228.4,143,193.3,143,158.2,143z"/>
		<path fill="#782323" d="M213.5,243.8c0,1.6,0,3.2,0,4.9c-4.5,0.8-40.6,1-55.3,0.3c0-15.1,0-30.2,0-45.3c-1.3-1.7-1.5-3.4-0.4-5.2
			c1-1.3,2.9-1.5,3.5-2.6c1.5-2.8,0.2-5.9,2.6-7.9c1.6-0.7,3.1-0.6,4.5,0.7c1.5,2.3,1.1,4.9,1.1,7.4c0.1,13.9-0.1,27.8,0.2,41.7
			c0,1.1-0.1,2.2,0.5,3.1c0.9,1.1,2.2,1.5,3.6,1.5c1.7,0,3.4,0,5.2,0c1.5-0.1,3,0,4.5,0c3.4-0.1,6.9-0.1,10.3,0
			c1.6-0.1,3.2-0.1,4.7,0c4.8,0.2,9.6-0.8,14.3,0.9C213,243.4,213.2,243.6,213.5,243.8z"/>
		<path fill="#782323" d="M173.4,158.2c35.3,0,70.5,0,106.2,0c0,1.6,0,2.9,0,4.3c-1.9,1.9-4.3,1.5-6.6,1.5
			c-9.1,0.1-18.3,0.2-27.4-0.1c-4.8-0.2-8.8,0.8-11.9,4.6c-3.6,1.8-5.6-1.1-7.8-2.8c-2.7-0.8-5.2-0.5-7.8-0.6
			c-13,0.3-25.9,0.1-38.9,0.1c-2,0-4-0.1-5.7-1.2C171.8,162.2,171.9,160.2,173.4,158.2z"/>
		<path fill="#792424" d="M264.4,243.8c0,1.6,0,3.2,0,5.3c-7.4,0.4-14.9,0.1-22.3,0.2c-7.5,0.1-15.1,0-23,0
			c-0.1-1.7-0.2-3.4-0.4-5.4c-1.8,0-3.5,0-5.3,0c-2.8-4.1,1.4-5.1,3.2-7c1.1-3.6,0.5-7,0.8-10.4c0.3-2.4,1.2-4.3,4-4.1
			c2.6,0.2,3.8,2,4.1,4.3c0.4,2.7,0.9,5.3,3.3,7c1.7,2.2,0.7,5.3,2.2,7.8c3.9,1.5,8.1,0.5,12.1,0.8c0.6,0,1.2,0,1.8,0
			c1.5,0,3.1,0,4.6,0c4.7,0.2,9.5-0.8,14.1,0.8C263.9,243.4,264.2,243.6,264.4,243.8z"/>
		<path fill="#29547F" d="M254.6,101.9c0,0.4,0,0.7,0,1.1c-3.3-0.8-2.4-3.6-2.5-5.6c-0.3-5.1,0.1-10.3-0.3-16.4
			c-1.6,2.7-0.8,4.9-2.1,6.6c-2.3,2-5.2-0.2-8,1.6c-1.3,3.5-5.9,4.7-7.7,8.4c-1.8,0-3.6,0-5.4,0c0-7.6,0-15.2,0-22.8
			c0.6-0.7,0.5-1.7,1.4-2.5c3.9-0.5,8.1-0.1,12.2-0.2c0.5,0,1.1,0.1,1.6,0.2c1.3,2.1,3.3,3.4,5.4,4.6c1.6,0,3.2,0,4.8,0
			c0.1,0.1,0.3,0.2,0.4,0.3c0.1,0.1,0.2,0.3,0.2,0.4C254.6,85.8,254.6,93.8,254.6,101.9z"/>
		<path fill="#1D3B5A" d="M117,61.8c-6.3,0-12.6,0-19.3,0c-0.1-1.3-0.3-2.6-0.4-4.5c-1.4-0.4-3-0.8-5-1.3c0-4.5,0-9.5,0-14.6
			c1.5,0,3.1,0,4.9,0c0.1-1.5,0.3-2.8,0.4-4.5c6.5,0,12.9,0,19.3,0c0.9,1.3,0.4,2.7,0.4,4.1c-3.9,3.3-9.1,0.4-13.1,3
			c-1.3,3.3-1.3,6.9-0.4,10.4c0.4,0.4,0.8,0.8,1.2,1.1c3.8,1.5,8.2-0.7,11.8,1.8C117.8,58.8,117.8,60.3,117,61.8z"/>
		<path fill="#A32D2D" d="M233,168c2.3-0.7,0.4-2.8,1.1-3.8c3.8-2,7.6-1.6,11.4-1.6c11.3,0,22.7,0,34,0c2.8,0,5.6,0,8.4,0
			c0.5,0,0.9,0.7,1.3,1c-3,2.3-6.4,1.5-9.7,1.6c-12.4,0.3-24.7-0.3-36.6,0.3c-2.4,2.7-1.6,5.4-1.9,7.8c-0.1,9.7,0.7,19.4-0.5,29.1
			c-0.2,0.7-0.6,1.2-1.1,1.7c-0.6,0.4-1.2,0.6-1.9,0.7c-4.3,0.2-5-2.7-5.1-6c-0.2-6.5-0.1-12.9-0.1-19.4
			C233,175.6,231.7,171.7,233,168z"/>
		<path fill="#2A5581" d="M168,71.5c-1.7,1-2.1,1.1-4.2,1.3c0,1.2,0,2.4,0,3.9c1.2,0.1,2.5,0.2,4.2,0.4c0,5,0,10,0,15
			c-3.9,2-3.7,6.3-4.9,9.4c-1.6,1.5-3.1,1.6-4.8,0.8c-0.5-0.4-0.9-0.9-1.1-1.5c-1-9.1-0.8-18.1-0.2-27.2c0.8-3,4.1-4,5.6-6.4
			c2.4,0.7,0,2.9,2,4.3C165.2,71.5,166.6,71.5,168,71.5z"/>
		<path fill="#1C3A59" d="M162.5,67.2c0,1.3,0,2.5,0,3.8c-1,1.7-3.6-0.8-4.3,1.7c-1.3,2.4-3.4,2.4-5.6,1.8
			c-7.1-2.7-14.4-0.8-21.2-1.3c-1.9,1.2-2.1,3-3.3,4.1c-1.7,1.1-3.5,1.2-5.4,0.3c-1.4-1.1-1.5-2.7-1.7-4.3c0-0.6,0-1.2,0-1.8
			c0-1.6,0.4-3,1.4-4.2C135.8,67.2,149.2,67.2,162.5,67.2z"/>
		<path fill="#27507A" d="M103.1,56.2c-0.5-0.3-1.1-0.7-1.2-1.2c-0.1-4.1,0-8.2,0-12.2c0.6-0.6,1.1-1.1,1.7-1.7c4.3,0,8.7,0,13.5,0
			c0-1.5,0-2.9,0-4.3c2.4,0.7,0.2,2.8,0.8,3.3c1.5,2.1,4-0.4,4.7,2.1c-1,1-2.5,1.4-3.3,2.9c-0.7,3.6,1.8,7.7-1.1,11.2
			c0,1.4,0.1,2.8,0,4.1c0,0.5-0.7,0.9-1,1.3c0-1.3,0-2.5,0-4.2c-2.1,0-4.1-0.1-6.2-0.1c-2,0-4,0-5.9,0
			C104.1,57.4,103,57.8,103.1,56.2c3.5-2.2,7.3-0.6,10.6-2.1C109.8,53.5,105.9,52.5,103.1,56.2z"/>
		<path fill="#7A2424" d="M290.4,203.7c-1.1-1.3-1.1-2.8-1.1-4.4c0-6.8,0-13.7,0-20.5c-2.2-3.2-1.8-6.7-0.7-10.1
			c0.2-0.2,0.4-0.5,0.7-0.7c1.6,0,3.2,0,4.9,0c0.1,0.1,0.2,0.2,0.3,0.4c0.1,0.1,0.2,0.3,0.2,0.5c0,11.5,0,23,0,34.9
			C293.2,203.7,291.8,203.7,290.4,203.7z"/>
		<path fill="#564633" d="M137.6,243.8c0-11.4,0-22.8,0-33.9c1.7-2.7,3.5-2,5.4-0.7c0,11.4,0,22.9,0,34.7
			C141.1,243.8,139.4,243.8,137.6,243.8z"/>
		<path fill="#7D2C2C" d="M264.4,231.9c0-5.9,0-11.9,0-18.2c1.3-0.1,2.6-0.1,4.3-0.2c0,10.3,0,20.3,0,30.4c-1.4,0-2.9,0-4.3,0
			C261.6,239.8,262.9,235.9,264.4,231.9z"/>
		<path fill="#4F3F2C" d="M122.4,67.2c0,1.4,0,2.9,0,4.3c-0.6,0.5-1.2,1.1-1.8,1.1C111.2,73,101.7,74,92.3,72
			c-1.5-1.6-1.4-3.2-0.2-4.9C102.2,67.2,112.3,67.2,122.4,67.2z"/>
		<path fill="#50402D" d="M82.4,218.9c0-8.3,0-16.6,0-24.9c1.6-0.7,3.3-0.9,4.8,0.2c2.3,7.4,1.2,14.9,0.7,22.4
			c-0.2,2.5-2.1,3.7-4.7,2.9C82.9,219.3,82.6,219.1,82.4,218.9z"/>
		<path fill="#554431" d="M67.2,158.2c0,6.4,0,12.8,0,19.5c-1.9,0-3.7,0-5.4,0c0-6.4,0-12.8,0-19.5
			C63.7,158.2,65.4,158.2,67.2,158.2z"/>
		<path fill="#534330" d="M158.2,198.3c0,1.8,0,3.6,0,5.4c-3.3,0-6.5,0-9.8,0c-1.1,1.8-1.1,1.8-1.2,4.1c-1.3,0-2.6,0-4.2,0
			c0-3.3,0-6.4,0-9.6c1.5-1.3,3.4-1.5,5.3-1.5c3.1,0.1,6.2-0.5,9.2,0.8C157.8,197.9,158,198.1,158.2,198.3z"/>
		<path fill="#1F3C5B" d="M268.7,132.2c0.4-3.3,0.9-6.5,1-9.8c0.2-3.2,0-6.5,0-9.7c1.3,0,2.5,0,4.3,0c0.1,6.7,0,13.5,0.1,20.6
			c-1.6,0-3,0-4.3,0C268.8,133.5,268.5,133.2,268.7,132.2z"/>
		<path fill="#594A38" d="M112.7,249.2c5.1,0,10.1,0,15.2,0c0,1.6,0,3.2,0,5.2c-2.4,0.5-4.9,0.2-7.3,0.2c-2.5,0.1-5,0-7.9,0
			C112.7,252.7,112.7,251,112.7,249.2z"/>
		<path fill="#203D5C" d="M118.1,56.3c0.6-4.6-1-9.2-1.3-14.1c2.2,0,3.9,0,5.6,0c0,4.6,0,9.2,0,14.1
			C120.9,56.3,119.5,56.3,118.1,56.3z"/>
		<path fill="#564632" d="M78,218.9c1.1,0,2.2,0,3.3,0c2.9,5.8,1.5,11.9,1,17.8c-0.2,2.2-2.2,2.5-4.7,1.7
			C77.6,231.9,77,225.4,78,218.9z"/>
		<path fill="#52412D" d="M173.4,158.2c0,1.8,0,3.6,0,5.4c1.1,1.4,1.2,2.9,0.1,4.4c-1.3,1.1-2.9,1.3-4.5,0.9
			c-0.6-0.2-1.1-0.6-1.5-1.1c-1.3-3-1.3-6-0.1-9c0.2-0.2,0.4-0.4,0.6-0.7C169.8,158.2,171.6,158.2,173.4,158.2z"/>
		<path fill="#584734" d="M127.9,249.2c0-1.7,0-3.5,0-5.4c3.4,0,6.6,0,9.8,0c0,1.7,0,3.5,0,5.4C134.2,249.2,131,249.2,127.9,249.2z"
			/>
		<path fill="#6C5A46" d="M101.9,243.8c3.5,0,7,0,10.8,0c0,2,0,3.7,0,5.4c-6.8,0-13.5,0-20.6,0c0-1.9,0-3.7,0-5.4
			c0.2-0.2,0.4-0.4,0.6-0.6c0.5-0.3,1.1-0.5,1.6-0.6C97,242.4,99.6,241.9,101.9,243.8z"/>
		<path fill="#782323" d="M269.8,213.5c0-1.2,0-2.5,0-3.7c2.9-2.5,6.4-1.6,9.8-1.7c0.1,0.2,0.3,0.4,0.4,0.5
			c-0.1,0.2-0.3,0.4-0.4,0.5c0,1.4,0,2.7,0,4.3C276.1,213.5,273,213.5,269.8,213.5z"/>
		<path fill="#604F3A" d="M78,218.9c0,6.4,0,12.9,0,19.4c1.2,0,2,0,3.3,0c0-6.5,0-13,0-19.4c0.4,0,0.7,0,1.1,0
			c2.9,6.5,1.9,13.2,0.7,19.8c-0.2,0.2-0.5,0.5-0.7,0.7c-1.6,0-3.2,0-5.3,0c0-2.1-0.1-4.1-0.1-6.2c0-2,0-4,0-5.9c0-2.3-0.1-4.7,0-7
			C77,219.8,77.7,219.4,78,218.9z"/>
		<path fill="#604F3A" d="M92.1,243.8c-3.1,0-6.3,0-9.8,0c0-1.6,0-3,0-4.3c3.1-2.3,6.3-1.5,9.1-0.8
			C93.3,240.6,93.3,242.2,92.1,243.8z"/>
		<path fill="#823333" d="M279.6,163.6c3.3,0,6.5,0,9.8,0c0,1.4,0,2.9,0,4.3c-3.2,2.2-6.4,2-9.8,0.4
			C278.3,166.8,278.4,165.2,279.6,163.6z"/>
		<path fill="#823333" d="M279.6,208.1c0-1.4,0-2.7,0-4.3c3.5,0,6.6,0,9.8,0c0,1.4,0,2.9,0,4.3C286.1,208.9,282.8,208.9,279.6,208.1
			z"/>
		<path fill="#4B4032" d="M57.4,147.4c6.5,0,13,0,19.5,0c0.3,0.2,0.4,0.5,0.3,0.7c-0.1,0.2-0.2,0.4-0.3,0.4c0,1.4,0,2.7,0,4.2
			c-1.5,0-2.7,0-4,0c-1.5-1,1.1-3.5-1.5-4.2c-4.2,0-8.5,0-12.7,0C58.3,148.4,57.9,147.7,57.4,147.4z"/>
		<path fill="#604F3A" d="M162.5,148.5c2.3,0.7,0.4,2.7,1.5,4.3c1,0,2.3,0,3.9,0c0,2,0,3.8,0,5.5c-1.7,1.4-3.4,1.4-5.1,0.4
			c-1.6-1.4-1.7-3.1-1.8-4.9c0-1.6,0-3.2,0.8-4.7C162.1,148.9,162.3,148.7,162.5,148.5z"/>
		<path fill="#665744" d="M86.7,194c-1.4,0-2.9,0-4.3,0c-1.7,0-3.4,0-5.4,0c0-2,0-3.7,0-5.4c1.6,0,3.2,0,5.2,0
			c0.1,1.3,0.3,2.6,0.5,4.3c1.3,0,2.7,0,4.1,0c0.3,0.2,0.4,0.5,0.3,0.7C86.9,193.8,86.8,194,86.7,194z"/>
		<path fill="#604E3A" d="M152.8,143c1.8,0,3.6,0,5.4,0c0,1.3,0,2.5,0,3.8c1,1.7,3.6-0.8,4.3,1.7c-1.2,1.1-2.7,1.4-4.3,1.4
			c-1.6,0.1-3.2-0.1-4.6-0.9C151.6,147.2,151.2,145.3,152.8,143z"/>
		<path fill="#2C4865" d="M268.7,132.2c0.4,0.4,0.7,0.7,1.1,1.1c0,1.4,0,2.7,0,4.3c-2,0-3.7,0-5.4,0c0-1.7,0-3.4,0-5.4
			C266,132.2,267.4,132.2,268.7,132.2z"/>
		<path fill="#2E4A67" d="M268.7,107.3c0,1.6,0,3.2,0,5.2c-1.3,0.1-2.6,0.1-4.3,0.2c0-2,0-3.7,0-5.5
			C265.8,107.3,267.3,107.3,268.7,107.3z"/>
		<path fill="#2D4966" d="M249.2,76.9c-1.7,0-3.4,0-5.4,0c0-1.6,0-3,0-4.3c1.8-0.8,3.6-0.8,5.4,0C249.2,74,249.2,75.5,249.2,76.9z"
			/>
		<path fill="#564632" d="M72.6,188.5c0-1.6,0-3.2,0-5.2c1.3-0.1,2.6-0.1,4.3-0.2c0,2,0,3.7,0,5.5C75.5,188.5,74,188.5,72.6,188.5z"
			/>
		<path fill="#564532" d="M71.5,152.8c0,1.7,0,3.4,0,5.4c-1.6,0-3,0-4.3,0c0-1.7,0-3.4,0-5.4C68.8,152.8,70.2,152.8,71.5,152.8z"/>
		<path fill="#4F3F2C" d="M67.2,183.1c0-1.3,0-2.5,0-4.1c1.3-0.1,2.6-0.1,4.3-0.2c0,1.6,0,3,0,4.4C70.1,183.1,68.6,183.1,67.2,183.1
			z"/>
		<path fill="#D13838" d="M279.6,208.1c3.3,0,6.5,0,9.8,0c-0.4,0.4-0.9,1-1.3,1c-2.8,0.1-5.6,0-8.4,0
			C279.6,208.8,279.6,208.4,279.6,208.1z"/>
		<path fill="#29547F" d="M249.2,72.6c-1.8,0-3.6,0-5.4,0c-0.4-0.2-0.5-0.5-0.4-0.7c0.1-0.2,0.2-0.4,0.4-0.4c1.4,0,2.8-0.1,4.1,0
			C248.4,71.6,248.8,72.2,249.2,72.6z"/>
		<path fill="#CDA87D" d="M86.7,194c0-0.4,0-0.7,0-1.1c3.1,0,6.1,0,9.7,0c0.5,1.6,1,3.3,1.6,5.3c6,0,12.2,0,18.7,0
			c0,1.8,0,3.5,0,5.4c-4.7,0-9.5,0-14.7,0c0,3.3,0,6.4,0,9.9c-1.7,0-3.1,0-4.6,0c-0.9-0.6-1.2-2.1-2.8-2.2c0.5,1.4,2.2,1.2,2.8,2.2
			c0,1.8,0,3.6,0,5.5c-0.6,1-2.3,0.9-2.8,2.2c1.5-0.1,1.8-1.6,2.8-2.2c1.4,0,2.8,0,4.2,0c0,1.5,0,2.7,0,3.9
			c-1.3,0.5-2.7,0.9-4.2,1.5c0,1.7,0,3,0,4.4c-1.4,1.4-3,1.4-4.6,0.6c-1.5-0.8-2-2.8-4.5-4.2c1,2.6,3.4,2.6,4.1,4
			c0.9,1.5,0.9,2.9,0,4.4c-0.9,1.1-2.1,1.6-4.1,2.8c2.6-0.4,3.1-2.1,4.4-2.9c1.7-0.9,3.3-0.8,4.7,0.6c0,1.4,0,2.9,0,4.3
			c-1.5,1.7-3,3.5-4.3,5.4c-0.4,0-0.7,0-1.1,0c0-1.4,0-2.7,0-4.3c-3.5,0-6.6,0-9.8,0c0-6.9,0-13.7,0-20.6c1.3,0,2.5,0,3.8,0
			c0.1-0.1,0.3-0.2,0.4-0.4c0.1-0.1,0.2-0.3,0.2-0.5C86.7,210,86.7,202,86.7,194z"/>
		<path fill="#CDA87D" d="M127.9,158.2c-6.8,0-13.5,0-20.6,0c0-1.9,0-3.7,0-5.4c1.6-1.9,4.1-1.1,6.2-2.4c-7.8,0.2-13.3-5.9-19.8-6.4
			c-9.9-6.6-9.4-15.6-7.8-25c0.3-0.6,0.7-1,1.3-1.2c0.6,0.1,1.1,0.5,1.4,1.1c1.5,3.4,0,7.2,1.6,10.4c1.6,1.2,3.1,1.2,4.6,0.3
			c1.7-2,0.8-5,2.9-7.4c3-1.8,6.3-1.7,9.9,0.2c2.9,5.7,0,12.1,2,17.7c1.7,1.4,3.2,1.1,5.1,0.2c2.1-9.4-0.7-19.2,1.7-28.2
			c1.9-1.8,3.6-2,5.4-1.3c0.6,0.3,0.9,0.7,1,1.3c-3.5,2.8-3.2,6.7-3.1,10.5c0.3,2.6-0.4,5.3,0.7,7.8c2.2,2.1,5.6,0.6,7.8,2.5
			c0.9,1.3,1,2.7,0.4,4.1c-1.9,1.9-5,2.7-5.6,5.9c-2.7,1.8-4.6,3.9-2.6,7.4c2,1.6,4.5,0.6,6.6,1.4c0.5,0.2,1,0.5,1.3,0.9
			c0.9,1.6,0.9,3.2,0.2,4.8C128.3,157.8,128.1,158,127.9,158.2z"/>
		<path fill="#C4A178" d="M86.7,118.1c0,5.9,0,11.9,0,17.4c1,3,3.4,1.7,5.3,2.3c0,1.6,0,3.1,0,5.1c3.3,0,6.4,0,9.5,0
			c0.5,1.6,0.9,2.9,1.3,4.1c4.9,0.6,9.3,1.1,14.2,1.7c0.1,1.1,0.1,2.4,0.2,4.1c-3.4,0-6.6,0-9.8,0c-3.1,0-6.1,0-9.5,0
			c-0.1-1.3-0.3-2.7-0.5-4.3c-6.4,0-12.9,0-19.3,0c0.4-2.6,4-4,2.8-7.2c-0.1-1.5,0-3,0-4.5c0.5-6.2-1.1-12.6,0.9-18.3
			C83.8,117,85.2,116.9,86.7,118.1z"/>
		<path fill="#CFAA7F" d="M102.9,183.1c-2.3-0.7-0.4-2.8-1.4-4.2c-2.9,0-5.9,0-9.2,0c-0.1,1.2-0.2,2.5-0.4,4c-1.6,0-3.2,0-5.1,0
			c-0.1-1.2-0.2-2.5-0.3-3.8c-1.4-0.4-2.6-0.8-4-1.2c0-1.5,0-2.7,0-4.3c1.1-0.1,2.4-0.2,3.9-0.4c0-1.5,0-3.1,0-5
			c1.9-0.1,3.5-0.2,5.6-0.3c0,2,0,3.7,0,5.5c4.3,4,5.5,4,9.8,0c2.3,0.7,0.4,2.8,1.4,4.2c8,0,16.2,0,24.6,0c0-6.5,0-12.9,0-19.3
			c1.8-1.4,3.6-1.5,5.9,0.2c2.1,5.7,1.6,11.9,0.5,18c-0.5,2.8-3,3.8-5.8,3.9c-6.1,0.3-12.2,0-18.3,0.1
			C107.5,180.5,104.8,180.6,102.9,183.1z"/>
		<path fill="#C5A37A" d="M148.5,198.3c-1.8,0-3.6,0-5.4,0c0-1.3,0-2.5,0-3.8c-0.1-0.1-0.2-0.2-0.4-0.3c-0.1-0.1-0.3-0.2-0.5-0.2
			c-6.5,0-12.9,0-19.7,0c0-1.9,0-3.7,0-5.4c0.2-0.2,0.5-0.4,0.7-0.7c4.7-1.7,9.5-0.7,14.3-0.9c1.9,0,3.8,0,5.5,1
			c1.5,1.5,2.7,3.2,4.5,4.4C149.5,193.9,150.2,195.9,148.5,198.3z"/>
		<path fill="#C3A178" d="M102.9,183.1c0-1.3,0-2.5,0-3.8c0.1-0.1,0.2-0.3,0.4-0.4c0.1-0.1,0.3-0.2,0.5-0.2c8,0,16.1,0,24.1,0
			c1.6,2.2,1.1,4-1.1,5.2c-2,1.1-2.9,2.9-4.3,4.5c-1.6,0-3.2,0-5.2,0c-0.1-1.7-0.2-3.4-0.3-5.4C112.2,183.1,107.6,183.1,102.9,183.1
			z"/>
		<path fill="#D3AE83" d="M97.5,234.1c-1.8,0-3.6,0-5.4,0c0-1.8,0-3.6,0-5.4c1.8,0,3.6,0,5.4,0c1.3,0,2.5,0,4.1,0
			c0.1,1.7,0.2,3.4,0.2,5.4C100.3,234.1,98.9,234.1,97.5,234.1z"/>
		<path fill="#D3AE83" d="M93.2,243.8c0-1.2,0-2.4,0-4c1.4-0.5,2.9-1,4.3-1.5c1.5,0,3.2-0.4,4.3,2c0,0.7,0,2,0,3.4
			C99,243.8,96.1,243.8,93.2,243.8z"/>
		<path fill="#C3A178" d="M101.9,173.4c0,1.3,0,2.5,0,4.2c-3.1,0.4-6.3,0-9.8,0.3c0-1.6,0-3,0-4.4
			C95.4,173.4,98.6,173.4,101.9,173.4z"/>
		<path fill="#5E4C37" d="M82.4,142c0,1.6,0,3.2,0,4.8c-1,1.7-3.6-0.8-4.3,1.7c-0.4,0-0.7,0-1.1,0c0-0.4,0-0.7,0-1.1
			c0-1.4,0-2.9,0-4.3c0.2-0.2,0.3-0.4,0.5-0.5C79,141.8,80.6,141.1,82.4,142z"/>
		<path fill="#CDA87D" d="M122.3,209.4c-1.5-0.4-2.7-0.8-4-1.2c0-1.6,0-2.8,0-4.4c1.2-0.1,2.5-0.1,4-0.2
			C122.3,205.6,122.3,207.3,122.3,209.4z"/>
		<path fill="#2E6091" d="M158.2,101.9c1.3,0,2.5,0,4,0c0.4-3.1,0.7-6.3,1.2-9.8c1.9,0,3.2,0,4.6,0c0,8.1,0,16.2,0,24.7
			c1.7,0.1,3.4,0.2,5.4,0.2c0-8.5,0-16.7,0-25c1.5-1.3,2.7-2.8,4.1-4.3c3.2-3.5,7.2-3.5,11.1-0.1c0,9.8,0,19.5,0,29.3
			c-9.3,6.2-19.2,9.3-31.1,5.7C156.6,115.7,155.1,108.7,158.2,101.9z"/>
		<path fill="#2E6091" d="M228.6,97.5c0,6.9,0,13.7,0,20.6c-3.4,2.1-7.9,1.5-10.8,5c-1,1.2-3,0.5-4.4-0.7c-1.4,0-2.9,0-4.3,0
			c-3.7,2.4-7.4,2.2-11.2,0.1c-1.9-2.9-1.4-6.3-1.3-9.4c0.2-6.9-1-14,0.9-20.3c1.8-1.9,3.5-2.1,5.4-1.5c2.5,1.4,2.2,3.9,2.3,6.1
			c0.2,2.5-0.3,5,0.9,7.2c2,1.4,3.8,1.3,5.7,0.3c1.8-1.6,1.5-3.8,1.2-5.6c-0.9-5.4,2.7-8.7,5.6-12.3c1.2-1.4,2.8-1.4,4.6-0.3
			c1.6,3.4-0.5,7.4,1.1,10.9C225.8,97.5,227.2,97.5,228.6,97.5z"/>
		<path fill="#2A5681" d="M224.3,97.5c-0.4-0.5-1-0.9-1-1.4c-0.1-3,0-6.1,0-9.3c-1.4,0-2.6,0-4.2,0c-0.1,1.5-0.2,3.2-0.3,5.1
			c-1.3,0-2.5,0-3.8,0c-0.2,0.6-0.4,1.1-0.4,1.6c0,4.1,0,8.3-0.1,12.4c0,0.5-0.7,0.9-1,1.4c-2.8-3.7-0.5-8.1-2.1-12.5
			c-1.1-1.7-3.2-3.2-4.5-5.3c-2.1-0.3-1.9,2-3.2,2.6c-1.6,0-3.2,0-4.8,0c-0.1,0.1-0.3,0.2-0.4,0.4c-0.1,0.1-0.2,0.3-0.2,0.5
			c0,9.8,0,19.7,0,29.5c1.4,5.1,0.6,6.1-4.3,5.4c0-17,0-34,0-50.9c3.8-2.7,4.8,1.1,6.7,2.9c2.2-0.2,1.8-3.1,3.4-3.3
			c3.6-1.6,4.6,1.4,6.6,3.3c2.3-1.8,3.9-5.7,8.2-3c1.4,1.5,2.1,4.1,4.3,5.5c0.4,2.5,0.9,5.1,1,7.6C224.4,92.5,224.3,95,224.3,97.5z"
			/>
		<path fill="#295581" d="M158.2,101.9c0,6.7,0,13.4,0,20.6c6.4,0.1,12.8,0,19.1,0c0.7-1.6,1.3-2.9,1.9-4.3c3.2-0.5,6.5,0.8,9.3-1.2
			c0,4.7,0,9.4,0,14.1c-1,1.1-2.1,2-3.7,1.6c-1.7-0.4-2.4-2.1-4.3-2.7c-2.3-0.1-3,3.6-5.3,2.9c-2.4-0.2-2.8-2.3-4.4-2.8
			c-2.2-0.1-2.9,2.7-4.9,2.6c-2.2,0-3-2.1-4.7-2.6c-2.3-0.2-3.2,2.4-5.4,2.3c-2.2-0.1-3.5-1.4-4.2-3.4c-1.4-7.7,0.5-15.7-1.1-22.9
			c-2.9-2.6-7.2-0.2-8.9-4c2.9-2.7,6.5-1.4,9.8-1.7c0.9,0,1.8,0.1,2.7,0.1c0.6,0,1.2,0.1,1.7,0.2
			C156.8,100.8,157.5,101.3,158.2,101.9z"/>
		<path fill="#28537D" d="M213.5,122.4c1.6,0,3.2,0,5.1,0c0.1-1.3,0.3-2.6,0.5-4.3c3.2,0,6.4,0,9.5,0c0,5,0,10,0,15.1
			c1.9,0,3.5,0,5.2,0c0,1.4,0,2.6,0,4c0.1-0.1-0.1,0.2-0.2,0.2c-4.8,0-9.6,0-14.6,0c0-1.5,0-3.1,0-5c-1.9-0.1-3.6-0.2-5.6-0.4
			C213.5,128.8,213.5,125.6,213.5,122.4z"/>
		<path fill="#27517B" d="M223.2,82.4c-1.3,0-2.5,0-4.2,0c-0.1-1.7-0.2-3.4-0.3-5.3c-1.7,0-3.2,0-5.2,0c0,1.6,0,3.3,0,5
			c-2.1,0.3-3.9,0.7-5.4-1.3c0-0.9,0-2.2,0-3.6c-1.5,0-2.9,0-4.4,0c0,1.6,0,3.1,0,4.9c-1.9,0-3.6,0-5.5,0c0-1.7,0-3.2,0-5.2
			c-1.6,0-3,0-4.4,0c0-1.6,0-3.2,0-4.8c0.1-0.1,0.2-0.3,0.4-0.4c0.1-0.1,0.3-0.2,0.5-0.2c9.3,0,18.6,0,27.9,0
			c0.6,0.6,1.1,1.1,1.6,1.6C224.8,76.3,222.3,79.1,223.2,82.4z"/>
		<path fill="#29537D" d="M152.8,130c0.8,0.6,1.7,1.2,2.7,1.9c0.8-0.4,1.7-0.9,2.7-1.3c0-0.8,0-1.5,0-2.5c1.7,0,3.4,0,5.1,0
			c0.5,2.3,0.5,2.3,2.4,4.1c2-1.7,2-1.7,2.5-4.2c1.5,0,3.1,0,5,0c0,1.2,0,2.6,0,4.6c1.6-0.5,2.9-0.7,3.6-1.3
			c0.7-0.6,0.7-1.8,1.2-3.1c1.3,0,3,0,4.6,0c0.5,1.4,1,2.8,1.6,4.2c1.7-0.5,3-0.8,4.3-1.2c0,2.1,0,4.2,0,6.5c-2,0-3.7,0-5.4,0
			c-0.6-0.6-1.1-1.3-1.9-1.7c-1.2-0.1-1.6,1.1-2.4,1.7c-1.8,0-3.6,0-5.4,0c-0.7-0.7-1.4-1.6-2.1-1.9c-1.7,0-2.4,1.1-3.3,1.9
			c-1.8,0-3.6,0-5.4,0c-0.6-0.6-1.1-1.3-1.9-1.7c-1.2-0.1-1.6,1.1-2.4,1.7c-1.8,0-3.6,0-5.4,0c-1.2-1.4-2.2-3-3.5-4.3
			C149.4,131.1,151.2,130.7,152.8,130z"/>
		<path fill="#2A5581" d="M188.5,87.8c-1.1-0.4-2.2-0.9-3.3-1c-1.9-0.2-3.9,0-6.1,0c-0.6,1.6-1.1,3.3-1.9,5.4c-1.1,0-2.5,0-3.9,0
			c0-5.1,0-10.1,0-15.2c1.7-1.3,2.9-3.2,4.3-4.5c1.8-0.5,3.4-0.4,5.2-0.1c1.7,1.7,3.6,3.2,5.7,4.6C188.5,80.5,188.5,84.2,188.5,87.8
			z"/>
		<path fill="#27517B" d="M194,127.9c1.5-0.1,3.2,0.6,4.3-2.6c0-0.1,0-1.5,0-2.8c3.6,0,7.2,0,10.8,0c1,3.2-1.7,6-0.9,9.5
			c-1.4,0.2-2.8,0.3-4.3,0.4c0,1.6,0,3.1,0,5c-3.6,0-7.1,0-11.1,0C193.2,134.2,193.6,131,194,127.9z"/>
		<path fill="#254D75" d="M188.5,76.9c-1.6,0-3.2,0-5.2,0c-0.1-1.3-0.3-2.6-0.4-4.1c-1.5,0-3.1,0-5,0c-0.1,1.1-0.3,2.5-0.5,4.1
			c-1.4,0-2.7,0-4.1,0c0-1.6,0-3.2,0-5.2c2.4-0.5,4.9-0.2,7.3-0.2c2.5-0.1,5,0,7.9,0C188.5,73.4,188.5,75.2,188.5,76.9z"/>
		<path fill="#CDA87D" d="M152.8,143c0,1.9-0.3,3.8,1.1,5.4c0.4,1.6,0.1,3-0.8,4.3c-1.6,1.3-3.2,1.4-4.8,0.3c-1.8-3-1.5-6.1-0.5-9.3
			c0.2-0.2,0.4-0.5,0.7-0.7C149.9,143,151.3,143,152.8,143z"/>
		<path fill="#295581" d="M168,137.6c0-0.9,0-1.8,0-2.7c1.1-0.6,2.3-1.1,3.8-1.9c0.4,0.7,0.9,1.5,1.6,2.8c0,0,0,0.9,0,1.8
			C171.6,137.6,169.8,137.6,168,137.6z"/>
		<path fill="#2D4966" d="M243.8,71.5c0,0.4,0,0.7,0,1.1c-4.5,0-9,0-13.5,0c-0.6,0.7-1.1,1.4-1.7,2.2c0-0.9,0-1.8,0-3
			c2.5-0.5,5.1-0.1,7.7-0.2C238.8,71.5,241.3,71.5,243.8,71.5z"/>
		<path fill="#295581" d="M149.5,133.3c1,0,2,0,3.3,0c0,1.6,0,3,0,4.3c-1.4,0-2.9,0-4.3,0c-1-0.9-1.1-1.9-0.8-3.1
			C148,133.7,148.5,133,149.5,133.3z"/>
		<path fill="#295581" d="M178.8,137.6c0-0.9,0-1.8,0-2.2c0.7-0.9,1.2-1.6,1.8-2.6c1,0.9,1.8,1.5,2.5,2.1c0,1,0,1.9,0,2.8
			C181.7,137.6,180.2,137.6,178.8,137.6z"/>
		<path fill="#295581" d="M158.2,137.6c0-0.9,0-1.8,0-2.2c0.7-0.9,1.2-1.6,1.8-2.6c1,0.9,1.8,1.5,2.5,2.1c0,1,0,1.9,0,2.8
			C161.1,137.6,159.7,137.6,158.2,137.6z"/>
		<path fill="#29537D" d="M148.5,134.4c0,1.1,0,2.2,0,3.3c0,1.4,0,2.9,0,4.3c-0.5,0.4-1,0.3-1.5-0.1c-0.8-1.2-0.9-2.6-0.9-4.1
			c0-1.1,0.2-2.3,0.9-3.2C147.4,134.1,147.9,134,148.5,134.4z"/>
		<path fill="#CDA87D" d="M147.4,142c0.4,0,0.7,0,1.1,0c0,0.4,0,0.7,0,1.1c-0.3,0.4-0.7,0.4-1.2,0.2
			C147.1,142.8,147.1,142.4,147.4,142z"/>
		<path fill="#C33434" d="M279.6,168c3.3,0,6.5,0,9.8,0c0,3.6,0,7.2,0,10.8c-13.3,0-26.5,0-40,0c0,1.4,0,2.6,0,4.2
			c-1.9,0-3.6,0-5.6,0c0,7.2,0,13.9,0,20.7c-0.2,0.2-0.4,0.4-0.6,0.6c-1.4,0.6-2.6,0.6-3.7-0.6c0-10.1,0-20.2,0-30.3
			c2.1-1.5,2.9-4,4.4-5.7c1.5-0.9,2.9-0.9,4.3-0.4c1.9,0.6,2,3,3.6,3.7c1.9-0.6,1.7-2.8,3.4-3.5c3.5-1.7,4.3,1.9,6.2,3.4
			c1.9-0.4,1.9-2.7,3.5-3.4c3.3-1.7,4.6,1.5,6.6,3c1.8-0.5,1.8-2.8,3.2-3.1C276.7,166.7,278.2,166.7,279.6,168z"/>
		<path fill="#BE3333" d="M264.4,231.9c0,4,0,7.9,0,11.9c-5.1,0-10.1,0-15.2,0c-1.3-1.2-1.7-3-3.3-4c-2.4-1.4-3.6-3.5-3.7-6.2
			c-0.3-8.6-0.2-17.3,0-25.9c0-1.5,0.5-2.8,1.5-3.9c2.4,0.7,0.1,2.9,1.7,4.2c0.9,0.4,2.3,1,3.8,1.7c0,8,0,16.1,0,24.3
			c4.6,0,9,0,13.6,0C263.3,233.3,263.8,232.6,264.4,231.9z"/>
		<path fill="#7C2424" d="M254.8,183.2c3.2,0,6.2,0,9.4,0c0,1.6,0,3.2,0,5.1c1.9,0.1,3.5,0.2,5.4,0.4c0,1.2,0,2.4,0,3.8
			c-0.3,0.3-0.8,0.8-1.4,1.3c-4.4,0-8.8,0-13.5,0C254.8,190.4,254.8,187.1,254.8,183.2z"/>
		<path fill="#2E6091" d="M86.7,118.1c-1.2,0-2.5,0-4.1,0c-0.5,6.5-0.1,13-0.2,19.5c-0.6,0.4-1.1,0.3-1.5-0.2
			c-2-3.5-0.4-7.4-1.7-11.8c-2.2,3.5-5.5,3.7-9.4,4.2c-4.4,8.8-11.4,3.2-17.7,2.3c0-3.1,0-6.1,0-9.5c-1.7-0.1-3.4-0.2-5.4-0.4
			c0-3.2,0-6.4,0-9.6c-1.2-1.1-2.8-0.1-4.1-1c-1.2-1.4-0.6-2.9-0.4-4.2c2-2,4.6-1.4,7.7-2.7c1.5-0.7,2.2-5.9,6.6-2.9
			c0,4.8,0,9.7,0,14.5c2.7,2.3,2.7,2.3,5.4,0.7c3.1-1.9,3.9-4.8,3.9-8.2c0-3.8-0.9-7.9,1.3-11.2c2.1-1.9,4.7-1.3,7-2.4
			c4.8-6.6,11.4-5.3,18.1-3.5c2.5,3.7,0.6,6-2.4,7.9c-2.4,2.4-1.3,5.4-1.5,8.1C88,111.3,89.1,114.9,86.7,118.1z"/>
		<path fill="#295580" d="M92.1,92.1c-4.9,0-9.7,0-15,0c-0.1,1.7-0.2,3.4-0.4,5.2c-3,0-6,0-8.9,0c-0.3,0.3-0.4,0.4-0.5,0.6
			c-0.1,0.1-0.2,0.3-0.2,0.5c0,6.1,0,12.2,0,18.7c-1.9,0-3.7,0-5.4,0c0-14.7,0-29.4,0-44.1c1.7-0.6,3.3-1.2,5.3-1.9
			c0-0.9,0-2.2,0-3.8c8.6,0,16.8,0,25,0c0,1.4,0,2.9,0,4.3C94.8,78.4,94.9,85.2,92.1,92.1z"/>
		<path fill="#2A5580" d="M52,132.2c4.6-0.8,9,1.6,13.6,1c0.4-0.4,0.8-0.8,1.5-1.5c0-1,0-2.3,0-3.8c3.4,0,6.4,0,9.8,0
			c0-1.9,0-3.6,0-5.4c1.6,0,2.8,0,4.4,0c0,5.1,0,10.1,0,15.1c-2,1.4-3.1,3.5-4.3,5.4c-5,0-9.9,0-15,0c0-1.8,0-3.3,0-5.2
			c-1.8-0.1-3.5-0.2-5.4-0.3c0-1.3,0-2.4,0-3.3C55.3,132.2,52.7,134.7,52,132.2z"/>
		<path fill="#2A5581" d="M56.3,101.9c-1.4,0-2.8,0-4.3,0c0,1.9,0,3.4,0,5.3c-3.3,0-6.4,0-9.6,0c0,1.5,0,2.7,0,4.1
			c0.9,1.4,3.5-1.1,4.2,1.4c-1.6,0-3.2,0-5.3,0c-0.4-2.8-0.1-5.6-0.1-8.4c-0.1-2.7,0.2-5.4-0.1-8.1c-0.2-2.9,0.8-5.4,1.4-8.1
			c4.5-0.8,9-2.9,13.9,0.6C56.3,92.6,56.3,97.2,56.3,101.9z"/>
		<path fill="#2E5F91" d="M234.1,97.5c0-1.7,0-3.5,0-5.3c1.9,0,3.4,0,5.3,0c0-1.8,0-3.5,0-5.6c3.5,0.5,6.8-0.7,9.9,1.2
			c2.2,2.4,1.4,5.4,1.6,8.2c0.2,4.4-0.4,8.9,0.4,12.8c0.7,2.2,2.6,2.6,3.4,4c0,1.3,0,2.5,0,4c-5,2.3-9.9,2-15.2,0.1
			c0-6.4,0-12.6,0-19.3C237.6,97.5,235.8,97.5,234.1,97.5z"/>
		<path fill="#203D5B" d="M254.6,112.7c-1.6,0-3.2,0-4.8,0c-0.1-0.1-0.3-0.2-0.4-0.3c-0.1-0.1-0.2-0.3-0.2-0.4c0-8,0-16.1,0-24.1
			c0-3.2,0-6.4,0-9.6c1.5,0,2.7,0,4.3,0c0,7.5,0,14.9,0,22.4c0,0.9-0.7,2.3,1,2.5c2.7,0,5.4,0,8.5,0c0.1,1.3,0.2,2.6,0.3,4.1
			c-1.4,0-2.6,0-4.2,0c-0.1,1.9-0.2,3.6-0.4,5.6C257.4,112.7,256,112.7,254.6,112.7z"/>
		<path fill="#C13334" d="M218.9,226.5c0,4.1,0,8.3,0,12.8c-1.7,0.1-3.4,0.2-5.4,0.4c0,1.4,0,2.8,0,4.2c-5.1,0-10.1,0-15.2,0
			c-1.6-1.7-1.7-3.9-1.7-6.1c-0.1-14.4-0.1-28.7,0-43.1c0-2,0.1-4,1.2-5.7c1.6-1.8,3.6-1.8,5.7-1c2.1,1.7,1.8,4.2,1.8,6.4
			c0.1,6.3,0,12.5,0,18.8C205.3,223.8,208.5,226.9,218.9,226.5z"/>
		<path fill="#A12D2D" d="M198.3,188.5c0,18.4,0,36.8,0,55.3c-1.4,0-2.9,0-4.3,0c-2.2-3.1-2.5-6.6-2.4-10.2
			c-0.1-11.1-0.4-22.3-0.3-33.4c0-3.1,0.1-6.1,1.1-9.1c0.9-2.5,2.2-4.1,5.2-3.2C197.8,188.1,198,188.3,198.3,188.5z"/>
		<path fill="#B83232" d="M192.9,234.1c0.4,3.3,0.7,6.5,1.1,9.8c-3.6,0-7.2,0-10.8,0c-0.6-0.6-1.2-1.4-1.9-1.9
			c-1.3,0-1.6,1.3-2.4,1.9c-1.8,0-3.6,0-5.4,0c-0.6-0.6-1.2-1.4-1.9-1.9c-1.3,0-1.6,1.3-2.4,1.9c-2.1-0.4-1-2-1-3
			c-0.1-13.5-0.1-26.9-0.1-40.4c0-4,0-7.9,0-11.9c0.3-0.1,0.6-0.2,0.8-0.2c0.2,0.2,0.5,0.3,0.7,0.5c0.1,0.2,0.3,0.5,0.4,0.7
			c1.3,9,0.3,18,0.6,27c0.2,4.8-0.4,9.7,0.4,14.4c1.3,1.9,2.9,3.3,4.5,4.8c2.3-0.5,3.6-3.5,5.9-2.5c2.2,0.3,2.8,2.2,4.2,3
			c1.8,0,1.8-2,3.1-2.7C190.2,232.8,191.6,233,192.9,234.1z"/>
		<path fill="#584632" d="M168,188.5c-1.4,0-2.9,0-4.3,0c-0.7,0.3-1.3,0.1-1.7-0.6c-1.8-5.4-1.2-10.9-0.6-16.4
			c0.4-4.1,2.3-4.9,6.7-3.7C170.4,174.8,170.4,181.7,168,188.5z"/>
		<path fill="#523D2B" d="M162.5,188.5c0.4,0,0.7,0,1.1,0c0,3.2,0,6.3,0,9.8c-2,0-3.7,0-5.4,0c-2.4-3.3-1.8-6.5-0.5-9.5
			C159.7,187.4,161.1,187.5,162.5,188.5z"/>
		<path fill="#C13434" d="M169,243.8c0-1.3,0-2.5,0-4.1c1.3-0.1,2.6-0.1,4.3-0.2c0,1.6,0,3,0,4.4C171.9,243.8,170.5,243.8,169,243.8
			z"/>
		<path fill="#C13434" d="M178.8,243.8c0-1.3,0-2.5,0-4.1c1.3-0.1,2.6-0.1,4.3-0.2c0,1.6,0,3,0,4.4
			C181.7,243.8,180.2,243.8,178.8,243.8z"/>
		<path fill="#C13434" d="M168,188.5c0-6.9,0-13.7,0-20.6c1.7,0,3.4,0,5.4,0c0-1.6,0-3,0-4.3c15.2,0,30.3,0,45.5,0
			c2.9,6.1,1.7,12.5,0.9,18.8c-0.3,0.6-0.8,1.1-1.4,1.5c-6.6,1.3-13.2,1.5-19.8-0.1c-1.8-4.2-1.1-5.9,2.8-7.1
			c2.6-0.8,5.4-0.1,7.9-1.3c-11.2,1-22.9-3.7-33.3,3.1c-2,0.5-3-1.3-4.8-1.6c-1.9,3.7,0.8,8.3-2.3,11.7
			C168.7,188.5,168.3,188.5,168,188.5z"/>
		<path fill="#BC3233" d="M218.9,183.1c0-6.5,0-13,0-19.5c3.1,0,6.1,0,9.5,0c0.1,1.3,0.3,2.6,0.5,4.3c1.3,0,2.7,0,4.1,0
			c0.4,1.1,1,2.2,1,3.3c0.2,2.5,0,5,0,7.5c-3.6,0.9-7.3,1-9.9,4.5C223,184.8,220.6,184.8,218.9,183.1z"/>
		<path fill="#D13838" d="M218.9,183.1c1.6,0,3.2,0,5.2,0c0.1-1.3,0.2-2.6,0.4-4.2c3.2,0.4,6.3-2.8,9.6-0.1c0,8.2,0,16.4,0,24.9
			c1.6,0,3,0,4.3,0c1,1.1,1.4,2.5,1.5,4c0.1,7.6,0.2,15.2,0,22.7c0,1.3-0.3,2.5-1.4,3.8c-3.1,1.9-6.4,2.2-9.8-0.2
			c-1.4,0-2.7,0-4.2,0c0-3.3,0-6.3,0-9.1c-0.6-0.6-1.1-1.1-1.6-1.6c-1.2,0-2.4,0-3.9,0c0,1.1,0,2.1,0,3.1c-0.5,0.6-1,1.2-1.7,2
			c-2.3,0-4.9,0-7.8,0c-0.1-0.8-0.3-1.8-0.5-3.1c-1.5-0.8-3.1-1.7-5.2-2.8c0-11.1,0-22.6,0-34.1c3.6-2.9,8-0.6,11.8-2.1
			C217.1,185.8,217.8,184.2,218.9,183.1z"/>
		<path fill="#A32D2D" d="M243.8,203.7c0,11,0,21.9,0,32.9c0.2,2.8,3.7,0.7,4.3,2.9c-0.7,1.7-1.9,3.1-3.3,4.3c-0.4,0-0.7,0-1.1,0
			c-4.4-3-5.8-6.6-5.1-12.3c1.2-9.2-0.5-18.6,0.8-27.8C240.9,203.7,242.4,203.7,243.8,203.7z"/>
		<path fill="#B83232" d="M239.5,203.7c0,11.7,0,23.4,0,35.5c1.3,0.1,2.6,0.3,4.3,0.5c0,1.3,0,2.7,0,4.1c-5,0-9.9,0-15.2,0
			c0-3.4,0-6.6,0-9.8c3.2,0,6.4,0,9.8,0c0-10.3,0-20.3,0-30.3C238.8,203.7,239.1,203.7,239.5,203.7z"/>
		<path fill="#A32D2D" d="M244.9,243.8c0.4-1.4,0.8-2.7,1.3-4.3c0.7,0,1.3,0,2,0c0.4,0.4,1,0.8,1,1.3c0.2,1,0,2,0,3.1
			C247.8,243.8,246.3,243.8,244.9,243.8z"/>
		<path fill="#B93232" d="M279.6,168c-1.6,0-3.2,0-5.2,0c-0.1,1.7-0.2,3.4-0.3,5.2c-1.3,0-2.5,0-3.8,0c-0.5-1.6-1.1-3.3-1.8-5.1
			c-1.3,0-2.5,0-3.9,0c0,1.6,0,3.2,0,5c-1.9,0-3.6,0-5.5,0c0-1.5,0-3,0-4.9c-1.5,0-2.9,0-4.4,0c0,1.6,0,3.1,0,4.9
			c-1.9,0-3.6,0-5.5,0c0-1.6,0-3.2,0-5c-1.9,0-3.6,0-5.5,0c0,1.7,0,3.3,0,5.2c-1.6,0-3,0-4.4,0c0-3.2,0-6.4,0-9.8
			c13.6,0,26.8,0,40.1,0C279.6,165.1,279.6,166.5,279.6,168z"/>
		<path fill="#1C3B5A" d="M155,101.9c-0.7,0-1.4,0-2.2,0c-2.9-4.7-1.3-9.8-1.6-14.8c0-3.3-0.2-6.6,0.1-9.8c0.1-1.3,0.4-2.6,1.5-3.6
			c1.9,0,3.8,0.3,5.4-1.1c0,9.8,0,19.5,0,29.3c-0.7,0-1.4,0-2.2,0c-1-1.2-0.3-2.7-0.5-3.9C155.3,99.2,155.9,100.6,155,101.9z"/>
		<path fill="#DAB68B" d="M122.4,111.6c-1.6,0-3.2,0-4.9,0c-0.1,0.1-0.3,0.2-0.4,0.4c-0.1,0.1-0.2,0.3-0.2,0.5c0,9.9,0,19.9,0,29.8
			c0,0.2-0.1,0.3-0.3,0.6c-2.9,0-6,0-9.4,0c0-6.6,0-13.4,0-20.3c-3.4,0-6.4,0-9.8,0c0,3.1,0,6.3,0,9.5c-3.4,0-6.4,0-9.8,0
			c0-4.7,0-9.3,0-14c2.5-3.4,3.4-7.3,2.8-11.5c0-1.6,0.2-3.2,1.1-4.5c1.5-1.6,3.4-1.7,5.3-1.7c1.5,0,3,0,4.3,1
			c1.4,1,1.9,2.9,3.1,3.9c1.9,0.7,3.6,0.7,5.2,0.2c1.7-0.8,1.9-2.6,3.1-3.6c1-1.1,2.5-1.3,3.5-2.8c0.7-2.9,0.6-6.1-0.1-9.4
			c-2-1.6-4-3.3-5.8-5.3c-1.8-0.6-3.6-1.1-5.7,0.2c2.6,1.5,5.9-0.1,7.9,2.5c2.7,4.9,2.6,9.8,0.3,14.7c-3.3,2.3-6.8,2.2-10.4,0.5
			c-1.3-1-1.8-2.3-1.2-3.9c0.7-1.8,3.4-1.7,4.1-4.4c-2.6,0.8-2.6,3.5-4.4,4.2c-1.6,0.5-3.1,0.3-4.1-1.2c-1.7-8.1-1.4-16.2,0-24.9
			c8.9,0.3,17.3-0.6,25.6,0.5c0,1.4,0,2.9,0,4.3c0.5,0.5,1,1.1,1.1,1.8c1,10.4,1,20.7,0,31.1C123.5,110.5,123,111.1,122.4,111.6z"/>
		<path fill="#2A5681" d="M122.4,111.6c0-11.6,0-23.1,0-34.7c1.8,0,3.6,0,5.4,0c1.7-1.3,2.9-3.2,4.4-4.5c3.1-0.7,5.9-0.7,7.6,2.5
			c2.5-1.3,4.1-4.1,7.1-2.5c2,1.2,3.8,3,5.8,4.5c0,3.3,0,6.5,0,9.8c-3.9,2.7-8.4,1.3-12.6,1.5c-3.3,0.1-6,0.9-7.6,4
			c-3.7,3.5-4.4,8.7-2.5,16.4c1.7,3.1,7-0.4,7.3,4.5c-4.7,1.9-9.5,1.6-14.3,0.3c-0.2-0.2-0.5-0.5-0.7-0.7
			C122.4,112.3,122.4,112,122.4,111.6z"/>
		<path fill="#CDA87D" d="M97.5,101.9c-1.7,0-3.4,0-5.4,0c0,2,0,3.7,0,5.4c-1.4,1.1-2.9,1.1-4.6,0c-0.2-3.2-0.7-6.5,0.3-9.7
			c1.4,0,2.7,0,4.3,0c0-2,0-3.7,0-5.4c0-6.9,0-13.7,0-20.6c10.1,0,20.2,0,30.3,0c0,0.4,0,0.7,0,1.1c-8.2,0-16.4,0-24.9,0
			c0,8.5,0,16.7,0,24.9C98.7,99,98.7,100.4,97.5,101.9z"/>
		<path fill="#254D75" d="M152.8,76.9c-1.2,0-2.5,0-3.9,0c-0.6-1.3-1.2-2.6-1.9-4.2c-1,0-2.2,0-3.8,0c-0.1,1.2-0.2,2.5-0.4,4
			c-1.6,0-3.2,0-5,0c-0.1-1.2-0.2-2.5-0.4-4c-1.6,0-3.2,0-5,0c-0.1,1.1-0.3,2.5-0.4,4.2c-1.4,0-2.8,0-4.1,0c0-1.6,0-3.2,0-5.4
			c8.2-0.1,16.4,0,24.9,0c0,0.8,0,1.5,0,2.2C152.8,74.8,152.8,75.9,152.8,76.9z"/>
		<path fill="#2E6091" d="M102.9,56.2c0-1.1,0-2.4,0-3.9c2.2-0.6,4.5-0.2,6.7-0.3c2.3-0.1,4.6,0,7.2,0c0,1.4,0,2.7,0,4.2
			C112.2,56.2,107.6,56.2,102.9,56.2z"/>
		<path fill="#DAB68B" d="M162.5,188.5c-1.4,0-2.7,0-4.3,0c0,3.5,0,6.6,0,9.8c-3.3,0-6.5,0-9.8,0c0-1.2,0-2.5,0-4.3
			c-1.6-0.5-3.3-1-5.4-1.7c0-1,0-2.4,0-3.7c-1.5-1.8-1.4-3.6-0.2-5.4c3.4-2.4,5.1,0.4,7.3,3.3c-0.4-2.6-2.5-3.1-2.5-4.9
			c-0.7-2.5,1.9-3.6,2.6-5.9c-3.2-3.4-4.6-6.9,0.6-10.1c-3.7-4-5.4-8.1-2.4-12.8c1.3,0,2.5,0,3.8,0c1.7-1-0.8-3.6,1.7-4.3
			c1.4,0,2.9,0,4.3,0c1.2,1.6,2.7,3.1,4.3,4.3c0,1.7,0,3.4,0,5.4c2,0,3.7,0,5.4,0c0,3.3,0,6.5,0,9.8c-3.3,0.1-3.3,0.1-5.4,1.6
			C162.5,175.8,162.5,182.2,162.5,188.5z"/>
		<path fill="#4F3F2C" d="M93.3,248c0-1,0-1.9,0-2.9c6.1,0,12.1,0,18.2,0c0,1,0,1.9,0,2.9C105.4,248,99.4,248,93.3,248z"/>
		<path fill="#4F3F2C" d="M162.5,152.8c-1.4,0-2.7,0-4.3,0c0-1.6,0-3,0-4.3c1.4,0,2.9,0,4.3,0C162.5,149.9,162.5,151.3,162.5,152.8z
			"/>
		<path fill="#D9B58A" d="M91.9,228.6c-1.4,0-3.1,0-5,0c-0.3-1.9-0.8-3.7,1.1-5.1c1.2,0.4,2.4,0.7,3.9,1.2
			C91.9,225.9,91.9,227.2,91.9,228.6z"/>
		<path fill="#D3AE83" d="M91.9,234.2c0,1.2,0,2.6,0,4.1c-1.7,0-3.2,0-5,0c0-1.3,0-2.6,0-4.1C88.6,234.2,90.4,234.2,91.9,234.2z"/>
		<path fill="#DAB68B" d="M97.4,219c0,1.2,0,2.6,0,4.1c-1.7,0-3.2,0-5,0c0-1.3,0-2.6,0-4.1C94.1,219,95.8,219,97.4,219z"/>
		<path fill="#D9B58B" d="M97.4,213.3c-1.6,0-3.3,0-5.1,0c0-1.3,0-2.5,0-4c1.6,0,3.3,0,5.1,0C97.4,210.7,97.4,212.1,97.4,213.3z"/>
		<path fill="#DAB68B" d="M147.4,142c0,0.4,0,0.7,0,1.1c1.2,2.9,0,6,0.7,9c-3.2,2.8-3.6,6.3-3.5,10.2c0.1,3.4,0.4,6.8-0.5,10.1
			c-0.2,0.6-0.6,1.1-1,1.5c-1.1,0.9-2.6,1.2-3.3,2.5c-1.7,3.9,0.8,8.5-2.1,12.2c-5.1,0-10.1,0-15.2,0c0-1.6,0-3.2,0-5.2
			c1.7-0.1,3.4-0.2,5.4-0.4c0-1.4,0-2.8,0-4.2c1.3,0,2.5,0,3.8,0c0.5-0.5,1-1,1.5-1.6c0-6.1,0-12.4,0-19c-1.8,0-3.6,0-5.3,0
			c0-1.8,0-3.6,0-5.4c0.7-1.1,2.3-1.1,2.9-2.7c-1-2-5.1-2.6-3.6-6.1c0.5-2.1,3.1-1.8,3.8-3.6c-0.4-1.7-2.4-1.5-3.1-2.8
			c0-1.4,0-2.9,0-4.3c-0.2-1.5,0.9-2,1.9-1.8c4.2,0.7,8.4-0.4,12.6,0.5c0.4,0.3,0.8,0.6,1.1,1c0.7,2,2.2,3.4,3.9,4.6
			C147.4,139.1,147.4,140.5,147.4,142z"/>
		<path fill="#29537D" d="M143,133.3c-0.6-0.3-1.2-0.7-1.8-1.1c-3.4,1.3-6.9,1.8-10.5,0.2c-0.9-0.4-2.4-1.1-2.9,0.8
			c-3.2,0-6.3,0-9.8,0c0-3.8,0-7.3,0-10.8c3.4-2.7,7.6-0.7,12.3-2.2c-2.4-0.9-4.3-0.5-5.9-1.1c-1.2-0.5-3.1-0.7-1.5-2.8
			c4.6-1.7,9.3-0.9,14-0.7c2.6,0.2,5.2,1.6,7.7,0.2c2.4-2.5-0.3-6.8,3.3-8.7c1.9,1,2,2.9,2,4.7c0.2,6.9,0.6,13.9-2,20
			C146.2,133.5,144.7,133.6,143,133.3z"/>
		<path fill="#D2AD82" d="M127.9,137.6c1.6,0,3.2,0,5.2,0c0.1,1.6,0.2,3.3,0.3,5.4c-1.9,0-3.6,0-5.4,0c0,1.6,0,2.8,0,4.2
			c1.2,0,2.4,0,3.3,0c2.3,1.5,2.3,3.3,1.8,5.6c-1.7,0-3.4,0-5.2,0c-1.5-2-3.9-2.9-5.5-4.2c-1.3-2.1-1.3-3.9,0.1-5.5
			c0-1.7,0-3.4,0-5.4C124.4,137.6,126.1,137.6,127.9,137.6z"/>
		<path fill="#2E6091" d="M122.4,117c0.5,0.4,0.9,1,1.4,1c3,0.1,6,0,9.3,0c0,1.4,0,2.8,0,4.3c-5,0-10,0-15,0c0-3.1,0-6.3,0-9.8
			c1.6,0,3,0,4.3,0C123.6,114.1,123.6,115.6,122.4,117z"/>
		<path fill="#DAB68B" d="M122.4,143c0,1.6,0,3.2,0,5.2c1.7,0.1,3.4,0.2,5.4,0.4c0,1.4,0,2.8,0,4.2c-3.1,0-6.1,0-9.6,0
			c-0.2-3.1-0.1-6.2-0.1-9.8C119.7,143,121.1,143,122.4,143z"/>
		<path fill="#C3A078" d="M87.8,97.5c0,3.1,0,6.3,0,9.8c1.6,0,3,0,4.3,0c0,3.1,0,6.1,0,9.2c-1,1.7-3.6-0.8-4.3,1.7
			c-0.4,0-0.7,0-1.1,0c0-6.2,0-12.5,0-18.7C86.7,98.6,86.3,97.5,87.8,97.5z"/>
		<path fill="#253F5A" d="M76.9,143c0-1.7,0-3.4,0-5.4c1.6,0,3,0,4.3,0c0.4,0,0.7,0,1.1,0c0,1.4,0,2.9,0,4.3
			C80.8,143.4,78.8,143,76.9,143z"/>
		<path fill="#CEA97E" d="M137.6,188.5c0-4.9,0-9.9,0-15.2c1.9,0,3.7,0,5.4,0c0.6,0.5,0.9,1.3,1.7,1.7c-0.4-0.8-1.2-1.1-1.7-1.7
			c0-6.7,0-13.3,0-20.3c1.3-0.1,2.6-0.3,4.3-0.5c0-3.1,0-6.3,0-9.5c0.4,0,0.7,0,1.1,0c0,3.3,0,6.5,0,9.8c0,3.1,0,6.1,0,9.5
			c1.3,0.1,2.6,0.3,4.2,0.5c0,1.5,0,3.1,0,5c-1.2,0.1-2.5,0.2-4,0.4c0,1.6,0,3.2,0,5.1c1.2,0.1,2.6,0.2,4,0.3c0,1.3,0,2.5,0,3.8
			c-0.5,0.5-1,1-1.5,1.5c-0.7,0-1.4,0-2.5,0c-0.1,1.3-0.1,2.6-0.2,4.2c1.4,0,2.6,0,4.1,0c0,1.9,0,3.6,0,5.3c-1.7,0.2-3.5,1-5-1.5
			c0-0.7,0-1.9,0-3.4c-1.5-0.1-2.8-0.2-4.5-0.3c0,2,0,3.7,0,5.5C141.2,188.5,139.4,188.5,137.6,188.5z"/>
		<path fill="#1C3A59" d="M203.7,92.1c0-1.6,0-3.2,0-5.2c1.8-0.4,3.6-0.8,5.3,1.3c0,1,0,2.2,0,3.7c1.5,0.1,2.8,0.2,4.5,0.3
			c0,5.1,0,10,0,15c-3.2,0-6.3,0-9.8,0C203.7,102,203.7,97.1,203.7,92.1z"/>
		<path fill="#2E5F91" d="M132.2,92.1c0.1-3.3,0.1-3.3,1.6-5.4c6.3,0,12.6,0,19,0c0,5.1,0,10.1,0,15.2c-3.6,0-7.2,0-10.8,0
			c-1.1,1.1-2.4,1.2-3.8,0.7c-0.5-0.2-0.9-0.6-1.2-1c-1.4-3,0.7-7.6-4.3-8.9C132.5,92.5,132.4,92.3,132.2,92.1z"/>
		<path fill="#1C3B5A" d="M137.6,101.9c1.4,0,2.9,0,4.3,0c0.5,0.4,0.9,1,1.4,1c3,0.1,6.1,0,9.4,0c0,9.2,0,18.1,0,27.1
			c0,0.5,0,1.1,0,1.6c-0.6,1.5-3-0.6-3.3,1.7c-0.4,0.4-0.7,0.7-1.1,1.1c-0.4,0-0.7,0-1.1,0c-1.6,0.3-3.1,0.2-4.3-1.1
			c0.7-2.3,2.8-0.4,4.1-1.4c0.4-3.6,1.1-7.3,1.3-11c0.2-3.9,0.1-7.8,0-11.7c0-0.8,0.4-1.9-1.1-1.9c-3.3,2.4-6.6,1.9-9.7,0.4
			C136.2,105.4,136.1,103.6,137.6,101.9z"/>
		<path fill="#1C3A59" d="M155,101.9c0-1.4,0-2.8,0-5.2c1.6,2.3,0.8,3.8,1.1,5.2C155.7,101.9,155.3,101.9,155,101.9z"/>
		<path fill="#1C3A59" d="M143,133.3c1,0,2.1-0.1,3.1,0c0.5,0.1,0.9,0.7,1.3,1c0,1.1,0,2.2,0,3.3c-1.4,0-2.7,0-4.3,0
			C143,136,143,134.6,143,133.3z"/>
		<path fill="#A32D2D" d="M218.9,183.1c0,1.7,0,3.5,0,5.4c-5.3,0-10.2,0-15.2,0c-1.8,0-3.6,0-5.4,0c-1.4-1.8-1.6-3.6,0-5.4
			C205.2,183.1,212,183.1,218.9,183.1z"/>
		<path fill="#D13838" d="M198.3,183.1c0,1.8,0,3.6,0,5.4c-1.3,0-2.5,0-3.8,0c-2,4.8-1.6,10-1.6,15c0,6.7,0,13.4,0,20
			c0,1.5-0.3,3,0.9,4.5c1.4,1.8-1.1,3.8-0.9,5.9c-1.4,0-2.9,0-4.3,0c-1.2-0.8-1.6-2.4-2.9-3.2c-2.5-1.3-5.9-0.2-7.9-2.8
			c-1.3-1.8-0.6-3.8-0.6-5.8c0-2.2,0.2-4.8-1.5-6.1c-4.1-3.4-3.8-7.8-3.8-12.3c0-3.2,0.1-6.5-0.1-9.7c-0.1-2.3-0.8-4.2-2.7-5.6
			c0-4.9,0-9.8,0-15c1.3-0.1,2.7-0.1,4.2-0.2c0,1.5,0,2.7,0,4.1c1.4,0,2.6,0,4.1,0c0.5-1,1.1-2.4,1.8-3.9c11.2,0,22.5,0,34.1,0
			c0,1.2,0,2.5,0,3.9c-4.8,1-9.9-1.1-14.9,1.8C198.3,180.3,198.3,181.7,198.3,183.1z"/>
		<path fill="#C13434" d="M169,188.5c1.3,0,2.5,0,4.1,0c0.4,8.2,0,16.4,0.2,24.7c1.3,0,2.5,0,4,0c0.4,4.7,3.2,9,0.1,13.5
			c0.7,0.7,1.2,1.2,1.8,1.9c2.9,0,5.9,0,9.2,0c0,1.9,0,3.7,0,5.4c0,1.3,0,2.5,0,3.8c-2.6,2-2.6,2-5.4,0.1c0-1.1,0-2.3,0-3.7
			c-1.4,0-2.6,0-4.2,0c-0.8,1.6-1.8,3.5-2.7,5.3c-3.6-0.6-2.8-3-3-5.4c-1.3,0-2.7,0-4.3,0C169,218.7,169,203.6,169,188.5z"/>
		<path fill="#802525" d="M224.1,194.3c0,3.2,0,6.2,0,9.3c-3.5,0-6.9,0-10.5,0c0-1.7,0-3.4,0-5.2c1.6,0,3.2,0,5.1,0
			c0-1.9,0-3.5,0-5.4c1.6,0,2.8,0,4,0C223.3,193.5,223.8,194,224.1,194.3z"/>
		<path fill="#C4A278" d="M112.7,101.9c0-3.9,0.1-7.9,0-11.8c0-1.1-0.7-2.2-1-3.3c-1.1-1.4-1.1-2.9,0-4.3c1,1.7,1.1,2.1,1.3,4.2
			c1.2,0,2.4,0,3.4,0c0.7,0.7,1.2,1.2,1.7,1.7c0,4.4,0,8.9,0,13.6C116.2,101.9,114.4,101.9,112.7,101.9z"/>
		<path fill="#C4A278" d="M101.9,101.9c3.6,0,7.2,0,10.8,0c0,1.6,0,3.2,0,5.2c-1.7,0.1-3.4,0.1-5.1,0.2c-1.8,0-3.6,0-5.7,0
			C101.9,105.4,101.9,103.6,101.9,101.9z"/>
		<path fill="#C09E75" d="M111.6,82.4c0,1.4,0,2.9,0,4.3c-3.1,0-6.1,0-9.6,0c-0.1-1.3-0.1-2.6-0.2-4.3
			C105.2,82.4,108.4,82.4,111.6,82.4z"/>
		<path fill="#C4A278" d="M102,97.4c0-1.6,0-3.3,0-5.1c1.7,0,3.3,0,5,0c0,1.6,0,3.3,0,5.1C105.3,97.4,103.6,97.4,102,97.4z"/>
		<path fill="#C4A278" d="M97.5,101.9c0-1.4,0-2.9,0-4.3c1.4,0,2.9,0,4.3,0c0,1.4,0,2.9,0,4.3C100.4,101.9,99,101.9,97.5,101.9z"/>
		<path fill="#2E5F91" d="M137.6,101.9c0,1.7,0,3.5,0,5.4c3.4,0,6.6,0,9.8,0c0,3.5,0,7,0,11c-3.4-0.5-6.7,0.7-9.8-1.2
			c-1.1-1.4-1.1-2.9,0-4.3c-0.5-0.4-0.9-1-1.4-1c-2.7-0.1-5.3,0-8.2,0c0-6.5,0-12.8,0-19.5c1.4,0,2.7,0,4.1,0
			c1.9,1.8,1.1,4.4,1.9,6.6C134.7,100.3,136.6,100.7,137.6,101.9z"/>
		<path fill="#1C3A59" d="M137.6,112.7c0,1.4,0,2.9,0,4.3c-5.1,0-10.1,0-15.2,0c0-1.4,0-2.9,0-4.3
			C127.5,112.7,132.6,112.7,137.6,112.7z"/>
		<path fill="#DAB68B" d="M143.2,173.5c1.2,0,2.6,0,4.1,0c0,1.3,0,2.5,0,4c-1.3,0-2.6,0-4.1,0C143.2,176.1,143.2,174.7,143.2,173.5z
			"/>
		<path fill="#1D3D5D" d="M137.6,101.9c-1.7,0-3.5,0-5.4,0c0-3.4,0-6.6,0-9.8c1.7,0,3.5,0,5.4,0C137.6,95.6,137.6,98.7,137.6,101.9z
			"/>
	</g>
</g>
</svg>
