<?xml version="1.0" encoding="utf-8"?>
<!-- Generator: Adobe Illustrator 18.1.1, SVG Export Plug-In . SVG Version: 6.00 Build 0)  -->
<svg version="1.1" id="Camada_1" xmlns="http://www.w3.org/2000/svg" xmlns:xlink="http://www.w3.org/1999/xlink" x="0px" y="0px"
	 viewBox="0 0 540 540" enable-background="new 0 0 540 540" xml:space="preserve">
<g>
	<g>
		<path fill="#FEFEFE" d="M1.8,541.8c0-180,0-360,0-540c180,0,360,0,540,0c0,180,0,360,0,540C361.8,541.8,181.8,541.8,1.8,541.8z"/>
		<path fill="#DAB68B" d="M119.2,254.6c0-2.4,0-4.8,0-7.2c0.4-0.2,0.8-0.3,1.1-0.5c0.8,0.2,1.5,0.7,2,1.4c0.7,0.9,1.2,1.9,2.4,2.3
			c2-0.8,2.2-3.2,4-4.2c2.9-1.5,6.1-2.1,9.4-2.2c15.5-3,28,6.2,41.7,10.6c2.4,5.7,7.2,6.2,12.6,6.5c6.7,0.3,13.9-2.1,20,2.9
			c2.8,10.6,1.8,21.2,0.3,32.3c-10.1,4.3-20.4,1.7-30.4,2.4c-5.2,0.3-10.3-0.3-13.6-5.1c-3.7-2.8-8.2-1.8-12.2-2.7
			c-0.9-0.2-1.7-0.6-2.4-1c-2.8-1.5-1.5-6.5-5.8-6.5c-2.2,1.4-1.5,4.3-3.2,6c-1.5,1.7-5,1.7-4.2,5.3c2.9,2,5.1,4.7,7.4,7.2
			c4,0.3,3.8-4.8,7-5.5c4.9-1.1,9.7-1.5,14.4,0.6c2.9,4.5,7,6.1,12.3,5.8c4.2-0.2,8.4-0.4,12.8,1.6c2.7,3.1,4.8,7.3,9.2,9.1
			c1.8,1.6,2.5,3.9,4.2,5.6c4.3,3.1,9.2,1.3,13.8,1.7c5.5,0.5,11.2-1.1,16.5,1.7c1.9,1.8,2.3,4.1,2.5,6.5c0.3,4.1-0.7,8.3,0.6,12.4
			c2.8,1.8,3.4-3.3,6-1.9c0,2.9,0,5.7,0,9c-3.3,0-6.2,0-9,0c-5.5,2-6.4,6.5-6.4,11.6c0,11.7,0.1,23.4,0,35.1c0,3.9,0.2,7.9-2.6,11.1
			c-3.1,3.1-7.4,1.8-11,3.1c-2.7,1.1-3.3,4.1-5.3,5.9c-8.4,4.3-16.9,4.3-25.3,0c-1.9-1.7-2.5-4.6-5-5.8c-4.1-1.5-8.7,0-12.7-2.2
			c-2.5-3-5-6.1-8.2-8.4c-1.5-2.5-1.6-5.2-0.5-7.8c1-2.2,4-2.6,4.9-5c0-3-3.2-3.3-4.4-5.2c-1.2-1.9-1.3-4-0.5-6.1
			c1-2.4,3.9-2.3,5.2-4.4c0.7-3-2-3.3-3.6-4.5c-0.7-0.5-1.2-1.2-1.6-2c-0.9-2.8-0.9-5.4,0.5-8c0.5-0.8,1.2-1.4,2-1.9
			c5.5-3.4,1.9-10.5,6.8-15.2c5.3-3.9,13.3,0.4,20.8-3.6c-9.6-4.3-19.4,0.1-27.5-3.4c-2.9-1.6-3.7-4.5-5.9-6.2
			c-4.2-2.3-8.9-1.1-13.3-1.6c-7.7,0.5-10.8-6.8-16.4-9.7c-2-4-5.1-7-9-9c-12.5-12.1-12-26.4-7.2-41.5
			C115.5,261.5,116.9,257.8,119.2,254.6z"/>
		<path fill="#1C3A59" d="M279.9,119.2c0-2.1,0-4.2,0-6.3c7.9-1.3,96.2-1.8,126-0.6c1.1,2.2,0.1,4.6,0.5,6.9
			c-1.9,2.2-4.6,2.3-7.3,2.5c-4.4,0.4-9-1-14,2c-3.8,11.8,0.3,24.9-2.4,37.3c-0.4,1-1.1,1.8-2,2.5c-2.7,1.2-5.3,1.1-7.6-1
			c-3.6-10.6-0.3-22-3.6-32.6c0-2.3-0.2-4.6-1.6-6.5c-13.1-3.8-26.4-0.5-38.9-1.6c-3.1,2.6-3.1,5.3-3.1,8
			c0.3,26.9,0.3,53.8,0.1,80.7c0.6,5.2-3,10.2-0.6,15.4c1.6,1.3,3.5,1.3,5.4,1.3c1.7-0.1,3.4,0,4.9-1c2-1.4,2-4,3.4-5.7
			c2.9-2.1,6-4,5.4-8.3c0.2-3.4,0.8-6.7,3.8-8.8c2.4-1.2,4.8-1.2,7.2,0c0.8,0.6,1.4,1.3,1.8,2.2c1.5,3.6,0.3,7.6,2.4,13
			c0.4,0.9,3.2,1.5,5.3,3c1.5,1.3,2,3.4,3.6,4.6c1.8,1.2,3.8,1,5.7,1c2.1,0,4.2,0,6.3,0c2-0.1,4,0.2,5.8-0.9
			c1.7-1.2,2.2-3.3,3.8-4.7c2-1.3,4.2-1.4,6.5-1c0.8,0.2,1.6,0.6,2.4,1.1c2.2,2.8,4,6.3,8.5,5.5c2.8-0.1,5.5-0.1,8.3-0.1
			c3.1-0.2,6.1,0,9.1-0.1c2.8-0.3,5.5,0,8.3,0.1c5.9,0.6,7.7,3.8,5.9,9.4c-3,2.2-6.4,1.1-9.6,1.1c-52,0.1-104.1,0-156.1,0.1
			c-3.2,0-6.6-0.9-9.7,0.9c-0.7,0.6-1.6,1.2-2.5,1.6c-2.4,0.8-4.9,0.8-7.4,0.7c-2.7-0.1-5.3-0.4-7.2-2.7c-1.3-2.8-1.2-5.3,1-7.7
			c3.5-2.3,7.5-1.7,11.3-1.7c14-0.1,28,0,42-0.1c3.2,0,6.6,0.6,9.2-2.3c3.7-9.5,0.9-19.4,1.7-29.1c0-1.1-0.1-2.2-0.2-3.2
			c0-15.4,0-30.8,0-46.2c0-1,0.1-2,0.2-3c-0.3-7.2,1.4-14.7-1.3-21.7c-5.4-2.4-10.6-1.7-15.4-0.9c-3.2,1.8-3.2,4.5-3.3,7.2
			c0.3,8.2,0.2,16.3,0,24.5c0.4,11.3,0.4,22.7,0,34c-0.2,4.6-1,9.8-6.7,10c-6.4,0.3-7.4-5.2-7.5-10.1c-0.4-11-0.5-22.1,0-33.1
			c-0.4-7.2,0.7-14.4-0.7-21.5c-1.6-4-8.1-6.1-4.6-12C274.2,118.9,277.7,121.3,279.9,119.2z"/>
		<path fill="#D13838" d="M484,339.5c-0.6,0-1.2,0-1.8,0c-3,3.1-7.3,1.9-11.7,3.4c-3.4,6.3-10.9,5.5-17.1,7.8
			c-1.4,1.6-2.2,3.6-3.7,5c0,15.5,0,31-0.1,46.5c0,1.4,1.2,3.8-1.7,4.1c-3.1-3.5-2.5-7.9-2.6-12c-0.3-10.5,0.4-21-0.9-31.4
			c-2.4,8,0.1,16.4-2.2,24.4c-0.5,1.5-1.5,2.6-2.8,3.5c-2.3,1.3-4.8,1.6-7.4,1.6c-2.5,0.1-5,0.1-7.5,0c-1,0-2,0-3.1-0.1
			c-2.7-0.2-5.2-0.7-7-2.9c-3.2-7.4-1.4-15.3-1.7-23c-0.3-7.6,1.2-15.5-5.9-21.3c-1.7-1.4-1.7-4.4-2.5-6.6
			c-1.3-6.6-0.8-13.2-0.8-19.8c0-15.1,8-23.3,23.1-23.6c15-0.2,30.1-0.1,45.1,0c3.6,0,7.3-0.1,10.5,2.1c2.9,3.2,2.9,7.2,2.7,11
			C484.5,318.7,486.4,329.2,484,339.5z"/>
		<path fill="#1C3A59" d="M95.7,245.6c-3.8-1.2-0.6-4.7-2.4-7c-1.8,0-3.8,0-5.7,0c-1.9-2.9,0-6.1-1.5-9.1c-2.5,0-5.1,0-8.3,0
			c0-3.1,0-6,0-8.3c-3-2.2-3.9,1.6-6.4,0.9c-0.6-0.6-1.5-1.4-2.6-2.4c0-4.8,0-9.8,0-14.6c-2.3-1.8-4.9-0.3-7.3-1.2
			c0-5.3,0-10.3,0-15.7c-2.9,0-5.5,0-7.9,0c-0.5-0.5-0.9-0.7-0.9-0.9c0-14,0-28.1,0-42.4c2.6,0,5.2,0,7.6,0c2.2-2.2,0.3-4.9,1.7-7.3
			c7.9,0,15.9,0,24.5,0c0-6.1,0-12,0-18c2.6-0.1,4.7-0.3,6.7-0.4c1.8-2-0.2-4.7,1.5-7c2.4,0,5,0,8,0c0-2.9,0-5.5,0-7.8
			c0.5-0.6,0.7-1,0.9-1c16.4,0,32.9,0,50,0c0,2.9,0,5.8,0,8.7c-0.3,0.3-0.7,0.7-1,1c-2.6,1.4-5.5,1.3-8.4,1.4
			c-2.4,0.1-4.8,0.1-7.1,0.1c-2.8,0.1-5.7,0.1-8.5,0c-2.7,0-5.4,0-8.1,0c-4.5-0.7-6.3,2.7-8.5,5.4c-1.6,1.2-3.8,1.6-5.2,3.2
			c-1.5,2.4-1.2,5-1,7.7c-0.2,21.5,1.2,43-1.5,64.4c-1.9,0.8-3,1.2-4.2,1.3c-1.5,0.1-3-0.3-4.7-1.7c-4.1-6.4-0.5-14.3-2.8-21.4
			c-0.3-1-0.5-2.1-0.6-3.2c-0.5-5.1-0.4-10.2-0.3-15.3c0-2.2-0.1-4.4-1.4-6.3c-5.4-3.3-10.8-1.2-17.7-0.9
			c-1.4,12.6-2.7,24.7,0.6,36.8c1.8,1.4,4.3,1.6,5.7,3.6c2.2,3.4,1,7.7,2.6,11.2c1.3,2.5,4.5,2.9,6.6,5.8c2.2,3.3,0.8,8.1,2.2,12.3
			c3.7,5.2,8.4,9.2,14,12.3c1.9,4.7,5.4,6.6,10.5,6.4c4.7-0.1,9.6-1,13.9,2c1.9,2.2,2,4.7,0.8,7.3c-2.3,2.4-4.6,4.7-8.1,2.1
			C112.7,244.8,104,248.1,95.7,245.6z"/>
		<path fill="#782323" d="M355.8,406.4c0,2.7,0,5.4,0,8.1c-7.5,1.3-67.6,1.7-92.1,0.6c0-25.2,0-50.3,0-75.5
			c-2.2-2.8-2.4-5.7-0.7-8.7c1.6-2.2,4.8-2.5,5.8-4.3c2.4-4.6,0.3-9.9,4.3-13.2c2.7-1.1,5.2-1,7.5,1.2c2.6,3.8,1.9,8.1,1.9,12.2
			c0.2,22.8-0.2,45.6,0.2,68.5c0,2.1-0.3,4.2,0.8,6.1c1.4,1.9,3.4,2.6,5.7,2.6c2.2,0,4.5,0,6.7,0c0.9,0,1.8,0,2.7,0
			c2.3,0,4.6,0,6.9,0c2.8,0,5.6,0,8.3,0c2.3,0,4.6,0,6.9,0c0.9,0,1.8,0,2.7,0c2.2,0,4.5,0.1,6.7,0c0.9,0,1.8,0,2.7,0
			c2.2,0,4.4,0,6.6,0c2.2,0,4.4,0,6.5,0c0.9,0,1.7,0,2.6,0c2.2,0.1,4.4,0.2,6.4,1.3C355.2,405.7,355.5,406,355.8,406.4z"/>
		<path fill="#CDA87C" d="M144.5,321.5c5.1,0,10.2,0,14.6,0c4.9,1.7,2.9,5.7,3.8,8.8c10.5,0,20.9,0,31.6,0c1.1,3,0.5,5.9,0.5,9
			c-8.2,0-16.2,0-24.9,0c0,5.5,0,10.7,0,15.8c-2.8,1.3-5.2,0.4-7.6,0.7c-1.6-1-2.1-3.6-4.6-3.7c0.8,2.3,3.6,1.9,4.6,3.7
			c0.1,3.1,0.1,6.1,0.1,9.1c-0.5,0.7-1.1,1.2-1.9,1.5c-3.5,0.7-5.1,3.5-6.8,6.2c-1.5,2.3-7,0.2-5.7,5.4c1.4,1.3,3.4,1.3,5,2.2
			c0.7,0.5,1.2,1.1,1.6,1.8c0.9,2.5,0.9,5-0.1,7.5c-0.4,0.7-1,1.3-1.7,1.8c-1.4,0.8-3.3,0.9-4.6,2.1c1.1,2.9,4.1,1.6,5.7,3
			c1.2,1,1.8,2,0.6,3.4c-0.8,0.6-1.7,1-2.6,1.3c-5.1,0.6-10.2,1.6-14.8-1.9c-2.3,0-4.6,0-6.9,0c-1.2,0-2.3-0.2-2.2-1.8
			c1.8-1.9,4.4-3,5.2-4.8c3.2-9.6-1.6-19.3,3.9-27.7c4.5-3.3,4.4-8.1,4.6-13c0.4-9.3-1-18.6,0.9-27.8
			C143.2,323.1,143.8,322.3,144.5,321.5z"/>
		<path fill="#792323" d="M289,263.7c58.8,0,117.6,0,176.4,0c1.2,2.5,0.3,4.9,0.6,7.2c-3.1,3.3-7.2,2.4-11.1,2.5
			c-15.9,0.1-31.9,0.2-47.8,0c-6.4-0.1-11.8,1.4-15.9,6.6c-2.7,2.1-5.7,2.4-8.9,1.2c-2.3-1.2-2.9-3.4-3.8-5.5
			c-3.9-5.1-8.9,0.6-13.1-1.3c-0.9-0.1-1.7-0.3-2.6-0.6c-7.9-1.7-15.6,0.8-23.4,1.4c-2.9,0.1-5.8,0.1-8.7,0c-2.4,0-4.8,0.1-7.2,0
			c-2.8,0-5.7,0-8.5-0.1c-2.8,0-5.6-0.1-8.4-0.5c-0.9-0.1-1.8-0.3-2.7-0.6c-5.1-2.3-11.2,3.5-16-1.9
			C286.5,269.1,286.8,266.3,289,263.7z"/>
		<path fill="#792424" d="M440.7,406.4c0,2.7,0,5.4,0,8.8c-12.4,0.6-24.8,0.2-37.2,0.3c-12.6,0.1-25.1,0-37.8,0
			c-1.8-2.6-0.1-5.7-1.3-9c-2.7,0-5.6,0-8.5,0c-1.8-2.2-2.1-4.6-0.8-7.1c1.6-2.3,5-2,6.7-4.6c1.3-4.3,0.4-9.1,0.6-13.8
			c0-2.5,0-5,1.1-7.3c6.7-4.7,10.8-3.5,12.4,4.2c0.9,4.3,1.1,8.8,5.3,11.5c3.1,3.5,1.7,8,2.9,11.9c1.3,2.6,3.8,2.5,6.2,2.8
			c2.8,0,5.6,0,8.3,0.1c2.3,0,4.7,0,7,0c0.9,0,1.8,0,2.8,0c2.3,0,4.5,0.1,6.8,0.1c2.2,0,4.4,0,6.7,0c0.9,0,1.7,0,2.6,0
			c2.2,0,4.3,0.1,6.5,0.1c0.9,0,1.7,0,2.6,0c2.2,0.1,4.3,0.2,6.3,1.3C440.1,405.7,440.4,406,440.7,406.4z"/>
		<path fill="#1D3B5A" d="M195.1,102.9c-10.5,0-21,0-31.5,0c-2.4-1.8-0.2-4.5-1.5-6.9c-1.6-3-4.8-1.9-8.1-2.2c0-8.2,0-16.4,0-24.9
			c2.5,0,5.1,0,7.5,0c2.2-2.2,0.3-4.9,1.8-7.5c10.4,0,21.1,0,31.8,0c1.5,2.6,0.9,5.1,0.2,7.2c-6.7,4.8-14.8,0.1-21.5,4.7
			c-2.3,5.8-2.4,11.8-0.2,17.9c3.2,3.2,7.3,1.7,11,2c3.5,0.3,7.2-0.3,10.3,2.3C196.3,97.9,196.4,100.4,195.1,102.9z"/>
		<path fill="#1C3A59" d="M204.1,112c22.3,0,44.5,0,66.8,0c1.6,2.1,0.5,4.4,0.8,6.1c-1.4,2.7-3.7,3.5-5.3,5.2c-3.3,3.9-1.6,8.6-2,13
			c-1,11.2,2.2,22.7-2.1,33.8c-2,1.5-4.1,1.5-6.2,0.2c-3.2-4.2-1.8-9.2-2.2-13.9c-0.9-10.7,1.9-21.5-1.6-32
			c-2.7-3.3-6.4-2.7-9.9-2.6c-8,0.2-16-0.5-23.7,0.4c-2.8,1.6-3.3,4.6-5.3,6.4c-2.8,2.1-5.8,2.2-8.9,0.7c-2.3-1.8-2.6-4.5-2.8-7.1
			c-0.1-1-0.1-2,0-3.1C201.7,116.4,202.3,114,204.1,112z"/>
		<path fill="#A22D2D" d="M390.1,279.9c0-2.1,0-4.2,0-7c4,0.7,7.4-1.9,11.4-2c4.2-0.1,8.4,0,12.5,0c17.3,0,34.6,0,51.9,0
			c4.7,0,9.3,0,14,0c1.2,0,2.4,0.1,2.2,1.8c-4.7,3.7-10.2,2.5-15.5,2.5c-3.1,0-6.2,0.2-9.3,0c-2.5,0-5.1,0.1-7.6,0c-3,0.1-6,0.1-9,0
			c-3,0.1-6,0.1-8.9,0c-2.5,0.1-4.9,0.1-7.4,0c-2.9,0.1-5.8,0.1-8.7,0c-2.7,0-5.5,0-8.2,0c-1.7,0.1-3.6-0.2-4.9,1.3
			c-1.3,1.5-0.9,3.3-1,5.1c0.1,3,0.1,5.9,0.1,8.9c0.4,13,0.2,26.1,0.1,39.1c0,3.5-0.1,7.2-2.5,10.1c-3,2.2-6,2.2-10.5-0.7
			c-3.4-12.4-1-26.2-1.6-39.7c0.5-3.3-0.1-6.7,0.3-10C387.5,285.9,387.7,282.6,390.1,279.9z"/>
		<path fill="#7A2424" d="M484,339.5c-1.8-2.2-1.8-4.7-1.8-7.3c0.1-11.4,0-22.8,0-34.2c-3.5-4.3-2.3-9.3-2.1-14.2
			c0.2-1,0.5-1.9,1-2.8c0.4-0.3,0.7-0.7,1.1-1c2.7,0,5.4,0,8.2,0c0.2,0.2,0.4,0.4,0.6,0.6c0.1,0.2,0.3,0.5,0.3,0.8
			c0,19.2,0,38.4,0,57.6C488.7,340.2,486.3,339.2,484,339.5z"/>
		<path fill="#564633" d="M229.4,406.4c0-19,0-38,0-56.5c2.8-4.5,5.9-3.4,9-1.2c0,19.1,0,38.1,0,57.8
			C235.2,406.4,232.3,406.4,229.4,406.4z"/>
		<path fill="#264E77" d="M263.7,238.4c-0.2-1.1,0.5-1.7,1.4-1.8c2.4-0.1,4.8,0,7.2,0c55.2,0,110.4,0,165.7,0c1.6-2,0.7-4.4,0.7-6.7
			c-2.3-1.1-4.7-0.2-7-0.5c-1.9-2.5-2.2-5.1-0.3-7.7c3.2-2.1,6.4-2.1,9.5-0.1c2,2.6,1.7,5.2-0.2,7.8c0,2.7,0,5.4,0,8.2
			c-0.2,0.2-0.4,0.4-0.6,0.5c-0.2,0.1-0.5,0.3-0.8,0.3C380.7,238.4,322.2,238.4,263.7,238.4z"/>
		<path fill="#7D2C2C" d="M440.7,388.3c0-10.5,0-21,0-31.7c2.1-1.5,4.4-0.8,7.2-0.6c0,16.8,0,33.5,0,50.3c-2.4,0-4.8,0-7.2,0
			c-2.3-2.6-2.5-5.8-2.4-9C438.1,394.1,438.9,391.1,440.7,388.3z"/>
		<path fill="#4F3F2C" d="M204.1,112c0,2.4,0,4.8,0,7.2c-0.9,0.8-1.9,1.7-3,1.8c-15.7,0.6-31.4,2.5-47-1c-2.6-2.5-2.5-5.2-0.5-8
			C170.4,112,187.2,112,204.1,112z"/>
		<path fill="#584734" d="M169.8,406.4c5.9,0,11.7,0,18.1,0c0,3.3,0,6.1,0,9c-11.3,0-22.5,0-34.3,0c0-3.2,0-6.1,0-9
			c0.3-0.3,0.6-0.6,0.9-0.9c0.8-0.4,1.6-0.7,2.5-0.9c2.2-0.3,4.4-0.4,6.6-0.4C165.9,404.2,168,404.7,169.8,406.4z"/>
		<path fill="#50402D" d="M144.5,323.3c0,13.7,0,27.3,0,41.5c-2.6,0-4.9,0-7.2,0c0-13.8,0-27.7,0-41.5
			C139.7,322,142.1,322,144.5,323.3z"/>
		<path fill="#574734" d="M137.3,364.8c0,10.7,0,21.3,0,32.5c-3.2,0-6.1,0-9,0c0-10.7,0-21.3,0-32.5
			C131.4,364.8,134.4,364.8,137.3,364.8z"/>
		<path fill="#554531" d="M263.7,330.5c0,3,0,6,0,9c-5.4,0-10.8,0-16.3,0c-1.8,3-1.8,3-2.1,6.9c-2.2,0.7-4.4,0.5-7,0
			c0-5.4,0-10.6,0-15.9c2.5-2.2,5.6-2.6,8.8-2.5c5.1,0.2,10.4-0.8,15.3,1.4C262.9,329.8,263.3,330.1,263.7,330.5z"/>
		<path fill="#1F3E5D" d="M195.1,102.9c0-2.1,0-4.2,0-7.2c-3.7,0-7.5,0-11.3,0c-3.6,0-7.2,0-10.8,0c-1.3,0-3.2,0.7-3.2-1.8
			c0.7-0.6,1.4-1.1,2.3-1.6c4.6-1.4,9.3-0.6,14-0.9c3.4-0.3,6.6-0.8,6.5-5.3c0-2.9,0-5.8,0.1-8.7c0-2.7,0.3-5.2,2.2-7.3
			c3.1-0.8,6.2-1,9.3,0.4c0,7.6,0,15.3,0,23.2c-2.3,0-4.3,0-6.5,0c-0.3,1-0.4,1.8-0.7,2.6C195.9,98.4,198.9,101.6,195.1,102.9z"/>
		<path fill="#264E77" d="M415.4,128.2c2.7,0,5.4,0,8.1,0c0.2,0.2,0.5,0.4,0.6,0.6c0.2,0.2,0.3,0.5,0.3,0.8c0,13.1,0,26.2,0,39.9
			c5.2,0,10.5,0,16.3,0c0,3.5,0,6.4,0,9.3c1,1,1.1,2.2,0.5,3.5c-2.1,1.5-5,1.9-6.6,4.3c-1.1,1.7-2.7,2.3-4.2,0.1
			c-1.9-4.5,0.7-7.9,3.4-11.1c-3.7-2.7-8.3-0.9-12.2-5.1c-3.5-10.5,0.2-23-2.1-34.8c-2.7,0.1-3.4,2.3-5.1,2.8c-3,1-5.7,0.7-8-1.1
			c-2.3-3.1-2.4-6.1-0.5-9.1C409,125.6,412.2,125.8,415.4,128.2z"/>
		<path fill="#1F3C5B" d="M449.7,187.8c2.1,0,4.2,0,6.8,0c0.8,10.8,0.2,21.7,0.4,32.5c-2.6,1.5-5.1,0.9-8.5-0.1
			C447.3,209.3,444.9,198.5,449.7,187.8z"/>
		<path fill="#554431" d="M102.9,296.2c0-10.6,0-21.3,0-32.5c2.6,0,4.9,0,7.2,0c1.9,10.7,0.4,21.3,0.8,31.7
			C108,297.7,105.5,297.4,102.9,296.2z"/>
		<path fill="#594A38" d="M187.8,415.4c8.4,0,16.9,0,25.3,0c0,2.7,0,5.4,0,8.6c-4,0.8-8.1,0.3-12.2,0.4c-4.2,0.1-8.3,0-13.1,0
			C187.8,421.2,187.8,418.3,187.8,415.4z"/>
		<path fill="#823333" d="M449.7,348.6c-0.1-1.7,1-1.8,2.3-1.8c4.4,0,8.8,0,13.1,0c1.9-2.1-0.1-4.7,1.6-7.2c5,0,10.2,0,15.5,0
			c0,2.9,0,5.8,0,9c-5.7,0-11,0-16.3,0C460.5,352.2,455.1,352.2,449.7,348.6z"/>
		<path fill="#264F78" d="M171.6,93.9c-0.6,0-1.2,0-1.8,0c0-7.5,0-15,0-22.7c0.8-0.7,1.7-1.4,3.2-2.6c6.7,0,14.1,0,21.5,0
			c1.2-2.5,0.3-4.9,0.6-7.2c4,1.1,0.3,4.6,1.3,5.4c2.4,3.6,6.6-0.6,7.8,3.6c-3,0-6,0-9,0c-1.8,1.7-3.9,2.2-6.2,2.3
			c-2,0.1-4-0.1-5.8,0.8c-1.9,1-2.5,3-3.9,4.4c-1.4,1.4-3.5,2-4.4,3.8c-0.9,1.9-0.6,3.9-0.7,5.9C173.8,90,173.2,92.1,171.6,93.9z"/>
		<path fill="#53412D" d="M289,263.7c0,3,0,6,0,9c1.8,2.2,2.1,4.6,0.7,7.1c-2.5,2.5-5.5,2.4-8.6,1.5c-1-0.4-1.7-1.1-2.3-2
			c-1.7-4.9-1.8-9.8,0.1-14.6c0.3-0.4,0.7-0.7,1.1-1.1C282.9,263.7,286,263.7,289,263.7z"/>
		<path fill="#584734" d="M213.1,415.4c0-2.9,0-5.8,0-9c5.7,0,11,0,16.3,0c0,2.9,0,5.8,0,9C223.6,415.4,218.4,415.4,213.1,415.4z"/>
		<path fill="#5B4934" d="M102.9,296.2c2.1,0,4.2,0,6.8,0c0.8-10.8,0.2-21.7,0.4-32.5c0.6,0,1.2,0,1.8,0c0,10.5,0,21,0,31.6
			c1.9,2.1,4.5,0.1,7.2,1.6c0,2.5,0,5.5,0,8.4c-2.3,0-4.6,0-7.1,0c0-2.5,0-4.4,0-6c-0.8-1.3-1.8-1-2.5-1.3
			C107.4,297.1,104.3,300.1,102.9,296.2z"/>
		<path fill="#264F78" d="M449.7,187.8c0,10.6,0,21.3,0,32.5c2.6,0,4.9,0,7.2,0c-1.2,3.9-4.5,0.7-6.5,2c-2.6,1.7,1.6,5.9-2.6,7.1
			c-2.3-3-3.3-7-7.3-8.5c-0.7-0.6-1.1-1.3-1.4-2.1c-1.5-5.3,3.7-7,5.6-10.4c1.5-5.9,0-12,1.2-17.9c0.2-0.9,0.6-1.7,1.2-2.5
			C448,187.2,448.8,187.2,449.7,187.8z"/>
		<path fill="#6B5E4E" d="M261.9,238.4c0.6,0,1.2,0,1.8,0c0,2.1,0,4.2,0,6.3c1.9,2.1,4.5,0.2,6.3,1.1c1,0.9,1.9,1.8,2.7,2.5
			c0,1.9,0,3.7,0,5.4c0.6,0.8,1.4,0.8,2.3,1c1.7,0.5,4.4-1.7,5,1.8c-3,2-5,4.9-7.3,7.6c-6.3-4.9-9.9-12.8-17.8-16
			c-0.6-0.7-0.8-1.4-0.7-2.3C256.8,243.4,259.8,241.4,261.9,238.4z"/>
		<path fill="#7E2424" d="M449.7,348.6c5.4,0,10.8,0,16.3,0c0,2.3,0,4.6,0,7.2c-5.8,0-11,0-16.3,0
			C449.7,353.4,449.7,351,449.7,348.6z"/>
		<path fill="#4F3F2C" d="M137.3,399.1c5.4,0,10.8,0,16.3,0c2.1,2.4,1.9,4.8,0,7.2c-5.2,0-10.5,0-16.3,0
			C137.3,403.7,137.3,401.4,137.3,399.1z"/>
		<path fill="#823333" d="M466,272.7c5.4,0,10.8,0,16.3,0c0,2.4,0,4.8,0,7.2c-4.5,3.5-9.5,2.6-14.6,1.6c-1-0.4-1.8-1-2.5-1.8
			C463.9,277.3,464.1,274.9,466,272.7z"/>
		<path fill="#29537D" d="M263.7,119.2c2.3,0,4.5,0,7.2,0c0-2.7,0-5,0-7.2c4,1.2,0.2,4.8,3.1,7.2c1.3,0,3.6,0,5.9,0
			c0.1,1.6-0.9,1.8-2.1,1.8c-1.7,0-3.4,0-5.1,0c-1.9,2.2,0.1,5.4-2.5,7.9c-1.9,1.3-4.4,1.5-6.8-0.4
			C262.6,125.4,262.2,122.2,263.7,119.2z"/>
		<path fill="#665744" d="M144.5,323.3c-2.4,0-4.8,0-7.2,0c-2.9,0-5.7,0-9,0c0-3.3,0-6.2,0-9c2.7,0,5.4,0,8.1,0
			c2,1.9,0.1,4.5,1.3,6.8c2.1,1,4.5,0.1,6.8,0.4C144.5,322.1,144.5,322.7,144.5,323.3z"/>
		<path fill="#2E4A67" d="M415.4,128.2c-3,0-6,0-9,0c-0.3-0.2-0.6-0.5-0.9-0.7c-1.2-2.9-3.7-4.6-6.2-6.2c-0.5-0.7-0.5-1.4-0.2-2.1
			c2.4,0,4.8,0,7.2,0c2.9,0,5.7,0,9,0C415.4,122.5,415.4,125.4,415.4,128.2z"/>
		<path fill="#60513E" d="M119.2,305.2c2.9,0,5.7,0,9,0c0,3.3,0,6.2,0,9c-2.9,0-5.7,0-9,0C119.2,310.9,119.2,308.1,119.2,305.2z"/>
		<path fill="#2E4B67" d="M440.7,182.4c0-1.2,0-2.4,0-3.6c2.4,0,4.8,0,7.2,0c1.3,3,1.4,6,0,9C440.7,190,439.7,189.2,440.7,182.4z"/>
		<path fill="#564532" d="M119.2,254.6c0,2.9,0,5.7,0,9c-2.7,0-5,0-7.2,0c0-2.9,0-5.7,0-9C114.7,254.6,116.9,254.6,119.2,254.6z"/>
		<path fill="#294664" d="M440.7,220.3c2.3,0,4.6,0,7.2,0c0,3.3,0,6.2,0,9c-2.4,0-4.8,0-7.2,0c0-2.4,0-4.8,0-7.2
			c-0.5-0.4-0.6-0.8-0.5-1.2C440.4,220.5,440.5,220.3,440.7,220.3z"/>
		<path fill="#604F3A" d="M272.7,263.7c0-2.3,0-4.5,0-7.2c2.7,0,5,0,7.2,0c0,2.4,0,4.8,0,7.2C277.5,265.5,275.1,265.9,272.7,263.7z"
			/>
		<path fill="#54493B" d="M95.7,245.6c7.4,0,14.8,0,22.1,0c1.3,0,3.1-0.6,3.1,1.8c-0.6,0-1.2,0-1.8,0c-7.1,0-14.1,0-21.2,0
			C96.8,247.4,95.6,247.3,95.7,245.6z"/>
		<path fill="#2A5681" d="M447.9,187.8c0-3,0-6,0-9c1.6-0.1,1.8,0.9,1.8,2.2c0,2.3,0,4.6,0,6.9C449.1,187.8,448.5,187.8,447.9,187.8
			z"/>
		<path fill="#C3A078" d="M178.8,254.6c-5.3,0-10.6,0-16.1,0c-0.1-2.5-0.2-4.5-0.3-6.6c-3.2-2.2-7.9,2-10-2.7
			c-5.4,3.1-10.3,3.1-15.1,0.3c-2.7-2.5-2.3-5.9-2.6-9.1c-0.2-2.7,0-5.4,0-8.1c0.9-10.5-1.9-21.2,1.8-31.5c2.3-2.1,4.9-2.2,7.6-1
			c4.2,4.2,2.4,9.5,2.8,14.5c0.4,4.4-0.6,9,1,13.9c3.2,3.1,7.5,6,9.8,10.6c6.6,1.3,13.7,1.2,16.1,8.2c8.1,2,16.2-0.9,22.2,5.1
			C195.8,257.6,189.8,259.9,178.8,254.6z"/>
		<path fill="#C5A379" d="M204.1,314.2c-2.9,0-5.8,0-9,0c0-3.1,0-5.7,0-8.8c-8.4,0-16.6,0-25.4,0c0-2.8,0-5.1,0-7.4
			c13.8-2,27.7-0.2,41.5-1c4.3,0.9,3.1,4.1,3.1,6.8c-2.9,3.6-7.5,5.2-9.2,9.5C204.8,313.6,204.5,313.9,204.1,314.2z"/>
		<path fill="#CDA97D" d="M178.8,254.6c5.2,0,10.5,0,16.3,0c0-2.7,0-4.9,0-7.2c-2.3-2.6-2.6-5.9-2.5-9.2c0.2-7.9-1.2-15.9,1.1-23.8
			c0.5-1,1.3-1.6,2.4-1.7c2.7,1.4,2.8,4,3.1,6.5c0.1,0.9,0.1,1.8,0.1,2.7c-0.1,5.4-1.1,11,5,14.3c0.3,0.8,0.2,1.7-0.3,2.4
			c-4.2,3.2-6.1,7-3.6,11.9c4,3,9.2,0.6,12.8,3.7c1.7,2,1.9,4.2,1.2,6.6c-0.6,1.5-1.6,2.4-3.1,2.8c-10.7,0-21.3,0-32.5,0
			C178.8,260.5,178.8,257.6,178.8,254.6z"/>
		<path fill="#CDA97D" d="M238.4,323.3c-10.4,0-20.8,0-31.1,0c-1.3,0-3.2,0.6-3.2-1.8c4.7-3.8,10.3-2,15.5-2.4
			c3.8-0.3,7.6,0.4,11.2-0.8c0.2-2.6-2.2-3.1-2.7-4.8c-2.2-7.9-1.8-15.8-0.3-22.8c2.3-3.3,4.8-3.8,7.6-3.6c1,0.1,2,0.5,2.8,1
			c1.9,1.6,2.3,4.1,3.6,6.1c3,3.1,7.6,5.5,4.6,11.1c-7.1,6.1-7.4,7.7-1.7,15.1c0.9,1.2,1.9,2.3,0.4,3.7
			C242.6,325.3,240.4,325,238.4,323.3z"/>
		<path fill="#D3AF83" d="M211.3,263.7c0-1.2,0.6-1.9,1.8-1.8c0.8,0.7,1.4,1.5,1.7,2.4c1.4,6.1,0.9,12.4,0.7,18.6
			c-0.1,5.4,1.1,9.9,5.1,13.5c-1.7,4.4-4.6,3.3-7.6,1.6c-14.4,0-28.9,0-43.3,0c-5.4,0-10.8,0-16.3,0c-2.7,2.1-5.2,4.5-7.2,7.2
			c-3.9-1.2-0.7-4.5-2-6.5c-1.7-2.6-5.9,1.6-7.1-2.6c2.7-2.1,5.1-4.5,7.2-7.2c0-2.3,0-4.6,0-6.9c0-1.2,0.2-2.3,1.8-2.2
			c2,2.1,2.3,4.8,2.4,7.6c-0.2,3.6,0.6,6.5,5.1,6.3c0.8,0,1.6,0,2.4,0c5.3,0.4,10.3,0.3,13.6-4.9c3.8,1.2,0.6,4.7,2.4,6.9
			c12.7,0,25.7,0,39.1,0C211.3,285,211.3,274.4,211.3,263.7z"/>
		<path fill="#C5A37A" d="M229.4,314.2c2.1,0,4.2,0,6.3,0c1.3,0.8,0.9,2.1,0.9,3.2c0,1.2,0,2.3,0,4c-11.1,0-21.8,0-32.5,0
			c0-2.4,0-4.8,0-7.2C212.5,310,220.9,310,229.4,314.2z"/>
		<path fill="#C3A178" d="M169.8,289c0,2.3,0,4.6,0,7.2c-5.2,0-9.8,0-14.4,0c-1.9-2.4-2.1-4.8,0-7.2C160.1,289,164.9,289,169.8,289z
			"/>
		<path fill="#5D4C37" d="M137.3,236.6c0,3,0,6,0,9c-2.7,2.4-5.9,1.8-9,1.8c-0.5-0.4-0.7-0.8-0.5-1.2c0.2-0.4,0.4-0.6,0.5-0.6
			c0-2.4,0-4.8,0-7.2c0.3-0.3,0.6-0.6,0.8-0.9C131.7,236.4,134.3,235.2,137.3,236.6z"/>
		<path fill="#CDA87D" d="M155.3,399.1c0-1.2-0.6-1.9-1.8-1.8c-1.9-2.4-1.9-4.8,0-7.2c2.4-2.1,5.1-2.3,8-1c0.3,0.3,0.7,0.7,1,1
			c0,3,0,6,0,9c-0.3,0.3-0.5,0.6-0.8,0.8c-1.9,0.9-3.7,0.9-5.6,0C155.8,399.7,155.6,399.4,155.3,399.1z"/>
		<path fill="#D4B084" d="M160.7,364.8c0.6,0,1.2,0,1.8,0c2.1,2.7,4.5,5.2,7.2,7.2c0.1,1.6-0.9,1.8-2.1,1.8c-1.7,0-3.4,0-5.1,0
			c-2.2,2-4.9,2.4-7.7,2.4c-4.1-0.7-6.4,2-8.6,4.8c-4-2.2-0.4-5.7-2.7-9c4.1,0,7,0,10,0C156.3,370,158.7,367.6,160.7,364.8z"/>
		<path fill="#CDA87C" d="M197.4,339.7c2.1,0,4.1,0,6.4,0c0,2.9,0,5.7,0,8.7c-2.2,0-4.2,0-6.2,0c-0.8-0.8-1.7-1.7-2.5-2.5
			C194.7,343.4,197.4,342.1,197.4,339.7z"/>
		<path fill="#C5A279" d="M238.4,323.3c2.4,0,4.8,0,7.2,0c4.8,1.4,3.4,4.3,1.8,7.2c-3,0-6,0-9,0
			C238.4,328.1,238.4,325.7,238.4,323.3z"/>
		<path fill="#CEA97D" d="M153.5,373.8c3,0,6,0,9,0c0,2.4,0,4.8,0,7.2c-0.3,0.3-0.7,0.7-1,1c-2.9,1.3-5.6,1.1-8-1
			C151.6,378.7,151.6,376.3,153.5,373.8z"/>
		<path fill="#CEA97D" d="M162.5,381.1c2.1,0,4.2,0,6.7,0c1.1,2.7,0.4,5.6,0.5,8.5c-2.4,1.1-4.8,0.2-7.1,0.5
			C160.2,387.1,160.2,384.1,162.5,381.1z"/>
		<path fill="#CDA97D" d="M146.3,289c0-3,0-6,0-9c2.3,0,4.6,0,7.2,0c0,3.3,0,6.2,0,9c-0.3,0.3-0.7,0.6-1,0.9
			C150.2,291,148.2,290.7,146.3,289z"/>
		<path fill="#54493B" d="M128.2,245.6c0,0.6,0,1.2,0,1.8c0,2.1,0,4.2,0,6.3c-2,2-4.4,0-6.5,1.2c-1.3-2.8-0.4-5.2-0.7-7.5
			C123.6,247.6,126.1,247.3,128.2,245.6z"/>
		<path fill="#CDA97D" d="M144.5,289c0,2.3,0,4.5,0,7.2c-2.7,0-5,0-7.2,0c0-2.3,0-4.5,0-7.2C140,289,142.2,289,144.5,289z"/>
		<path fill="#CDA87D" d="M146.3,305.2c0-2.3,0-4.5,0-7.2c2.7,0,5,0,7.2,0c0,2.3,0,4.5,0,7.2C150.8,305.2,148.5,305.2,146.3,305.2z"
			/>
		<path fill="#CDA87D" d="M169.8,372c-2.3,0-4.5,0-7.2,0c0-2.7,0-5,0-7.2c2.3,0,4.5,0,7.2,0C169.8,367.5,169.8,369.8,169.8,372z"/>
		<path fill="#CDA87D" d="M169.8,406.4c-2.4,0-4.8,0-7.2,0c-1.9-2.4-1.9-4.8,0-7.2c2.3,0,4.5,0,7.2,0
			C169.8,401.8,169.8,404.1,169.8,406.4z"/>
		<path fill="#C5A379" d="M155.3,289c0,2.4,0,4.8,0,7.2c-0.6,0-1.2,0-1.8,0c-1.9-2.4-1.9-4.8,0-7.2C154.1,289,154.7,289,155.3,289z"
			/>
		<path fill="#2E6091" d="M314.2,146.3c0,16.3,0,32.5,0,48.8c-0.6,0.9-1.2,1.8-1.9,2.6c-0.9,0.6-1.9,1.1-2.9,1.4
			c-2.6,0.7-5.5,0.6-7.7,2.4c-11.9,9.8-25,4.3-38.1,4.4c-4.3-11.5-2.7-22.2-2-32.9c0.3-1,0.7-1.9,1.3-2.7c1.2-2,4.1-2.4,5.1-4.7
			c1.7-13.3,3-14.6,11.8-12c0,13.5,0,27,0,40.4c4.2,3.5,4.2,3.5,9,0.4c0-13.4,0-27.1,0-40.8c5.8-6.1,10.6-14.3,21.3-10.9
			c0.9,0.2,1.7,0.7,2.5,1.3C313.2,144.8,313.7,145.5,314.2,146.3z"/>
		<path fill="#2E6091" d="M355.8,204.1c-2.4,0-4.8,0-7.2,0c-2.9,1.9-6,2.7-9.5,2.5c-3.5,0.1-6.9,0-9.5-2.8
			c-3.5-16.8-2.2-33.5-0.6-49.2c4.3-3.3,7.3-3.1,10.3-0.9c5.2,6,1,13.9,4.1,20.5c3,2.6,6.3,2.4,9.7,0.7c2.5-2,2.4-5,2-7.5
			c-1.5-9,3.1-15.4,8.5-21.7c2.6-3,5.3-3.6,8.7-1.5c1.9,6-0.8,12.4,1.6,18.4c2.4,0,4.8,0,7.2,0c5.1,10,2.7,20.4,1.7,30.7
			c-1.6,3.7-5.1,3.9-8.3,4.1c-4.1,0.1-6.8,2-8.2,5.8c-0.5,0.9-1.2,1.5-2,2C361.2,206.5,358.3,206.3,355.8,204.1z"/>
		<path fill="#2A5682" d="M372,144.5c-2.1,0-4.2,0-6.4,0c-1.8,2.6-0.1,5.7-1.1,8.4c-1.9,1.3-4.1,0-6.8,1.1c-0.1,0.1-0.2,0.9-0.2,1.8
			c0,6.9,0,13.8,0,20.6c0,1.2,0,2.5-1.8,2.3c-4.7-6-0.9-13.4-3.5-20.8c-1.8-2.9-5.6-5.4-7.5-9.2c-3.8,1.3-2.8,5.1-5.2,6.5
			c-2.4-2-5.3-2-9-1.7c0,16.7,0,33.6,0,50.4c2.3,3,2.5,6,0.3,9.1c-2.5,2-5,1.8-7.5-0.1c0-28.3,0-56.6,0-84.9c1.9-1.7,4.1-2,6.4-1
			c2.6,1.3,2.3,4.8,4.7,6.4c3.6-0.1,2.9-4,4.8-5.5c0.7-0.6,1.4-1,2.3-1.3c1.8-0.4,3.5-0.3,5.1,0.6c2.2,1.5,2,4.8,4.5,6.1
			c3.5-0.5,2.6-4.4,4.7-5.8c2.5-1.7,5.2-1.8,8-0.8c0.9,0.4,1.6,1,2.1,1.7C366.6,134.4,376.2,136.8,372,144.5z"/>
		<path fill="#1D3B5B" d="M314.2,229.4c-0.3,3-2.7,1.7-4.1,1.7c-20.9,0.1-41.8,0.1-62.7,0.1c-0.7,0.6-1.4,0.7-2.2,0.2
			c-0.5-0.6-0.9-1.3-1.2-2.1c-0.5-2.8-2-4.9-4.7-5.9c-0.7-0.5-1.1-1.1-1.4-1.9c0.2-0.8,0.6-1.5,1.1-2c3.7-1.8,4.6-4.9,4.1-8.7
			c-0.1-4.8-0.2-9.5-0.1-14.3c-0.5-4.4,0.8-9-1.6-13.2c-3.6-2.9-8.9-1.1-12.4-4.7c-1.7-2.6-1.8-5.4,0.6-7.9
			c8.2-2.7,16.4-1.9,23.7-0.5c3.6,3.2,3.7,6.5,3.8,9.8c0.1,10.8,0.1,21.5,0,32.3c0,4-0.7,7.8-4.3,10.2c-0.8,0.8-1.6,1.7-1.8,3
			c0.9,2.2,2.9,1.4,4.6,1.6c2.6,0,5.2-0.1,7.8,0c2.3,0,4.6,0,6.9,0c0.9,0,1.9,0,2.8,0c2.3,0,4.7,0,7,0c2.8-0.1,5.6,0,8.5,0
			c2.4,0,4.7,0,7.1,0c1,0,1.9,0,2.9,0c2.4-0.1,4.8,0,7.3,0C308.9,226.9,311.8,227.2,314.2,229.4z"/>
		<path fill="#1D3B5B" d="M381.1,195.1c0-10.8,0-21.7,0-32.5c3.2-2.4,6.4-2.6,9.5,0.1c3.3,5.2,2.2,11,2.2,16.6
			c0.1,10.5,0.2,20.9,0,31.4c-2.1,5.2,4,7.3,4.5,11.5c-2.4,0-4.8,0-7.2,0c-3.9,2.7-7.2,1.9-10-1.6c-1.4-2.5-1.5-5.3-1.5-8
			C378.7,206.6,377,200.4,381.1,195.1z"/>
		<path fill="#2A5682" d="M279.9,153.5c-5.5,0.1-5.5,0.1-9.1,2.7c0.6,4.2-1.3,8.8,2.1,13.6c-3.5,0-6.4,0-9.3,0
			c-0.3-0.5-0.5-0.9-0.8-1.4c-0.2-10.1-0.2-20.3,0-30.4c5.6-2.8,8.6-11.2,17-7.9C279.9,137.9,279.9,145.7,279.9,153.5z"/>
		<path fill="#CEA97D" d="M245.6,231.2c0.6,0,1.2,0,1.8,0c0,2.4,0,4.8,0,7.2c3.7,4.7,2.5,10.2,2.6,15.5c0.2,3.8-0.3,7.6,0.6,11.3
			c8.1,11,8.1,11.9,0.2,17.4c-3.3,1.3-2.8,5.6-5.6,7.3c-2.5,1.1-4.7,0.8-6.8-1c-3.9-12.8-6-25.5,2.3-37.4c2-3,2-6.2,2.2-9.4
			C243.1,238.3,242.5,234.3,245.6,231.2z"/>
		<path fill="#295580" d="M312.4,144.5c-4.5,0-8.9,0-13.4,0c-2.7,3.4-2.7,3.4-3.2,9c-2.2,0-4.6,0-6.9,0c0-8.4,0-16.9,0-25.3
			c6.7-4.8,8.4,2.1,10.9,5.3c3.5-0.9,3.2-4,4.9-5.6c0.8-0.6,1.6-1.1,2.6-1.3c2.2-0.2,4.1,0.2,5.7,2.4
			C313.1,134,314.2,139.3,312.4,144.5z"/>
		<path fill="#264F79" d="M312.4,144.5c0-5.2,0-10.5,0-16.3c-2.7,0-4.9,0-7.3,0c-1-0.8-1.5-2.1-2.8-2.8c0.7,1.3,2,1.8,2.8,2.8
			c0,2.9,0,5.8,0,8.9c-3.1,0-5.7,0-8.4,0c-1.5-2.5,0.1-5.6-1.2-8.8c-2.1,0-4.4,0-6.6,0c0-2.7,0-5.4,0-8.6c4-0.8,8.1-0.3,12.2-0.4
			c4.2-0.1,8.3,0,13.1,0c0,8.6,0,17,0,25.3C313.6,145,313,145,312.4,144.5z"/>
		<path fill="#275079" d="M381.1,213.1c0,2.4,0,4.8,0,7.2c0.5,0.4,0.7,0.9,0.6,1.3c-0.1,0.5-0.2,0.8-0.3,0.8c-3,1.8-5.5,4.1-7.6,6.9
			c-2.9,0-5.7,0-9,0c0-2.7,0-5,0-7.2c-0.4-0.5-0.6-1-0.5-1.5c0.1-0.5,0.2-0.8,0.3-0.8c1-1,2.4-1.4,3.3-2.6c0.4-2.3-1.9-2.2-3-3.3
			c-0.7-0.6-1.2-1.3-1.6-2.1c-0.9-2.8-0.7-5.5,1.4-7.8c2.5-2.2,5.2-2.2,8.3-0.9C376.4,205.8,377.3,210.6,381.1,213.1z"/>
		<path fill="#264F78" d="M346.8,128.2c-1.8,0-3.6,0-5.4,0c-1-0.7-2.2-1-3-2c-1-0.9-1.8-2.1-3.4-2c-1.9,0.3-2.5,2-3.5,3.3
			c-0.3,0.3-0.6,0.5-1,0.7c-2.4,0-4.8,0-7.2,0c0-2.7,0-5.4,0-8.2c2.1-1.6,4.5-0.8,6.8-0.8c12.9-0.1,25.8-0.1,38.7,0
			c1.3,0,3.2-0.7,3.2,1.8c-1.9,1.7-4.3,2.4-6.8,2.4c-2.8,0.1-5.5,0.1-8.3,0c-2,0-4-0.2-5.9,0.4C348.7,124.4,348.6,127.1,346.8,128.2
			z"/>
		<path fill="#264F78" d="M390.1,162.5c-3,0-6,0-9,0c0-13.6,0-27.3,0-40.6c0.9-0.9,1.6-1.6,2.7-2.7c4.8,0,10.1,0,15.4,0
			c0,0.6,0,1.2,0,1.8c-0.3,0.3-0.5,0.6-0.8,0.9c-4,1.1-6.4,4.1-8.7,7.3c-6.1,6.5-6.4,22.8-0.5,30c0.7,0.6,1.2,1.3,1.4,2.1
			C390.4,161.7,390.3,162.1,390.1,162.5z"/>
		<path fill="#CDA87C" d="M247.4,254.6c0-5.4,0-10.8,0-16.3c2.4,0,4.8,0,7.2,0c1.9,2.4,1.9,4.8,0,7.2c0,0.6,0,1.2,0,1.8
			c1.8,2.4,2.1,4.8,0.1,7.3C252.3,256.7,249.8,256.4,247.4,254.6z"/>
		<path fill="#264F78" d="M372,144.5c0-2.1,0-4.2,0-6.3c-1.9-2-4.6,0-7.2-1.6c0-2.5,0-5.4,0-8.3c2.4-2.2,4.8-1.8,7.2,0
			c-0.6,5.9,2.6,11.3,1.9,17.2c-0.6,5.6-0.1,11.4-0.1,17.1c-1.7,0.1-1.8-1-1.8-2.2C372,155,372,149.8,372,144.5z"/>
		<path fill="#264E77" d="M314.2,229.4c-3,0-6,0-9,0c-1.7-2-2.1-4.3-1-6.7c1.3-2.3,4.8-2.6,5.2-5.8c1.5-6.6-1.6-13.9,3-20
			c0.6-0.6,1.2-0.6,1.8,0C314.2,207.7,314.2,218.5,314.2,229.4z"/>
		<path fill="#265079" d="M279.9,130c-2.1,0-4.2,0-6.3,0c-2,1.9-0.1,4.6-1.5,7.2c-2.6,0-5.5,0-8.4,0c-1.4-3-1.4-6,0-9
			c2.1,0,4.2,0,6.3,0c2.8-1.7-1.4-6.1,2.8-7.2c0,2.1,0,4.2,0,6.3C274.4,130.1,278.8,125.9,279.9,130z"/>
		<path fill="#254D75" d="M364.8,220.3c0,0.6,0,1.2,0,1.8c-3-0.3-6.6,1.3-9-3c0-4,0-8.6,0-13.3c4.6,0.5,5.4,5.6,9,7.2
			C366.7,215.5,366.7,217.9,364.8,220.3z"/>
		<path fill="#264F78" d="M323.3,213.1c2.4,0,4.8,0,7.2,0c0.3,0.3,0.6,0.6,0.9,0.9c1.2,2.5,1.1,4.9,0.2,7.5
			c-0.4,0.7-0.9,1.3-1.6,1.8c-3.1,1.1-4.7,3.8-6.7,6.1c-3.5-2.1-2.5-6.3-1.4-8.1C323.7,218.4,322.8,215.8,323.3,213.1z"/>
		<path fill="#264F78" d="M339.5,220.3c0,2.9,0,5.7,0,9c-3.3,0-6.2,0-9,0c-1.9-2.4-1.9-4.8,0-7.2c1.9-3.2,4.5-4.2,8.1-2.8
			C338.9,219.7,339.2,220,339.5,220.3z"/>
		<path fill="#264E77" d="M381.1,222.1c0-0.6,0-1.2,0-1.8c2.7,2.4,5.9,1.8,9,1.8c0,2.3,0,4.6,0,7.2c-3.3,0-6.2,0-9,0
			C379.2,227,379.2,224.5,381.1,222.1z"/>
		<path fill="#264F78" d="M397.3,222.1c-1.2-3.8-4.7-0.6-7.2-2.6c0-1.8,0-4.1,0-6.4c5.9-3.3,9.9-2.6,10.9,4.9c-0.1,1-0.3,2-0.8,3
			c-0.4,0.4-0.7,0.7-1.1,1.1C398.5,222.1,397.9,222.1,397.3,222.1z"/>
		<path fill="#2A5682" d="M339.5,204.1c3,0,6,0,9,0c-2.4,2.7-1.8,5.9-1.8,9c-2.5,1.9-5,2.1-7.5,0.1C337,210.1,337.2,207,339.5,204.1
			z"/>
		<path fill="#2A5681" d="M364.8,213.1c-2.1,0-4.2,0-6.3,0c-2.8-1.7,1.4-6.1-2.8-7.2c0-0.6,0-1.2,0-1.8c3,0,6,0,9,0
			C364.8,207.1,364.8,210.1,364.8,213.1z"/>
		<path fill="#2A5581" d="M415.4,229.4c-3,0-6,0-9,0c-1.9-2.5-2.2-5.1-0.3-7.7c3.2-2.1,6.4-2.1,9.5-0.1
			C417.6,224.2,417.3,226.8,415.4,229.4z"/>
		<path fill="#264F78" d="M415.4,229.4c0-2.4,0-4.8,0-7.2c4.6-3.3,7.6-1.4,9.9,2.9c0.5,1.6,0.3,3-0.8,4.3
			C421.4,229.4,418.4,229.4,415.4,229.4z"/>
		<path fill="#2A5682" d="M424.4,229.4c0-1.2,0-2.4,0-3.6c-0.7-7.4,3.3-5.4,7.2-3.6c0,2.4,0,4.8,0,7.2
			C429.2,229.4,426.8,229.4,424.4,229.4z"/>
		<path fill="#264F78" d="M406.4,222.1c0,2.4,0,4.8,0,7.2c-2.3,0-4.5,0-7.2,0c0-2.7,0-5,0-7.2C401.5,220.3,403.9,219.9,406.4,222.1z
			"/>
		<path fill="#2A5682" d="M381.1,222.1c0,2.4,0,4.8,0,7.2c-2.4,0-4.8,0-7.2,0c0-2.3,0-4.5,0-7.2
			C376.6,222.1,378.8,222.1,381.1,222.1z"/>
		<path fill="#2A5682" d="M330.5,222.1c0,2.4,0,4.8,0,7.2c-2.4,0-4.8,0-7.2,0c0-2.3,0-4.5,0-7.2C326,222.1,328.2,222.1,330.5,222.1z
			"/>
		<path fill="#604E3A" d="M254.6,245.6c0-2.4,0-4.8,0-7.2c2.4,0,4.8,0,7.2,0c0,2.3,0,4.5,0,7.2C259.2,245.6,256.9,245.6,254.6,245.6
			z"/>
		<path fill="#264F78" d="M339.5,213.1c2.4,0,4.8,0,7.2,0c0,2.3,0,4.5,0,7.2c-2.7,0-5,0-7.2,0c-1.7-1.9-2-4-0.9-6.3
			C338.9,213.8,339.2,213.4,339.5,213.1z"/>
		<path fill="#2A5682" d="M372,128.2c-2.4,0-4.8,0-7.2,0c-1.9-2.4-1.9-4.8,0-7.2c2.4,0,4.8,0,7.2,0C372,123.4,372,125.8,372,128.2z"
			/>
		<path fill="#295580" d="M312.4,144.5c0.6,0,1.2,0,1.8,0c0,0.6,0,1.2,0,1.8C313,146.3,312.4,145.7,312.4,144.5z"/>
		<path fill="#2A5682" d="M314.2,196.9c-0.6,0-1.2,0-1.8,0c0-1.2,0.6-1.9,1.8-1.8C314.2,195.7,314.2,196.3,314.2,196.9z"/>
		<path fill="#C23434" d="M482.2,281.7c0,5.4,0,10.8,0,16.3c-22.1,0-44.2,0-66.6,0c0,2.4,0,4.4,0,6.3c-2.9,1.9-6.1,0.1-9.3,1.5
			c0,11.1,0,22.4,0,33.7c-0.3,0.3-0.5,0.6-0.8,0.8c-1.9,0.9-3.7,0.9-5.6,0c-0.3-0.3-0.5-0.6-0.8-0.9c0-16.9,0-33.7,0-50.6
			c3.6-2.2,5.2-5.9,7.1-9.4c2.4-1.8,5-1.9,7.7-1.2c0.8,0.3,1.5,0.8,2.2,1.5c1.4,1.7,0.9,4.6,3.4,5.6c2.7-0.2,2.6-2.7,3.5-4.3
			c0.4-0.8,0.9-1.5,1.6-2c2.1-1.1,4.2-1.1,6.4-0.3c0.8,0.4,1.4,1,1.8,1.7c1.1,1.7,0.6,4.3,3.2,5c2.8-0.3,2.4-3,3.4-4.7
			c0.4-0.8,1-1.4,1.7-1.9c2.6-1.2,5.1-1.2,7.8-0.3c0.8,0.4,1.4,0.9,1.9,1.7c0.9,1.4,0.7,3.4,2.3,4.5c2.5-0.5,1.8-3.2,3-4.6
			c0.6-0.7,1.2-1.3,2.1-1.7c2.9-0.9,5.6-0.7,7.9,1.4c1.6,1.3,2,3.7,4.3,5.3C473.8,283.7,476.9,278.3,482.2,281.7z"/>
		<path fill="#7B2424" d="M446.8,323.3c-7.1,0-14.3,0-21.9,0c-1.1-2.7-0.4-5.7-0.5-8.6c-0.1-3,0-5.9,0-9.2c5.5,0,10.7,0,16.2,0
			c0,2.8,0,5.4,0,8.7c3.1,0,5.9,0,8.7,0C449.9,317.7,450.4,320.6,446.8,323.3z"/>
		<path fill="#C23434" d="M406.4,339.5c3.8,1.2,0.6,4.7,2.3,6.8c1.8,1,3.9,0.2,5.9,0.5c0.2,0.2,0.5,0.4,0.5,0.6
			c0.1,14.2,0.2,28.5,0.3,42.7c-0.4,0.3-0.9,0.7-1.3,1c-6.4,1.6-8-2.3-8.3-7.3c-0.4-8.3-0.1-16.7-0.2-25c0-3.3-0.1-6.6-1.1-9.7
			C403.9,345.6,403.9,342.4,406.4,339.5z"/>
		<path fill="#BA3232" d="M433.4,406.4c-0.6,0-1.2,0-1.8,0c-1.1-1-1.9-2.3-3.2-3.2c-2.1,0-2.6,2.2-4,3.2c-0.6,0-1.2,0-1.8,0
			c-2-2.1-3.3-4.9-6.3-6c-0.7-0.5-1.1-1.1-1.4-1.9c0.2-0.8,0.5-1.5,1.1-2c2.9-1.4,4.5-4.1,6.5-6.4c0.6,0,1.2,0,1.8,0
			c2,2.2,3.5,5.3,7.3,5c2.1,0.1,4.1,0.2,6.1,0.9c0.8,0.4,1.3,1,1.6,1.7C438.2,401.1,435.5,403.5,433.4,406.4z"/>
		<path fill="#C33434" d="M422.6,390.1c0,2.3,0,4.5,0,7.2c-2.7,0-5,0-7.2,0c-0.3-0.3-0.6-0.7-0.9-1c-1.1-2.3-0.8-4.4,0.9-6.2
			C417.8,390.1,420.2,390.1,422.6,390.1z"/>
		<path fill="#B43131" d="M431.6,397.3c-2.3,0-4.5,0-7.2,0c0-2.7,0-5,0-7.2c2.4,0,4.8,0,7.2,0C433.6,392.5,433.6,394.9,431.6,397.3z
			"/>
		<path fill="#C23434" d="M431.6,397.3c0-2.4,0-4.8,0-7.2c2.4,0,4.8,0,7.2,0c1.3,2.4,1.3,4.8,0,7.2
			C436.5,397.3,434,397.3,431.6,397.3z"/>
		<path fill="#BA3232" d="M438.9,397.3c0-2.4,0-4.8,0-7.2c0-1.2,0.6-1.9,1.8-1.8c0,3,0,6,0,9C440.1,398.2,439.5,398.2,438.9,397.3z"
			/>
		<path fill="#2E6091" d="M137.3,196.9c0,10.8,0,21.7,0,32.5c-0.9,0.6-1.6,0.5-2.4-0.2c-3.6-6-0.5-13-3.3-21.6
			c-2.6,9.1-9.5,7.1-13.5,8.3c-4,1.5-4.8,4.7-7.4,5.8c-8.2,3.1-16,0.1-24-1.4c0-5.1,0-10.2,0-15.4c-2.6-1.9-5.7-0.1-9-1.4
			c0-5.1,0-10.4,0-15.7c-2.2-2.2-5.9,0.5-7.9-2.4c-0.1-2.4-0.7-4.9,0.7-7.2c3.2-2.6,7.5-1.4,11.8-3.2c3.3-1.8,4.4-10.3,11.7-5.3
			c0,0.6,0,1.2,0,1.8c2.1,7.6,0,15.4,1.2,23c9.1,2.3,13.3-0.9,14.1-10.3c0.6-7.3-1.5-15,2.1-21.5c3.6-3.3,7.9-2.3,12-4.2
			c7.9-10.9,18.9-8.9,30.2-5.8c4.1,6.1,1.1,9.9-4,13.1c-3.5,3-2.3,7.1-2.5,10.8c-0.4,6.1,1.1,12.4-1.4,17.4
			C142.6,196.9,139.4,194.9,137.3,196.9z"/>
		<path fill="#2A5682" d="M153.5,153.5c-8.1,0-16.2,0-24.6,0c-1.5,2.6-0.2,5.7-0.9,8.8c-5.1,0-10.2,0-15.8,0c0,11,0,21.6,0,32.5
			c-6.4-0.4-11.6,3.9-18.2,1.3c0-7.9,0-16.2,0-24.5c1.8-0.1,1.8,1.1,1.8,2.3c0,6.8,0,13.7,0,20.3c2.1,1.7,4.3,0.2,6,1
			c1.1-0.7,1.2-1.5,1.2-2.4c0-21.5,0-43,0-64.6c2.4-2.1,5.1-2.3,7.9-1.2c2.7,1,2.2,4.7,4.8,5.9c2.1-1.4,1.9-4.4,4.1-5.6
			c2.5-1.3,5.1-1.3,7.7-0.1c2.5,1.3,2.2,4.8,4.8,6.3c3.8-0.2,2.8-4.9,5.5-6.1c2.2-1.1,4.4-1.1,6.6,0.3c2.1,4.9,6.7,7.3,10.5,10.5
			C156.4,143.5,157.3,148.7,153.5,153.5z"/>
		<path fill="#2A5581" d="M93.9,169.8c-2.1,0-4.2,0-6.4,0c-1.8,2.6-0.2,5.7-1.2,9c-5.2,0-10.5,0-15.9,0c-1.9-8.1-0.4-16.3-0.8-23.8
			c1.5-2.7,3.5-3,5.6-2.9c3.8,0.5,3.9,4.8,6.2,6.7c4-0.4,3.2-4.9,5.9-6.1c2.4-1.1,4.6-0.8,6.6,0.9C93.9,158.9,93.9,164.3,93.9,169.8
			z"/>
		<path fill="#2A5683" d="M86.7,220.3c8.4,0,16.9,0,25.3,0c0.3,0.4,0.7,0.8,1,1.1c1.3,3.1,1.2,6.1-1.4,8.6c-3.1,1.8-5.9,1.5-8.7-0.7
			c-2.9,0-5.7,0-8.8,0c0-2.4,0-4.4,0-6C92.1,220.3,87.9,224.5,86.7,220.3z"/>
		<path fill="#264F78" d="M77.7,153.5c-2.3,0-4.6,0-7.2,0c0,8.8,0,17,0,25.3c0,2.4,0,4.8,0,7.2c0.6,0.4,0.8,0.8,0.6,1.2
			c-0.2,0.4-0.4,0.6-0.6,0.6c-2.4,0-1.8-1.9-1.8-3.2c0-12.5,0-25,0-37.5c0.9-0.9,1.7-1.7,2.7-2.7c6.6,0,13.5,0,20.3,0
			c1.2,0,2.4,0.1,2.3,1.8c-1.7,1.6-3.8,2.1-6,2.2c-3.9-0.2-7.4,0.3-9.3,4.3C78.3,153,78,153.3,77.7,153.5z"/>
		<path fill="#264F78" d="M102.9,229.4c3,0,6,0,9,0c0.3,0.2,0.6,0.5,0.9,0.7c1.3,1.6,1.8,4.2,4.8,3.2c1.9-1.5,2-4.4,4.6-5.3
			c2.5-0.7,4.8-0.5,6.8,1.5c1.8,3.2,1.4,6.1-0.8,8.9c-8.2,0-16.5,0-25.3,0C102.9,235.2,102.9,232.3,102.9,229.4z"/>
		<path fill="#264E76" d="M112,128.2c-3,0-6,0-9,0c0-2.9,0-5.7,0-9c3.3,0,6.2,0,9,0c0.3,0.3,0.6,0.6,0.9,0.9c1.2,2.4,1.2,4.9,0,7.3
			C112.6,127.7,112.3,127.9,112,128.2z"/>
		<path fill="#295581" d="M119.2,112c3,0,6,0,9,0c1.9,2.5,2.1,5,0.1,7.5c-3.1,2.2-6.1,2.2-9.2,0.1C117.1,117,117.3,114.5,119.2,112z
			"/>
		<path fill="#264F78" d="M128.2,119.2c0-2.4,0-4.8,0-7.2c3,0,6,0,9,0c1.7,1.8,2,3.9,1.3,6.1c-0.4,0.8-0.9,1.5-1.7,2
			c-2.6,1.2-5.1,1.2-7.7,0C128.8,119.8,128.5,119.5,128.2,119.2z"/>
		<path fill="#264F78" d="M153.5,112c0,2.4,0,4.8,0,7.2c-0.3,0.3-0.6,0.6-0.9,0.9c-2.5,1.2-5.1,1.1-7.7,0.1c-0.8-0.5-1.3-1.2-1.7-2
			c-0.7-2.3-0.5-4.4,1.3-6.2C147.5,112,150.5,112,153.5,112z"/>
		<path fill="#264F78" d="M119.2,112c0,2.4,0,4.8,0,7.2c-0.3,0.3-0.7,0.6-1,0.9c-2.3,1.1-4.4,0.8-6.2-0.9c0-2.3,0-4.5,0-7.2
			C114.7,112,116.9,112,119.2,112z"/>
		<path fill="#295580" d="M144.5,112c0,2.4,0,4.8,0,7.2c-2.4,2.1-4.8,2.1-7.2,0c0-2.4,0-4.8,0-7.2C139.7,112,142.1,112,144.5,112z"
			/>
		<path fill="#264E78" d="M86.7,146.3c2.4,0,4.8,0,7.2,0c0,2.4,0,4.8,0,7.2c-2.4,0-4.8,0-7.2,0c-0.3-0.3-0.6-0.7-0.9-1
			C84.7,150.2,84.9,148.2,86.7,146.3z"/>
		<path fill="#2A5581" d="M70.4,187.8c0-0.6,0-1.2,0-1.8c1.7,0,3.4,0,5.1,0c1.2,0,2.2,0.2,2.1,1.8C75.3,187.8,72.8,187.8,70.4,187.8
			z"/>
		<path fill="#A32D2D" d="M330.5,406.4c-2.4,0-4.8,0-7.2,0c-3.2-5.3-3.8-11.2-3.2-17.2c1.5-20.6,0.3-41.3,0.7-61.9
			c0.1-4.4-0.8-9,2-13.1c2.8-2,5.6-2,8.2,0.2c2.2,2.8,2,6.2,2,9.4c0.2,23.5-0.2,47.1,0.2,70.7C333.3,398.5,333.7,402.9,330.5,406.4z
			"/>
		<path fill="#584632" d="M279.9,314.2c-2.4,0-4.8,0-7.2,0c-1.2,0.5-2.2,0.2-2.9-0.9c-3-9-1.9-18.2-1.1-27.3
			c0.7-6.9,3.8-8.2,11.2-6.1c4.6,10.9,2.7,22,1.2,33.1C280.7,313.4,280.3,313.8,279.9,314.2z"/>
		<path fill="#B43131" d="M281.7,406.4c-3.5-0.6-1.7-3.4-1.7-5c-0.1-22.4-0.1-44.9-0.1-67.3c0-6.6,0-13.2,0-19.8
			c1.2-0.2,2.1,0.2,2.8,1.2c2,3.6,1.7,7.5,1.7,11.4c0.1,11.1,0,22.2,0,33.2c0.1,12-1.6,24.4,6,35.1c-0.5,3.2-3.9,3.7-5.5,5.8
			C284,402.8,283.3,404.9,281.7,406.4z"/>
		<path fill="#B53131" d="M330.5,406.4c0-30.7,0-61.4,0-92.1c0.5-0.1,1.1-0.2,1.6-0.3c0.9,0.7,1.5,1.5,1.9,2.6
			c2.1,15.8,1.2,31.6,0.7,47.4c-0.3,11.2,1.5,21.5,6.2,31.5c-0.5,3.2-3.9,3.6-5.5,5.8c-1.1,1.8-1.7,3.8-3.3,5.3
			C331.7,406.4,331.1,406.4,330.5,406.4z"/>
		<path fill="#523D2B" d="M270.9,314.2c0.6,0,1.2,0,1.8,0c0,5.3,0,10.5,0,16.3c-3.3,0-6.1,0-9,0c-3.9-5.4-3.3-10.9-0.5-16.1
			C266.1,312.3,268.5,312.5,270.9,314.2z"/>
		<path fill="#BB3232" d="M332.3,399.1c-0.1-1.6,0.9-1.8,2.1-1.8c1.7,0,3.4,0,5.1,0c3.5-1.9,4.9-6.2,8.8-7.6
			c2.4,1.9,3.3,5.8,7.4,5.3c8.2-0.9,3.7-7.9,5.6-11.8c0.3-0.8,0.7-1.6,1.2-2.2c0.8-0.5,1.6-0.5,2.3,0.1c0,5.9,0,11.7,0,18.1
			c-3.3,0-6.1,0-9,0c-2.7,2.1-5.2,4.5-7.2,7.2c-0.6,0-1.2,0-1.8,0c-2.1-2.7-4.3-5.5-8.4-4.9C336.1,401.3,334,400.7,332.3,399.1z"/>
		<path fill="#BB3232" d="M281.7,399.1c-0.1-1.6,0.9-1.8,2.1-1.8c1.7,0,3.4,0,5.1,0c3.5-1.9,4.8-6.4,8.9-7.6c2.3,2.5,4,6,8.5,5.2
			c2.8-0.1,5.6-0.1,8.4,0c2.9,0.4,6.4,0,7.1,4.2c-1.9,2.1-4.4,2.3-7,2.4c-2.8,0.1-5.6,0.1-8.3,0c-4.1-0.7-6.3,2-8.5,4.8
			c-0.6,0-1.2,0-1.8,0c-2.1-2.7-4.3-5.5-8.4-4.9C285.5,401.3,283.4,400.7,281.7,399.1z"/>
		<path fill="#B23030" d="M321.5,399.1c0.1-1.6-0.9-1.8-2.1-1.8c-1.7,0-3.4,0-5.1,0c-1.8-2.1-2.1-4.5-0.8-7c2-2.2,4.3-2.2,6.9-1.3
			c0.4,0.3,0.7,0.7,1.1,1c0.2,5.5,3,10.6,1.8,16.3c-0.6,0-1.2,0-1.8,0C319.6,403.9,319.6,401.5,321.5,399.1z"/>
		<path fill="#B53131" d="M305.2,399.1c3,0,6,0,9,0c1.9,2.4,1.9,4.8,0,7.2c-3,0-6,0-9,0C303.3,403.9,303.3,401.5,305.2,399.1z"/>
		<path fill="#C23434" d="M332.3,399.1c2.4,0,4.8,0,7.2,0c1.9,2.4,1.9,4.8,0,7.2c-2.4,0-4.8,0-7.2,0
			C332.3,403.9,332.3,401.5,332.3,399.1z"/>
		<path fill="#C23434" d="M281.7,399.1c2.4,0,4.8,0,7.2,0c1.9,2.4,1.9,4.8,0,7.2c-2.4,0-4.8,0-7.2,0
			C281.7,403.9,281.7,401.5,281.7,399.1z"/>
		<path fill="#B43131" d="M289,406.4c0-2.4,0-4.8,0-7.2c2.3,0,4.5,0,7.2,0c0,2.7,0,5,0,7.2C293.8,406.4,291.4,406.4,289,406.4z"/>
		<path fill="#C23434" d="M305.2,399.1c0,2.4,0,4.8,0,7.2c-2.4,0-4.8,0-7.2,0c0-2.3,0-4.5,0-7.2C300.7,399.1,303,399.1,305.2,399.1z
			"/>
		<path fill="#C33434" d="M314.2,406.4c0-2.4,0-4.8,0-7.2c2.4,0,4.8,0,7.2,0c0,2.4,0,4.8,0,7.2C319.1,406.4,316.7,406.4,314.2,406.4
			z"/>
		<path fill="#B43131" d="M339.5,406.4c0-2.4,0-4.8,0-7.2c2.3,0,4.5,0,7.2,0c0,2.7,0,5,0,7.2C344.3,406.4,341.9,406.4,339.5,406.4z"
			/>
		<path fill="#C23434" d="M348.6,406.4c0-2.3,0-4.5,0-7.2c2.7,0,5,0,7.2,0c0,2.4,0,4.8,0,7.2C353.4,406.4,351,406.4,348.6,406.4z"/>
		<path fill="#D8B48A" d="M162.5,381.1c0,3,0,6,0,9c-3,0-6,0-9,0c0-3,0-6,0-9C156.5,381.1,159.5,381.1,162.5,381.1z"/>
		<path fill="#DAB68C" d="M162.3,355.5c-2.6,0-5.5,0-8.6,0c0-2.2,0-4.2,0-6.6c2.7,0,5.5,0,8.6,0
			C162.3,351.2,162.3,353.5,162.3,355.5z"/>
		<path fill="#D1AE85" d="M153.5,390.1c0,2.4,0,4.8,0,7.2c-2.7,0-5.4,0-8.1,0c-2-2,0-4.4-1.6-7.2
			C147.7,390.1,150.6,390.1,153.5,390.1z"/>
		<path fill="#DAB68C" d="M160.7,364.8c0,2.3,0,4.5,0,7.2c-2.7,0-5,0-7.2,0c0-2.3,0-4.5,0-7.2C156.2,364.8,158.5,364.8,160.7,364.8z
			"/>
		<path fill="#DAB68B" d="M153.5,373.8c0,2.4,0,4.8,0,7.2c-2.4,0-4.8,0-7.2,0c0-2.3,0-4.5,0-7.2C149,373.8,151.3,373.8,153.5,373.8z
			"/>
		<path fill="#CDA87D" d="M153.5,406.4c0-2.4,0-4.8,0-7.2c0.6,0,1.2,0,1.8,0c1.9,2.4,1.9,4.8,0,7.2
			C154.7,406.4,154.1,406.4,153.5,406.4z"/>
		<path fill="#C23434" d="M281.7,314.2c-0.6,0-1.2,0-1.8,0c0-11.4,0-22.9,0-34.3c3,0,6,0,9,0c5.6-2,8.1-10.9,16.3-7.2
			c1.6,1.2,2.2,3.5,4.5,3.9c2.3-0.3,2.9-2.7,4.5-3.9c3,0,6,0,9,0c1.1,1,1.9,2.3,3.2,3.2c2.1,0,2.6-2.2,4-3.2c3,0,6,0,9,0
			c1.3,1.2,2.2,2.8,4.7,3.5c5.7-6.1,13.1-5,20.6-3.5c4.8,10.1,2.8,20.6,1.6,31c-0.4,1-1.1,1.9-2.1,2.6c-10.7,2.5-21.5,1.7-32.3,0.6
			c-0.9-0.4-1.7-1-2.4-1.8c-2.4-7,1.1-10.1,7.5-11.1c4.1-0.7,8.3,0.2,12.3-1.7c-15.5-0.9-31-1-45.6-0.6c-10.7,9.7-10.9,9.7-18.5,3.3
			c-2.6,6,0.4,12.6-2.6,18.3C282.4,313.6,282.1,313.9,281.7,314.2z"/>
		<path fill="#A22D2D" d="M364.8,305.2c0-10.8,0-21.7,0-32.5c4.9,0.9,9.2-2.7,14.1-1.8c1.2,0.2,2.3,0.2,2.2,1.8
			c-2.7,2.1-5.5,4.1-4.8,8.2c0,2.7,0.1,5.3,0,8c0,2.4-0.2,4.8-0.7,7.2c-1.3,3.2-0.7,7.1-3.5,9.8C369.5,307.2,367,307.3,364.8,305.2z
			"/>
		<path fill="#B53131" d="M364.8,272.7c-5.3,0-10.5,0-16.1,0c0,2.4,0,4.4,0,6.8c-3.1,0-5.9,0-9.2,0c0-2.2,0-4.5,0-6.8
			c7.4-0.6,14.6-2.8,22.2-1.8C363,271.1,364.8,270.3,364.8,272.7z"/>
		<path fill="#B53131" d="M305.2,272.7c-2.1,0-4.2,0-6.3,0c-2,1.9-0.1,4.6-1.5,7.2c-2.6,0-5.5,0-8.4,0c0-2.4,0-4.8,0-7.2
			c4.9,0.9,9.2-2.7,14.1-1.8C304.2,271.1,305.3,271.1,305.2,272.7z"/>
		<path fill="#B43131" d="M390.1,279.9c0,3,0,6,0,9c-2.7,2.2-5.6,2.4-8.7,0.7c-2.6-2.5-2.7-5.4-1.4-8.6c0.3-0.4,0.7-0.8,1.1-1.1
			C384.1,279.9,387.1,279.9,390.1,279.9z"/>
		<path fill="#B53131" d="M314.2,272.7c0,2.1,0,4.2,0,6.7c-2.7,1.1-5.6,0.4-8.5,0.5c-1.1-2.4-0.2-4.8-0.5-7.1
			C308.2,272.7,311.2,272.7,314.2,272.7z"/>
		<path fill="#B53131" d="M373.8,279.9c0-2.3,0-4.5,0-7.2c2.7,0,5,0,7.2,0c0,2.4,0,4.8,0,7.2C378.7,281.8,376.3,281.8,373.8,279.9z"
			/>
		<path fill="#B43131" d="M330.5,272.7c0,2.1,0,4.2,0,6.3c-2,2.1-4.4,0.1-6.5,1.2c-1.3-2.8-0.4-5.2-0.7-7.5
			C325.7,272.7,328.1,272.7,330.5,272.7z"/>
		<path fill="#D13838" d="M364.8,305.2c2.4,0,4.8,0,7.2,0c2-2.1-0.1-5.4,2.6-8c4.8-1,10.2-5.3,15.5,0.8c0,13.7,0,27.3,0,41.5
			c3.2,0,6.1,0,9,0c1.4,1.6,2.4,3.5,2.4,5.6c0.2,14.5,1.5,28.9-0.8,43.4c-0.4,1-1.1,1.9-2,2.6c-2.4,1.3-5.1,1.5-7.8,1.4
			c-2.5,0-5,0-7.5-0.8c-0.9-0.4-1.7-1-2.5-1.6c-2.3,0-4.6,0-7,0c0-5.4,0-10.4,0-15.2c-4.8-3.7-4.8-3.7-9.2-1.1
			c-2.1,2,0.2,5.2-1.8,7.2c-10.1,4.6-24.6-2.3-25.5-13.7c-1.4-17.4-2.4-35,0.8-52.5c6-5.8,13.7-1.5,20.3-3.6
			C361.9,310.5,362.8,307.3,364.8,305.2z"/>
		<path fill="#B53131" d="M381.1,390.1c0.6,0,1.2,0,1.8,0c2.3,2.7,2.9,6.8,6.9,8c0.7,0.5,1.2,1.2,1.6,2c0.7,2.3,0.5,4.4-1.3,6.2
			c-2.9,0-5.8,0-9,0C381.1,400.6,381.1,395.4,381.1,390.1z"/>
		<path fill="#C13434" d="M390.1,406.4c0-2.4,0-4.8,0-7.2c2.3-2.4,5.1-2.2,8-1.3c0.9,0.4,1.6,1,2.1,1.9c1,2.4,0.7,4.7-1,6.7
			C396.1,406.4,393.1,406.4,390.1,406.4z"/>
		<path fill="#B23030" d="M438.9,397.3c0.6,0,1.2,0,1.8,0c0,3,0,6,0,9c-2.4,0-4.8,0-7.2,0c0-2.1,0-4.2,0-6.2
			C434.4,397.6,438.5,401.1,438.9,397.3z"/>
		<path fill="#C23434" d="M424.4,406.4c0-2.1,0-4.2,0-6.3c2-2.3,4.4-0.1,6.5-1.2c1.3,2.8,0.4,5.2,0.7,7.5
			C429.2,406.4,426.8,406.4,424.4,406.4z"/>
		<path fill="#B43131" d="M399.1,406.4c0-2.4,0-4.8,0-7.2c2.4-2,4.8-2,7.3-0.2c2.1,2.5,1.7,5,0,7.4
			C403.9,406.4,401.5,406.4,399.1,406.4z"/>
		<path fill="#A22D2D" d="M415.4,406.4c-2.4,0-4.8,0-7.2,0c-1.3-2.5-1.3-4.9,0-7.3c2.6-2.1,4.9-1.7,7.2,0.1
			C417.3,401.5,417.3,403.9,415.4,406.4z"/>
		<path fill="#B43131" d="M415.4,406.4c0-2.4,0-4.8,0-7.2c2.3,0,4.5,0,7.2,0c0,2.7,0,5,0,7.2C420.2,406.4,417.8,406.4,415.4,406.4z"
			/>
		<path fill="#AA2F2F" d="M415.4,399.1c-2.3,0-4.5,0-7.2,0c0,2.7,0,5,0,7.2c-0.6,0-1.2,0-1.8,0c0-2.3,0-4.5,0-7.2c-2.7,0-5,0-7.2,0
			c-0.3-1,0-1.9,0.8-2.6c2.2-1.4,4.6-1.5,7.1-1.6c3-0.1,6,0.2,8.4,2.4C415.4,397.9,415.4,398.5,415.4,399.1z"/>
		<path fill="#C23434" d="M363,381.1c0-1.7,0-3.4,0-5.1c0-1.2,0.2-2.2,1.8-2.1c0,2.4,0,4.8,0,7.2C364.2,381.1,363.6,381.1,363,381.1
			z"/>
		<path fill="#DAB68B" d="M195.1,213.1c0,8.4,0,16.9,0,25.3c-5.3,3.8-10.6,3.2-16.4,0.4c-5.5-9.3-0.3-20.2-4-29.7
			c-2.5-2.1-5-2.1-7.6-0.4c-2.6,3.4-1.4,8.3-4.8,12c-4.9,3-10.2,3-16.1-0.1c-1.4-7.6-0.7-15.3-0.5-23.1c4.2-3.5,5.3-8.2,5.2-13.4
			c-0.1-4.7-0.6-9.5,1.8-13.8c2.3-2.7,5.2-2.8,8.3-2.5c5.1,0.8,9.5,3,12.5,7.4c3.4,1.6,6.8,1.5,10.3,0.4c2.6-3.4,6-5.9,9.4-8.4
			c2.3-5.9,1.4-11.8,0.6-17.9c-3.5-2.9-6.9-5.6-9.9-8.9c-3-1-6-1.4-9.6,0.1c4.5,2.9,10.2,0.1,13.3,4.5c4.7,8,3.8,16.2,1.1,24.5
			c-5.6,4-11.2,2.8-16.5,1c-3.2-4.9-1.6-8,2-10.5c0.5-0.7,1-1.4,1-2.3c-0.3-1.2-1.1-0.9-2-0.7c-2,2-1.6,5.7-4.9,6.8
			c-2.8,0.5-5.3,0.3-7-2.3c-2.9-13.6-2.3-27.1,0-41.5c14.9,0.4,28.8-1,42.7,0.9c0,2.4,0,4.8,0,7.2c0.7,0.9,1.3,1.9,1.8,2.9
			c1.1,18.6,2.6,37.3-0.7,55.8c-1.5,2.6-5,3.1-6.2,5.3C195.8,199.2,199.9,207,195.1,213.1z"/>
		<path fill="#CCA87D" d="M204.1,121c-13.7,0-27.4,0-41.5,0c0,14.1,0,27.8,0,41.5c1.7,1.9,2,4,0.9,6.2c-0.3,0.3-0.6,0.6-0.9,1
			c-2.7,0-5.4,0-8.7,0c-0.7,4.3-0.2,8.7-0.3,13.1c-0.1,4.5,0,8.9,0,13.4c-2.5,1.2-4.9,0.3-7.2,0.6c-0.3-0.5-0.5-1-0.8-1.4
			c0.4-11-1.1-22,0.8-32.9c2.3,0,4.6,0,7.2,0c0-3.3,0-6.2,0-9c0-5.4,0-10.8,0-16.3c-2.3-2.6-2.6-5.8-2.5-9c-0.1-3.3,0.2-6.4,2.5-9
			c16.9,0,33.7,0,50.6,0C204.1,119.8,204.1,120.4,204.1,121z"/>
		<path fill="#28527C" d="M312.4,220.3c0.1,1.6-0.9,1.8-2.1,1.8c-1.7,0-3.4,0-5.1,0c-2.7,2.1-5.2,4.5-7.2,7.2c-0.6,0-1.2,0-1.8,0
			c-2.1-2.6-4-5.5-8.1-4.9c-2.4,0-4.9,0-7.3,0c-4-0.6-6,2.2-8.1,4.8c-0.6,0-1.2,0-1.8,0c-2.1-2.7-4.2-5.5-8.4-4.8
			c-2.7,0.1-5.5,0.1-8.2,0c-2.6,0-4.9-0.7-6.9-2.4c1.2-3.8,4.7-0.6,6.9-2.4c0-15.7,0-31.7,0-48.2c-8.4,0-16.7,0-25,0
			c-3.1,1.7-6.1,2.9-7.4-2c2.1-2.1,4.9-2.3,7.6-2.4c8.1,0,16.1-0.9,24.1,0.7c1,0.5,1.9,1.1,2.7,1.8c1.8,0,3.6,0,5.4,0
			c0.6-0.9,1.2-0.9,1.8,0c0,0.6,0,1.2,0,1.8c-1.1,1-2.7,1.9-3,3.2c-2.5,14-3.1,28.1,0.3,42c0.1,0.5,0.9,0.6,1.5,0.8
			c4.3,1.2,6-2.1,8.2-4.7c4.1,0.1,5.1,6.3,9.9,5.1c2.5,0,5,0,7.5,0c4.8,1.2,5.9-4.6,9.8-5.2c2.3,2.6,4.1,5.9,8.4,5.3
			C308.6,218.1,310.7,218.7,312.4,220.3z"/>
		<path fill="#264F78" d="M213.1,128.2c0-2.7,0-5.4,0-8.3c2.4-1.5,5.1-0.7,7.7-0.7c10.2-0.1,20.4-0.1,30.6,0c1.3,0,3.2-0.7,3.2,1.8
			c1.5,2.3,0.9,4.8,0.5,7.2c-1.9,1.9-4.1,2-6.5,1.3c-2.6-0.9-2.7-3.9-4.6-5.4c-1.2-0.7-2.5-0.9-3.9-0.3c-2,1.2-1.8,4-3.7,5.2
			c-1.6,0.8-3.1,0.8-4.8,0.3c-1.2-0.5-2.1-1.2-2.9-2.2c-1.3-1.6-2.1-3.8-4.8-3.2c-2.1,1.1-1.9,3.9-3.7,5.1c-2,1.1-4.1,1.1-6.1,0.1
			C213.7,128.8,213.4,128.5,213.1,128.2z"/>
		<path fill="#1D3B5B" d="M263.7,169.8c-0.6,0-1.2,0-1.8,0c0-15.5,0-31,0.1-46.5c0-1.4-1.2-3.8,1.7-4.1c0,3,0,6,0,9c0,3,0,6,0,9
			C263.7,148.1,263.7,158.9,263.7,169.8z"/>
		<path fill="#1D3B5B" d="M254.6,128.2c0-2.4,0-4.8,0-7.2c3,0.3,1.7,2.6,1.7,4.1c0.1,14.9,0.1,29.8,0.1,44.7c-0.6,0-1.2,0-1.8,0
			c-4.9-7.9-2.1-16.7-2.6-25C252.2,139.1,250.7,133.2,254.6,128.2z"/>
		<path fill="#2A5178" d="M204.1,130c0-0.6,0-1.2,0-1.8c3,0,6,0,9,0c2.3,2.9,2.3,5.9,0.6,8.7c-2.6,2.1-5,2.3-7.4,0.6
			C204.1,135.4,205.9,132.2,204.1,130z"/>
		<path fill="#C23434" d="M390.1,298c-1.5,0.3-1.8-1.3-3.2-2c-3.5,2.9-7.9,1.7-12.1,2c-2.7,1.7,1.5,6-2.7,7.2c0-2.3,0-4.6,0-6.9
			c0-1.2,0.2-2.3,1.8-2.2c2.3-2,4.9-3.6,6.3-6.5c0.3-0.2,0.6-0.5,0.9-0.7c3,0,6,0,9,0C390.1,292,390.1,295,390.1,298z"/>
		<path fill="#B53131" d="M415.4,279.9c-3,0-6,0-9,0c-0.3-0.3-0.6-0.7-0.9-1c-1.1-2.3-0.8-4.4,0.9-6.2c3,0,6,0,9,0
			C417.2,275.1,417.6,277.5,415.4,279.9z"/>
		<path fill="#C13434" d="M415.4,279.9c0-2.4,0-4.8,0-7.2c3,0,6,0,9,0c1.9,2.4,1.9,4.8,0,7.2C421.4,282.3,418.4,282.3,415.4,279.9z"
			/>
		<path fill="#C13434" d="M431.6,272.7c3,0,6,0,9,0c1.9,2.4,1.9,4.8,0,7.2c-3,2.4-6,2.4-9,0C429.7,277.5,429.7,275.1,431.6,272.7z"
			/>
		<path fill="#B63131" d="M440.7,279.9c0-2.4,0-4.8,0-7.2c3,0,6,0,9,0c1.8,2.4,2.2,4.8,0,7.2C446.7,279.9,443.7,279.9,440.7,279.9z"
			/>
		<path fill="#B53131" d="M466,279.9c-3,0-6,0-9,0c-2.2-2.4-1.8-4.8,0-7.2c3,0,6,0,9,0C466,275.1,466,277.5,466,279.9z"/>
		<path fill="#B53131" d="M406.4,279.9c0,2.9,0,5.7,0,9c-2.7,0-5,0-7.2,0c0-3,0-6,0-9C401.5,278,403.9,278,406.4,279.9z"/>
		<path fill="#C23434" d="M456.9,272.7c0,2.4,0,4.8,0,7.2c-2.4,1.9-4.8,1.9-7.2,0c0-2.4,0-4.8,0-7.2
			C452.1,272.7,454.5,272.7,456.9,272.7z"/>
		<path fill="#B43131" d="M431.6,272.7c0,2.4,0,4.8,0,7.2c-2.4,0-4.8,0-7.2,0c0-2.4,0-4.8,0-7.2
			C426.8,272.7,429.2,272.7,431.6,272.7z"/>
		<path fill="#C23434" d="M406.4,279.9c-2.4,0-4.8,0-7.2,0c0-2.3,0-4.5,0-7.2c2.7,0,5,0,7.2,0C406.4,275.1,406.4,277.5,406.4,279.9z
			"/>
		<path fill="#B43131" d="M482.2,281.7c-2.3,0-4.6,0-7,0c-0.1,2.5-0.2,4.5-0.3,6.9c-2.8,0-5.6,0-8.9,0c0-2.9,0-5.8,0-8.7
			c5.4,0,10.8,0,16.3,0C482.2,280.5,482.2,281.1,482.2,281.7z"/>
		<path fill="#28527C" d="M406.4,222.1c-2.4,0-4.8,0-7.2,0c0-0.6,0-1.2,0-1.8c2-1.7,4.3-2.4,6.9-2.4c2.8-0.1,5.6-0.1,8.3,0
			c4.9,1.3,6.1-4.6,10.1-5.1c2.3,2.7,4.2,6,8.5,5.2c2.8,0,5.6,0.4,7.7,2.4c0,0.6,0,1.2,0,1.8c-3,0-6,0-9,0c-2.2,0-4.5,0-7.2,0
			c0,1.5,0,2.5,0,3.6c-2.4,0.2-1.4-2.1-2.6-3.6c-1.9,0-4.2,0-6.5,0C412.4,222.1,409.4,222.1,406.4,222.1z"/>
		<path fill="#D9B58B" d="M155.3,406.4c0-2.4,0-4.8,0-7.2c2.4,0,4.8,0,7.2,0c0,2.4,0,4.8,0,7.2C160.1,406.4,157.7,406.4,155.3,406.4
			z"/>
		<path fill="#DAB68B" d="M270.9,314.2c-2.3,0-4.6,0-7.2,0c0,5.8,0,11,0,16.3c-5.4,0-10.8,0-16.3,0c0-1.7,0-3.4,0-5.1
			c0-1.2-0.2-2.2-1.8-2.1c-3-1.8-3-1.8-6.9-2.1c0-5.1,0-10.3,0-16c2.3,0,4.6,0,6.9,0c2.1,1.4,1.6,4.5,3.7,5.7c4-4.2-2.6-3.7-2.6-6
			c-0.3-2-0.3-4,0-6c0.8-2,3-2.6,4.2-4.2c1.5-4.1-4.2-3.7-4.3-6.8c0.3-2.6-0.7-5.4,0.9-7.9c2.3,0,4.6,0,7,0c0-3.1,0-5.7,0-8.3
			c-2-1.7-4.6,0.2-7-1.4c0-5,0-10.2,0-15.5c2.3,0,4.5,0,7.2,0c0-2.7,0-5,0-7.2c2.7,0,5.4,0,8.1,0c2,1.9,0.1,4.5,1.2,6.7
			c1.8,1.1,3.9,0.3,5.9,0.5c0.8,0.5,0.7,1.4,1,2.2c0.8,2.2-2.1,5.4,1.7,6.8c2.4,0,4.8,0,7.2,0c0,5.4,0,10.8,0,16.3
			c-5.5,0.1-5.5,0.1-9,2.6C270.9,293,270.9,303.6,270.9,314.2z"/>
		<path fill="#2E5F91" d="M171.6,93.9c0-2.4,0-4.8,0-7.2c7.8-3.8,15.7-3.8,23.5,0c0,2.3,0,4.6,0,7.2
			C186.9,93.9,179.2,93.9,171.6,93.9z"/>
		<path fill="#2A5682" d="M195.1,86.7c-7.8,0-15.7,0-23.5,0c0-2.9,0-5.7,0-9c2.7,0,5,0,7.2,0c0.3,0.3,0.6,0.5,0.9,0.8
			c1.1,1.3,1.6,3.1,3.4,3.2c2.4-0.4,2.7-2.3,3.7-3.7c0.5-0.7,1.2-1.2,2-1.6c2.3-0.7,4.4-0.4,6.2,1.3
			C195.1,80.7,195.1,83.7,195.1,86.7z"/>
		<path fill="#264F78" d="M195.1,77.7c-2.4,0-4.8,0-7.2,0c-2.2-2.4-1.8-4.8,0-7.2c2.4,0,4.8,0,7.2,0
			C195.1,72.8,195.1,75.3,195.1,77.7z"/>
		<path fill="#2A5681" d="M440.7,220.3c-3,0-6,0-9,0c-2.1-2.7-4.5-5.1-7.2-7.2c-4,1.1-0.1,4.8-3.3,7.2c-1.1,0-3.5,0-5.8,0
			c-1.6-1.2-2.2-3.5-4.5-3.9c-2.3,0.3-2.9,2.7-4.5,3.9c-2.4,0-4.8,0-7.2,0c0-2.3,0-4.6,0-7.2c-3.3,0-6.2,0-9,0c0-16.9,0-33.7,0-50.6
			c3-2.4,6-2.4,9.5,0.1c4.6,9,0.1,19.8,3.4,29.6c5.2,3,10.4,1.8,14.6,1.3c3.8-1.6,4.5-4.6,6.5-6.4c2.6-1.5,5.1-1.3,7.5,0.5
			c3.9-1.2,0.5-4.7,2.8-7.1c2-1.5,4,0.9,6.2,1.7c0,1.7,0,3.4,0,5.4c2.7,0,5,0,7.2,0c0,8.1,0,16.2,0,24.3c-1.8,2.2-4.5,0.2-6.8,1.3
			C440.1,215.6,441,218,440.7,220.3z"/>
		<path fill="#203D5B" d="M431.6,187.8c-2.4,0-4.8,0-7.2,0c-2.6,2.1-5.4,2.3-9.8,0.1c-4.3-12.8-1.3-26.9-2-40.7
			c0.5-3.4,0.1-7.1,2.8-9.9c0-2.1,0-4.2,0-6.4c2.1-1.5,4.4-0.7,7.2-0.5c0,13.7,0,27.3,0,41.2c5.6,0,10.6,0,15.4,0
			c1.5,2.2,0.5,4.3,0.8,6.3c-1.9,2.2-4.5,0.2-7.2,1.5C431.6,182,431.6,184.9,431.6,187.8z"/>
		<path fill="#2A5581" d="M415.4,137.3c0,3,0,6,0,9c-3.6,2-7.7-0.3-12.1,1.7c-2.4,5.6-8.9,8.1-13.2,12.7c-2.1,0-4.2,0-6.4,0
			c-0.2-0.2-0.4-0.4-0.6-0.6c-0.1-0.2-0.3-0.5-0.3-0.8c0-10.2,0-20.3,0-30.5c2.5-1.2,4.9-0.3,7.2-0.6c0.3,0.3,0.6,0.6,0.9,0.8
			c1.1,1.4,0.9,3.5,2.8,4.5c3.3,0.1,2.9-3.2,4.2-4.9c0.5-0.7,1.2-1.3,2-1.7c2.3-0.8,4.5-0.5,6.3,1.2c0,2.9,0,5.7,0,9
			C409.7,137.3,412.5,137.3,415.4,137.3z"/>
		<path fill="#2A5581" d="M187.8,70.4c0,2.4,0,4.8,0,7.2c-3,2.4-6,2.4-9,0c0-2.3,0-4.6,0-7.2C182.1,70.4,185,70.4,187.8,70.4z"/>
		<path fill="#264F78" d="M406.4,128.2c-2.4,0-4.8,0-7.2,0c-2.2-2.4-1.8-4.8,0-7.2c2.3,0,4.5,0,7.2,0
			C406.4,123.7,406.4,126,406.4,128.2z"/>
		<path fill="#CDA87D" d="M146.3,196.9c0,7.7,0,15.4,0,23.3c5.5,0,10.5,0,16.1,0c0-5.2,0-10.4,0-15.9c5.6,0,10.6,0,16.2,0
			c0,11.1,0,22.3,0,34.1c5.8,0,11.2,0,16.5,0c0,3,0,6,0,9c-3.9-0.7-8.2,1.4-11.9-1.7c-0.7-0.6-2.9-0.8-4.1,0.6c-2,2.1-4.4,0.7-6.5,1
			c-3.5-1.9-2.7-5.1-2.8-8.1c-2.4-1.5-5.1-0.6-7.7-0.7c-2.6-0.2-5.3,0-8.3,0c0-2.9,0-5.5,0-8.1c-2.9-1.8-6-0.4-9.3-1.3
			c0-10.7,0-21.5,0-32.2C145.1,196.2,145.7,196.2,146.3,196.9z"/>
		<path fill="#253F5A" d="M128.2,238.4c0-3,0-6,0-9c2.4-2.2,4.8-1.8,7.2,0c0.6,0,1.2,0,1.8,0c0,2.4,0,4.8,0,7.2
			C134.6,239,131.3,238.3,128.2,238.4z"/>
		<path fill="#B79B7B" d="M146.3,196.9c-0.6,0-1.2,0-1.8,0c-2.4,0-4.8,0-7.2,0c1.2-3.8,4.6-0.7,7.2-2.6c0-9.2,0-18.8,0-28.5
			c0-1.3-0.6-3.2,1.8-3.2C146.3,174,146.3,185.4,146.3,196.9z"/>
		<path fill="#DAB68B" d="M245.6,231.2c0,7.5,0,15,0,22.6c-1.9,2-4.6,0.1-7.2,1.5c0,11,0,22.3,0,33.7c-2.9,0-5.8,0-9,0
			c0,8.8,0,17,0,25.3c-8.4,0-16.9,0-25.3,0c0-2.7,0-5.4,0-8.2c2.6-1.9,5.7-0.1,8.6-1.2c1-2.1,0.1-4.6,0.4-6.9c1.7,0,3.4,0,5.1,0
			c1.2,0,2.2-0.2,2.1-1.8c-1.9-8.9,0.3-18-1.3-26.5c-1.3-3.1-4.1-4.1-6-6c0-0.6,0-1.2,0-1.8c0-2.4,0-4.8,0-7.2
			c0.3-0.3,0.5-0.6,0.8-0.9c1.4-1.2,4.1-0.9,4.4-4.1c-2.6-2.8-8.8-4-6.5-10.2c0.3-0.8,0.9-1.4,1.5-1.9c1.7-1.3,4.8-0.7,5.4-3.7
			c-1-2.7-3.9-2.2-5.7-3.7c-0.7-0.7-1.2-1.5-1.5-2.4c-0.4-2.7-0.2-5.2,2.5-6.8c8.2-1.3,16.4-3,24.3,1.3c2.1,2.7,4.5,5.1,7.2,7.2
			C245.6,230,245.6,230.6,245.6,231.2z"/>
		<path fill="#326291" d="M195.1,213.1c0-8.2,0-16.5,0-25.3c3.2,0,6.1,0,9,0c0.3,0.3,0.6,0.5,0.9,0.8c1.1,1.7,1.5,3.8,3.3,5
			c3.8,1.7,8.3-0.1,12.1,3c2,2.2,2.1,4.9,0.4,7.7c-2,1.7-4.4,2-6.9,2.1c-2.7,0.1-5.5,0-8.3,0c-1.7,0-3.4-0.2-6.2,1.8
			c-0.4,0.3-0.5,2.5-1.6,4.1c-0.3,0.3-0.6,0.5-0.9,0.8C196.3,213.1,195.7,213.1,195.1,213.1z"/>
		<path fill="#DAB58B" d="M213.1,254.6c-5.1,0-10.2,0-16.1,0c-0.4-5.2-0.1-10.4-0.2-15.7c2.5-1.2,4.9-0.3,7.2-0.6
			c0.3,0.3,0.6,0.5,0.9,0.8c1,1.7,1.4,3.7,2.9,5.1c1.9,1.3,4.6,1.6,6,3.8C215.1,250.4,215,252.6,213.1,254.6z"/>
		<path fill="#C4A178" d="M204.1,236.6c-2.3,0-4.6,0-7.2,0c0-5.2,0-9.8,0-14.4c2.4-1.9,4.8-2.2,7.5-0.5c1.9,2.2,2.2,4.9,2.2,7.6
			C206.5,231.9,206.3,234.6,204.1,236.6z"/>
		<path fill="#D8B489" d="M204.1,236.6c0-2.4,0-4.8,0-7.2c3-2.4,6-2.4,9,0c2.4,3,2.4,6,0,9c-0.7,0.6-1.5,1.1-2.4,1.5
			c-2.5,0.7-4.7,0.2-6.6-1.5C204.1,237.8,204.1,237.2,204.1,236.6z"/>
		<path fill="#3D5B79" d="M204.1,222.1c-2.4,0-4.8,0-7.2,0c0-0.6,0-1.2,0-1.8c2-1.8,4.4-2.4,7-2.4c3-0.1,6-0.1,8.9-0.1
			c2.4,0,4.9-0.1,7.3,0c2.9,0,5.8,0,8.7,0.1c2.9,0.1,5.9-0.1,8.5,1.4c0.3,0.3,0.7,0.7,1,1c0,0.6,0,1.2,0,1.8c-8.4,0-16.9,0-25.3,0
			C210.1,224.5,207.1,224.5,204.1,222.1z"/>
		<path fill="#2A5682" d="M204.1,220.3c-2.4,0-4.8,0-7.2,0c0-2.4,0-4.8,0-7.2c2.4-1.9,5-2.2,7.6-0.4
			C206.3,215.4,206,217.9,204.1,220.3z"/>
		<path fill="#D3AF84" d="M247.4,279.9c0,3,0,6,0,9c2.1,2.7,4.5,5.2,7.2,7.2c-1.2,3.8-4.7,0.6-7.2,2.6c0,1.8,0,4.1,0,6.4
			c2.4,3,2.4,6,0,9c-1.6,0.1-1.8-0.9-1.8-2.2c0-2.3,0-4.6,0-6.9c0-2.1,0-4.2,0-6.3c-1.7-2.8-6.1,1.4-7.2-2.8
			c2.7-2.1,5.1-4.5,7.2-7.2c0-2.3,0-4.6,0-6.9C245.6,280.9,245.8,279.8,247.4,279.9z"/>
		<path fill="#DAB68B" d="M245.6,289c0,2.3,0,4.5,0,7.2c-2.7,0-5,0-7.2,0c0-2.4,0-4.8,0-7.2C240.8,289,243.2,289,245.6,289z"/>
		<path fill="#CEA97E" d="M213.1,263.7c2.7,0,5.4,0,8.7,0c0.5,10.6,0.5,21.2,0,31.9c0,0.2-1,0.4-1.5,0.6c-2.1,0-4.2,0-6.8,0
			C212.6,285.4,213.3,274.5,213.1,263.7z"/>
		<path fill="#DAB68C" d="M153.5,289c0,2.4,0,4.8,0,7.2c-2.3,0-4.5,0-7.2,0c0-2.7,0-5,0-7.2C148.7,289,151.1,289,153.5,289z"/>
		<path fill="#2A5682" d="M279.9,220.3c-2.1,0-4.2,0-6.3,0c-2.8-1.7,1.4-6.1-2.8-7.2c-2.7,2.1-5.1,4.5-7.2,7.2c-2.1,0-4.2,0-6.4,0
			c-0.2-0.2-0.4-0.4-0.6-0.6c-0.1-0.2-0.3-0.5-0.3-0.8c0-15.6,0-31.2,0-46.8c2.5-1.2,4.9-0.3,7.2-0.6c0,10.7,0,21.4,0,32.3
			c11.4,0,22.4,0,33.7,0c1.7-1.7-0.2-4.4,1.2-7c4.4,0,9.1,0,13.8,0c0,7.8,0,15.7,0,23.5c-2.4,0-4.8,0-7.2,0
			c-2.1-2.7-4.5-5.1-7.2-7.2c-4,1.1-0.1,4.8-3.3,7.2c-1.1,0-3.5,0-5.8,0c-1.6-1.2-2.2-3.5-4.5-3.9
			C282.1,216.8,281.5,219.1,279.9,220.3z"/>
		<path fill="#1C3A59" d="M339.5,155.3c0-3.3,0-6.6,0-9.9c5-0.9,5-0.9,8.8,1.4c0,1.8,0,3.8,0,5.6c2.2,2.2,4.9,0.2,7.5,1.8
			c0,8,0,16.3,0,24.6c-5.3,0-10.6,0-16.3,0C339.5,170.7,339.5,163,339.5,155.3z"/>
		<path fill="#2A5682" d="M381.1,213.1c-2.1,0-4.2,0-6.4,0c-1.8-2.6-0.1-5.7-1.3-9c-2.7,0-5.6,0-8.5,0c0-2.9,0-5.8,0-9
			c5.7,0,11,0,16.3,0C381.1,201.1,381.1,207.1,381.1,213.1z"/>
		<path fill="#265079" d="M339.5,204.1c0,3,0,6,0,9c-3,2.4-6,2.4-9,0c0-3,0-6,0-9C333.5,204.1,336.5,204.1,339.5,204.1z"/>
		<path fill="#264F79" d="M346.8,128.2c0-1.7,0-3.4,0-5.1c0-1.2,0.2-2.2,1.8-2.1c2,2.3,3.6,4.9,6.5,6.3c0.2,0.3,0.5,0.6,0.7,0.9
			c0,2.7,0,5.4,0,8.6c-3,0.6-6,1.8-9-2.7C346.8,132.8,346.8,130.5,346.8,128.2z"/>
		<path fill="#264F79" d="M339.5,128.2c0,2.7,0,5.4,0,8.5c-2.7,1.1-5.6,0.4-9,0.5c0-3.1,0-6,0-8.9c2.4-2.1,5.1-2.4,7.9-0.9
			C338.8,127.6,339.2,127.9,339.5,128.2z"/>
		<path fill="#264F78" d="M364.8,121c0,2.4,0,4.8,0,7.2c-3,0-6,0-9,0c-1.9-2.4-1.9-4.8,0-7.2C358.8,121,361.8,121,364.8,121z"/>
		<path fill="#264F78" d="M339.5,126.4c1.2,0,1.9,0.6,1.8,1.8c-0.6,0-1.2,0-1.8,0c-0.5-0.4-0.6-0.8-0.5-1.2
			C339.2,126.6,339.4,126.4,339.5,126.4z"/>
		<path fill="#2E5F91" d="M222.1,169.8c-0.1,1.6,0.9,1.8,2.1,1.8c1.7,0,3.4,0,5.1,0c0,2.1,0,4.2,0,6.9c5.2,0,10.4,0,16.3,0
			c0,6.5,0,12.4,0,18.4c-5.6,3.7-11,3.4-16.4-0.5c-1.7-1.9-2.2-4.5-4.1-6.2c-3.5-2.8-8.5-0.7-12.9-4.8c-3.3-8.7-2.1-18.8-0.9-28.9
			c0.4-3.5,3.2-4.8,6.7-4.5c1.1,0.2,2,0.6,2.8,1.3C223.6,158.6,223.1,164.2,222.1,169.8z"/>
		<path fill="#2A5681" d="M229.4,195.1c1.9,0.3,3.1,2.2,5.5,1.9c3.5-0.4,7.1-0.1,10.7-0.1c0,5.4,0,10.8,0,16.3
			c-1.8,1.7-3.9,2-6.2,1.3c-0.8-0.4-1.5-0.9-2-1.6c-1.3-1.7-0.6-4.8-3.6-5.4c-2.7,1-2.2,3.9-3.6,5.7c-0.6,0.7-1.4,1.2-2.3,1.5
			c-8.1,0.5-8.8-4.2-7.5-10.5c0-2.1,0-4.2,0-6.9c-4.6-0.6-9.3-0.1-13.9-0.3c-1.2,0-2.4,0-2.3-1.8
			C212.5,190.1,220.9,193.2,229.4,195.1z"/>
		<path fill="#295581" d="M279.9,222.1c3,0,6,0,9,0c1.9,2.4,1.9,4.8,0,7.2c-3,0-6,0-9,0C278,227,278,224.5,279.9,222.1z"/>
		<path fill="#264F78" d="M254.6,222.1c3,0,6,0,9,0c1.9,2.4,1.9,4.8,0,7.2c-3,0-6,0-9,0C252.7,227,252.7,224.5,254.6,222.1z"/>
		<path fill="#2A5582" d="M298,229.4c0-2.3,0-4.5,0-7.2c2.7,0,5,0,7.2,0c0,2.4,0,4.8,0,7.2C302.8,229.4,300.4,229.4,298,229.4z"/>
		<path fill="#264E78" d="M289,229.4c0-2.4,0-4.8,0-7.2c2.3,0,4.5,0,7.2,0c0,2.7,0,5,0,7.2C293.8,229.4,291.4,229.4,289,229.4z"/>
		<path fill="#264F77" d="M279.9,222.1c0,2.4,0,4.8,0,7.2c-2.4,0-4.8,0-7.2,0c0-2.3,0-4.5,0-7.2
			C275.4,222.1,277.7,222.1,279.9,222.1z"/>
		<path fill="#264F78" d="M238.4,213.1c2.4,0,4.8,0,7.2,0c0,2.3,0,4.5,0,7.2c-2.7,0-5,0-7.2,0C236.6,217.9,236.2,215.5,238.4,213.1z
			"/>
		<path fill="#1C3A59" d="M245.6,229.4c-2.3,0-4.5,0-7.2,0c0-2.7,0-5,0-7.2c2.3,0,4.5,0,7.2,0C245.6,224.8,245.6,227.1,245.6,229.4z
			"/>
		<path fill="#2A5682" d="M254.6,222.1c0,2.4,0,4.8,0,7.2c-2.3,0-4.5,0-7.2,0c0-2.7,0-5,0-7.2C249.8,222.1,252.2,222.1,254.6,222.1z
			"/>
		<path fill="#2A5682" d="M263.7,229.4c0-2.4,0-4.8,0-7.2c2.3,0,4.5,0,7.2,0c0,2.7,0,5,0,7.2C268.5,229.4,266.1,229.4,263.7,229.4z"
			/>
		<path fill="#2A5681" d="M305,128c-2,0-4.3,0-6.8,0c0-2.2,0-4.2,0-6.4c2.1-1,4.3-0.6,6.8-0.3C305,123.7,305,125.9,305,128z"/>
		<path fill="#2A5681" d="M364.8,220.3c0-2.4,0-4.8,0-7.2c2.1,0,4.2,0,6.3,0c2.1,2,0.2,4.4,1.1,6.5
			C369.5,220.9,367.1,220,364.8,220.3z"/>
		<path fill="#2A5581" d="M339.5,126.4c0,0.6,0,1.2,0,1.8c-3,0-6,0-9,0c0-2.1,0-4.2,0-6.5c2.7-1.6,5.6-0.2,8.2-0.8
			C340.1,122.9,339.3,124.7,339.5,126.4z"/>
		<path fill="#2A5682" d="M355.8,121c0,2.4,0,4.8,0,7.2c-2.3,0-4.5,0-7.2,0c0-2.7,0-5,0-7.2C351,121,353.4,121,355.8,121z"/>
		<path fill="#2E5F91" d="M390.1,160.7c0-2.3,0-4.6,0-7.1c3.1,0,5.7,0,8.3,0c1.7-2.9,0-6,1.4-9.2c5,0.7,10.5-1.3,15.6,1.9
			c0,13.7,0,27.3,0,41.5c3.2,0,6.1,0,9,0c0,2.1,0,4.2,0,6.4c-0.8,0.7-1.7,1.5-2.8,2.5c-7.1,0-14.5,0-22.4,0c0-11.3,0-22.5,0-34.2
			c-3.4,0-6.3,0-9.2,0C390.1,161.9,390.1,161.3,390.1,160.7z"/>
		<path fill="#2A5581" d="M399.1,121c0,2.4,0,4.8,0,7.2c-3,2.4-6,2.4-9,0c0-2.3,0-4.6,0-7.2C393.4,121,396.3,121,399.1,121z"/>
		<path fill="#2A5581" d="M330.5,213.1c3,0,6,0,9,0c0,2.4,0,4.8,0,7.2c-3.1,0-6.4-0.6-9,1.8C330.5,219.1,330.5,216.1,330.5,213.1z"
			/>
		<path fill="#A12D2D" d="M406.4,397.3c-2.4,0-4.8,0-7.2,0c-0.3-0.3-0.6-0.7-0.9-1c-1.1-2.3-0.8-4.4,0.9-6.2c0-16.9,0-33.7,0-50.6
			c2.4,0,4.8,0,7.2,0c0,3,0,6,0,9C407.5,364.8,408.3,381.1,406.4,397.3z"/>
		<path fill="#B53131" d="M431.6,279.9c3,0,6,0,9,0c0,2.7,0,5.4,0,8.5c-2.7,1.1-5.6,0.4-9,0.5C431.6,285.8,431.6,282.9,431.6,279.9z
			"/>
		<path fill="#B53131" d="M415.4,279.9c3,0,6,0,9,0c0,2.7,0,5.4,0,8.5c-2.7,1.1-5.6,0.4-9,0.5C415.4,285.8,415.4,282.9,415.4,279.9z
			"/>
		<path fill="#B63131" d="M449.7,279.9c2.4,0,4.8,0,7.2,0c0,2.7,0,5.4,0,8.1c-2,2-4.4,0-7.2,1.6
			C449.7,285.8,449.7,282.9,449.7,279.9z"/>
		<path fill="#B43131" d="M406.4,397.3c0-16.3,0-32.5,0-48.8c2.5,0,1.8,1.9,1.8,3.2c0,12.6,0,25.1,0,37.7c2.5,1.2,4.9,0.3,7.2,0.6
			c0,2.4,0,4.8,0,7.2C412.4,397.3,409.4,397.3,406.4,397.3z"/>
		<path fill="#2C5782" d="M135.5,229.4c-2.4,0-4.8,0-7.2,0c-2.4,0-4.8,0-7.2,0c-2.3-3.7-5.2-6.9-9-9c0-2.1,0-4.2,0-6.9
			c5.2,0,10.4,0,16,0c0-3.2,0-5.8,0-8.4c2.4-1.6,4.7-1,7.5-0.7C135.5,212.7,135.5,221,135.5,229.4z"/>
		<path fill="#264F79" d="M153.5,128.2c0,3,0,6,0,9c-2.9,0-5.7,0-9,0c0-3.3,0-6.2,0-9c0.3-0.3,0.7-0.7,1-1
			C148.4,125.9,151.1,126.1,153.5,128.2z"/>
		<path fill="#264F79" d="M119.2,119.2c3,0,6,0,9,0c2.1,2.4,2.3,5.1,1,8c-0.3,0.3-0.7,0.7-1,1c-3,0-6,0-9,0c-0.3-0.3-0.7-0.7-1-1
			C116.9,124.3,117.1,121.6,119.2,119.2z"/>
		<path fill="#264F78" d="M137.3,128.2c0,2.7,0,5.4,0,8.5c-2.7,1.1-5.6,0.4-9,0.5c0-3.1,0-6,0-8.9c2.4-2.1,5.1-2.3,8-1
			C136.6,127.6,136.9,127.9,137.3,128.2z"/>
		<path fill="#264F77" d="M137.3,119.2c2.4,0,4.8,0,7.2,0c2.4,3,2.4,6,0,9c-2.4,0-4.8,0-7.2,0C134.9,125.2,134.9,122.2,137.3,119.2z
			"/>
		<path fill="#264F78" d="M119.2,128.2c0,2.7,0,5.4,0,8.1c-2,2-4.4,0-7.2,1.6c0-3.9,0-6.8,0-9.7
			C114.4,126.3,116.8,126.3,119.2,128.2z"/>
		<path fill="#264F78" d="M86.7,153.5c0,2.7,0,5.4,0,8.5c-2.7,1.1-5.6,0.4-9,0.5c0-3.1,0-6,0-8.9C80.7,151.1,83.7,151.1,86.7,153.5z
			"/>
		<path fill="#265079" d="M112,220.3c2,0,4,0,5.9,0c4.3,2,2.9,5.8,3.1,9c0,1.7,0,3.4,0,5.1c0,1.2-0.2,2.2-1.8,2.1
			c-2.1-2.7-4.5-5.2-7.2-7.2C112,226.4,112,223.3,112,220.3z"/>
		<path fill="#2A5581" d="M86.7,153.5c-3,0-6,0-9,0c0-2.3,0-4.6,0-7.2c3.3,0,6.2,0,9,0C86.7,148.7,86.7,151.1,86.7,153.5z"/>
		<path fill="#2A5681" d="M112,229.4c2.3,0,4.5,0,7.2,0c0,2.7,0,5,0,7.2c-2.3,0-4.5,0-7.2,0C112,233.9,112,231.6,112,229.4z"/>
		<path fill="#295581" d="M119.2,128.2c-2.4,0-4.8,0-7.2,0c0-3,0-6,0-9c2.4,0,4.8,0,7.2,0C119.2,122.2,119.2,125.2,119.2,128.2z"/>
		<path fill="#295580" d="M137.3,119.2c0,3,0,6,0,9c-3,0-6,0-9,0c0-3,0-6,0-9C131.2,119.2,134.2,119.2,137.3,119.2z"/>
		<path fill="#295580" d="M144.5,128.2c0-3,0-6,0-9c3,0,6,0,9,0c0,3,0,6,0,9C150.5,128.2,147.5,128.2,144.5,128.2z"/>
		<path fill="#B23030" d="M323.3,314.2c0,23.6,0,47.2-0.1,70.9c0,1.6,1.8,4.4-1.7,5c-2.2-2.4-2.7-5.3-2.8-8.4
			c-0.2-19.8-0.2-39.7,0-59.5c0-2.4,0.4-4.8,1.6-7C321,314.1,322,313.7,323.3,314.2z"/>
		<path fill="#C33434" d="M323.3,314.2c-0.6,0-1.2,0-1.8,0c-2.5-2.8-2.3-5.8-0.4-8.9c3.1-2.7,6.3-2.6,9.5-0.2c2.4,3,2.5,6,0,9
			C328.1,314.2,325.7,314.2,323.3,314.2z"/>
		<path fill="#C23434" d="M314.2,390.1c0,2.4,0,4.8,0,7.2c-3,0-6,0-9,0c-2.1-2.7-4.5-5.1-7.2-7.2c-3.8,1.2-0.6,4.7-2.6,7.2
			c-1.8,0-4.1,0-6.4,0c0-2.1,0-4.2,0-6.4c-1.9-2-4.6,0-7.2-1.5c0-24.9,0-50.1,0-75.2c2.4-1.9,4.9-1.9,7.8,0.2
			c3.6,7.2,1.8,15.4,2,23.3c0.2,6.9-0.1,13.6,5.9,18.8c3,2.6,2.9,7,3.1,10.9c0.2,3.2-0.8,6.6,1.3,9.6c3.9,2.3,9.1,0.5,12.7,4.1
			C316.7,384.1,316.5,387.1,314.2,390.1z"/>
		<path fill="#C23434" d="M339.5,314.2c0,19,0,38.1,0,57.2c2.9,1.4,7.1-1.1,9.1,4.5c0,0.5,0,2.5,0,5c5,0,9.7,0,14.4,0
			c0,5.2,0,10.5,0,16.3c-2.7,0-4.9,0-7.2,0c-2.1-2.7-4.5-5.1-7.2-7.2c-3.8,1.2-0.6,4.7-2.6,7.2c-1.8,0-4.1,0-6.4,0
			c0-2.1,0-4.2,0-6.4c-1.9-2-4.6,0-7.2-1.5c0-24.9,0-50.1,0-75.2C334.7,312.1,337.1,312.1,339.5,314.2z"/>
		<path fill="#A72E2E" d="M339.5,314.2c-2.4,0-4.8,0-7.2,0c-0.6,0-1.2,0-1.8,0c0-3,0-6,0-9c11.4,0,22.9,0,34.3,0c0,2.9,0,5.8,0,9
			C356,314.2,347.8,314.2,339.5,314.2z"/>
		<path fill="#B43131" d="M348.6,390.1c2.3,0,4.5,0,7.2,0c0,2.7,0,5,0,7.2c-2.3,0-4.5,0-7.2,0C348.6,394.6,348.6,392.4,348.6,390.1z
			"/>
		<path fill="#B43131" d="M298,390.1c2.3,0,4.5,0,7.2,0c0,2.7,0,5,0,7.2c-2.3,0-4.5,0-7.2,0C298,394.6,298,392.4,298,390.1z"/>
		<path fill="#D13838" d="M314.2,390.1c0-2.7,0-5.4,0-8.7c-5.8-0.8-11.7,0-18-0.6c2-8.6,3.4-17-0.8-25.1c-2,0-3.8,0-6.2,0
			c-0.8-13.6,0-27.3-0.5-41c-2.4-1.2-4.8-0.2-7.1-0.5c0-8.1,0-16.3,0-24.5c2.1-1.4,4.4-0.8,7-0.5c0,2.7,0,5.3,0,8.3
			c3.5,0.5,6.6,1.5,9.2-2.7c0-1.3,0-3.3,0-5.6c19.2,0,38.1,0,57.2,0c1,1.9,0.7,4.2,0.2,6.8c-7.5,0-14.9,0-22,0c-1.2,1.2-2,2-2.9,2.9
			c0,2.1,0,4.2,0,6.3c-2.9,0-5.7,0-9,0c0,3.3,0,6.2,0,9c0,25.3,0,50.6,0,75.9C319.1,390.1,316.7,390.1,314.2,390.1z"/>
		<path fill="#C23334" d="M373.8,279.9c2.4,0,4.8,0,7.2,0c0,3,0,6,0,9c-2.4,1.9-4.8,1.9-7.2,0C373.8,286,373.8,282.9,373.8,279.9z"
			/>
		<path fill="#B53131" d="M373.8,289c2.4,0,4.8,0,7.2,0c0,2.3,0,4.5,0,7.2c-2.7,0-5,0-7.2,0C373.8,293.8,373.8,291.4,373.8,289z"/>
		<path fill="#7E2424" d="M373.7,324.1c0,4.3,0,8.7,0,13.3c-5.2,4.4-11.4,1-17.3,2.4c-1.1-3-0.5-5.9-0.5-9c2.8,0,5.4,0,7.9,0
			c2-2.9,0.3-6,1.4-8.9C368.3,321.2,371.4,320.6,373.7,324.1z"/>
		<path fill="#B53131" d="M399.1,397.3c0,0.6,0,1.2,0,1.8c-3,0-6,0-9,0c-2.4-3-2.4-6,0-9c2.4,0,4.8,0,7.2,0
			C399.3,392.2,397.1,395.3,399.1,397.3z"/>
		<path fill="#C23434" d="M390.1,390.1c0,3,0,6,0,9c-2.3,0-4.6,0-7.2,0c0-3.3,0-6.2,0-9C385.3,390.1,387.7,390.1,390.1,390.1z"/>
		<path fill="#AA2F2F" d="M399.1,397.3c-1.6,0.1-1.8-0.9-1.8-2.1c0-1.7,0-3.4,0-5.1c0.6,0,1.2,0,1.8,0
			C399.1,392.5,399.1,394.9,399.1,397.3z"/>
		<path fill="#2A5682" d="M220.3,153.5c-2.1,0-4.2,0-6.2,0c-0.2,0.2-0.5,0.4-0.6,0.6c-0.2,0.2-0.3,0.5-0.3,0.7c0,10.1,0,20.2,0,31.2
			c4.7,0,9.3,0,14,0c1.2,0,2.4,0.1,2.3,1.8c-8.4,4.3-16.9,4.3-25.3,0c0-19.3,0-38.5,0-57.8c3.9,1.2,0.7,4.6,2.1,6.6
			c2,1.6,4.2-0.1,6.9,1c0-3.7,0-6.6,0-9.4c2.4,0,4.8,0,7.2,0c2.2,1,2.7,3.8,4.6,5c2.1-0.2,2.2-1.8,2.8-3.1c0.3-0.8,0.7-1.5,1.3-2.1
			c0.8-0.5,1.5-0.4,2.2,0.3c1.8,0,3.6,0,5.4,0c0.4-0.2,0.7-0.4,1.1-0.6c0.8,0.3,1.4,0.8,1.9,1.5c1,1.6,0.9,4.2,3.3,4.7
			c2.9-0.9,2.4-4.3,4.5-5.5c2.4,0,4.8,0,7.2,0c0,5.4,0,10.8,0,16.3c-4.6,3.8-10.2,2.3-15.4,2.6c-4.4,0.2-8.9-0.4-11.8,0.6
			C223.4,149.1,222.7,152.2,220.3,153.5z"/>
		<path fill="#C2A076" d="M186,137.3c3.8,1.2,0.6,4.7,2.3,6.8c1.8,1,3.9,0.2,5.9,0.5c0.8,0.8,1.7,1.7,2.7,2.7c0,6.6,0,13.4,0,20.3
			c0,1.2-0.1,2.4-1.8,2.3c-2.4,1.3-4.8,1.3-7.2,0c0-6.6-0.2-13.2,0.1-19.7c0.1-2.4-1.6-3.6-1.9-5.5
			C184.1,142.1,184.1,139.7,186,137.3z"/>
		<path fill="#CCA87D" d="M187.8,169.8c2.4,0,4.8,0,7.2,0c-2.8,1.8-2.8,1.8-6.5,2c-2.6,1.7,1.6,5.9-2.6,7.1c-6.9-6.6-7.5-6.6-14.4,0
			c-1.8-2.8-1.8-2.8-2-6.5c-1.7-2.6-5.9,1.6-7.1-2.6c2.7-2.1,5.1-4.5,7.2-7.2c0-2.3,0-4.6,0-6.9c0-1.2,0.2-2.3,1.8-2.2
			c2.1,2.8,4.5,5.2,7.2,7.2c-1.2,3.8-4.6,0.7-6.9,2.4c-0.6,1.8-0.4,4,0.1,6.6C177.3,169.8,182.6,169.8,187.8,169.8z"/>
		<path fill="#C09E74" d="M186,137.3c0,2.4,0,4.8,0,7.2c-5.1,0-10.2,0-15.4,0c-1.5-2.1-0.7-4.4-0.6-7.2
			C175.4,137.3,180.7,137.3,186,137.3z"/>
		<path fill="#BF9D74" d="M171.6,178.8c0-2.1,0-4.2,0-7c4.6-0.5,9.2-0.1,13.8-0.3c1.2,2.5,0.3,5,0.6,7.3
			C181.2,178.8,176.4,178.8,171.6,178.8z"/>
		<path fill="#C09E74" d="M178.8,160.7c-2.3,0-4.5,0-7.2,0c0-2.7,0-5,0-7.2c2.3,0,4.5,0,7.2,0C178.8,156.2,178.8,158.5,178.8,160.7z
			"/>
		<path fill="#BF9D74" d="M169.8,162.5c0,2.3,0,4.5,0,7.2c-2.7,0-5,0-7.2,0c0-2.4,0-4.8,0-7.2C164.9,162.5,167.4,162.5,169.8,162.5z
			"/>
		<path fill="#2E5F91" d="M220.3,153.5c0.1-5.5,0.1-5.5,2.6-9c10.4,0,21.1,0,31.7,0c0,8.4,0,16.9,0,25.3c-8.4,0-16.9,0-25.3,0
			c-3.1-3.1-1.8-7.4-3.1-11C225.1,156.1,222.1,155.5,220.3,153.5z"/>
		<path fill="#1E3D5D" d="M220.3,153.5c2.9,0,5.8,0,9,0c0,5.7,0,11,0,16.3c-2.4,0-4.8,0-7.2,0c-1.7,0.1-1.8-1-1.8-2.2
			C220.3,162.9,220.3,158.2,220.3,153.5z"/>
		<path fill="#264F78" d="M279.9,220.3c0-2.1,0-4.2,0-6.7c2.7-1.1,5.6-0.4,8.5-0.5c1.1,2.4,0.2,4.8,0.5,7.1
			C286,220.3,282.9,220.3,279.9,220.3z"/>
		<path fill="#264F78" d="M298,213.1c2.3,0,4.5,0,7.2,0c0,2.7,0,5,0,7.2c-2.3,0-4.5,0-7.2,0C298,217.6,298,215.4,298,213.1z"/>
		<path fill="#264F78" d="M263.7,220.3c0-2.3,0-4.5,0-7.2c2.7,0,5,0,7.2,0c0,2.3,0,4.5,0,7.2C268.2,220.3,265.9,220.3,263.7,220.3z"
			/>
		<path fill="#264F79" d="M247.4,128.2c0,2.7,0,5.4,0,8.5c-2.7,1.1-5.6,0.4-9,0.5c0-3.1,0-6,0-8.9c2.6-2.2,5.2-4.4,7.2-7.2
			c1.6-0.1,1.8,0.9,1.8,2.1C247.4,124.8,247.4,126.5,247.4,128.2z"/>
		<path fill="#264F78" d="M229.4,128.2c0,2.7,0,5.4,0,8.2c-2,1.6-4.3,0.7-6.6,0.7c-0.8-3-1.6-5.9-2.4-8.9c0-1.7,0-3.4,0-5.1
			c0-1.2,0.2-2.2,1.8-2.1C224.2,123.8,226.7,126.1,229.4,128.2z"/>
		<path fill="#2A5682" d="M229.4,128.2c-2.3,0-4.5,0-7.2,0c0-2.7,0-5,0-7.2c2.3,0,4.5,0,7.2,0c0,2.1,0,3.8,0,5.4
			c0.5,0.4,0.6,0.8,0.5,1.2C229.7,128,229.5,128.2,229.4,128.2z"/>
		<path fill="#2A5681" d="M245.6,121c0,2.3,0,4.5,0,7.2c-2.7,0-5,0-7.2,0c-1.3-2.4-1.3-4.8,0-7.2C240.8,121,243.2,121,245.6,121z"/>
		<path fill="#264F79" d="M238.4,121c0,2.4,0,4.8,0,7.2c-0.6,0-1.2,0-1.8,0c0-1.7,0-3.4,0-5.1C236.6,121.9,236.8,120.9,238.4,121z"
			/>
		<path fill="#264F79" d="M229.4,128.2c0-0.6,0-1.2,0-1.8c1.2,0,1.9,0.6,1.8,1.8C230.6,128.2,230,128.2,229.4,128.2z"/>
		<path fill="#264F78" d="M406.4,220.3c0-2.1,0-4.2,0-6.7c2.7-1.1,5.6-0.4,8.5-0.5c1.1,2.4,0.2,4.8,0.5,7.1
			C412.4,220.3,409.4,220.3,406.4,220.3z"/>
		<path fill="#264F77" d="M424.4,213.1c2.3,0,4.5,0,7.2,0c0,2.7,0,5,0,7.2c-2.3,0-4.5,0-7.2,0C424.4,217.6,424.4,215.4,424.4,213.1z
			"/>
		<path fill="#CEA97D" d="M247.4,314.2c0-3,0-6,0-9c2.1,0,4.2,0,6.7,0c1.1,2.7,0.4,5.6,0.5,8.5C252.1,314.8,249.7,313.9,247.4,314.2
			z"/>
		<path fill="#CDA87D" d="M254.6,296.2c-2.3,0-4.5,0-7.2,0c0-2.7,0-5,0-7.2c2.3,0,4.5,0,7.2,0C254.6,291.7,254.6,293.9,254.6,296.2z
			"/>
		<path fill="#264F78" d="M178.8,77.7c3,0,6,0,9,0c0,2.1,0,4.2,0,6.7c-2.7,1.1-5.6,0.4-8.5,0.5C178.2,82.4,179.1,80,178.8,77.7z"/>
		<path fill="#264F78" d="M390.1,128.2c3,0,6,0,9,0c0,2.1,0,4.2,0,5.9c-2,4.2-5.4,3-9,3.2C390.1,134,390.1,131.1,390.1,128.2z"/>
		<path fill="#CEAA7E" d="M211.3,238.4c0.6,0,1.2,0,1.8,0c0,2.3,0,4.6,0,6.6c3,1.4,6.5-0.8,8.1,2.3c1.9,2.5,0.3,4.7,1.3,7.4
			c-3.6,0-6.5,0-9.4,0c0-2.1,0-4.2,0-6.4c-2.4-1.6-5.1-0.4-7.6-0.8c-0.9-0.1-1.6-0.7-1.4-1.8C206.8,243.6,209.2,241.1,211.3,238.4z"
			/>
		<path fill="#CFAA7F" d="M213.1,238.4c0-3,0-6,0-9c2.7,0,5.4,0,8.5,0c1.1,2.7,0.4,5.6,0.5,9C219,238.4,216,238.4,213.1,238.4z"/>
		<path fill="#CDA97D" d="M204.1,222.1c3,0,6,0,9,0c0,2.4,0,4.8,0,7.2c-3,0-6,0-9,0C204.1,227,204.1,224.5,204.1,222.1z"/>
		<path fill="#1D3C5C" d="M204.1,187.8c8.4,0,16.9,0,25.3,0c0,2.4,0,4.8,0,7.2c-0.6,3.5-3.7,2.1-4.8,1.6c-6.7-3.1-13.7-1-20.5-1.6
			C204.1,192.6,204.1,190.2,204.1,187.8z"/>
		<path fill="#2A5581" d="M204.1,220.3c0-2.4,0-4.8,0-7.2c-2.4-3-2.4-6,0-9c3,0,6,0,9,0c2.3,2.6,2.6,5.7,2.4,8.9
			c0.1,2.7-0.6,5.2-2.4,7.3C210.1,220.3,207.1,220.3,204.1,220.3z"/>
		<path fill="#264F79" d="M213.1,213.1c0-3,0-6,0-9c2.4,0,4.8,0,7.2,0c2.1,2.5,1.8,5.6,1.8,9c2.7,0,4.9,0,7.2,0
			c2.2,2.4,1.8,4.8,0,7.2c-3,0-6,0-9,0C218.3,217.6,215.8,215.2,213.1,213.1z"/>
		<path fill="#264F78" d="M204.1,204.1c0,3,0,6,0,9c-2.4,0-4.8,0-7.2,0c0-2.9,0-5.7,0-9C199.5,204.1,201.8,204.1,204.1,204.1z"/>
		<path fill="#CEA97D" d="M211.3,238.4c0,2.3,0,4.5,0,7.2c-2.7,0-5,0-7.2,0c0-2.4,0-4.8,0-7.2C206.5,238.4,208.9,238.4,211.3,238.4z
			"/>
		<path fill="#2A5581" d="M229.4,220.3c0-2.4,0-4.8,0-7.2c3-2.4,6-2.4,9,0c0,2.4,0,4.8,0,7.2C235.4,220.3,232.4,220.3,229.4,220.3z"
			/>
		<path fill="#2A5681" d="M213.1,213.1c2.3,0,4.5,0,7.2,0c0,2.7,0,5,0,7.2c-2.4,0-4.8,0-7.2,0C213.1,217.9,213.1,215.5,213.1,213.1z
			"/>
		<path fill="#264F78" d="M238.4,213.1c-3,0-6,0-9,0c0-2.7,0-5.4,0-8.5c2.7-1.1,5.6-0.4,9-0.5C238.4,207.3,238.4,210.2,238.4,213.1z
			"/>
		<path fill="#A12D2D" d="M362.8,307.3c0,1.7,0,3.1,0,4.8c-10.2,0-20.2,0-30.4,0c0-1.7,0-3.1,0-4.8
			C342.6,307.3,352.7,307.3,362.8,307.3z"/>
	</g>
</g>
</svg>
