<?xml version="1.0" encoding="utf-8"?>
<!-- Generator: Adobe Illustrator 18.1.1, SVG Export Plug-In . SVG Version: 6.00 Build 0)  -->
<svg version="1.1" id="Camada_1" xmlns="http://www.w3.org/2000/svg" xmlns:xlink="http://www.w3.org/1999/xlink" x="0px" y="0px"
	 viewBox="0 0 1920 1080" enable-background="new 0 0 1920 1080" xml:space="preserve">
<g>
	<g>
		<path fill="#FEFEFE" d="M725,623c0-99.7,0-199.3,0-299c99.7,0,199.3,0,299,0c0,99.7,0,199.3,0,299C924.3,623,824.7,623,725,623z"
			/>
		<path fill="#DAB68B" d="M790,464c0-1.3,0-2.7,0-4c0.2-0.1,0.4-0.2,0.6-0.3c0.5,0.1,0.8,0.4,1.1,0.8c0.4,0.5,0.7,1.1,1.3,1.3
			c1.1-0.4,1.2-1.8,2.2-2.4c1.6-0.9,3.4-1.2,5.2-1.2c8.6-1.7,15.5,3.4,23.1,5.8c1.3,3.1,4,3.5,7,3.6c3.7,0.2,7.7-1.1,11.1,1.6
			c1.5,5.9,1,11.7,0.2,17.9c-5.6,2.4-11.3,1-16.8,1.3c-2.9,0.2-5.7-0.1-7.5-2.8c-2-1.6-4.5-1-6.8-1.5c-0.5-0.1-0.9-0.3-1.3-0.6
			c-1.5-0.8-0.8-3.6-3.2-3.6c-1.2,0.8-0.8,2.4-1.7,3.3c-0.8,0.9-2.8,1-2.3,2.9c1.6,1.1,2.8,2.6,4.1,4c2.2,0.1,2.1-2.7,3.9-3
			c2.7-0.6,5.4-0.8,8,0.3c1.6,2.5,3.9,3.4,6.8,3.2c2.3-0.1,4.7-0.2,7.1,0.9c1.5,1.7,2.6,4.1,5.1,5c1,0.9,1.4,2.2,2.3,3.1
			c2.4,1.7,5.1,0.7,7.6,0.9c3,0.3,6.2-0.6,9.1,0.9c1.1,1,1.3,2.3,1.4,3.6c0.2,2.3-0.4,4.6,0.3,6.9c1.6,1,1.9-1.8,3.3-1
			c0,1.6,0,3.2,0,5c-1.8,0-3.4,0-5,0c-3,1.1-3.5,3.6-3.5,6.4c0,6.5,0,13,0,19.4c0,2.1,0.1,4.4-1.5,6.1c-1.7,1.7-4.1,1-6.1,1.7
			c-1.5,0.6-1.8,2.3-2.9,3.3c-4.7,2.4-9.3,2.4-14,0c-1.1-0.9-1.4-2.6-2.8-3.2c-2.3-0.8-4.8,0-7-1.2c-1.4-1.7-2.8-3.4-4.6-4.7
			c-0.9-1.4-0.9-2.9-0.3-4.3c0.6-1.2,2.2-1.4,2.7-2.8c0-1.7-1.8-1.8-2.4-2.9c-0.7-1.1-0.7-2.2-0.3-3.4c0.5-1.3,2.2-1.3,2.9-2.4
			c0.4-1.7-1.1-1.9-2-2.5c-0.4-0.3-0.7-0.7-0.9-1.1c-0.5-1.5-0.5-3,0.3-4.5c0.3-0.4,0.7-0.8,1.1-1.1c3.1-1.9,1-5.8,3.8-8.4
			c2.9-2.1,7.3,0.2,11.5-2c-5.3-2.4-10.7,0-15.2-1.9c-1.6-0.9-2.1-2.5-3.3-3.4c-2.3-1.3-4.9-0.6-7.4-0.9c-4.3,0.3-6-3.8-9.1-5.4
			c-1.1-2.2-2.8-3.9-5-5c-6.9-6.7-6.6-14.6-4-23C787.9,467.8,788.7,465.7,790,464z"/>
		<path fill="#1C3A59" d="M879,389c0-1.2,0-2.3,0-3.5c4.4-0.7,53.3-1,69.7-0.4c0.6,1.2,0.1,2.6,0.3,3.8c-1.1,1.2-2.6,1.3-4,1.4
			c-2.4,0.2-5-0.5-7.8,1.1c-2.1,6.5,0.2,13.8-1.3,20.7c-0.2,0.6-0.6,1-1.1,1.4c-1.5,0.6-2.9,0.6-4.2-0.6c-2-5.9-0.2-12.2-2-18
			c0-1.3-0.1-2.5-0.9-3.6c-7.3-2.1-14.6-0.3-21.5-0.9c-1.7,1.5-1.7,2.9-1.7,4.4c0.2,14.9,0.2,29.8,0,44.7c0.4,2.9-1.7,5.6-0.3,8.5
			c0.9,0.7,1.9,0.7,3,0.7c0.9-0.1,1.9,0,2.7-0.6c1.1-0.8,1.1-2.2,1.9-3.2c1.6-1.1,3.3-2.2,3-4.6c0.1-1.9,0.4-3.7,2.1-4.9
			c1.3-0.7,2.7-0.7,4,0c0.4,0.3,0.8,0.7,1,1.2c0.8,2,0.2,4.2,1.3,7.2c0.2,0.5,1.8,0.8,2.9,1.7c0.8,0.7,1.1,1.9,2,2.6
			c1,0.6,2.1,0.5,3.2,0.6c1.2,0,2.3,0,3.5,0c1.1,0,2.2,0.1,3.2-0.5c0.9-0.7,1.2-1.8,2.1-2.6c1.1-0.7,2.3-0.8,3.6-0.5
			c0.5,0.1,0.9,0.3,1.3,0.6c1.2,1.5,2.2,3.5,4.7,3c1.5,0,3.1,0,4.6,0c1.7-0.1,3.4,0,5.1,0c1.5-0.2,3.1,0,4.6,0
			c3.3,0.3,4.3,2.1,3.2,5.2c-1.7,1.2-3.6,0.6-5.3,0.6c-28.8,0-57.6,0-86.4,0.1c-1.8,0-3.7-0.5-5.4,0.5c-0.4,0.4-0.9,0.7-1.4,0.9
			c-1.3,0.4-2.7,0.4-4.1,0.4c-1.5-0.1-2.9-0.2-4-1.5c-0.7-1.5-0.7-3,0.5-4.2c1.9-1.3,4.1-1,6.3-1c7.8,0,15.5,0,23.3,0
			c1.8,0,3.7,0.4,5.1-1.3c2.1-5.3,0.5-10.7,0.9-16.1c0-0.6-0.1-1.2-0.1-1.8c0-8.5,0-17,0-25.6c0-0.6,0.1-1.1,0.1-1.7
			c-0.2-4,0.8-8.1-0.7-12c-3-1.3-5.9-0.9-8.6-0.5c-1.8,1-1.8,2.5-1.8,4c0.1,4.5,0.1,9,0,13.6c0.2,6.3,0.2,12.5,0,18.8
			c-0.1,2.5-0.6,5.4-3.7,5.5c-3.6,0.1-4.1-2.9-4.2-5.6c-0.2-6.1-0.3-12.2,0-18.3c-0.2-4,0.4-8-0.4-11.9c-0.9-2.2-4.5-3.4-2.5-6.7
			C875.8,388.8,877.7,390.2,879,389z"/>
		<path fill="#D13838" d="M992,511c-0.3,0-0.7,0-1,0c-1.7,1.7-4,1.1-6.5,1.9c-1.9,3.5-6.1,3-9.4,4.3c-0.7,0.9-1.2,2-2.1,2.8
			c0,8.6,0,17.2,0,25.7c0,0.8,0.7,2.1-1,2.3c-1.7-1.9-1.4-4.4-1.4-6.7c-0.1-5.8,0.2-11.6-0.5-17.4c-1.3,4.4,0.1,9.1-1.2,13.5
			c-0.3,0.8-0.8,1.5-1.5,2c-1.3,0.7-2.7,0.9-4.1,0.9c-1.4,0-2.8,0.1-4.2,0c-0.6,0-1.1,0-1.7,0c-1.5-0.1-2.9-0.4-3.9-1.6
			c-1.8-4.1-0.8-8.5-1-12.7c-0.2-4.2,0.7-8.6-3.3-11.8c-0.9-0.8-0.9-2.4-1.4-3.7c-0.7-3.6-0.5-7.3-0.5-11c0-8.4,4.4-12.9,12.8-13.1
			c8.3-0.1,16.7-0.1,25,0c2,0,4,0,5.8,1.1c1.6,1.8,1.6,4,1.5,6.1C992.2,499.5,993.3,505.3,992,511z"/>
		<path fill="#1C3A59" d="M777,459c-2.1-0.7-0.4-2.6-1.3-3.9c-1,0-2.1,0-3.2,0c-1.1-1.6,0-3.4-0.8-5c-1.4,0-2.8,0-4.6,0
			c0-1.7,0-3.3,0-4.6c-1.7-1.2-2.2,0.9-3.5,0.5c-0.3-0.3-0.8-0.8-1.4-1.3c0-2.6,0-5.4,0-8.1c-1.3-1-2.7-0.2-4-0.7c0-2.9,0-5.7,0-8.7
			c-1.6,0-3.1,0-4.4,0c-0.3-0.3-0.5-0.4-0.5-0.5c0-7.8,0-15.5,0-23.5c1.4,0,2.9,0,4.2,0c1.2-1.2,0.1-2.7,0.9-4c4.3,0,8.8,0,13.6,0
			c0-3.4,0-6.6,0-10c1.5-0.1,2.6-0.1,3.7-0.2c1-1.1-0.1-2.6,0.8-3.9c1.3,0,2.8,0,4.4,0c0-1.6,0-3.1,0-4.3c0.3-0.3,0.4-0.5,0.5-0.5
			c9.1,0,18.2,0,27.7,0c0,1.6,0,3.2,0,4.8c-0.2,0.2-0.4,0.4-0.6,0.6c-1.5,0.8-3.1,0.7-4.6,0.8c-1.3,0.1-2.6,0-3.9,0
			c-1.6,0-3.2,0-4.7,0c-1.5,0-3,0-4.5,0c-2.5-0.4-3.5,1.5-4.7,3c-0.9,0.7-2.1,0.9-2.9,1.8c-0.8,1.3-0.6,2.8-0.6,4.2
			c-0.1,11.9,0.7,23.8-0.9,35.7c-1.1,0.4-1.7,0.7-2.3,0.7c-0.9,0.1-1.6-0.1-2.6-0.9c-2.3-3.5-0.3-7.9-1.6-11.9
			c-0.2-0.6-0.3-1.2-0.3-1.8c-0.3-2.8-0.2-5.7-0.2-8.5c0-1.2,0-2.4-0.8-3.5c-3-1.8-6-0.6-9.8-0.5c-0.8,7-1.5,13.7,0.3,20.4
			c1,0.8,2.4,0.9,3.2,2c1.2,1.9,0.5,4.2,1.4,6.2c0.7,1.4,2.5,1.6,3.6,3.2c1.2,1.8,0.5,4.5,1.2,6.8c2.1,2.9,4.7,5.1,7.8,6.8
			c1.1,2.6,3,3.6,5.8,3.6c2.6-0.1,5.3-0.6,7.7,1.1c1,1.2,1.1,2.6,0.5,4c-1.3,1.3-2.5,2.6-4.5,1.2C786.4,458.6,781.6,460.4,777,459z"
			/>
		<path fill="#782323" d="M921,548c0,1.5,0,3,0,4.5c-4.2,0.7-37.4,0.9-51,0.3c0-13.9,0-27.9,0-41.8c-1.2-1.5-1.3-3.1-0.4-4.8
			c0.9-1.2,2.6-1.4,3.2-2.4c1.4-2.6,0.2-5.5,2.4-7.3c1.5-0.6,2.9-0.5,4.1,0.6c1.4,2.1,1,4.5,1,6.8c0.1,12.6-0.1,25.3,0.1,37.9
			c0,1.2-0.2,2.3,0.4,3.4c0.8,1.1,1.9,1.4,3.1,1.5c1.2,0,2.5,0,3.7,0c0.5,0,1,0,1.5,0c1.3,0,2.6,0,3.8,0c1.5,0,3.1,0,4.6,0
			c1.3,0,2.5,0,3.8,0c0.5,0,1,0,1.5,0c1.2,0,2.5,0,3.7,0c0.5,0,1,0,1.5,0c1.2,0,2.4,0,3.7,0c1.2,0,2.4,0,3.6,0c0.5,0,1,0,1.5,0
			c1.2,0.1,2.4,0.1,3.5,0.7C920.7,547.6,920.8,547.8,921,548z"/>
		<path fill="#CDA87C" d="M804,501c2.8,0,5.6,0,8.1,0c2.7,0.9,1.6,3.1,2.1,4.9c5.8,0,11.6,0,17.5,0c0.6,1.7,0.3,3.3,0.3,5
			c-4.6,0-9,0-13.8,0c0,3,0,5.9,0,8.7c-1.6,0.7-2.9,0.2-4.2,0.4c-0.9-0.6-1.1-2-2.6-2c0.5,1.2,2,1.1,2.6,2c0,1.7,0,3.4,0,5
			c-0.3,0.4-0.6,0.6-1,0.8c-2,0.4-2.8,1.9-3.8,3.4c-0.8,1.3-3.9,0.1-3.2,3c0.8,0.7,1.9,0.7,2.8,1.2c0.4,0.3,0.7,0.6,0.9,1
			c0.5,1.4,0.5,2.8,0,4.1c-0.2,0.4-0.5,0.7-0.9,1c-0.8,0.4-1.8,0.5-2.5,1.2c0.6,1.6,2.2,0.9,3.1,1.7c0.7,0.5,1,1.1,0.3,1.9
			c-0.4,0.3-0.9,0.6-1.5,0.7c-2.8,0.3-5.7,0.9-8.2-1.1c-1.3,0-2.5,0-3.8,0c-0.7,0-1.3-0.1-1.2-1c1-1,2.4-1.7,2.9-2.6
			c1.8-5.3-0.9-10.7,2.1-15.4c2.5-1.8,2.5-4.5,2.6-7.2c0.2-5.1-0.5-10.3,0.5-15.4C803.3,501.9,803.6,501.4,804,501z"/>
		<path fill="#792323" d="M884,469c32.6,0,65.1,0,97.7,0c0.7,1.4,0.1,2.7,0.3,4c-1.7,1.8-4,1.4-6.1,1.4c-8.8,0.1-17.7,0.1-26.5,0
			c-3.6,0-6.6,0.8-8.8,3.7c-1.5,1.2-3.2,1.3-4.9,0.7c-1.2-0.6-1.6-1.9-2.1-3c-2.2-2.8-4.9,0.3-7.3-0.7c-0.5-0.1-0.9-0.2-1.4-0.3
			c-4.4-0.9-8.6,0.5-13,0.8c-1.6,0.1-3.2,0.1-4.8,0c-1.3,0-2.7,0-4,0c-1.6,0-3.1,0-4.7,0c-1.5,0-3.1-0.1-4.6-0.3
			c-0.5-0.1-1-0.2-1.5-0.3c-2.8-1.3-6.2,1.9-8.9-1C882.6,472,882.8,470.4,884,469z"/>
		<path fill="#792424" d="M968,548c0,1.5,0,3,0,4.8c-6.9,0.3-13.7,0.1-20.6,0.1c-7,0-13.9,0-20.9,0c-1-1.4,0-3.2-0.7-5
			c-1.5,0-3.1,0-4.7,0c-1-1.2-1.2-2.5-0.4-3.9c0.9-1.3,2.7-1.1,3.7-2.5c0.7-2.4,0.2-5,0.4-7.6c0-1.4,0-2.8,0.6-4
			c3.7-2.6,6-1.9,6.9,2.3c0.5,2.4,0.6,4.9,2.9,6.3c1.7,1.9,1,4.4,1.6,6.6c0.7,1.4,2.1,1.4,3.4,1.5c1.5,0,3.1,0,4.6,0
			c1.3,0,2.6,0,3.9,0c0.5,0,1,0,1.5,0c1.3,0,2.5,0,3.8,0c1.2,0,2.5,0,3.7,0c0.5,0,1,0,1.5,0c1.2,0,2.4,0.1,3.6,0c0.5,0,1,0,1.4,0
			c1.2,0.1,2.4,0.1,3.5,0.7C967.7,547.6,967.8,547.8,968,548z"/>
		<path fill="#1D3B5A" d="M832,380c-5.8,0-11.6,0-17.4,0c-1.3-1-0.1-2.5-0.9-3.8c-0.9-1.7-2.7-1-4.5-1.2c0-4.5,0-9.1,0-13.8
			c1.4,0,2.8,0,4.1,0c1.2-1.2,0.1-2.7,1-4.1c5.8,0,11.7,0,17.6,0c0.9,1.4,0.5,2.8,0.1,4c-3.7,2.7-8.2,0.1-11.9,2.6
			c-1.3,3.2-1.3,6.5-0.1,9.9c1.8,1.8,4.1,1,6.1,1.1c1.9,0.2,4-0.2,5.7,1.3C832.7,377.2,832.7,378.6,832,380z"/>
		<path fill="#1C3A59" d="M837,385c12.3,0,24.7,0,37,0c0.9,1.2,0.3,2.4,0.4,3.4c-0.8,1.5-2.1,1.9-2.9,2.9c-1.8,2.2-0.9,4.8-1.1,7.2
			c-0.6,6.2,1.2,12.6-1.1,18.7c-1.1,0.8-2.3,0.8-3.4,0.1c-1.8-2.3-1-5.1-1.2-7.7c-0.5-5.9,1-11.9-0.9-17.7c-1.5-1.8-3.6-1.5-5.5-1.4
			c-4.4,0.1-8.9-0.3-13.1,0.2c-1.5,0.9-1.8,2.5-2.9,3.6c-1.6,1.1-3.2,1.2-4.9,0.4c-1.3-1-1.4-2.5-1.5-3.9c0-0.6,0-1.1,0-1.7
			C835.7,387.4,836,386.1,837,385z"/>
		<path fill="#A22D2D" d="M940,478c0-1.2,0-2.3,0-3.9c2.2,0.4,4.1-1.1,6.3-1.1c2.3-0.1,4.6,0,6.9,0c9.6,0,19.2,0,28.8,0
			c2.6,0,5.2,0,7.8,0c0.7,0,1.3,0.1,1.2,1c-2.6,2.1-5.7,1.4-8.6,1.4c-1.7,0-3.4,0.1-5.2,0c-1.4,0-2.8,0.1-4.2,0c-1.7,0-3.3,0-5,0
			c-1.6,0-3.3,0-4.9,0c-1.4,0-2.7,0.1-4.1,0c-1.6,0-3.2,0-4.8,0c-1.5,0-3,0-4.5,0c-1,0.1-2-0.1-2.7,0.7c-0.7,0.8-0.5,1.8-0.5,2.8
			c0.1,1.6,0,3.3,0.1,4.9c0.2,7.2,0.1,14.4,0.1,21.7c0,2,0,4-1.4,5.6c-1.7,1.2-3.3,1.2-5.8-0.4c-1.9-6.9-0.6-14.5-0.9-22
			c0.3-1.8-0.1-3.7,0.1-5.6C938.6,481.3,938.7,479.5,940,478z"/>
		<path fill="#7A2424" d="M992,511c-1-1.2-1-2.6-1-4.1c0-6.3,0-12.6,0-18.9c-1.9-2.4-1.3-5.2-1.2-7.9c0.1-0.6,0.3-1.1,0.6-1.5
			c0.2-0.2,0.4-0.4,0.6-0.6c1.5,0,3,0,4.5,0c0.1,0.1,0.2,0.2,0.3,0.4c0.1,0.1,0.2,0.3,0.2,0.4c0,10.6,0,21.2,0,31.9
			C994.6,511.3,993.3,510.8,992,511z"/>
		<path fill="#564633" d="M851,548c0-10.5,0-21.1,0-31.3c1.5-2.5,3.2-1.9,5-0.7c0,10.6,0,21.1,0,32C854.2,548,852.6,548,851,548z"/>
		<path fill="#264E77" d="M870,455c-0.1-0.6,0.3-1,0.8-1c1.3-0.1,2.7,0,4,0c30.6,0,61.1,0,91.7,0c0.9-1.1,0.4-2.4,0.4-3.7
			c-1.3-0.6-2.6-0.1-3.9-0.3c-1.1-1.4-1.2-2.8-0.2-4.3c1.8-1.2,3.5-1.2,5.3,0c1.1,1.5,1,2.9-0.1,4.3c0,1.5,0,3,0,4.5
			c-0.1,0.1-0.2,0.2-0.3,0.3c-0.1,0.1-0.3,0.2-0.4,0.2C934.8,455,902.4,455,870,455z"/>
		<path fill="#7D2C2C" d="M968,538c0-5.8,0-11.6,0-17.5c1.2-0.8,2.4-0.4,4-0.3c0,9.3,0,18.6,0,27.8c-1.3,0-2.7,0-4,0
			c-1.3-1.4-1.4-3.2-1.4-5C966.6,541.2,967,539.5,968,538z"/>
		<path fill="#4F3F2C" d="M837,385c0,1.3,0,2.7,0,4c-0.5,0.4-1.1,1-1.7,1c-8.7,0.3-17.4,1.4-26-0.6c-1.4-1.4-1.4-2.9-0.3-4.4
			C818.3,385,827.7,385,837,385z"/>
		<path fill="#584734" d="M818,548c3.2,0,6.5,0,10,0c0,1.8,0,3.4,0,5c-6.2,0-12.5,0-19,0c0-1.8,0-3.4,0-5c0.2-0.2,0.3-0.3,0.5-0.5
			c0.4-0.2,0.9-0.4,1.4-0.5c1.2-0.2,2.4-0.2,3.7-0.2C815.8,546.8,817,547.1,818,548z"/>
		<path fill="#50402D" d="M804,502c0,7.6,0,15.1,0,23c-1.4,0-2.7,0-4,0c0-7.7,0-15.3,0-23C801.3,501.3,802.7,501.3,804,502z"/>
		<path fill="#574734" d="M800,525c0,5.9,0,11.8,0,18c-1.8,0-3.4,0-5,0c0-5.9,0-11.8,0-18C796.8,525,798.4,525,800,525z"/>
		<path fill="#554531" d="M870,506c0,1.7,0,3.3,0,5c-3,0-6,0-9,0c-1,1.7-1,1.7-1.1,3.8c-1.2,0.4-2.4,0.3-3.9,0c0-3,0-5.9,0-8.8
			c1.4-1.2,3.1-1.4,4.9-1.4c2.8,0.1,5.8-0.4,8.5,0.8C869.6,505.6,869.8,505.8,870,506z"/>
		<path fill="#1F3E5D" d="M832,380c0-1.2,0-2.3,0-4c-2.1,0-4.2,0-6.2,0c-2,0-4,0-6,0c-0.7,0-1.8,0.4-1.8-1c0.4-0.3,0.8-0.6,1.2-0.9
			c2.5-0.8,5.2-0.3,7.8-0.5c1.9-0.1,3.6-0.4,3.6-3c0-1.6,0-3.2,0.1-4.8c0-1.5,0.2-2.9,1.2-4c1.7-0.4,3.4-0.6,5.1,0.2
			c0,4.2,0,8.5,0,12.9c-1.3,0-2.4,0-3.6,0c-0.2,0.6-0.2,1-0.4,1.4C832.5,377.5,834.1,379.2,832,380z"/>
		<path fill="#264E77" d="M954,394c1.5,0,3,0,4.5,0c0.1,0.1,0.3,0.2,0.4,0.3c0.1,0.1,0.2,0.3,0.2,0.4c0,7.3,0,14.5,0,22.1
			c2.9,0,5.8,0,9,0c0,1.9,0,3.5,0,5.1c0.6,0.6,0.6,1.2,0.3,1.9c-1.2,0.9-2.8,1-3.7,2.4c-0.6,0.9-1.5,1.3-2.3,0.1
			c-1.1-2.5,0.4-4.3,1.9-6.1c-2-1.5-4.6-0.5-6.8-2.8c-1.9-5.8,0.1-12.7-1.1-19.3c-1.5,0-1.9,1.3-2.8,1.5c-1.6,0.6-3.2,0.4-4.4-0.6
			c-1.3-1.7-1.3-3.4-0.3-5.1C950.5,392.6,952.2,392.7,954,394z"/>
		<path fill="#1F3C5B" d="M973,427c1.2,0,2.3,0,3.8,0c0.5,6,0.1,12,0.2,18c-1.4,0.8-2.8,0.5-4.7-0.1
			C971.7,438.9,970.3,432.9,973,427z"/>
		<path fill="#554431" d="M781,487c0-5.9,0-11.8,0-18c1.5,0,2.7,0,4,0c1.1,5.9,0.2,11.8,0.4,17.5C783.8,487.8,782.4,487.7,781,487z"
			/>
		<path fill="#594A38" d="M828,553c4.7,0,9.3,0,14,0c0,1.5,0,3,0,4.8c-2.2,0.5-4.5,0.2-6.8,0.2c-2.3,0.1-4.6,0-7.2,0
			C828,556.2,828,554.6,828,553z"/>
		<path fill="#823333" d="M973,516c-0.1-1,0.6-1,1.3-1c2.4,0,4.9,0,7.3,0c1-1.2,0-2.6,0.9-4c2.7,0,5.7,0,8.6,0c0,1.6,0,3.2,0,5
			c-3.2,0-6.1,0-9,0C979,518,976,518,973,516z"/>
		<path fill="#264F78" d="M819,375c-0.3,0-0.7,0-1,0c0-4.1,0-8.3,0-12.6c0.4-0.4,0.9-0.8,1.7-1.4c3.7,0,7.8,0,11.9,0
			c0.7-1.4,0.1-2.7,0.3-4c2.2,0.6,0.2,2.6,0.7,3c1.4,2,3.7-0.3,4.3,2c-1.7,0-3.3,0-5,0c-1,0.9-2.2,1.2-3.4,1.3
			c-1.1,0.1-2.2,0-3.2,0.4c-1,0.5-1.4,1.7-2.2,2.4c-0.8,0.8-1.9,1.1-2.5,2.1c-0.5,1-0.3,2.2-0.4,3.2C820.3,372.8,819.9,374,819,375z
			"/>
		<path fill="#53412D" d="M884,469c0,1.7,0,3.3,0,5c1,1.2,1.2,2.5,0.4,3.9c-1.4,1.4-3,1.3-4.8,0.8c-0.5-0.2-0.9-0.6-1.2-1.1
			c-0.9-2.7-1-5.4,0-8.1c0.2-0.2,0.4-0.4,0.6-0.6C880.7,469,882.3,469,884,469z"/>
		<path fill="#584734" d="M842,553c0-1.6,0-3.2,0-5c3.2,0,6.1,0,9,0c0,1.6,0,3.2,0,5C847.8,553,844.9,553,842,553z"/>
		<path fill="#5B4934" d="M781,487c1.2,0,2.3,0,3.8,0c0.5-6,0.1-12,0.2-18c0.3,0,0.7,0,1,0c0,5.8,0,11.6,0,17.5c1,1.2,2.5,0.1,4,0.9
			c0,1.4,0,3,0,4.7c-1.3,0-2.5,0-3.9,0c0-1.4,0-2.5,0-3.3c-0.5-0.7-1-0.5-1.4-0.7C783.5,487.5,781.7,489.1,781,487z"/>
		<path fill="#264F78" d="M973,427c0,5.9,0,11.8,0,18c1.5,0,2.7,0,4,0c-0.7,2.1-2.5,0.4-3.6,1.1c-1.4,1,0.9,3.3-1.4,3.9
			c-1.3-1.6-1.8-3.9-4-4.7c-0.4-0.3-0.6-0.7-0.8-1.2c-0.8-2.9,2-3.9,3.1-5.8c0.8-3.3,0-6.6,0.7-9.9c0.1-0.5,0.4-1,0.7-1.4
			C972.1,426.7,972.5,426.7,973,427z"/>
		<path fill="#6B5E4E" d="M869,455c0.3,0,0.7,0,1,0c0,1.1,0,2.3,0,3.5c1,1.1,2.5,0.1,3.5,0.6c0.6,0.5,1,1,1.5,1.4c0,1,0,2,0,3
			c0.3,0.5,0.8,0.4,1.2,0.6c0.9,0.3,2.4-1,2.8,1c-1.6,1.1-2.8,2.7-4.1,4.2c-3.5-2.7-5.5-7.1-9.8-8.8c-0.3-0.4-0.4-0.8-0.4-1.3
			C866.2,457.8,867.9,456.7,869,455z"/>
		<path fill="#7E2424" d="M973,516c3,0,6,0,9,0c0,1.3,0,2.5,0,4c-3.2,0-6.1,0-9,0C973,518.7,973,517.3,973,516z"/>
		<path fill="#4F3F2C" d="M800,544c3,0,6,0,9,0c1.2,1.3,1,2.7,0,4c-2.9,0-5.8,0-9,0C800,546.5,800,545.3,800,544z"/>
		<path fill="#823333" d="M982,474c3,0,6,0,9,0c0,1.3,0,2.7,0,4c-2.5,1.9-5.3,1.4-8.1,0.9c-0.5-0.2-1-0.5-1.4-1
			C980.8,476.5,981,475.2,982,474z"/>
		<path fill="#29537D" d="M870,389c1.3,0,2.5,0,4,0c0-1.5,0-2.7,0-4c2.2,0.6,0.1,2.7,1.7,4c0.7,0,2,0,3.3,0c0.1,0.9-0.5,1-1.2,1
			c-0.9,0-1.9,0-2.8,0c-1.1,1.2,0.1,3-1.4,4.4c-1.1,0.7-2.4,0.8-3.8-0.2C869.4,392.4,869.2,390.7,870,389z"/>
		<path fill="#665744" d="M804,502c-1.3,0-2.7,0-4,0c-1.6,0-3.2,0-5,0c0-1.8,0-3.4,0-5c1.5,0,3,0,4.5,0c1.1,1,0,2.5,0.7,3.8
			c1.2,0.5,2.5,0,3.8,0.2C804,501.3,804,501.7,804,502z"/>
		<path fill="#2E4A67" d="M954,394c-1.7,0-3.3,0-5,0c-0.2-0.1-0.3-0.3-0.5-0.4c-0.7-1.6-2-2.5-3.4-3.4c-0.3-0.4-0.3-0.8-0.1-1.2
			c1.3,0,2.7,0,4,0c1.6,0,3.2,0,5,0C954,390.8,954,392.4,954,394z"/>
		<path fill="#60513E" d="M790,492c1.6,0,3.2,0,5,0c0,1.8,0,3.4,0,5c-1.6,0-3.2,0-5,0C790,495.2,790,493.6,790,492z"/>
		<path fill="#2E4B67" d="M968,424c0-0.7,0-1.3,0-2c1.3,0,2.7,0,4,0c0.7,1.7,0.8,3.3,0,5C968,428.2,967.5,427.8,968,424z"/>
		<path fill="#564532" d="M790,464c0,1.6,0,3.2,0,5c-1.5,0-2.7,0-4,0c0-1.6,0-3.2,0-5C787.5,464,788.7,464,790,464z"/>
		<path fill="#294664" d="M968,445c1.3,0,2.5,0,4,0c0,1.8,0,3.4,0,5c-1.3,0-2.7,0-4,0c0-1.3,0-2.7,0-4c-0.3-0.2-0.3-0.4-0.3-0.7
			C967.8,445.1,967.9,445,968,445z"/>
		<path fill="#604F3A" d="M875,469c0-1.3,0-2.5,0-4c1.5,0,2.7,0,4,0c0,1.3,0,2.7,0,4C877.7,470,876.3,470.2,875,469z"/>
		<path fill="#54493B" d="M777,459c4.1,0,8.2,0,12.3,0c0.7,0,1.7-0.3,1.7,1c-0.3,0-0.7,0-1,0c-3.9,0-7.8,0-11.7,0
			C777.6,460,776.9,459.9,777,459z"/>
		<path fill="#2A5681" d="M972,427c0-1.7,0-3.3,0-5c0.9-0.1,1,0.5,1,1.2c0,1.3,0,2.5,0,3.8C972.7,427,972.3,427,972,427z"/>
		<path fill="#C3A078" d="M823,464c-2.9,0-5.9,0-8.9,0c-0.1-1.4-0.1-2.5-0.2-3.7c-1.8-1.2-4.4,1.1-5.5-1.5c-3,1.7-5.7,1.7-8.4,0.2
			c-1.5-1.4-1.3-3.2-1.4-5c-0.1-1.5,0-3,0-4.5c0.5-5.8-1-11.7,1-17.4c1.3-1.2,2.7-1.2,4.2-0.6c2.4,2.3,1.3,5.3,1.6,8
			c0.2,2.5-0.3,5,0.6,7.7c1.8,1.7,4.2,3.3,5.4,5.9c3.7,0.7,7.6,0.7,8.9,4.5c4.5,1.1,8.9-0.5,12.3,2.8
			C832.4,465.7,829.1,466.9,823,464z"/>
		<path fill="#C5A379" d="M837,497c-1.6,0-3.2,0-5,0c0-1.7,0-3.2,0-4.9c-4.7,0-9.2,0-14,0c0-1.6,0-2.8,0-4.1
			c7.6-1.1,15.3-0.1,23-0.6c2.4,0.5,1.7,2.3,1.7,3.8c-1.6,2-4.1,2.9-5.1,5.3C837.4,496.7,837.2,496.8,837,497z"/>
		<path fill="#CDA97D" d="M823,464c2.9,0,5.8,0,9,0c0-1.5,0-2.7,0-4c-1.3-1.5-1.4-3.2-1.4-5.1c0.1-4.4-0.6-8.8,0.6-13.2
			c0.3-0.6,0.7-0.9,1.3-0.9c1.5,0.8,1.5,2.2,1.7,3.6c0,0.5,0.1,1,0.1,1.5c-0.1,3-0.6,6.1,2.8,7.9c0.2,0.5,0.1,0.9-0.1,1.3
			c-2.3,1.8-3.4,3.9-2,6.6c2.2,1.7,5.1,0.3,7.1,2c1,1.1,1,2.3,0.7,3.7c-0.3,0.8-0.9,1.3-1.7,1.5c-5.9,0-11.8,0-18,0
			C823,467.2,823,465.6,823,464z"/>
		<path fill="#CDA97D" d="M856,502c-5.7,0-11.5,0-17.2,0c-0.7,0-1.7,0.4-1.8-1c2.6-2.1,5.7-1.1,8.6-1.3c2.1-0.2,4.2,0.2,6.2-0.4
			c0.1-1.5-1.2-1.7-1.5-2.6c-1.2-4.4-1-8.7-0.2-12.6c1.3-1.8,2.7-2.1,4.2-2c0.6,0.1,1.1,0.3,1.6,0.6c1,0.9,1.3,2.3,2,3.4
			c1.7,1.7,4.2,3.1,2.5,6.2c-4,3.4-4.1,4.3-1,8.4c0.5,0.7,1.1,1.3,0.2,2.1C858.3,503.1,857.1,502.9,856,502z"/>
		<path fill="#D3AF83" d="M841,469c0-0.7,0.3-1,1-1c0.4,0.4,0.8,0.8,1,1.3c0.8,3.4,0.5,6.9,0.4,10.3c-0.1,3,0.6,5.5,2.8,7.5
			c-0.9,2.5-2.5,1.8-4.2,0.9c-8,0-16,0-24,0c-3,0-6,0-9,0c-1.5,1.2-2.9,2.5-4,4c-2.1-0.7-0.4-2.5-1.1-3.6c-1-1.4-3.3,0.9-3.9-1.4
			c1.5-1.1,2.8-2.5,4-4c0-1.3,0-2.5,0-3.8c0-0.7,0.1-1.3,1-1.2c1.1,1.2,1.3,2.7,1.3,4.2c-0.1,2,0.3,3.6,2.8,3.5c0.4,0,0.9,0,1.3,0
			c2.9,0.2,5.7,0.2,7.5-2.7c2.1,0.7,0.4,2.6,1.3,3.8c7,0,14.2,0,21.7,0C841,480.8,841,474.9,841,469z"/>
		<path fill="#C5A37A" d="M851,497c1.2,0,2.3,0,3.5,0c0.7,0.4,0.5,1.1,0.5,1.8c0,0.6,0,1.3,0,2.2c-6.1,0-12.1,0-18,0
			c0-1.3,0-2.7,0-4C841.7,494.6,846.3,494.6,851,497z"/>
		<path fill="#C3A178" d="M818,483c0,1.3,0,2.5,0,4c-2.9,0-5.4,0-8,0c-1-1.3-1.2-2.7,0-4C812.7,483,815.3,483,818,483z"/>
		<path fill="#5D4C37" d="M800,454c0,1.7,0,3.3,0,5c-1.5,1.3-3.3,1-5,1c-0.3-0.2-0.4-0.4-0.3-0.7c0.1-0.2,0.2-0.3,0.3-0.3
			c0-1.3,0-2.7,0-4c0.2-0.2,0.3-0.3,0.5-0.5C796.9,453.9,798.4,453.2,800,454z"/>
		<path fill="#CDA87D" d="M810,544c0-0.7-0.3-1-1-1c-1.1-1.3-1.1-2.7,0-4c1.4-1.2,2.8-1.3,4.4-0.6c0.2,0.2,0.4,0.4,0.6,0.6
			c0,1.7,0,3.3,0,5c-0.1,0.2-0.3,0.3-0.4,0.5c-1,0.5-2.1,0.5-3.1,0C810.3,544.3,810.1,544.2,810,544z"/>
		<path fill="#D4B084" d="M813,525c0.3,0,0.7,0,1,0c1.1,1.5,2.5,2.9,4,4c0.1,0.9-0.5,1-1.2,1c-0.9,0-1.9,0-2.8,0
			c-1.2,1.1-2.7,1.3-4.3,1.3c-2.3-0.4-3.5,1.1-4.7,2.7c-2.2-1.2-0.2-3.2-1.5-5c2.3,0,3.9,0,5.5,0C810.5,527.9,811.9,526.5,813,525z"
			/>
		<path fill="#CDA87C" d="M833.3,511.1c1.2,0,2.3,0,3.5,0c0,1.6,0,3.2,0,4.8c-1.2,0-2.3,0-3.4,0c-0.5-0.5-0.9-0.9-1.4-1.4
			C831.8,513.1,833.3,512.4,833.3,511.1z"/>
		<path fill="#C5A279" d="M856,502c1.3,0,2.7,0,4,0c2.7,0.8,1.9,2.4,1,4c-1.7,0-3.3,0-5,0C856,504.7,856,503.3,856,502z"/>
		<path fill="#CEA97D" d="M809,530c1.7,0,3.3,0,5,0c0,1.3,0,2.7,0,4c-0.2,0.2-0.4,0.4-0.6,0.6c-1.6,0.7-3.1,0.6-4.4-0.6
			C807.9,532.7,807.9,531.3,809,530z"/>
		<path fill="#CEA97D" d="M814,534c1.2,0,2.3,0,3.7,0c0.6,1.5,0.2,3.1,0.2,4.7c-1.3,0.6-2.7,0.1-3.9,0.3
			C812.7,537.3,812.7,535.7,814,534z"/>
		<path fill="#CDA97D" d="M805,483c0-1.7,0-3.3,0-5c1.3,0,2.5,0,4,0c0,1.8,0,3.4,0,5c-0.2,0.2-0.4,0.3-0.5,0.5
			C807.2,484.1,806,484,805,483z"/>
		<path fill="#54493B" d="M795,459c0,0.3,0,0.7,0,1c0,1.2,0,2.3,0,3.5c-1.1,1.1-2.5,0-3.6,0.6c-0.7-1.6-0.2-2.9-0.4-4.2
			C792.4,460.1,793.8,459.9,795,459z"/>
		<path fill="#CDA97D" d="M804,483c0,1.3,0,2.5,0,4c-1.5,0-2.7,0-4,0c0-1.3,0-2.5,0-4C801.5,483,802.7,483,804,483z"/>
		<path fill="#CDA87D" d="M805,492c0-1.3,0-2.5,0-4c1.5,0,2.7,0,4,0c0,1.3,0,2.5,0,4C807.5,492,806.3,492,805,492z"/>
		<path fill="#CDA87D" d="M818,529c-1.3,0-2.5,0-4,0c0-1.5,0-2.7,0-4c1.3,0,2.5,0,4,0C818,526.5,818,527.7,818,529z"/>
		<path fill="#CDA87D" d="M818,548c-1.3,0-2.7,0-4,0c-1.1-1.3-1.1-2.7,0-4c1.3,0,2.5,0,4,0C818,545.5,818,546.7,818,548z"/>
		<path fill="#C5A379" d="M810,483c0,1.3,0,2.7,0,4c-0.3,0-0.7,0-1,0c-1.1-1.3-1.1-2.7,0-4C809.3,483,809.7,483,810,483z"/>
		<path fill="#2E6091" d="M898,404c0,9,0,18,0,27c-0.3,0.5-0.7,1-1,1.4c-0.5,0.3-1,0.6-1.6,0.8c-1.4,0.4-3.1,0.3-4.3,1.3
			c-6.6,5.4-13.8,2.4-21.1,2.5c-2.4-6.4-1.5-12.3-1.1-18.2c0.2-0.5,0.4-1,0.7-1.5c0.7-1.1,2.3-1.3,2.8-2.6c0.9-7.4,1.6-8.1,6.5-6.6
			c0,7.5,0,14.9,0,22.4c2.3,1.9,2.3,1.9,5,0.2c0-7.4,0-15,0-22.6c3.2-3.4,5.8-7.9,11.8-6c0.5,0.1,1,0.4,1.4,0.7
			C897.4,403.2,897.7,403.6,898,404z"/>
		<path fill="#2E6091" d="M921,436c-1.3,0-2.7,0-4,0c-1.6,1.1-3.3,1.5-5.2,1.4c-1.9,0-3.8,0-5.3-1.6c-1.9-9.3-1.2-18.5-0.3-27.2
			c2.4-1.8,4-1.7,5.7-0.5c2.9,3.3,0.6,7.7,2.3,11.3c1.7,1.5,3.5,1.3,5.4,0.4c1.4-1.1,1.3-2.8,1.1-4.2c-0.8-5,1.7-8.5,4.7-12
			c1.4-1.6,3-2,4.8-0.8c1,3.3-0.4,6.9,0.9,10.2c1.3,0,2.7,0,4,0c2.8,5.5,1.5,11.3,0.9,17c-0.9,2.1-2.8,2.2-4.6,2.2
			c-2.3,0.1-3.8,1.1-4.5,3.2c-0.3,0.5-0.7,0.9-1.1,1.1C924,437.3,922.4,437.2,921,436z"/>
		<path fill="#2A5682" d="M930,403c-1.2,0-2.3,0-3.5,0c-1,1.4-0.1,3.2-0.6,4.7c-1,0.7-2.2,0-3.7,0.6c-0.1,0-0.1,0.5-0.1,1
			c0,3.8,0,7.6,0,11.4c0,0.7,0,1.4-1,1.3c-2.6-3.3-0.5-7.4-2-11.5c-1-1.6-3.1-3-4.2-5.1c-2.1,0.7-1.5,2.9-2.9,3.6
			c-1.3-1.1-2.9-1.1-5-0.9c0,9.3,0,18.6,0,27.9c1.3,1.6,1.4,3.3,0.2,5c-1.4,1.1-2.8,1-4.2,0c0-15.7,0-31.3,0-47
			c1.1-0.9,2.3-1.1,3.5-0.5c1.4,0.7,1.3,2.6,2.6,3.5c2,0,1.6-2.2,2.7-3.1c0.4-0.3,0.8-0.6,1.2-0.7c1-0.2,2-0.2,2.8,0.4
			c1.2,0.8,1.1,2.7,2.5,3.4c1.9-0.3,1.4-2.4,2.6-3.2c1.4-1,2.9-1,4.4-0.5c0.5,0.2,0.9,0.5,1.2,1C927,397.4,932.3,398.8,930,403z"/>
		<path fill="#1D3B5B" d="M898,450c-0.2,1.7-1.5,1-2.3,1c-11.6,0-23.2,0-34.7,0c-0.4,0.3-0.8,0.4-1.2,0.1c-0.3-0.3-0.5-0.7-0.7-1.2
			c-0.3-1.6-1.1-2.7-2.6-3.3c-0.4-0.3-0.6-0.6-0.8-1c0.1-0.4,0.3-0.8,0.6-1.1c2-1,2.6-2.7,2.3-4.8c-0.1-2.6-0.1-5.3-0.1-7.9
			c-0.3-2.4,0.5-5-0.9-7.3c-2-1.6-4.9-0.6-6.9-2.6c-0.9-1.5-1-3,0.3-4.4c4.5-1.5,9.1-1.1,13.1-0.3c2,1.7,2.1,3.6,2.1,5.4
			c0.1,6,0.1,11.9,0,17.9c0,2.2-0.4,4.3-2.4,5.7c-0.4,0.5-0.9,0.9-1,1.7c0.5,1.2,1.6,0.8,2.5,0.9c1.4,0,2.9,0,4.3,0
			c1.3,0,2.5,0,3.8,0c0.5,0,1,0,1.6,0c1.3,0,2.6,0,3.9,0c1.6,0,3.1,0,4.7,0c1.3,0,2.6,0,3.9,0c0.5,0,1.1,0,1.6,0c1.3,0,2.7,0,4,0
			C895,448.6,896.7,448.8,898,450z"/>
		<path fill="#1D3B5B" d="M935,431c0-6,0-12,0-18c1.8-1.3,3.5-1.4,5.3,0.1c1.8,2.9,1.2,6.1,1.2,9.2c0.1,5.8,0.1,11.6,0,17.4
			c-1.2,2.9,2.2,4,2.5,6.4c-1.3,0-2.7,0-4,0c-2.1,1.5-4,1.1-5.5-0.9c-0.8-1.4-0.8-2.9-0.9-4.4C933.7,437.4,932.8,434,935,431z"/>
		<path fill="#2A5682" d="M879,408c-3,0.1-3,0.1-5,1.5c0.3,2.3-0.7,4.9,1.2,7.5c-1.9,0-3.5,0-5.1,0c-0.1-0.3-0.3-0.5-0.4-0.8
			c-0.1-5.6-0.1-11.2,0-16.8c3.1-1.6,4.7-6.2,9.4-4.4C879,399.3,879,403.7,879,408z"/>
		<path fill="#CEA97D" d="M860,451c0.3,0,0.7,0,1,0c0,1.3,0,2.7,0,4c2.1,2.6,1.4,5.6,1.4,8.6c0.1,2.1-0.2,4.2,0.3,6.3
			c4.5,6.1,4.5,6.6,0.1,9.6c-1.8,0.7-1.6,3.1-3.1,4.1c-1.4,0.6-2.6,0.4-3.8-0.5c-2.2-7.1-3.3-14.1,1.3-20.7c1.1-1.6,1.1-3.4,1.2-5.2
			C858.6,455,858.3,452.7,860,451z"/>
		<path fill="#295580" d="M897,403c-2.5,0-4.9,0-7.4,0c-1.5,1.9-1.5,1.9-1.8,5c-1.2,0-2.5,0-3.8,0c0-4.7,0-9.3,0-14
			c3.7-2.6,4.6,1.1,6.1,3c2-0.5,1.8-2.2,2.7-3.1c0.4-0.4,0.9-0.6,1.4-0.7c1.2-0.1,2.3,0.1,3.2,1.3C897.4,397.2,898,400.1,897,403z"
			/>
		<path fill="#264F79" d="M897,403c0-2.9,0-5.8,0-9c-1.5,0-2.7,0-4,0c-0.6-0.4-0.8-1.2-1.5-1.6c0.4,0.7,1.1,1,1.5,1.6
			c0,1.6,0,3.2,0,4.9c-1.7,0-3.1,0-4.7,0c-0.8-1.4,0.1-3.1-0.7-4.9c-1.1,0-2.4,0-3.7,0c0-1.5,0-3,0-4.8c2.2-0.5,4.5-0.2,6.8-0.2
			c2.3-0.1,4.6,0,7.2,0c0,4.8,0,9.4,0,14C897.7,403.3,897.3,403.3,897,403z"/>
		<path fill="#275079" d="M935,441c0,1.3,0,2.7,0,4c0.3,0.2,0.4,0.5,0.3,0.7c0,0.3-0.1,0.4-0.2,0.4c-1.7,1-3,2.3-4.2,3.8
			c-1.6,0-3.2,0-5,0c0-1.5,0-2.7,0-4c-0.2-0.3-0.3-0.5-0.3-0.8c0.1-0.3,0.1-0.4,0.2-0.4c0.5-0.5,1.3-0.8,1.8-1.5
			c0.2-1.3-1.1-1.2-1.6-1.8c-0.4-0.3-0.7-0.7-0.9-1.2c-0.5-1.6-0.4-3,0.8-4.3c1.4-1.2,2.9-1.2,4.6-0.5
			C932.4,437,932.9,439.6,935,441z"/>
		<path fill="#264F78" d="M916,394c-1,0-2,0-3,0c-0.6-0.4-1.2-0.5-1.7-1.1c-0.5-0.5-1-1.2-1.9-1.1c-1.1,0.1-1.4,1.1-1.9,1.8
			c-0.2,0.1-0.4,0.3-0.5,0.4c-1.3,0-2.7,0-4,0c0-1.5,0-3,0-4.5c1.1-0.9,2.5-0.4,3.8-0.4c7.1-0.1,14.3,0,21.4,0c0.7,0,1.8-0.4,1.8,1
			c-1.1,1-2.4,1.3-3.8,1.3c-1.5,0.1-3.1,0-4.6,0c-1.1,0-2.2-0.1-3.3,0.2C917.1,391.9,917,393.4,916,394z"/>
		<path fill="#264F78" d="M940,413c-1.7,0-3.3,0-5,0c0-7.6,0-15.1,0-22.5c0.5-0.5,0.9-0.9,1.5-1.5c2.6,0,5.6,0,8.5,0
			c0,0.3,0,0.7,0,1c-0.1,0.2-0.3,0.3-0.4,0.5c-2.2,0.6-3.5,2.3-4.8,4c-3.4,3.6-3.6,12.6-0.3,16.6c0.4,0.3,0.6,0.7,0.8,1.2
			C940.2,412.6,940.1,412.8,940,413z"/>
		<path fill="#CDA87C" d="M861,464c0-3,0-6,0-9c1.3,0,2.7,0,4,0c1.1,1.3,1.1,2.7,0,4c0,0.3,0,0.7,0,1c1,1.3,1.1,2.7,0,4
			C863.7,465.1,862.3,465,861,464z"/>
		<path fill="#264F78" d="M930,403c0-1.2,0-2.3,0-3.5c-1-1.1-2.5,0-4-0.9c0-1.4,0-3,0-4.6c1.3-1.2,2.7-1,4,0
			c-0.3,3.2,1.4,6.2,1.1,9.5c-0.3,3.1-0.1,6.3-0.1,9.5c-0.9,0.1-1-0.6-1-1.2C930,408.8,930,405.9,930,403z"/>
		<path fill="#264E77" d="M898,450c-1.7,0-3.3,0-5,0c-1-1.1-1.1-2.4-0.6-3.7c0.7-1.3,2.7-1.5,2.9-3.2c0.9-3.7-0.9-7.7,1.7-11.1
			c0.3-0.3,0.7-0.3,1,0C898,438,898,444,898,450z"/>
		<path fill="#265079" d="M879,395c-1.2,0-2.3,0-3.5,0c-1.1,1.1,0,2.5-0.8,4c-1.4,0-3,0-4.6,0c-0.7-1.7-0.7-3.3,0-5
			c1.2,0,2.3,0,3.5,0c1.6-0.9-0.8-3.4,1.5-4c0,1.2,0,2.3,0,3.5C875.9,395,878.4,392.7,879,395z"/>
		<path fill="#254D75" d="M926,445c0,0.3,0,0.7,0,1c-1.7-0.2-3.6,0.7-5-1.7c0-2.2,0-4.8,0-7.3c2.5,0.3,3,3.1,5,4
			C927.1,442.3,927.1,443.7,926,445z"/>
		<path fill="#264F78" d="M903,441c1.3,0,2.7,0,4,0c0.2,0.2,0.3,0.3,0.5,0.5c0.7,1.4,0.6,2.7,0.1,4.1c-0.2,0.4-0.5,0.7-0.9,1
			c-1.7,0.6-2.6,2.1-3.7,3.4c-1.9-1.2-1.4-3.5-0.8-4.5C903.2,443.9,902.8,442.5,903,441z"/>
		<path fill="#264F78" d="M912,445c0,1.6,0,3.2,0,5c-1.8,0-3.4,0-5,0c-1.1-1.3-1.1-2.7,0-4c1-1.8,2.5-2.3,4.5-1.5
			C911.6,444.6,911.8,444.8,912,445z"/>
		<path fill="#264E77" d="M935,446c0-0.3,0-0.7,0-1c1.5,1.3,3.3,1,5,1c0,1.3,0,2.5,0,4c-1.8,0-3.4,0-5,0
			C933.9,448.7,933.9,447.3,935,446z"/>
		<path fill="#264F78" d="M944,446c-0.7-2.1-2.6-0.4-4-1.4c0-1,0-2.3,0-3.6c3.2-1.8,5.5-1.5,6,2.7c0,0.6-0.2,1.1-0.4,1.6
			c-0.2,0.2-0.4,0.4-0.6,0.6C944.7,446,944.3,446,944,446z"/>
		<path fill="#2A5682" d="M912,436c1.7,0,3.3,0,5,0c-1.3,1.5-1,3.3-1,5c-1.4,1-2.8,1.2-4.2,0C910.6,439.3,910.7,437.6,912,436z"/>
		<path fill="#2A5681" d="M926,441c-1.2,0-2.3,0-3.5,0c-1.6-0.9,0.8-3.4-1.5-4c0-0.3,0-0.7,0-1c1.7,0,3.3,0,5,0
			C926,437.7,926,439.3,926,441z"/>
		<path fill="#2A5581" d="M954,450c-1.7,0-3.3,0-5,0c-1.1-1.4-1.2-2.8-0.2-4.3c1.8-1.2,3.5-1.2,5.3,0
			C955.2,447.2,955.1,448.6,954,450z"/>
		<path fill="#264F78" d="M954,450c0-1.3,0-2.7,0-4c2.5-1.8,4.2-0.8,5.5,1.6c0.3,0.9,0.2,1.7-0.5,2.4C957.3,450,955.7,450,954,450z"
			/>
		<path fill="#2A5682" d="M959,450c0-0.7,0-1.3,0-2c-0.4-4.1,1.8-3,4-2c0,1.3,0,2.7,0,4C961.7,450,960.3,450,959,450z"/>
		<path fill="#264F78" d="M949,446c0,1.3,0,2.7,0,4c-1.3,0-2.5,0-4,0c0-1.5,0-2.7,0-4C946.3,445,947.7,444.8,949,446z"/>
		<path fill="#2A5682" d="M935,446c0,1.3,0,2.7,0,4c-1.3,0-2.7,0-4,0c0-1.3,0-2.5,0-4C932.5,446,933.7,446,935,446z"/>
		<path fill="#2A5682" d="M907,446c0,1.3,0,2.7,0,4c-1.3,0-2.7,0-4,0c0-1.3,0-2.5,0-4C904.5,446,905.7,446,907,446z"/>
		<path fill="#604E3A" d="M865,459c0-1.3,0-2.7,0-4c1.3,0,2.7,0,4,0c0,1.3,0,2.5,0,4C867.5,459,866.3,459,865,459z"/>
		<path fill="#264F78" d="M912,441c1.3,0,2.7,0,4,0c0,1.3,0,2.5,0,4c-1.5,0-2.7,0-4,0c-1-1-1.1-2.2-0.5-3.5
			C911.6,441.4,911.8,441.2,912,441z"/>
		<path fill="#2A5682" d="M930,394c-1.3,0-2.7,0-4,0c-1.1-1.3-1.1-2.7,0-4c1.3,0,2.7,0,4,0C930,391.3,930,392.7,930,394z"/>
		<path fill="#295580" d="M897,403c0.3,0,0.7,0,1,0c0,0.3,0,0.7,0,1C897.3,404,897,403.7,897,403z"/>
		<path fill="#2A5682" d="M898,432c-0.3,0-0.7,0-1,0c0-0.7,0.3-1,1-1C898,431.3,898,431.7,898,432z"/>
		<path fill="#C23434" d="M991,479c0,3,0,6,0,9c-12.2,0-24.5,0-36.9,0c0,1.3,0,2.4,0,3.5c-1.6,1.1-3.4,0.1-5.1,0.8
			c0,6.1,0,12.4,0,18.7c-0.1,0.2-0.3,0.3-0.4,0.5c-1,0.5-2.1,0.5-3.1,0c-0.1-0.2-0.3-0.3-0.4-0.5c0-9.3,0-18.7,0-28
			c2-1.2,2.9-3.3,3.9-5.2c1.3-1,2.7-1,4.3-0.6c0.5,0.2,0.9,0.5,1.2,0.8c0.8,0.9,0.5,2.5,1.9,3.1c1.5-0.1,1.4-1.5,1.9-2.4
			c0.2-0.4,0.5-0.8,0.9-1.1c1.2-0.6,2.3-0.6,3.5-0.2c0.4,0.2,0.8,0.6,1,1c0.6,0.9,0.3,2.4,1.7,2.8c1.5-0.2,1.3-1.7,1.9-2.6
			c0.2-0.4,0.5-0.8,0.9-1.1c1.4-0.7,2.8-0.7,4.3-0.2c0.4,0.2,0.8,0.5,1.1,0.9c0.5,0.8,0.4,1.9,1.3,2.5c1.4-0.3,1-1.8,1.6-2.5
			c0.3-0.4,0.7-0.7,1.1-0.9c1.6-0.5,3.1-0.4,4.4,0.8c0.9,0.7,1.1,2,2.4,3C986.4,480.1,988.1,477.1,991,479z"/>
		<path fill="#7B2424" d="M971.4,502c-3.9,0-7.9,0-12.1,0c-0.6-1.5-0.2-3.2-0.3-4.7c-0.1-1.6,0-3.3,0-5.1c3,0,5.9,0,9,0
			c0,1.6,0,3,0,4.8c1.7,0,3.3,0,4.8,0C973.1,498.9,973.4,500.5,971.4,502z"/>
		<path fill="#C23434" d="M949,511c2.1,0.7,0.4,2.6,1.3,3.7c1,0.6,2.1,0.1,3.3,0.3c0.1,0.1,0.3,0.2,0.3,0.3
			c0.1,7.9,0.1,15.8,0.2,23.7c-0.2,0.2-0.5,0.4-0.7,0.6c-3.5,0.9-4.4-1.3-4.6-4.1c-0.2-4.6-0.1-9.2-0.1-13.9c0-1.8-0.1-3.6-0.6-5.4
			C947.7,514.4,947.6,512.6,949,511z"/>
		<path fill="#BA3232" d="M964,548c-0.3,0-0.7,0-1,0c-0.6-0.6-1.1-1.3-1.8-1.8c-1.2,0-1.4,1.2-2.2,1.8c-0.3,0-0.7,0-1,0
			c-1.1-1.2-1.8-2.7-3.5-3.3c-0.4-0.3-0.6-0.6-0.8-1c0.1-0.4,0.3-0.8,0.6-1.1c1.6-0.8,2.5-2.3,3.6-3.5c0.3,0,0.7,0,1,0
			c1.1,1.2,1.9,2.9,4,2.8c1.1,0.1,2.3,0.1,3.4,0.5c0.4,0.2,0.7,0.5,0.9,1C966.6,545.1,965.1,546.4,964,548z"/>
		<path fill="#C33434" d="M958,539c0,1.3,0,2.5,0,4c-1.5,0-2.7,0-4,0c-0.2-0.2-0.3-0.4-0.5-0.5c-0.6-1.3-0.4-2.4,0.5-3.5
			C955.3,539,956.7,539,958,539z"/>
		<path fill="#B43131" d="M963,543c-1.3,0-2.5,0-4,0c0-1.5,0-2.7,0-4c1.3,0,2.7,0,4,0C964.1,540.3,964.1,541.7,963,543z"/>
		<path fill="#C23434" d="M963,543c0-1.3,0-2.7,0-4c1.3,0,2.7,0,4,0c0.7,1.3,0.7,2.7,0,4C965.7,543,964.3,543,963,543z"/>
		<path fill="#BA3232" d="M967,543c0-1.3,0-2.7,0-4c0-0.7,0.3-1,1-1c0,1.7,0,3.3,0,5C967.7,543.5,967.3,543.5,967,543z"/>
		<path fill="#2E6091" d="M800,432c0,6,0,12,0,18c-0.5,0.3-0.9,0.3-1.3-0.1c-2-3.3-0.3-7.2-1.8-11.9c-1.4,5.1-5.3,3.9-7.5,4.6
			c-2.2,0.8-2.7,2.6-4.1,3.2c-4.5,1.7-8.9,0.1-13.3-0.8c0-2.8,0-5.6,0-8.5c-1.4-1-3.2-0.1-5-0.8c0-2.8,0-5.8,0-8.7
			c-1.2-1.2-3.3,0.3-4.4-1.3c0-1.3-0.4-2.7,0.4-4c1.8-1.4,4.1-0.8,6.5-1.8c1.8-1,2.5-5.7,6.5-2.9c0,0.3,0,0.7,0,1
			c1.2,4.2,0,8.5,0.7,12.7c5,1.3,7.4-0.5,7.8-5.7c0.3-4.1-0.8-8.3,1.2-11.9c2-1.8,4.4-1.3,6.6-2.3c4.4-6,10.5-4.9,16.7-3.2
			c2.3,3.4,0.6,5.5-2.2,7.3c-1.9,1.6-1.3,3.9-1.4,6c-0.2,3.4,0.6,6.9-0.8,9.6C803,432,801.2,430.9,800,432z"/>
		<path fill="#2A5682" d="M809,408c-4.5,0-9,0-13.6,0c-0.8,1.5-0.1,3.2-0.5,4.9c-2.8,0-5.6,0-8.8,0c0,6.1,0,12,0,18
			c-3.5-0.2-6.4,2.1-10.1,0.7c0-4.4,0-9,0-13.6c1-0.1,1,0.6,1,1.3c0,3.8,0,7.6,0,11.3c1.2,0.9,2.4,0.1,3.3,0.6
			c0.6-0.4,0.7-0.8,0.7-1.3c0-11.9,0-23.8,0-35.7c1.3-1.1,2.8-1.3,4.4-0.6c1.5,0.5,1.2,2.6,2.7,3.3c1.2-0.8,1.1-2.4,2.3-3.1
			c1.4-0.7,2.8-0.7,4.2,0c1.4,0.7,1.2,2.7,2.6,3.5c2.1-0.1,1.6-2.7,3.1-3.4c1.2-0.6,2.5-0.6,3.6,0.1c1.2,2.7,3.7,4,5.8,5.8
			C810.6,402.4,811.1,405.3,809,408z"/>
		<path fill="#2A5581" d="M776,417c-1.2,0-2.3,0-3.5,0c-1,1.4-0.1,3.2-0.7,5c-2.9,0-5.8,0-8.8,0c-1.1-4.5-0.2-9-0.4-13.2
			c0.8-1.5,1.9-1.7,3.1-1.6c2.1,0.3,2.2,2.6,3.4,3.7c2.2-0.2,1.8-2.7,3.3-3.4c1.3-0.6,2.5-0.5,3.6,0.5C776,411,776,414,776,417z"/>
		<path fill="#2A5683" d="M772,445c4.7,0,9.3,0,14,0c0.2,0.2,0.4,0.4,0.6,0.6c0.7,1.7,0.7,3.4-0.8,4.7c-1.7,1-3.3,0.9-4.8-0.4
			c-1.6,0-3.2,0-4.9,0c0-1.3,0-2.4,0-3.3C775,445,772.6,447.3,772,445z"/>
		<path fill="#264F78" d="M767,408c-1.3,0-2.5,0-4,0c0,4.9,0,9.4,0,14c0,1.3,0,2.7,0,4c0.4,0.2,0.5,0.4,0.4,0.7
			c-0.1,0.2-0.2,0.3-0.4,0.3c-1.4,0-1-1-1-1.8c0-6.9,0-13.8,0-20.7c0.5-0.5,0.9-0.9,1.5-1.5c3.7,0,7.5,0,11.2,0c0.7,0,1.3,0,1.3,1
			c-0.9,0.9-2.1,1.2-3.3,1.2c-2.1-0.1-4.1,0.1-5.1,2.4C767.4,407.7,767.2,407.9,767,408z"/>
		<path fill="#264F78" d="M781,450c1.7,0,3.3,0,5,0c0.2,0.1,0.3,0.3,0.5,0.4c0.7,0.9,1,2.3,2.7,1.8c1-0.8,1.1-2.5,2.5-2.9
			c1.4-0.4,2.7-0.3,3.7,0.8c1,1.7,0.8,3.4-0.4,4.9c-4.6,0-9.1,0-14,0C781,453.2,781,451.6,781,450z"/>
		<path fill="#264E76" d="M786,394c-1.7,0-3.3,0-5,0c0-1.6,0-3.2,0-5c1.8,0,3.4,0,5,0c0.2,0.2,0.3,0.3,0.5,0.5c0.7,1.3,0.7,2.7,0,4
			C786.3,393.7,786.2,393.8,786,394z"/>
		<path fill="#295581" d="M790,385c1.7,0,3.3,0,5,0c1,1.4,1.2,2.7,0.1,4.1c-1.7,1.2-3.4,1.2-5.1,0C788.8,387.8,789,386.4,790,385z"
			/>
		<path fill="#264F78" d="M795,389c0-1.3,0-2.7,0-4c1.7,0,3.3,0,5,0c1,1,1.1,2.1,0.7,3.4c-0.2,0.5-0.5,0.8-0.9,1.1
			c-1.4,0.6-2.8,0.7-4.3,0C795.3,389.4,795.2,389.2,795,389z"/>
		<path fill="#264F78" d="M809,385c0,1.3,0,2.7,0,4c-0.2,0.2-0.3,0.3-0.5,0.5c-1.4,0.7-2.8,0.6-4.2,0c-0.4-0.3-0.7-0.6-0.9-1.1
			c-0.4-1.3-0.3-2.4,0.7-3.4C805.7,385,807.3,385,809,385z"/>
		<path fill="#264F78" d="M790,385c0,1.3,0,2.7,0,4c-0.2,0.2-0.4,0.3-0.5,0.5c-1.3,0.6-2.4,0.4-3.5-0.5c0-1.3,0-2.5,0-4
			C787.5,385,788.7,385,790,385z"/>
		<path fill="#295580" d="M804,385c0,1.3,0,2.7,0,4c-1.3,1.2-2.7,1.2-4,0c0-1.3,0-2.7,0-4C801.3,385,802.7,385,804,385z"/>
		<path fill="#264E78" d="M772,404c1.3,0,2.7,0,4,0c0,1.3,0,2.7,0,4c-1.3,0-2.7,0-4,0c-0.2-0.2-0.3-0.4-0.5-0.5
			C770.9,406.2,771,405,772,404z"/>
		<path fill="#2A5581" d="M763,427c0-0.3,0-0.7,0-1c0.9,0,1.9,0,2.8,0c0.7,0,1.2,0.1,1.2,1C765.7,427,764.3,427,763,427z"/>
		<path fill="#A32D2D" d="M907,548c-1.3,0-2.7,0-4,0c-1.8-3-2.1-6.2-1.8-9.6c0.9-11.4,0.1-22.8,0.4-34.3c0.1-2.4-0.4-5,1.1-7.2
			c1.6-1.1,3.1-1.1,4.6,0.1c1.2,1.6,1.1,3.4,1.1,5.2c0.1,13-0.1,26.1,0.1,39.1C908.5,543.6,908.8,546.1,907,548z"/>
		<path fill="#584632" d="M879,497c-1.3,0-2.7,0-4,0c-0.7,0.3-1.2,0.1-1.6-0.5c-1.7-5-1.1-10.1-0.6-15.1c0.4-3.8,2.1-4.5,6.2-3.4
			c2.6,6,1.5,12.2,0.6,18.3C879.4,496.5,879.2,496.8,879,497z"/>
		<path fill="#B43131" d="M880,548c-1.9-0.3-0.9-1.9-1-2.8c-0.1-12.4,0-24.9,0-37.3c0-3.6,0-7.3,0-10.9c0.7-0.1,1.2,0.1,1.6,0.7
			c1.1,2,0.9,4.2,0.9,6.3c0,6.1,0,12.3,0,18.4c0,6.7-0.9,13.5,3.3,19.5c-0.3,1.8-2.1,2-3,3.2C881.2,546.1,880.9,547.2,880,548z"/>
		<path fill="#B53131" d="M907,548c0-17,0-34,0-51c0.3-0.1,0.6-0.1,0.9-0.2c0.5,0.4,0.9,0.8,1.1,1.4c1.2,8.7,0.6,17.5,0.4,26.3
			c-0.2,6.2,0.8,11.9,3.5,17.4c-0.3,1.8-2.2,2-3,3.2c-0.6,1-0.9,2.1-1.8,2.9C907.7,548,907.3,548,907,548z"/>
		<path fill="#523D2B" d="M874,497c0.3,0,0.7,0,1,0c0,2.9,0,5.8,0,9c-1.8,0-3.4,0-5,0c-2.1-3-1.9-6-0.3-8.9
			C871.3,495.9,872.7,496,874,497z"/>
		<path fill="#BB3232" d="M908,544c-0.1-0.9,0.5-1,1.2-1c0.9,0,1.9,0,2.8,0c1.9-1,2.7-3.5,4.9-4.2c1.3,1,1.8,3.2,4.1,2.9
			c4.5-0.5,2.1-4.4,3.1-6.5c0.1-0.5,0.4-0.9,0.7-1.2c0.4-0.3,0.9-0.3,1.3,0.1c0,3.2,0,6.5,0,10c-1.8,0-3.4,0-5,0
			c-1.5,1.2-2.9,2.5-4,4c-0.3,0-0.7,0-1,0c-1.2-1.5-2.4-3-4.6-2.7C910.1,545.2,908.9,544.9,908,544z"/>
		<path fill="#BB3232" d="M880,544c-0.1-0.9,0.5-1,1.2-1c0.9,0,1.9,0,2.8,0c2-1,2.7-3.5,4.9-4.2c1.3,1.4,2.2,3.3,4.7,2.9
			c1.6,0,3.1-0.1,4.6,0c1.6,0.2,3.5,0,3.9,2.3c-1,1.2-2.4,1.3-3.9,1.4c-1.5,0.1-3.1,0-4.6,0c-2.3-0.4-3.5,1.1-4.7,2.7
			c-0.3,0-0.7,0-1,0c-1.2-1.5-2.4-3-4.6-2.7C882.1,545.2,880.9,544.9,880,544z"/>
		<path fill="#B23030" d="M902,544c0.1-0.9-0.5-1-1.2-1c-0.9,0-1.9,0-2.8,0c-1-1.2-1.2-2.5-0.4-3.9c1.1-1.2,2.4-1.2,3.8-0.7
			c0.2,0.2,0.4,0.4,0.6,0.6c0.1,3,1.7,5.9,1,9c-0.3,0-0.7,0-1,0C900.9,546.7,900.9,545.3,902,544z"/>
		<path fill="#B53131" d="M893,544c1.7,0,3.3,0,5,0c1.1,1.3,1.1,2.7,0,4c-1.7,0-3.3,0-5,0C891.9,546.7,891.9,545.3,893,544z"/>
		<path fill="#C23434" d="M908,544c1.3,0,2.7,0,4,0c1.1,1.3,1.1,2.7,0,4c-1.3,0-2.7,0-4,0C908,546.7,908,545.3,908,544z"/>
		<path fill="#C23434" d="M880,544c1.3,0,2.7,0,4,0c1.1,1.3,1.1,2.7,0,4c-1.3,0-2.7,0-4,0C880,546.7,880,545.3,880,544z"/>
		<path fill="#B43131" d="M884,548c0-1.3,0-2.7,0-4c1.3,0,2.5,0,4,0c0,1.5,0,2.7,0,4C886.7,548,885.3,548,884,548z"/>
		<path fill="#C23434" d="M893,544c0,1.3,0,2.7,0,4c-1.3,0-2.7,0-4,0c0-1.3,0-2.5,0-4C890.5,544,891.7,544,893,544z"/>
		<path fill="#C33434" d="M898,548c0-1.3,0-2.7,0-4c1.3,0,2.7,0,4,0c0,1.3,0,2.7,0,4C900.7,548,899.3,548,898,548z"/>
		<path fill="#B43131" d="M912,548c0-1.3,0-2.7,0-4c1.3,0,2.5,0,4,0c0,1.5,0,2.7,0,4C914.7,548,913.3,548,912,548z"/>
		<path fill="#C23434" d="M917,548c0-1.3,0-2.5,0-4c1.5,0,2.7,0,4,0c0,1.3,0,2.7,0,4C919.7,548,918.3,548,917,548z"/>
		<path fill="#D8B48A" d="M814,534c0,1.7,0,3.3,0,5c-1.7,0-3.3,0-5,0c0-1.7,0-3.3,0-5C810.7,534,812.3,534,814,534z"/>
		<path fill="#DAB68C" d="M813.9,519.9c-1.5,0-3,0-4.7,0c0-1.2,0-2.3,0-3.6c1.5,0,3,0,4.7,0C813.9,517.5,813.9,518.7,813.9,519.9z"
			/>
		<path fill="#D1AE85" d="M809,539c0,1.3,0,2.7,0,4c-1.5,0-3,0-4.5,0c-1.1-1.1,0-2.5-0.9-4C805.8,539,807.4,539,809,539z"/>
		<path fill="#DAB68C" d="M813,525c0,1.3,0,2.5,0,4c-1.5,0-2.7,0-4,0c0-1.3,0-2.5,0-4C810.5,525,811.7,525,813,525z"/>
		<path fill="#DAB68B" d="M809,530c0,1.3,0,2.7,0,4c-1.3,0-2.7,0-4,0c0-1.3,0-2.5,0-4C806.5,530,807.7,530,809,530z"/>
		<path fill="#CDA87D" d="M809,548c0-1.3,0-2.7,0-4c0.3,0,0.7,0,1,0c1.1,1.3,1.1,2.7,0,4C809.7,548,809.3,548,809,548z"/>
		<path fill="#C23434" d="M880,497c-0.3,0-0.7,0-1,0c0-6.3,0-12.7,0-19c1.7,0,3.3,0,5,0c3.1-1.1,4.5-6,9-4c0.9,0.7,1.2,2,2.5,2.1
			c1.3-0.2,1.6-1.5,2.5-2.1c1.7,0,3.3,0,5,0c0.6,0.6,1.1,1.3,1.8,1.8c1.2,0,1.4-1.2,2.2-1.8c1.7,0,3.3,0,5,0
			c0.7,0.7,1.2,1.5,2.6,1.9c3.1-3.4,7.3-2.8,11.4-1.9c2.7,5.6,1.5,11.4,0.9,17.2c-0.2,0.6-0.6,1.1-1.1,1.4c-5.9,1.4-11.9,1-17.9,0.3
			c-0.5-0.2-1-0.5-1.3-1c-1.3-3.9,0.6-5.6,4.2-6.2c2.2-0.4,4.6,0.1,6.8-0.9c-8.6-0.5-17.1-0.5-25.3-0.3c-5.9,5.3-6,5.4-10.3,1.8
			c-1.4,3.3,0.2,7-1.5,10.1C880.4,496.7,880.2,496.8,880,497z"/>
		<path fill="#A22D2D" d="M926,492c0-6,0-12,0-18c2.7,0.5,5.1-1.5,7.8-1c0.7,0.1,1.3,0.1,1.2,1c-1.5,1.2-3.1,2.3-2.7,4.6
			c0,1.5,0.1,3,0,4.4c0,1.3-0.1,2.7-0.4,4c-0.7,1.8-0.4,3.9-1.9,5.4C928.6,493.1,927.2,493.2,926,492z"/>
		<path fill="#B53131" d="M926,474c-2.9,0-5.8,0-8.9,0c0,1.3,0,2.4,0,3.8c-1.7,0-3.2,0-5.1,0c0-1.2,0-2.5,0-3.8
			c4.1-0.3,8.1-1.5,12.3-1C925,473.1,926,472.7,926,474z"/>
		<path fill="#B53131" d="M893,474c-1.2,0-2.3,0-3.5,0c-1.1,1.1,0,2.5-0.8,4c-1.4,0-3,0-4.6,0c0-1.3,0-2.7,0-4
			c2.7,0.5,5.1-1.5,7.8-1C892.4,473.1,893.1,473.1,893,474z"/>
		<path fill="#B43131" d="M940,478c0,1.7,0,3.3,0,5c-1.5,1.2-3.1,1.4-4.8,0.4c-1.4-1.4-1.5-3-0.8-4.8c0.2-0.2,0.4-0.4,0.6-0.6
			C936.7,478,938.3,478,940,478z"/>
		<path fill="#B53131" d="M898,474c0,1.2,0,2.3,0,3.7c-1.5,0.6-3.1,0.2-4.7,0.2c-0.6-1.3-0.1-2.7-0.3-3.9
			C894.7,474,896.3,474,898,474z"/>
		<path fill="#B53131" d="M931,478c0-1.3,0-2.5,0-4c1.5,0,2.7,0,4,0c0,1.3,0,2.7,0,4C933.7,479.1,932.3,479.1,931,478z"/>
		<path fill="#B43131" d="M907,474c0,1.2,0,2.3,0,3.5c-1.1,1.2-2.5,0.1-3.6,0.6c-0.7-1.5-0.2-2.9-0.4-4.1
			C904.3,474,905.7,474,907,474z"/>
		<path fill="#D13838" d="M926,492c1.3,0,2.7,0,4,0c1.1-1.2-0.1-3,1.4-4.4c2.7-0.5,5.7-2.9,8.6,0.4c0,7.6,0,15.1,0,23
			c1.8,0,3.4,0,5,0c0.8,0.9,1.3,1.9,1.3,3.1c0.1,8,0.8,16-0.4,24c-0.2,0.6-0.6,1.1-1.1,1.4c-1.3,0.7-2.8,0.8-4.3,0.8
			c-1.4,0-2.8,0-4.1-0.4c-0.5-0.2-0.9-0.5-1.4-0.9c-1.3,0-2.5,0-3.9,0c0-3,0-5.8,0-8.4c-2.7-2.1-2.7-2.1-5.1-0.6
			c-1.1,1.1,0.1,2.9-1,4c-5.6,2.6-13.6-1.3-14.1-7.6c-0.8-9.6-1.4-19.4,0.5-29.1c3.3-3.2,7.6-0.8,11.2-2
			C924.4,494.9,924.9,493.2,926,492z"/>
		<path fill="#B53131" d="M935,539c0.3,0,0.7,0,1,0c1.3,1.5,1.6,3.8,3.8,4.4c0.4,0.3,0.7,0.7,0.9,1.1c0.4,1.3,0.2,2.5-0.7,3.5
			c-1.6,0-3.2,0-5,0C935,544.8,935,541.9,935,539z"/>
		<path fill="#C13434" d="M940,548c0-1.3,0-2.7,0-4c1.3-1.3,2.8-1.2,4.4-0.7c0.5,0.2,0.9,0.6,1.2,1c0.6,1.3,0.4,2.6-0.6,3.7
			C943.3,548,941.7,548,940,548z"/>
		<path fill="#B23030" d="M967,543c0.3,0,0.7,0,1,0c0,1.7,0,3.3,0,5c-1.3,0-2.7,0-4,0c0-1.2,0-2.3,0-3.4
			C964.5,543.1,966.8,545.1,967,543z"/>
		<path fill="#C23434" d="M959,548c0-1.2,0-2.3,0-3.5c1.1-1.3,2.5-0.1,3.6-0.7c0.7,1.5,0.2,2.9,0.4,4.1C961.7,548,960.3,548,959,548
			z"/>
		<path fill="#B43131" d="M945,548c0-1.3,0-2.7,0-4c1.3-1.1,2.7-1.1,4-0.1c1.1,1.4,1,2.7,0,4.1C947.7,548,946.3,548,945,548z"/>
		<path fill="#A22D2D" d="M954,548c-1.3,0-2.7,0-4,0c-0.7-1.4-0.7-2.7,0-4c1.4-1.2,2.7-0.9,4,0C955.1,545.3,955.1,546.7,954,548z"/>
		<path fill="#B43131" d="M954,548c0-1.3,0-2.7,0-4c1.3,0,2.5,0,4,0c0,1.5,0,2.7,0,4C956.7,548,955.3,548,954,548z"/>
		<path fill="#AA2F2F" d="M954,544c-1.3,0-2.5,0-4,0c0,1.5,0,2.7,0,4c-0.3,0-0.7,0-1,0c0-1.3,0-2.5,0-4c-1.5,0-2.7,0-4,0
			c-0.2-0.6,0-1,0.4-1.4c1.2-0.8,2.6-0.8,3.9-0.9c1.7-0.1,3.3,0.1,4.6,1.3C954,543.3,954,543.7,954,544z"/>
		<path fill="#C23434" d="M925,534c0-0.9,0-1.9,0-2.8c0-0.7,0.1-1.2,1-1.2c0,1.3,0,2.7,0,4C925.7,534,925.3,534,925,534z"/>
		<path fill="#DAB68B" d="M832,441c0,4.7,0,9.3,0,14c-2.9,2.1-5.9,1.8-9.1,0.2c-3-5.2-0.2-11.2-2.2-16.5c-1.4-1.2-2.8-1.2-4.2-0.2
			c-1.4,1.9-0.8,4.6-2.6,6.7c-2.7,1.7-5.7,1.6-8.9-0.1c-0.8-4.2-0.4-8.5-0.3-12.8c2.3-2,2.9-4.5,2.9-7.4c0-2.6-0.4-5.3,1-7.6
			c1.3-1.5,2.9-1.5,4.6-1.4c2.9,0.5,5.3,1.7,6.9,4.1c1.9,0.9,3.8,0.8,5.7,0.2c1.5-1.9,3.3-3.3,5.2-4.6c1.3-3.2,0.8-6.5,0.3-9.9
			c-1.9-1.6-3.8-3.1-5.5-4.9c-1.7-0.6-3.3-0.8-5.3,0c2.5,1.6,5.6,0.1,7.4,2.5c2.6,4.4,2.1,9,0.6,13.6c-3.1,2.2-6.2,1.5-9.2,0.5
			c-1.8-2.7-0.9-4.4,1.1-5.8c0.3-0.4,0.5-0.8,0.6-1.2c-0.2-0.7-0.6-0.5-1.1-0.4c-1.1,1.1-0.9,3.2-2.7,3.7c-1.5,0.3-2.9,0.2-3.9-1.3
			c-1.6-7.5-1.3-15,0-23c8.2,0.2,16-0.6,23.7,0.5c0,1.3,0,2.7,0,4c0.4,0.5,0.7,1,1,1.6c0.6,10.3,1.4,20.6-0.4,30.9
			c-0.8,1.4-2.7,1.7-3.4,2.9C832.4,433.3,834.7,437.6,832,441z"/>
		<path fill="#CCA87D" d="M837,390c-7.6,0-15.2,0-23,0c0,7.8,0,15.4,0,23c1,1,1.1,2.2,0.5,3.5c-0.2,0.2-0.3,0.4-0.5,0.5
			c-1.5,0-3,0-4.8,0c-0.4,2.4-0.1,4.8-0.2,7.2c-0.1,2.5,0,4.9,0,7.4c-1.4,0.7-2.7,0.2-4,0.3c-0.1-0.3-0.3-0.5-0.4-0.8
			c0.2-6.1-0.6-12.2,0.4-18.2c1.3,0,2.5,0,4,0c0-1.8,0-3.4,0-5c0-3,0-6,0-9c-1.3-1.4-1.4-3.2-1.4-5c-0.1-1.8,0.1-3.6,1.4-5
			c9.3,0,18.7,0,28,0C837,389.3,837,389.7,837,390z"/>
		<path fill="#28527C" d="M897,445c0.1,0.9-0.5,1-1.2,1c-0.9,0-1.9,0-2.8,0c-1.5,1.2-2.9,2.5-4,4c-0.3,0-0.7,0-1,0
			c-1.2-1.4-2.2-3.1-4.5-2.7c-1.3,0-2.7,0-4,0c-2.2-0.4-3.3,1.2-4.5,2.7c-0.3,0-0.7,0-1,0c-1.2-1.5-2.3-3.1-4.6-2.7
			c-1.5,0-3,0.1-4.6,0c-1.4,0-2.7-0.4-3.8-1.3c0.7-2.1,2.6-0.4,3.8-1.3c0-8.7,0-17.6,0-26.7c-4.7,0-9.2,0-13.8,0
			c-1.7,0.9-3.4,1.6-4.1-1.1c1.2-1.2,2.7-1.3,4.2-1.3c4.5,0,8.9-0.5,13.4,0.4c0.5,0.3,1,0.6,1.5,1c1,0,2,0,3,0c0.3-0.5,0.7-0.5,1,0
			c0,0.3,0,0.7,0,1c-0.6,0.5-1.5,1-1.7,1.8c-1.4,7.8-1.7,15.5,0.2,23.3c0.1,0.2,0.5,0.3,0.8,0.4c2.4,0.7,3.3-1.2,4.5-2.6
			c2.3,0,2.8,3.5,5.5,2.8c1.4,0,2.8,0,4.2,0c2.7,0.7,3.3-2.5,5.4-2.9c1.3,1.4,2.2,3.3,4.6,2.9C894.9,443.8,896,444.1,897,445z"/>
		<path fill="#264F78" d="M842,394c0-1.5,0-3,0-4.6c1.3-0.8,2.8-0.4,4.3-0.4c5.6-0.1,11.3,0,16.9,0c0.7,0,1.8-0.4,1.8,1
			c0.8,1.3,0.5,2.6,0.3,4c-1,1.1-2.3,1.1-3.6,0.7c-1.4-0.5-1.5-2.2-2.5-3c-0.7-0.4-1.4-0.5-2.2-0.2c-1.1,0.7-1,2.2-2.1,2.9
			c-0.9,0.4-1.7,0.4-2.6,0.2c-0.6-0.3-1.2-0.7-1.6-1.2c-0.7-0.9-1.2-2.1-2.7-1.8c-1.2,0.6-1,2.2-2.1,2.8c-1.1,0.6-2.2,0.6-3.4,0
			C842.3,394.3,842.2,394.2,842,394z"/>
		<path fill="#1D3B5B" d="M870,417c-0.3,0-0.7,0-1,0c0-8.6,0-17.2,0-25.7c0-0.8-0.7-2.1,1-2.3c0,1.7,0,3.3,0,5s0,3.3,0,5
			C870,405,870,411,870,417z"/>
		<path fill="#1D3B5B" d="M865,394c0-1.3,0-2.7,0-4c1.7,0.2,1,1.5,1,2.3c0.1,8.2,0,16.5,0,24.7c-0.3,0-0.7,0-1,0
			c-2.7-4.4-1.2-9.2-1.5-13.9C863.6,400,862.8,396.8,865,394z"/>
		<path fill="#2A5178" d="M837,395c0-0.3,0-0.7,0-1c1.7,0,3.3,0,5,0c1.3,1.6,1.3,3.3,0.3,4.8c-1.4,1.2-2.8,1.3-4.1,0.4
			C837,398,838,396.2,837,395z"/>
		<path fill="#C23434" d="M940,488c-0.8,0.1-1-0.7-1.8-1.1c-1.9,1.6-4.4,1-6.7,1.1c-1.5,0.9,0.8,3.3-1.5,4c0-1.3,0-2.5,0-3.8
			c0-0.7,0.1-1.3,1-1.2c1.3-1.1,2.7-2,3.5-3.6c0.2-0.1,0.3-0.3,0.5-0.4c1.7,0,3.3,0,5,0C940,484.7,940,486.3,940,488z"/>
		<path fill="#B53131" d="M954,478c-1.7,0-3.3,0-5,0c-0.2-0.2-0.3-0.4-0.5-0.5c-0.6-1.3-0.4-2.4,0.5-3.5c1.7,0,3.3,0,5,0
			C955,475.3,955.2,476.7,954,478z"/>
		<path fill="#C13434" d="M954,478c0-1.3,0-2.7,0-4c1.7,0,3.3,0,5,0c1.1,1.3,1.1,2.7,0,4C957.3,479.3,955.7,479.3,954,478z"/>
		<path fill="#C13434" d="M963,474c1.7,0,3.3,0,5,0c1.1,1.3,1.1,2.7,0,4c-1.7,1.3-3.3,1.3-5,0C961.9,476.7,961.9,475.3,963,474z"/>
		<path fill="#B63131" d="M968,478c0-1.3,0-2.7,0-4c1.7,0,3.3,0,5,0c1,1.3,1.2,2.7,0,4C971.3,478,969.7,478,968,478z"/>
		<path fill="#B53131" d="M982,478c-1.7,0-3.3,0-5,0c-1.2-1.3-1-2.7,0-4c1.7,0,3.3,0,5,0C982,475.3,982,476.7,982,478z"/>
		<path fill="#B53131" d="M949,478c0,1.6,0,3.2,0,5c-1.5,0-2.7,0-4,0c0-1.7,0-3.3,0-5C946.3,476.9,947.7,476.9,949,478z"/>
		<path fill="#C23434" d="M977,474c0,1.3,0,2.7,0,4c-1.3,1.1-2.7,1.1-4,0c0-1.3,0-2.7,0-4C974.3,474,975.7,474,977,474z"/>
		<path fill="#B43131" d="M963,474c0,1.3,0,2.7,0,4c-1.3,0-2.7,0-4,0c0-1.3,0-2.7,0-4C960.3,474,961.7,474,963,474z"/>
		<path fill="#C23434" d="M949,478c-1.3,0-2.7,0-4,0c0-1.3,0-2.5,0-4c1.5,0,2.7,0,4,0C949,475.3,949,476.7,949,478z"/>
		<path fill="#B43131" d="M991,479c-1.3,0-2.5,0-3.9,0c-0.1,1.4-0.1,2.5-0.2,3.8c-1.5,0-3.1,0-4.9,0c0-1.6,0-3.2,0-4.8c3,0,6,0,9,0
			C991,478.3,991,478.7,991,479z"/>
		<path fill="#28527C" d="M949,446c-1.3,0-2.7,0-4,0c0-0.3,0-0.7,0-1c1.1-1,2.4-1.3,3.8-1.3c1.5-0.1,3.1,0,4.6,0
			c2.7,0.7,3.4-2.5,5.6-2.8c1.3,1.5,2.3,3.3,4.7,2.9c1.6,0,3.1,0.2,4.3,1.3c0,0.3,0,0.7,0,1c-1.7,0-3.3,0-5,0c-1.2,0-2.5,0-4,0
			c0,0.8,0,1.4,0,2c-1.3,0.1-0.8-1.1-1.4-2c-1,0-2.3,0-3.6,0C952.3,446,950.7,446,949,446z"/>
		<path fill="#D9B58B" d="M810,548c0-1.3,0-2.7,0-4c1.3,0,2.7,0,4,0c0,1.3,0,2.7,0,4C812.7,548,811.3,548,810,548z"/>
		<path fill="#DAB68B" d="M874,497c-1.3,0-2.5,0-4,0c0,3.2,0,6.1,0,9c-3,0-6,0-9,0c0-0.9,0-1.9,0-2.8c0-0.7-0.1-1.2-1-1.2
			c-1.7-1-1.7-1-3.8-1.2c0-2.8,0-5.7,0-8.8c1.3,0,2.6,0,3.8,0c1.1,0.8,0.9,2.5,2.1,3.2c2.2-2.3-1.5-2-1.4-3.3
			c-0.2-1.1-0.2-2.2,0-3.3c0.5-1.1,1.7-1.4,2.3-2.3c0.8-2.3-2.3-2.1-2.4-3.8c0.2-1.5-0.4-3,0.5-4.4c1.3,0,2.6,0,3.9,0
			c0-1.7,0-3.2,0-4.6c-1.1-0.9-2.5,0.1-3.9-0.8c0-2.7,0-5.7,0-8.6c1.3,0,2.5,0,4,0c0-1.5,0-2.7,0-4c1.5,0,3,0,4.5,0
			c1.1,1,0.1,2.5,0.7,3.7c1,0.6,2.2,0.2,3.3,0.3c0.5,0.3,0.4,0.8,0.6,1.2c0.5,1.2-1.2,3,1,3.8c1.3,0,2.7,0,4,0c0,3,0,6,0,9
			c-3,0.1-3,0.1-5,1.5C874,485.2,874,491.1,874,497z"/>
		<path fill="#2E5F91" d="M819,375c0-1.3,0-2.7,0-4c4.3-2.1,8.7-2.1,13,0c0,1.3,0,2.5,0,4C827.5,375,823.2,375,819,375z"/>
		<path fill="#2A5682" d="M832,371c-4.3,0-8.7,0-13,0c0-1.6,0-3.2,0-5c1.5,0,2.7,0,4,0c0.2,0.1,0.3,0.3,0.5,0.4
			c0.6,0.7,0.9,1.7,1.9,1.8c1.3-0.2,1.5-1.3,2-2c0.3-0.4,0.7-0.7,1.1-0.9c1.3-0.4,2.4-0.2,3.5,0.7C832,367.7,832,369.3,832,371z"/>
		<path fill="#264F78" d="M832,366c-1.3,0-2.7,0-4,0c-1.2-1.3-1-2.7,0-4c1.3,0,2.7,0,4,0C832,363.3,832,364.7,832,366z"/>
		<path fill="#2A5681" d="M968,445c-1.7,0-3.3,0-5,0c-1.1-1.5-2.5-2.8-4-4c-2.2,0.6-0.1,2.7-1.8,4c-0.6,0-1.9,0-3.2,0
			c-0.9-0.7-1.2-2-2.5-2.1c-1.3,0.2-1.6,1.5-2.5,2.1c-1.3,0-2.7,0-4,0c0-1.3,0-2.5,0-4c-1.8,0-3.4,0-5,0c0-9.3,0-18.7,0-28
			c1.6-1.3,3.3-1.3,5.3,0.1c2.6,5,0,10.9,1.9,16.4c2.9,1.7,5.8,1,8.1,0.7c2.1-0.9,2.5-2.6,3.6-3.5c1.5-0.8,2.8-0.7,4.2,0.3
			c2.2-0.7,0.3-2.6,1.5-3.9c1.1-0.8,2.2,0.5,3.5,0.9c0,0.9,0,1.9,0,3c1.5,0,2.8,0,4,0c0,4.5,0,9,0,13.5c-1,1.2-2.5,0.1-3.8,0.7
			C967.7,442.4,968.2,443.7,968,445z"/>
		<path fill="#203D5B" d="M963,427c-1.3,0-2.7,0-4,0c-1.5,1.2-3,1.3-5.4,0c-2.4-7.1-0.7-14.9-1.1-22.6c0.3-1.9,0-3.9,1.6-5.5
			c0-1.2,0-2.3,0-3.5c1.2-0.8,2.4-0.4,4-0.3c0,7.6,0,15.1,0,22.8c3.1,0,5.9,0,8.6,0c0.8,1.2,0.3,2.4,0.5,3.5c-1,1.2-2.5,0.1-4,0.9
			C963,423.8,963,425.4,963,427z"/>
		<path fill="#2A5581" d="M954,399c0,1.7,0,3.3,0,5c-2,1.1-4.3-0.2-6.7,0.9c-1.3,3.1-4.9,4.5-7.3,7.1c-1.2,0-2.3,0-3.5,0
			c-0.1-0.1-0.2-0.2-0.3-0.3c-0.1-0.1-0.2-0.3-0.2-0.4c0-5.6,0-11.3,0-16.9c1.4-0.7,2.7-0.2,4-0.3c0.2,0.2,0.3,0.3,0.5,0.5
			c0.6,0.8,0.5,2,1.5,2.5c1.8,0,1.6-1.7,2.3-2.7c0.3-0.4,0.7-0.7,1.1-0.9c1.3-0.4,2.5-0.3,3.5,0.7c0,1.6,0,3.2,0,5
			C950.8,399,952.4,399,954,399z"/>
		<path fill="#2A5581" d="M828,362c0,1.3,0,2.7,0,4c-1.7,1.3-3.3,1.3-5,0c0-1.3,0-2.5,0-4C824.8,362,826.4,362,828,362z"/>
		<path fill="#264F78" d="M949,394c-1.3,0-2.7,0-4,0c-1.2-1.3-1-2.7,0-4c1.3,0,2.5,0,4,0C949,391.5,949,392.7,949,394z"/>
		<path fill="#CDA87D" d="M805,432c0,4.3,0,8.5,0,12.9c3.1,0,5.8,0,8.9,0c0-2.9,0-5.8,0-8.8c3.1,0,5.9,0,9,0c0,6.2,0,12.4,0,18.9
			c3.2,0,6.2,0,9.1,0c0,1.7,0,3.3,0,5c-2.2-0.4-4.5,0.8-6.6-0.9c-0.4-0.3-1.6-0.4-2.3,0.3c-1.1,1.2-2.5,0.4-3.6,0.6
			c-1.9-1.1-1.5-2.8-1.5-4.5c-1.3-0.9-2.8-0.3-4.2-0.4c-1.5-0.1-2.9,0-4.6,0c0-1.6,0-3,0-4.5c-1.6-1-3.3-0.2-5.2-0.7
			c0-5.9,0-11.9,0-17.8C804.3,431.6,804.7,431.6,805,432z"/>
		<path fill="#253F5A" d="M795,455c0-1.7,0-3.3,0-5c1.3-1.2,2.7-1,4,0c0.3,0,0.7,0,1,0c0,1.3,0,2.7,0,4
			C798.5,455.3,796.7,455,795,455z"/>
		<path fill="#B79B7B" d="M805,432c-0.3,0-0.7,0-1,0c-1.3,0-2.7,0-4,0c0.7-2.1,2.6-0.4,4-1.4c0-5.1,0-10.4,0-15.8
			c0-0.7-0.4-1.7,1-1.8C805,419.3,805,425.7,805,432z"/>
		<path fill="#DAB68B" d="M860,451c0,4.2,0,8.3,0,12.5c-1,1.1-2.5,0-4,0.9c0,6.1,0,12.4,0,18.6c-1.6,0-3.2,0-5,0c0,4.9,0,9.4,0,14
			c-4.7,0-9.3,0-14,0c0-1.5,0-3,0-4.5c1.4-1,3.2-0.1,4.8-0.7c0.6-1.2,0.1-2.5,0.2-3.8c0.9,0,1.9,0,2.8,0c0.7,0,1.2-0.1,1.2-1
			c-1.1-4.9,0.2-10-0.7-14.7c-0.7-1.7-2.3-2.3-3.3-3.3c0-0.3,0-0.7,0-1c0-1.3,0-2.7,0-4c0.2-0.2,0.3-0.3,0.5-0.5
			c0.8-0.7,2.3-0.5,2.5-2.3c-1.5-1.6-4.9-2.2-3.6-5.7c0.2-0.4,0.5-0.8,0.9-1.1c1-0.7,2.7-0.4,3-2.1c-0.5-1.5-2.2-1.2-3.1-2
			c-0.4-0.4-0.7-0.8-0.8-1.3c-0.2-1.5-0.1-2.9,1.4-3.8c4.5-0.7,9.1-1.7,13.5,0.7c1.2,1.5,2.5,2.8,4,4C860,450.3,860,450.7,860,451z"
			/>
		<path fill="#326291" d="M832,441c0-4.6,0-9.1,0-14c1.8,0,3.4,0,5,0c0.2,0.2,0.3,0.3,0.5,0.5c0.6,0.9,0.8,2.1,1.8,2.8
			c2.1,0.9,4.6,0,6.7,1.7c1.1,1.2,1.2,2.7,0.2,4.3c-1.1,0.9-2.5,1.1-3.8,1.1c-1.5,0.1-3,0-4.6,0c-0.9,0-1.9-0.1-3.4,1
			c-0.2,0.2-0.3,1.4-0.9,2.3c-0.2,0.2-0.3,0.3-0.5,0.4C832.7,441,832.3,441,832,441z"/>
		<path fill="#DAB58B" d="M842,464c-2.8,0-5.6,0-8.9,0c-0.2-2.9,0-5.8-0.1-8.7c1.4-0.7,2.7-0.2,4-0.3c0.2,0.1,0.3,0.3,0.5,0.4
			c0.6,0.9,0.8,2.1,1.6,2.8c1.1,0.7,2.5,0.9,3.3,2.1C843.1,461.7,843,462.9,842,464z"/>
		<path fill="#C4A178" d="M837,454c-1.3,0-2.5,0-4,0c0-2.9,0-5.4,0-8c1.3-1,2.7-1.2,4.1-0.3c1.1,1.2,1.2,2.7,1.2,4.2
			C838.3,451.4,838.2,452.9,837,454z"/>
		<path fill="#D8B489" d="M837,454c0-1.3,0-2.7,0-4c1.7-1.3,3.3-1.3,5,0c1.3,1.7,1.3,3.3,0,5c-0.4,0.4-0.8,0.6-1.3,0.8
			c-1.4,0.4-2.6,0.1-3.7-0.8C837,454.7,837,454.3,837,454z"/>
		<path fill="#3D5B79" d="M837,446c-1.3,0-2.7,0-4,0c0-0.3,0-0.7,0-1c1.1-1,2.4-1.3,3.9-1.3c1.6-0.1,3.3-0.1,5,0c1.3,0,2.7,0,4,0
			c1.6,0,3.2,0,4.8,0c1.6,0,3.2,0,4.7,0.8c0.2,0.2,0.4,0.4,0.6,0.6c0,0.3,0,0.7,0,1c-4.7,0-9.3,0-14,0
			C840.3,447.3,838.7,447.3,837,446z"/>
		<path fill="#2A5682" d="M837,445c-1.3,0-2.7,0-4,0c0-1.3,0-2.7,0-4c1.4-1.1,2.7-1.2,4.2-0.2C838.2,442.2,838.1,443.6,837,445z"/>
		<path fill="#D3AF84" d="M861,478c0,1.7,0,3.3,0,5c1.2,1.5,2.5,2.9,4,4c-0.7,2.1-2.6,0.4-4,1.4c0,1,0,2.3,0,3.6
			c1.3,1.7,1.3,3.3,0,5c-0.9,0.1-1-0.5-1-1.2c0-1.3,0-2.5,0-3.8c0-1.2,0-2.3,0-3.5c-0.9-1.6-3.4,0.8-4-1.5c1.5-1.1,2.8-2.5,4-4
			c0-1.3,0-2.5,0-3.8C860,478.5,860.1,477.9,861,478z"/>
		<path fill="#DAB68B" d="M860,483c0,1.3,0,2.5,0,4c-1.5,0-2.7,0-4,0c0-1.3,0-2.7,0-4C857.3,483,858.7,483,860,483z"/>
		<path fill="#CEA97E" d="M842,469c1.5,0,3,0,4.8,0c0.3,5.9,0.3,11.8,0,17.6c0,0.1-0.5,0.2-0.8,0.4c-1.2,0-2.3,0-3.8,0
			C841.7,481,842.1,475,842,469z"/>
		<path fill="#DAB68C" d="M809,483c0,1.3,0,2.7,0,4c-1.3,0-2.5,0-4,0c0-1.5,0-2.7,0-4C806.3,483,807.7,483,809,483z"/>
		<path fill="#2A5682" d="M879,445c-1.2,0-2.3,0-3.5,0c-1.6-0.9,0.8-3.4-1.5-4c-1.5,1.2-2.9,2.5-4,4c-1.2,0-2.3,0-3.5,0
			c-0.1-0.1-0.2-0.2-0.3-0.4c-0.1-0.1-0.2-0.3-0.2-0.4c0-8.6,0-17.2,0-25.9c1.4-0.7,2.7-0.1,4-0.3c0,5.9,0,11.8,0,17.9
			c6.3,0,12.4,0,18.7,0c0.9-1-0.1-2.4,0.7-3.9c2.4,0,5.1,0,7.7,0c0,4.3,0,8.7,0,13c-1.3,0-2.7,0-4,0c-1.1-1.5-2.5-2.8-4-4
			c-2.2,0.6-0.1,2.7-1.8,4c-0.6,0-1.9,0-3.2,0c-0.9-0.7-1.2-2-2.5-2.1C880.2,443,879.9,444.3,879,445z"/>
		<path fill="#1C3A59" d="M912,409c0-1.8,0-3.6,0-5.5c2.8-0.5,2.8-0.5,4.9,0.8c0,1,0,2.1,0,3.1c1.2,1.2,2.7,0.1,4.1,1
			c0,4.4,0,9,0,13.6c-2.9,0-5.9,0-9,0C912,417.5,912,413.2,912,409z"/>
		<path fill="#2A5682" d="M935,441c-1.2,0-2.3,0-3.5,0c-1-1.4-0.1-3.2-0.7-5c-1.5,0-3.1,0-4.7,0c0-1.6,0-3.2,0-5c3.2,0,6.1,0,9,0
			C935,434.3,935,437.7,935,441z"/>
		<path fill="#265079" d="M912,436c0,1.7,0,3.3,0,5c-1.7,1.3-3.3,1.3-5,0c0-1.7,0-3.3,0-5C908.7,436,910.3,436,912,436z"/>
		<path fill="#264F79" d="M916,394c0-0.9,0-1.9,0-2.8c0-0.7,0.1-1.2,1-1.2c1.1,1.3,2,2.7,3.6,3.5c0.1,0.2,0.3,0.3,0.4,0.5
			c0,1.5,0,3,0,4.7c-1.7,0.3-3.3,1-5-1.5C916,396.6,916,395.3,916,394z"/>
		<path fill="#264F79" d="M912,394c0,1.5,0,3,0,4.7c-1.5,0.6-3.1,0.2-5,0.3c0-1.7,0-3.3,0-5c1.3-1.2,2.8-1.3,4.4-0.5
			C911.6,393.7,911.8,393.8,912,394z"/>
		<path fill="#264F78" d="M926,390c0,1.3,0,2.7,0,4c-1.7,0-3.3,0-5,0c-1.1-1.3-1.1-2.7,0-4C922.7,390,924.3,390,926,390z"/>
		<path fill="#264F78" d="M912,393c0.7,0,1,0.3,1,1c-0.3,0-0.7,0-1,0c-0.3-0.2-0.3-0.4-0.3-0.7C911.8,393.1,911.9,393,912,393z"/>
		<path fill="#2E5F91" d="M847,417c-0.1,0.9,0.5,1,1.2,1c0.9,0,1.9,0,2.8,0c0,1.2,0,2.3,0,3.8c2.9,0,5.8,0,9,0c0,3.6,0,6.9,0,10.2
			c-3.1,2-6.1,1.9-9.1-0.3c-0.9-1-1.2-2.5-2.3-3.5c-1.9-1.6-4.7-0.4-7.1-2.7c-1.8-4.8-1.2-10.4-0.5-16c0.2-1.9,1.8-2.7,3.7-2.5
			c0.6,0.1,1.1,0.4,1.6,0.7C847.8,410.8,847.5,413.9,847,417z"/>
		<path fill="#2A5681" d="M851,431c1.1,0.2,1.7,1.2,3.1,1.1c2-0.2,4-0.1,5.9-0.1c0,3,0,6,0,9c-1,1-2.2,1.1-3.4,0.7
			c-0.4-0.2-0.8-0.5-1.1-0.9c-0.7-1-0.3-2.7-2-3c-1.5,0.5-1.2,2.2-2,3.2c-0.3,0.4-0.8,0.7-1.3,0.8c-4.5,0.3-4.9-2.4-4.2-5.8
			c0-1.2,0-2.3,0-3.8c-2.5-0.4-5.1-0.1-7.7-0.2c-0.7,0-1.4,0-1.3-1C841.7,428.3,846.3,430,851,431z"/>
		<path fill="#295581" d="M879,446c1.7,0,3.3,0,5,0c1.1,1.3,1.1,2.7,0,4c-1.7,0-3.3,0-5,0C877.9,448.7,877.9,447.3,879,446z"/>
		<path fill="#264F78" d="M865,446c1.7,0,3.3,0,5,0c1.1,1.3,1.1,2.7,0,4c-1.7,0-3.3,0-5,0C863.9,448.7,863.9,447.3,865,446z"/>
		<path fill="#2A5582" d="M889,450c0-1.3,0-2.5,0-4c1.5,0,2.7,0,4,0c0,1.3,0,2.7,0,4C891.7,450,890.3,450,889,450z"/>
		<path fill="#264E78" d="M884,450c0-1.3,0-2.7,0-4c1.3,0,2.5,0,4,0c0,1.5,0,2.7,0,4C886.7,450,885.3,450,884,450z"/>
		<path fill="#264F77" d="M879,446c0,1.3,0,2.7,0,4c-1.3,0-2.7,0-4,0c0-1.3,0-2.5,0-4C876.5,446,877.7,446,879,446z"/>
		<path fill="#264F78" d="M856,441c1.3,0,2.7,0,4,0c0,1.3,0,2.5,0,4c-1.5,0-2.7,0-4,0C855,443.7,854.8,442.3,856,441z"/>
		<path fill="#1C3A59" d="M860,450c-1.3,0-2.5,0-4,0c0-1.5,0-2.7,0-4c1.3,0,2.5,0,4,0C860,447.5,860,448.7,860,450z"/>
		<path fill="#2A5682" d="M865,446c0,1.3,0,2.7,0,4c-1.3,0-2.5,0-4,0c0-1.5,0-2.7,0-4C862.3,446,863.7,446,865,446z"/>
		<path fill="#2A5682" d="M870,450c0-1.3,0-2.7,0-4c1.3,0,2.5,0,4,0c0,1.5,0,2.7,0,4C872.7,450,871.3,450,870,450z"/>
		<path fill="#2A5681" d="M892.9,393.9c-1.1,0-2.4,0-3.8,0c0-1.2,0-2.3,0-3.5c1.1-0.5,2.4-0.3,3.8-0.1
			C892.9,391.5,892.9,392.7,892.9,393.9z"/>
		<path fill="#2A5681" d="M926,445c0-1.3,0-2.7,0-4c1.2,0,2.3,0,3.5,0c1.2,1.1,0.1,2.5,0.6,3.6C928.6,445.3,927.3,444.8,926,445z"/>
		<path fill="#2A5581" d="M912,393c0,0.3,0,0.7,0,1c-1.7,0-3.3,0-5,0c0-1.2,0-2.3,0-3.6c1.5-0.9,3.1-0.1,4.5-0.5
			C912.3,391,911.9,392.1,912,393z"/>
		<path fill="#2A5682" d="M921,390c0,1.3,0,2.7,0,4c-1.3,0-2.5,0-4,0c0-1.5,0-2.7,0-4C918.3,390,919.7,390,921,390z"/>
		<path fill="#2E5F91" d="M940,412c0-1.3,0-2.5,0-3.9c1.7,0,3.2,0,4.6,0c0.9-1.6,0-3.3,0.8-5.1c2.8,0.4,5.8-0.7,8.6,1.1
			c0,7.6,0,15.1,0,23c1.8,0,3.4,0,5,0c0,1.2,0,2.3,0,3.5c-0.4,0.4-0.9,0.9-1.5,1.4c-3.9,0-8,0-12.4,0c0-6.2,0-12.4,0-18.9
			c-1.9,0-3.5,0-5.1,0C940,412.7,940,412.3,940,412z"/>
		<path fill="#2A5581" d="M945,390c0,1.3,0,2.7,0,4c-1.7,1.3-3.3,1.3-5,0c0-1.3,0-2.5,0-4C941.8,390,943.4,390,945,390z"/>
		<path fill="#2A5581" d="M907,441c1.7,0,3.3,0,5,0c0,1.3,0,2.7,0,4c-1.7,0-3.5-0.3-5,1C907,444.3,907,442.7,907,441z"/>
		<path fill="#A12D2D" d="M949,543c-1.3,0-2.7,0-4,0c-0.2-0.2-0.3-0.4-0.5-0.5c-0.6-1.3-0.4-2.4,0.5-3.5c0-9.3,0-18.7,0-28
			c1.3,0,2.7,0,4,0c0,1.7,0,3.3,0,5C949.6,525,950.1,534,949,543z"/>
		<path fill="#B53131" d="M963,478c1.7,0,3.3,0,5,0c0,1.5,0,3,0,4.7c-1.5,0.6-3.1,0.2-5,0.3C963,481.2,963,479.6,963,478z"/>
		<path fill="#B53131" d="M954,478c1.7,0,3.3,0,5,0c0,1.5,0,3,0,4.7c-1.5,0.6-3.1,0.2-5,0.3C954,481.2,954,479.6,954,478z"/>
		<path fill="#B63131" d="M973,478c1.3,0,2.7,0,4,0c0,1.5,0,3,0,4.5c-1.1,1.1-2.5,0-4,0.9C973,481.2,973,479.6,973,478z"/>
		<path fill="#B43131" d="M949,543c0-9,0-18,0-27c1.4,0,1,1.1,1,1.8c0,7,0,13.9,0,20.9c1.4,0.7,2.7,0.2,4,0.3c0,1.3,0,2.7,0,4
			C952.3,543,950.7,543,949,543z"/>
		<path fill="#2C5782" d="M799,450c-1.3,0-2.7,0-4,0s-2.7,0-4,0c-1.3-2.1-2.9-3.8-5-5c0-1.2,0-2.3,0-3.8c2.9,0,5.8,0,8.8,0
			c0-1.8,0-3.2,0-4.6c1.3-0.9,2.6-0.5,4.2-0.4C799,440.8,799,445.4,799,450z"/>
		<path fill="#264F79" d="M809,394c0,1.7,0,3.3,0,5c-1.6,0-3.2,0-5,0c0-1.8,0-3.4,0-5c0.2-0.2,0.4-0.4,0.6-0.6
			C806.2,392.7,807.6,392.8,809,394z"/>
		<path fill="#264F79" d="M790,389c1.7,0,3.3,0,5,0c1.2,1.4,1.3,2.8,0.6,4.4c-0.2,0.2-0.4,0.4-0.6,0.6c-1.7,0-3.3,0-5,0
			c-0.2-0.2-0.4-0.4-0.6-0.6C788.7,391.8,788.8,390.4,790,389z"/>
		<path fill="#264F78" d="M800,394c0,1.5,0,3,0,4.7c-1.5,0.6-3.1,0.2-5,0.3c0-1.7,0-3.3,0-5c1.4-1.2,2.8-1.3,4.4-0.6
			C799.6,393.6,799.8,393.8,800,394z"/>
		<path fill="#264F77" d="M800,389c1.3,0,2.7,0,4,0c1.3,1.7,1.3,3.3,0,5c-1.3,0-2.7,0-4,0C798.7,392.3,798.7,390.7,800,389z"/>
		<path fill="#264F78" d="M790,394c0,1.5,0,3,0,4.5c-1.1,1.1-2.5,0-4,0.9c0-2.1,0-3.8,0-5.4C787.3,392.9,788.7,392.9,790,394z"/>
		<path fill="#264F78" d="M772,408c0,1.5,0,3,0,4.7c-1.5,0.6-3.1,0.2-5,0.3c0-1.7,0-3.3,0-5C768.7,406.7,770.3,406.7,772,408z"/>
		<path fill="#265079" d="M786,445c1.1,0,2.2,0,3.3,0c2.4,1.1,1.6,3.2,1.7,5c0,0.9,0,1.9,0,2.8c0,0.7-0.1,1.2-1,1.2
			c-1.1-1.5-2.5-2.9-4-4C786,448.3,786,446.7,786,445z"/>
		<path fill="#2A5581" d="M772,408c-1.7,0-3.3,0-5,0c0-1.3,0-2.5,0-4c1.8,0,3.4,0,5,0C772,405.3,772,406.7,772,408z"/>
		<path fill="#2A5681" d="M786,450c1.3,0,2.5,0,4,0c0,1.5,0,2.7,0,4c-1.3,0-2.5,0-4,0C786,452.5,786,451.3,786,450z"/>
		<path fill="#295581" d="M790,394c-1.3,0-2.7,0-4,0c0-1.7,0-3.3,0-5c1.3,0,2.7,0,4,0C790,390.7,790,392.3,790,394z"/>
		<path fill="#295580" d="M800,389c0,1.7,0,3.3,0,5c-1.7,0-3.3,0-5,0c0-1.7,0-3.3,0-5C796.7,389,798.3,389,800,389z"/>
		<path fill="#295580" d="M804,394c0-1.7,0-3.3,0-5c1.7,0,3.3,0,5,0c0,1.7,0,3.3,0,5C807.3,394,805.7,394,804,394z"/>
		<path fill="#B23030" d="M903,497c0,13.1,0,26.2,0,39.2c0,0.9,1,2.4-1,2.8c-1.2-1.3-1.5-2.9-1.5-4.6c-0.1-11-0.1-22,0-32.9
			c0-1.3,0.2-2.7,0.9-3.9C901.7,496.9,902.3,496.7,903,497z"/>
		<path fill="#C33434" d="M903,497c-0.3,0-0.7,0-1,0c-1.4-1.6-1.3-3.2-0.2-4.9c1.7-1.5,3.5-1.4,5.2-0.1c1.4,1.7,1.4,3.3,0,5
			C905.7,497,904.3,497,903,497z"/>
		<path fill="#C23434" d="M898,539c0,1.3,0,2.7,0,4c-1.7,0-3.3,0-5,0c-1.1-1.5-2.5-2.8-4-4c-2.1,0.7-0.4,2.6-1.4,4c-1,0-2.3,0-3.6,0
			c0-1.2,0-2.3,0-3.5c-1.1-1.1-2.5,0-4-0.8c0-13.8,0-27.7,0-41.7c1.3-1.1,2.7-1.1,4.3,0.1c2,4,1,8.5,1.1,12.9
			c0.1,3.8-0.1,7.5,3.3,10.4c1.7,1.4,1.6,3.9,1.7,6.1c0.1,1.8-0.4,3.7,0.7,5.3c2.1,1.3,5,0.3,7,2.3C899.4,535.7,899.3,537.4,898,539
			z"/>
		<path fill="#C23434" d="M912,497c0,10.5,0,21.1,0,31.7c1.6,0.8,3.9-0.6,5,2.5c0,0.3,0,1.4,0,2.8c2.8,0,5.4,0,8,0c0,2.9,0,5.8,0,9
			c-1.5,0-2.7,0-4,0c-1.1-1.5-2.5-2.8-4-4c-2.1,0.7-0.4,2.6-1.4,4c-1,0-2.3,0-3.6,0c0-1.2,0-2.3,0-3.5c-1.1-1.1-2.5,0-4-0.8
			c0-13.8,0-27.7,0-41.7C909.3,495.8,910.7,495.8,912,497z"/>
		<path fill="#A72E2E" d="M912,497c-1.3,0-2.7,0-4,0c-0.3,0-0.7,0-1,0c0-1.7,0-3.3,0-5c6.3,0,12.7,0,19,0c0,1.6,0,3.2,0,5
			C921.1,497,916.6,497,912,497z"/>
		<path fill="#B43131" d="M917,539c1.3,0,2.5,0,4,0c0,1.5,0,2.7,0,4c-1.3,0-2.5,0-4,0C917,541.5,917,540.3,917,539z"/>
		<path fill="#B43131" d="M889,539c1.3,0,2.5,0,4,0c0,1.5,0,2.7,0,4c-1.3,0-2.5,0-4,0C889,541.5,889,540.3,889,539z"/>
		<path fill="#D13838" d="M898,539c0-1.5,0-3,0-4.8c-3.2-0.5-6.5,0-9.9-0.3c1.1-4.7,1.9-9.4-0.4-13.9c-1.1,0-2.1,0-3.4,0
			c-0.4-7.5,0-15.1-0.3-22.7c-1.3-0.6-2.7-0.1-3.9-0.3c0-4.5,0-9,0-13.6c1.2-0.8,2.4-0.4,3.9-0.3c0,1.5,0,2.9,0,4.6
			c1.9,0.3,3.7,0.8,5.1-1.5c0-0.7,0-1.8,0-3.1c10.6,0,21.1,0,31.7,0c0.6,1.1,0.4,2.3,0.1,3.7c-4.1,0-8.3,0-12.2,0
			c-0.6,0.6-1.1,1.1-1.6,1.6c0,1.2,0,2.3,0,3.5c-1.6,0-3.2,0-5,0c0,1.8,0,3.4,0,5c0,14,0,28,0,42C900.7,539,899.3,539,898,539z"/>
		<path fill="#C23334" d="M931,478c1.3,0,2.7,0,4,0c0,1.7,0,3.3,0,5c-1.3,1.1-2.7,1.1-4,0C931,481.3,931,479.7,931,478z"/>
		<path fill="#B53131" d="M931,483c1.3,0,2.7,0,4,0c0,1.3,0,2.5,0,4c-1.5,0-2.7,0-4,0C931,485.7,931,484.3,931,483z"/>
		<path fill="#7E2424" d="M930.9,502.4c0,2.4,0,4.8,0,7.4c-2.9,2.4-6.3,0.5-9.6,1.3c-0.6-1.7-0.3-3.2-0.3-5c1.5,0,3,0,4.4,0
			c1.1-1.6,0.2-3.3,0.8-4.9C927.9,500.8,929.6,500.5,930.9,502.4z"/>
		<path fill="#B53131" d="M945,543c0,0.3,0,0.7,0,1c-1.7,0-3.3,0-5,0c-1.3-1.7-1.3-3.3,0-5c1.3,0,2.7,0,4,0
			C945.1,540.1,943.9,541.9,945,543z"/>
		<path fill="#C23434" d="M940,539c0,1.7,0,3.3,0,5c-1.3,0-2.5,0-4,0c0-1.8,0-3.4,0-5C937.3,539,938.7,539,940,539z"/>
		<path fill="#AA2F2F" d="M945,543c-0.9,0.1-1-0.5-1-1.2c0-0.9,0-1.9,0-2.8c0.3,0,0.7,0,1,0C945,540.3,945,541.7,945,543z"/>
		<path fill="#2A5682" d="M846,408c-1.2,0-2.3,0-3.5,0c-0.1,0.1-0.3,0.2-0.4,0.3c-0.1,0.1-0.2,0.3-0.2,0.4c0,5.6,0,11.2,0,17.3
			c2.6,0,5.2,0,7.7,0c0.7,0,1.3,0,1.3,1c-4.7,2.4-9.3,2.4-14,0c0-10.7,0-21.3,0-32c2.1,0.7,0.4,2.5,1.2,3.7c1.1,0.9,2.4-0.1,3.8,0.5
			c0-2,0-3.6,0-5.2c1.3,0,2.7,0,4,0c1.2,0.6,1.5,2.1,2.5,2.8c1.2-0.1,1.2-1,1.5-1.7c0.2-0.4,0.4-0.8,0.7-1.2
			c0.4-0.3,0.9-0.2,1.2,0.2c1,0,2,0,3,0c0.2-0.1,0.4-0.2,0.6-0.4c0.4,0.2,0.8,0.4,1.1,0.8c0.6,0.9,0.5,2.3,1.8,2.6
			c1.6-0.5,1.3-2.4,2.5-3.1c1.3,0,2.7,0,4,0c0,3,0,6,0,9c-2.6,2.1-5.6,1.3-8.5,1.4c-2.4,0.1-4.9-0.2-6.5,0.3
			C847.7,405.6,847.3,407.3,846,408z"/>
		<path fill="#C2A076" d="M827,399c2.1,0.7,0.4,2.6,1.3,3.7c1,0.6,2.1,0.1,3.2,0.3c0.5,0.5,0.9,0.9,1.5,1.5c0,3.7,0,7.4,0,11.2
			c0,0.7,0,1.3-1,1.3c-1.3,0.7-2.7,0.7-4,0c0-3.6-0.1-7.3,0.1-10.9c0.1-1.3-0.9-2-1.1-3.1C825.9,401.7,825.9,400.3,827,399z"/>
		<path fill="#CCA87D" d="M828,417c1.3,0,2.7,0,4,0c-1.6,1-1.6,1-3.6,1.1c-1.4,1,0.9,3.3-1.4,3.9c-3.8-3.7-4.2-3.7-8,0
			c-1-1.6-1-1.6-1.1-3.6c-1-1.4-3.3,0.9-3.9-1.4c1.5-1.1,2.8-2.5,4-4c0-1.3,0-2.5,0-3.8c0-0.7,0.1-1.3,1-1.2c1.1,1.5,2.5,2.9,4,4
			c-0.7,2.1-2.5,0.4-3.8,1.3c-0.3,1-0.2,2.2,0.1,3.7C822.2,417,825.1,417,828,417z"/>
		<path fill="#C09E74" d="M827,399c0,1.3,0,2.7,0,4c-2.8,0-5.6,0-8.5,0c-0.8-1.1-0.4-2.4-0.3-4C821.1,399,824.1,399,827,399z"/>
		<path fill="#BF9D74" d="M819,422c0-1.2,0-2.3,0-3.9c2.5-0.3,5.1,0,7.7-0.1c0.7,1.4,0.2,2.7,0.3,4C824.3,422,821.7,422,819,422z"/>
		<path fill="#C09E74" d="M823,412c-1.3,0-2.5,0-4,0c0-1.5,0-2.7,0-4c1.3,0,2.5,0,4,0C823,409.5,823,410.7,823,412z"/>
		<path fill="#BF9D74" d="M818,413c0,1.3,0,2.5,0,4c-1.5,0-2.7,0-4,0c0-1.3,0-2.7,0-4C815.3,413,816.7,413,818,413z"/>
		<path fill="#2E5F91" d="M846,408c0.1-3,0.1-3,1.5-5c5.8,0,11.7,0,17.5,0c0,4.7,0,9.3,0,14c-4.7,0-9.3,0-14,0
			c-1.7-1.7-1-4.1-1.7-6.1C848.7,409.4,847,409.1,846,408z"/>
		<path fill="#1E3D5D" d="M846,408c1.6,0,3.2,0,5,0c0,3.2,0,6.1,0,9c-1.3,0-2.7,0-4,0c-0.9,0.1-1-0.6-1-1.2
			C846,413.2,846,410.6,846,408z"/>
		<path fill="#264F78" d="M879,445c0-1.2,0-2.3,0-3.7c1.5-0.6,3.1-0.2,4.7-0.2c0.6,1.3,0.1,2.7,0.3,3.9C882.3,445,880.7,445,879,445
			z"/>
		<path fill="#264F78" d="M889,441c1.3,0,2.5,0,4,0c0,1.5,0,2.7,0,4c-1.3,0-2.5,0-4,0C889,443.5,889,442.3,889,441z"/>
		<path fill="#264F78" d="M870,445c0-1.3,0-2.5,0-4c1.5,0,2.7,0,4,0c0,1.3,0,2.5,0,4C872.5,445,871.3,445,870,445z"/>
		<path fill="#264F79" d="M861,394c0,1.5,0,3,0,4.7c-1.5,0.6-3.1,0.2-5,0.3c0-1.7,0-3.3,0-5c1.4-1.2,2.9-2.4,4-4
			c0.9-0.1,1,0.5,1,1.2C861,392.1,861,393.1,861,394z"/>
		<path fill="#264F78" d="M851,394c0,1.5,0,3,0,4.5c-1.1,0.9-2.4,0.4-3.7,0.4c-0.4-1.7-0.9-3.3-1.3-4.9c0-0.9,0-1.9,0-2.8
			c0-0.7,0.1-1.2,1-1.2C848.1,391.5,849.5,392.8,851,394z"/>
		<path fill="#2A5682" d="M851,394c-1.3,0-2.5,0-4,0c0-1.5,0-2.7,0-4c1.2,0,2.5,0,4,0c0,1.2,0,2.1,0,3c0.3,0.2,0.3,0.4,0.3,0.7
			C851.2,393.9,851.1,394,851,394z"/>
		<path fill="#2A5681" d="M860,390c0,1.3,0,2.5,0,4c-1.5,0-2.7,0-4,0c-0.7-1.3-0.7-2.7,0-4C857.3,390,858.7,390,860,390z"/>
		<path fill="#264F79" d="M856,390c0,1.3,0,2.7,0,4c-0.3,0-0.7,0-1,0c0-0.9,0-1.9,0-2.8C855,390.5,855.1,389.9,856,390z"/>
		<path fill="#264F79" d="M851,394c0-0.3,0-0.7,0-1c0.7,0,1,0.3,1,1C851.7,394,851.3,394,851,394z"/>
		<path fill="#264F78" d="M949,445c0-1.2,0-2.3,0-3.7c1.5-0.6,3.1-0.2,4.7-0.2c0.6,1.3,0.1,2.7,0.3,3.9C952.3,445,950.7,445,949,445
			z"/>
		<path fill="#264F77" d="M959,441c1.3,0,2.5,0,4,0c0,1.5,0,2.7,0,4c-1.3,0-2.5,0-4,0C959,443.5,959,442.3,959,441z"/>
		<path fill="#CEA97D" d="M861,497c0-1.7,0-3.3,0-5c1.2,0,2.3,0,3.7,0c0.6,1.5,0.2,3.1,0.2,4.7C863.6,497.3,862.3,496.8,861,497z"/>
		<path fill="#CDA87D" d="M865,487c-1.3,0-2.5,0-4,0c0-1.5,0-2.7,0-4c1.3,0,2.5,0,4,0C865,484.5,865,485.7,865,487z"/>
		<path fill="#264F78" d="M823,366c1.7,0,3.3,0,5,0c0,1.2,0,2.3,0,3.7c-1.5,0.6-3.1,0.2-4.7,0.2C822.7,368.6,823.2,367.3,823,366z"
			/>
		<path fill="#264F78" d="M940,394c1.7,0,3.3,0,5,0c0,1.2,0,2.3,0,3.3c-1.1,2.3-3,1.7-5,1.8C940,397.2,940,395.6,940,394z"/>
		<path fill="#CEAA7E" d="M841,455c0.3,0,0.7,0,1,0c0,1.3,0,2.5,0,3.7c1.7,0.8,3.6-0.4,4.5,1.3c1,1.4,0.2,2.6,0.7,4.1
			c-2,0-3.6,0-5.2,0c0-1.2,0-2.3,0-3.6c-1.3-0.9-2.8-0.2-4.2-0.5c-0.5-0.1-0.9-0.4-0.8-1C838.5,457.9,839.9,456.5,841,455z"/>
		<path fill="#CFAA7F" d="M842,455c0-1.7,0-3.3,0-5c1.5,0,3,0,4.7,0c0.6,1.5,0.2,3.1,0.3,5C845.2,455,843.6,455,842,455z"/>
		<path fill="#CDA97D" d="M837,446c1.7,0,3.3,0,5,0c0,1.3,0,2.7,0,4c-1.7,0-3.3,0-5,0C837,448.7,837,447.3,837,446z"/>
		<path fill="#1D3C5C" d="M837,427c4.7,0,9.3,0,14,0c0,1.3,0,2.7,0,4c-0.3,1.9-2.1,1.2-2.7,0.9c-3.7-1.7-7.6-0.6-11.3-0.9
			C837,429.7,837,428.3,837,427z"/>
		<path fill="#2A5581" d="M837,445c0-1.3,0-2.7,0-4c-1.3-1.7-1.3-3.3,0-5c1.7,0,3.3,0,5,0c1.3,1.4,1.4,3.1,1.3,4.9
			c0,1.5-0.3,2.9-1.3,4.1C840.3,445,838.7,445,837,445z"/>
		<path fill="#264F79" d="M842,441c0-1.7,0-3.3,0-5c1.3,0,2.7,0,4,0c1.1,1.4,1,3.1,1,5c1.5,0,2.7,0,4,0c1.2,1.3,1,2.7,0,4
			c-1.7,0-3.3,0-5,0C844.8,443.5,843.5,442.2,842,441z"/>
		<path fill="#264F78" d="M837,436c0,1.7,0,3.3,0,5c-1.3,0-2.7,0-4,0c0-1.6,0-3.2,0-5C834.5,436,835.7,436,837,436z"/>
		<path fill="#CEA97D" d="M841,455c0,1.3,0,2.5,0,4c-1.5,0-2.7,0-4,0c0-1.3,0-2.7,0-4C838.3,455,839.7,455,841,455z"/>
		<path fill="#2A5581" d="M851,445c0-1.3,0-2.7,0-4c1.7-1.3,3.3-1.3,5,0c0,1.3,0,2.7,0,4C854.3,445,852.7,445,851,445z"/>
		<path fill="#2A5681" d="M842,441c1.3,0,2.5,0,4,0c0,1.5,0,2.7,0,4c-1.3,0-2.7,0-4,0C842,443.7,842,442.3,842,441z"/>
		<path fill="#264F78" d="M856,441c-1.7,0-3.3,0-5,0c0-1.5,0-3,0-4.7c1.5-0.6,3.1-0.2,5-0.3C856,437.8,856,439.4,856,441z"/>
		<path fill="#A12D2D" d="M924.9,493.2c0,0.9,0,1.7,0,2.7c-5.6,0-11.2,0-16.8,0c0-0.9,0-1.7,0-2.7
			C913.7,493.2,919.3,493.2,924.9,493.2z"/>
	</g>
</g>
</svg>
