<?xml version="1.0" encoding="utf-8"?>
<!-- Generator: Adobe Illustrator 18.1.1, SVG Export Plug-In . SVG Version: 6.00 Build 0)  -->
<svg version="1.1" id="Camada_1" xmlns="http://www.w3.org/2000/svg" xmlns:xlink="http://www.w3.org/1999/xlink" x="0px" y="0px"
	 viewBox="0 0 727 793" enable-background="new 0 0 727 793" xml:space="preserve">
<g>
	<g>
		<path fill="#FEFEFE" d="M729.2,794.5c-242.6,0-485.1,0-727.7,0c0-264.3,0-528.7,0-793c242.6,0,485.1,0,727.7,0
			C729.2,265.9,729.2,530.2,729.2,794.5z M490.7,314.5c0-1,0-2,0-3c0-2,0-4.1,0-6.1c-0.2-0.9,0.4-2-0.8-3c-3.6,0-7.5,0-11.4,0
			c0-4.1,0-8.1,0-12.2c7.5,0,15,0,22,0c1-1,1.6-1.6,2.1-2.1c0.2-8.4,0.2-8.4,2.5-11.8c7.6,0,15.6,0,23.7,0c0-4.2,0-8,0-11.7
			c4.1-0.7,8.1,0.4,12.2-0.7c0-4,0-7.7,0-11.7c4,0,7.7,0,12,0c0-4.1,0-8.1,0-12.2c4.6,1,7.8-2.4,12.1-1.2c0-3.9,0-7.2,0-10.4
			c0-1,0-2.1,1.5-2c4,0,8,0,12.2,0c0-8.3,0-16.1,0-24.4c4.2,0,8.1,0,12.2,0c0-16.9,0-33.3,0-50.2c4.2,0,8.1,0,11.8,0
			c0-8.3,0-16.1,0-24.1c-4.3,0-8.3,0-12.3,0c-3.9,0-7.9,0.1-11.8-0.1c0-4.2,0-7.8,0-11.3c-0.7-0.7-1.5-1.5-2.4-2.4
			c-3.5,0-7.2,0-11.4,0c0-4.2,0-8.1,0-12.2c-4.3,0-8,0-12,0c0-4,0-7.7,0-12c-4.2,0-8.1,0-12.2,0c0-4.3,0-8,0-12.2
			c-4.2,0-8.1,0-12.2,0c0-4.3,0-8,0-11.4c-0.8-0.8-1.3-1.3-2.1-2.1c-16,0-32.2,0-48.4,0c-10.6,0-21.3,0-31.9,0c-2,0-4.1-0.2-5.8,3
			c0,2.8,0,6.8,0,10.9c-12.4,0-24.2,0-36.3,0c0,3.5,0,6.7,0,10c-4.1,3.8-9.4,0.6-13.9,2.6c0,12.4,0,24.7,0,37.1
			c-4.1,0.8-8.2-0.5-12.2,0.9c0,8,0,15.8,0,23.8c-4,0-7.7,0-11.5,0c0,20.9,0,41.5,0,62.4c4.1,0,7.8,0,11.8,0c0,4.5,0,8.8,0,13.1
			c0,4.2,0,8.4,0,12.6c4.6,0,8.4,0,12.2,0c0,4,0,7.9,0,12.4c4.9,0,9.3,0,13.9,0c0,4.2,0,8,0,11.6c4.1,0.9,8.1-0.5,11.9,0.8
			c0,4.5,0,8.8,0,13.1c-8.5,0-17,0-26.1,0c0-4.4,0-8.3,0-12.2c-4.3,0-8.1,0-11.9,0c-4,0-8,0-11.4,0c-1.1-1.1-1.6-1.6-2.4-2.4
			c0-7.5,0-15.3,0-23.6c-4.2,0-8.1,0-12.2,0c0-4.3,0-8,0-12.2c-4.2,0-8.1,0-12.2,0c0-4.3,0-8,0-11.4c-0.8-0.8-1.3-1.3-2.1-2.1
			c-3,0-6.2,0-9.6,0c0-3.5,0-6.7,0-9.6c-1-1-1.7-1.7-2.4-2.4c-3.8,0-7.6,0-11.4,0c0-16.6,0-33.2,0-50.3c-4.3,0-8.2,0-12.3,0
			c0-29.5,0-58.5,0-88c-4.1,0-8,0-12.1,0c0-4.2,0-8,0-12.1c-16.9,0-33.5,0-50.1,0c-4,0-7.9,0-12.3,0c0,4.3,0,8.2,0,11.9
			c-4.7,1-9.4-1.4-13.5,2.2c0,12,0,24,0,36c-4,0-8,0-12.2,0c0,16.7,0,32.8,0,49c0,0.2,0.1,0.5,0.2,0.7c0.1,0.2,0.3,0.4,0.5,0.5
			c3.9,0,7.7,0,11.4,0c0,9,0,18,0,27c0,3.4-0.3,6.8,2.4,9.4c3.8,0,7.5,0,11.3,0c0,0.5,0,1,0,1.5c0,8,0,15.9,0,24.3
			c4.3,0,8.2,0,12.2,0c0,4.6,0,9.1,0,13.7c-8.5,0-17,0-26,0c0,4.3,0,8.2,0,12.3c-4.2,0-7.9,0-12,0c0,8.2,0,16.2,0,24.2
			c0,0.5,0,1,0,1.5c-8,0-16,0-24.6,0c0,4.4,0,8.3,0,12.4c-4.3,0-8,0-11.5,0c0,20.8,0,41.4,0,62.2c4.1,0,7.8,0,12,0
			c0,4.2,0,8.1,0,11.9c4.3,0,8.1,0,11.9,0c0,3.9,0,7.9,0,12.3c8.3,0,16.2,0,24.6,0c0,4.3,0,8.2,0,12.1c4.9-0.7,8.9,2.7,13.4,1.4
			c0,4,0,7.9,0,11.8c16.5,0,32.5,0,48.7,0c0-4,0-7.7,0-11.8c12.8,0,25.3,0,37.9,0c0,1.1,0.5,1.6,1.5,1.5c0,12.1,0,24.1,0,36.4
			c-4.2,0-7.9,0-11.4,0c-2.3,2.9-2.3,6.1-2.3,9.3c0.1,25.8,0,51.6,0,77.3c0,0.5,0,1,0,1.5c-4,0-7.9,0-12.2,0c0,12.5,0,24.5,0,36.5
			c0,4,0,8,0,12.2c-4.2,0-8,0-12,0c0,4,0,7.7,0,11.2c-1,1-1.7,1.7-2.7,2.7c-3,0-6.2,0-9.6,0c0,3.5,0,6.7,0,9.1
			c-1.1,1.4-1.7,2.2-2.4,3.1c-7.8,0-15.5,0-23.5,0c0,4,0,7.8,0,12c-4.2,0-8.1,0-12.2,0c0,4.3,0,8,0,12c-4,0-7.7,0-10.8,0
			c-1.3,1-2,1.7-3,2.5c0,7.8,0,15.5,0,23.5c-4,0-7.8,0-12,0c0,4.2,0,8.1,0,12.2c-4.3,0-8,0-12.2,0c0,4.2,0,8.1,0,12.2
			c-4.3,0-8,0-12,0c0,4,0,7.7,0,11.2c-0.8,0.8-1.3,1.3-2.4,2.4c-3.4,0-7.3,0-11.4,0c0,4.3,0,8,0,12.2c-4.2,0-8.1,0-12,0
			c0,4.3,0,8.1,0,11.9c0,4.1,0,8.1,0,12.2c-20.7,0-41.3,0-62.4,0c0.3,4.9-0.2,9.3,0.3,13.7c8.4,0,16.2,0,24.1,0c0,3.9,0,7.9,0,12.2
			c4.8,0,9.2,0,13.7,0c0,4,0,8,0,12.2c4.2,0,8,0,11.9,0c0,4.7,0,9.1,0,13.2c-3,1.7-4.7-1.3-7.2-1.2c-22.7,0.7-45.6-1.4-68.3,2
			c0,3.8,0,7.5,0,11.7c33.5,0,66.8,0,100.1,0c4.1,0,8.1,0,12.2,0c0.5,0,1,0,1.5,0c0,4,0,7.9,0,11.8c16,0,31.5,0,46.6,0
			c3.9-3.5,3.7-7.7,3.6-11.8c0-1,0-2,0-3c0-0.5,0-1,0-1.5c0-1,0-2,0-3s0-2,0-3c0-7.1,0-14.2,0-21.3c0-0.5,0-1,0-1.5c0-1.5,0-3,0-4.6
			c0-4,0-8,0-12.2c4.3,0,8,0,12.2,0c0-8.7,0-17.2,0-25.9c4.3,0,8,0,12.2,0c0-4.2,0-8.1,0-12.2c4.3,0,8,0,12.2,0c0-4.2,0-8.1,0-12.2
			c4.3,0,8,0,11.4,0c0.8-0.8,1.3-1.3,2.1-2.1c0-3.5,0-7.2,0-11.4c4.2,0,8.1,0,12.2,0c0-4.3,0-8,0-12.2c4.2,0,8.1,0,12.2,0
			c0-4.3,0-8,0-12c8,0,15.8,0,23.6,0c3.9-4.1,0.6-9.4,2.6-13.8c7.8,0,15.6,0,23.9,0c0-4.2,0-8.1,0-11.7c34.1,0,67.7,0,101.2,0
			c1.9,4.2-1.4,7.7-1.1,11.8c4,0,7.8,0,11.2,0c1,1,1.7,1.7,2.7,2.7c0,3.5,0,7.2,0,11.2c8,0,15.8,0,24.1,0c0,4.2,0,8.1,0,12.2
			c4.3,0,8,0,12,0c0,3.5,0,6.7,0,9.3c1.6,1.8,2.8,3.1,4.1,4.6c2.6,0,5.3,0,8.1,0c0,6.6,0.1,12.9-0.1,19.2c0,2,0.6,3.3,2.7,5
			c3.2,0,7.1,0,11,0c0,17,0,33.4,0,49.9c0,12.7,0,25.3,0,38c0,3.5,0,6.9,0,9.7c6.1,3.2,12.1,2.4,18,2.4c12.9,0,25.7,0.1,38.6,0
			c1.9,0,4,0.7,5.7-0.7c0-3.9,0-7.7,0-11.4c33.9,0,67.7,0,101.6,0c0-4.3,0-8,0-11.3c-1.5-3-4-2.4-6.2-2.3c-19,0.6-38-1.3-57.2,1.2
			c0-4.4,0-8.8,0-13.5c4,0,7.7,0,12,0c0-4.2,0-8.1,0-12.2c13.4,0,26.2,0,39,0c0-4.2,0-8.1,0-12c-4.2,0-8,0-11.8,0
			c0-4.5,0-8.9,0-13.7c-17.5,0-34.6,0-51.7,0c0-8,0-16,0-24.3c-4.2,0-7.9,0-12.3,0c-3.2-8.4-0.2-17.3-1.8-25.9c-3.9,0-7.6,0-11.9,0
			c0-4.1,0-8.1,0-12.2c-4.2,0-8,0-12.2,0c0-8.2,0-16.2,0-24.3c-4.2,0-8,0-11.9,0c0-4,0-7.7,0-11.3c-4-4.3-9.3-0.8-13.8-2.9
			c0-7.6,0-15.4,0-23.7c-4.1,0-8.1,0-12.2,0c0-4.2,0-8,0-11.9c-3.5,0-6.7,0-9.6,0c-1-1-1.7-1.7-2.7-2.7c0-3.5,0-7.2,0-11.1
			c-4.5,0-8.8,0-13,0c-4.2,0-8.4,0.1-12.5-0.1c0-4.5,0-8.3,0-12.1c0-8,0-16,0-24.6c-4.4,0-8.3,0-12.2,0c0-4.1,0-7.6,0-11.1
			c-0.7-0.7-1.4-1.4-2.4-2.4c-3,0-6.2,0-9.4,0c0-4.2,0-8.1,0-12.2c4.1,0,7.8,0,12,0c0-16.8,0-33.3,0-50.1c4.2,0,7.9,0,12.2,0
			c0-4.2,0-8.1,0-11.8c4.8,0,9,0,13.7,0c0,8.2,0,16.1,0,24.3c4.2,0,8,0,12.2,0c0,4.2,0,8.1,0,11.9c4.3,0,8.1,0,11.9,0
			c4.1,0,8.1,0,12.2,0c1,0,2,0,3,0s2,0,3,0c1.5,0,3,0,4.6,0c0.9,0.2,2-0.5,3.3,1.1c0,3.8,0,8.2,0,12.8c4.2,0,7.9,0,12.1,0
			c0,4.1,0,8,0,12.1c4.2,0,7.9,0,12,0c0,8.7,0,17.2,0,25.7c-3.9,0-7.9,0-12.2,0c0,4.3,0,8.2,0,12.2c-4,0-7.9,0-11.9,0
			c0,12.9,0,25.4,0,38.3c4.2,0,8,0,11.9,0c0,3.8,0,7,0,10.3c0.1,2.3,1.9,1.3,3,1.5c11.5,0,23,0,34.9,0c0-4.2,0-8.2,0-12.2
			c3.5,0,6.9,0,9.9,0c1.1-1.1,1.6-1.6,2.1-2.1c0-11.8,0-23.6,0-35.7c-3.9,0-7.6,0-11.1,0c-1-1-1.7-1.7-2.6-2.6
			c1-3.6-1.8-7.9,2.5-11.3c3.4,0,7.1,0,11,0c0-16.3,0-32.3,0-48.6c-4,0-7.7,0-9.7,0c-4.2-1.3-3.7-3.5-3.7-5.5c0-10.8,0-21.6,0-32.6
			c-4.3,0-8.1,0-12.3,0c0-8.2,0-16.1,0-23.9c-4.2-1.3-8.6,1.6-12.3-3c0-3.2,0-7.1,0-11c-4.3,0-8.1,0-11.9,0c0-2.5,0-5.1,0-7.6
			c0-5.1,0-10.1,0-15.2c0-1.1-0.5-1.6-1.5-1.5c-4,0-8,0-12,0c-4.1,0-8.3,0.1-12.4-0.1c0-1.4,0-2.2,0-2.9c0-3.4,0-6.9,0-10.6
			c-7.9,0-15.3,0-22.8,0c-0.5,0-1,0-1.5,0c0-3.9,0-7.9,0-12.2c-4.8,0-9.2,0-13.7,0c0-0.5,0-1,0-1.5c0-7.5,0-14.9,0-22.8
			c-6.5,0-12.7-0.2-18.9,0.1C493.9,316.2,492.4,315.3,490.7,314.5z"/>
		<path fill="#2E6090" d="M553,363.1c0,0.7,0,1.5,0,2.9c4.1,0.2,8.2,0.1,12.4,0.1c4,0,8,0,12,0c0,1.1,0.5,1.6,1.5,1.5
			c0,5.1,0,10.1,0,15.2c-2.5,0-4.9,0-7.2,0c-1.8,2.8-3.4,5.2-5,7.6c-1.5-0.1-1.5,0.9-1.5,1.9c-0.2,3.4,0.4,6.9-0.4,10.2
			c-4.2,0-8,0-11.8,0c-0.9-0.2-1.5,0.4-1.5,1.2c-0.1,2.3,0,4.5-0.1,6.8c0,0.4-0.5,0.8-0.8,1.1c-0.5,0-1,0-1.5,0
			c-1.4-0.5,0.1-3.4-3.1-2.9c-1.1,1.7-4.3,2.5-3.7,6c-0.5,0-1,0-1.5,0c-1.6-0.1-1.9,1.5-3.2,2.2c1,3.9-1.2,7.4-1.9,11.2
			c-3,1.3-4.7-1.5-7.3-2.1c1.1-4.2-1.1-7.6-1.9-11.6c-3.4,0-6.6,0-10.4,0c-2.8-15.6-0.5-31.1,0.5-45.9c-1.2-1.2-1.7-1.7-2.3-2.3
			c-3.2,0-6.4,0-10.1,0c0.7,8.3-2.5,16-1.5,24.4c-4.4,0-8.1,0-12.1,0c0,12.1,0,23.9,0,35.4c-3.4,4.6-8.4,0.9-12.2,3.1
			c0,0.9,0,1.9,0,2.9c0,13.7,0,27.3,0,41c0,2.1,0.1,4.1-2.3,5.4c-2.4,0-5.1,0-6.9,0c-2-1.6-3.4-2.6-4.9-3.8c0-2.9,0-5.5,0-7.9
			c-8.2,0-15.9,0-23.8,0c0.5,2.6-1.2,4.3-1.8,6.5c2.3,1.1,1.3,4.8,4.8,5.5c1.2,0.5,1.4-1.7,2.8-1.6c1.2-0.2,1.6,0.9,2.8,1.8
			c4.9,0,10.1,0,15.4,0c0.2,3.5-0.5,7.1,0.7,9.8c2.1,5,0.3,9.9,1,14.7c-3.3,4-1.1,7.7,0.5,11.4c1.9-0.4,2.7,2,4.6,1.8
			c1.7-0.2,3.4,0,4.6,0c2.9,3.3,2.3,6.8,2.4,9.9c3.5,4.3,8.4,0.8,12.3,3c-0.7,3.7,1.1,7.8-1.7,11.4c-4.1,0-8.1,0-12.2,0
			c-3.2-2.1-7.4-2.1-10.6,0c-2,0-4.1,0-6.1,0c-0.2-1.4,0.5-3-0.5-4.3c-4.9,1.5-4.9,1.5-8.6,5.6c-0.5,7.1-1.3,8.3-6.9,9.5
			c-1.2-1.2-2.6-2.6-3.8-3.9c0.2-2.8,0.5-5.4-2.5-6.8c-3.6,0-7.4,0.4-11.2-0.1c-7.5-0.9-14.6,2.4-22,1.5c-0.8-0.8-1.5-1.5-2.5-2.5
			c0-3.5,0-7.2,0-11.4c-4.1,0-8,0-12.2,0c0-4.3,0-8,0-11.5c-8.1-1.5-16.5,1.7-24.4-2.6c0-3.4,0-6.6,0-9.8c-4.8,0.4-8.8-2.7-13.3-1.6
			c0-1,0-2,0-3c0.9-0.2,2,0.5,2.8-0.5c0.9-24.1,0.5-130.6-0.5-131.6c-0.8,0-1.5,0-2.3,0c0-2,0-4.1,0-6.1c2.5-0.3,0.7,2.7,2.9,3.1
			c2.1-0.6,4.4,0.1,6.3,1.6c2.4-2.4,5.2-1.6,7.9-1.7c2.9-0.1,5.9-0.1,8.8-0.2c0-8.5,0-16.3,0-24.1c4,0,8,0,12.2,0
			c0-20.5,0-40.4,0-60.5c6.7,0,13.1,0,19.6,0c0.1,2,0.2,3.7,0.3,5.1c1.1,1.5,2.7,2.1,2.9,3.8c0.3,1.5-2,1.7-1.5,3.2
			c2.6,3.3,1.3,7.1,1.5,10.8c0.2,3.9,0,7.9,0,11.8c1.5,0,2.3,0,3,0c1.6,4,5.5,3.9,8.9,5c0,4.1,0,8.3,0,13.2
			c-0.3,1.9-4.5,0.2-4.5,3.9c2.5,0.7,5.1,1.4,7.7,2.2c0,0.5,0,1,0,1.5c0.2,0.9-0.4,2,0.5,2.8c2.8,0.8,5.8-0.5,8.5,0.8
			c0.6,2.9-0.5,5.9,0.6,8.6c1.1,0,1.8,0,2.6,0c0,10.9,0,21.7,0,32.6c0,2.1,0.1,4,2.2,5.2c3.1,0,6.3,0,10.1,0
			c-0.8-14.7,0.4-29.1,3.5-43.7c0.7-0.6,1.5-1.6,3.3-1.9c2.8-0.4,5.6-1.3,6.8-4.4c0-0.5,0-1,0-1.5c2.1,0,1.5-1.6,1.5-2.7
			c0-8.3,0-16.7,0.1-25c0-1.9-0.8-4,0.7-5.7c7.4,0,14.7,0,22.1,0c0,2,0,4.1,0,6.1c-0.9,0.2-2-0.5-2.8,0.5c-1,3,1.1,2.5,2.8,2.5
			c0.2,0.9-0.5,2,0.7,2.9c6.5,0,13.2,0,19.7,0c0.9,0.9,1.6,1.6,2.4,2.4c0,5.6,0,11.3,0,17.1c0,1,0.1,2,1.5,1.9c0,0.5,0,1,0,1.5
			c-0.2,0.9,0.4,1.5,1.1,1.5c2.4,0.1,4.9,0,7.2,0c0.8,0.8,1.5,1.5,2.2,2.2c0.5,2.8-0.5,5.7,0.5,8.4c1.1,0,1.9,0,2.6,0
			c0.5,0,1,0,1.5,0c0.2,1.4-0.5,3,0.8,4.8c6.1-1.2,12.5-2.8,18.7-1.4c1.2,2.4-1.8,2.7-1.1,5.1C549.6,361.8,550.4,363.8,553,363.1z
			 M416.8,365.9c4,0,7.7,0,11.3,0c0-4.7,0-9,0-13.2c-4.6,0-8.8,0-13.1,0c0,3.9,0,7.6,0,11.3C415.4,364.6,416,365.1,416.8,365.9z"/>
		<path fill="#313C46" d="M460.3,540.8c2,0,4.1,0,6.1,0c3.5,0,7.1,0,10.6,0c4.1,0,8.1,0,12.2,0c4.6,0,9.1,0,13.7,0
			c0,3.8,0,7.6,0,12.1c4.1,0.2,8.3,0.1,12.5,0.1c4.3,0,8.5,0,13,0c0,3.9,0,7.7,0,11.1c1,1,1.7,1.7,2.7,2.7c3,0,6.2,0,9.6,0
			c0,4,0,7.7,0,11.9c4.1,0,8.1,0,12.2,0c0,8.3,0,16,0,23.7c4.5,2.1,9.8-1.4,13.8,2.9c0,3.6,0,7.3,0,11.3c4,0,7.7,0,11.9,0
			c0,8.2,0,16.1,0,24.3c4.2,0,7.9,0,12.2,0c0,4.1,0,8.1,0,12.2c4.2,0,8,0,11.9,0c1.6,8.6-1.4,17.5,1.8,25.9c4.3,0,8,0,12.3,0
			c0,8.3,0,16.3,0,24.3c-4.4,0-8.9,0-13.7,0c0,3.8,0,7.2,0,10.6c-1.1,0-1.6,0.5-1.5,1.5c-7.6,0-15.2,0-22.8,0c0-3.5,0-7,0-10
			c-1.2-1.1-2-1.7-2-1.7c-2.4-1-2.6,1.4-4.3,1c-1.4-1.6-3.8-1.2-5.6-1.9c-1.3-3.8,1.8-8.3-2.6-11.7c-2.9,0-6.1,0-9.1,0
			c-3.6-3.3-2.7-7-1.5-10.5c0.4-1.2,1.2-2.7,0.6-3.4c-2.6-3.1-0.7-6.7-1.8-10.2c-3.2,0-6.4,0-9.3,0c-1-1-1.7-1.7-2.7-2.7
			c0-7.5,0-15.3,0-23.6c-4.2,0-8.1,0-12.2,0c0-4.3,0-8,0-12c-4,0-7.7,0-12,0c0-4.2,0-8.1,0-11.8c-4.8-1.1-9.6,1.5-13.6-2.3
			c0-3.2,0-6.5,0-9.7c-3.6-3.3-7.8-1.7-11.6-1.9c-4.2-0.3-8.4-0.1-12.4-0.1c0-4.4,0-8.2,0-12.1c3.4,0,6.7,0,9.5,0
			c4.1-2.9,1.7-6.7,2.5-9.8c-0.9-0.9-1.6-1.6-2.1-2.1c-12.1,0-23.9,0-36,0c0,4,0,7.7,0,11.7c-45.5,0-90.8,0-135.7,0
			c-1,1-1.7,1.7-2.7,2.7c0,3,0,6.2,0,9.7c-3.5,0-6.7,0-9.7,0c-0.8,0.8-1.3,1.3-2.4,2.4c0,2.9,0,6.3,0,9.8c-4.6,0-8.6,0.4-12.6-0.1
			c-4.1-0.5-7.3,2.6-11.6,1.4c0,3.9,0,7.2,0,10.4c-4.1,3.9-9.4,0.6-13.9,2.6c0,3.8,0,7.5,0,11.8c-4.2,0-8.1,0-12.2,0c0,4.3,0,8,0,12
			c-4,0-7.7,0-11.7,0c0,4,0,7.7,0,12.2c-1.9-0.7-3,0.3-4.2,1.7c-2.5,0-5.2,0-8.2,0c0.3,8.1,0.2,16-2.1,24c-3,0-6.2,0-8.9,0
			c-1.1,1-1.9,1.7-2.9,2.6c0,3.1,0,6.3,0,9.5c-12.1,0-23.9,0-36,0c0-3.4,0-6.6,0-9.6c-1-1-1.7-1.7-2.4-2.4c-7.8,0-15.7,0-23.5,0
			c0-3.8,0-7.6,0-11.9c3.9,0,7.8,0,12,0c0-4.2,0-8,0-12.2c4.1,0,8.1,0,11.4,0c1.1-1.1,1.6-1.6,2.4-2.4c0-3.5,0-7.2,0-11.2
			c4,0,7.7,0,12,0c0-4.1,0-8.1,0-12.2c4.2,0,8,0,12.2,0c0-4.1,0-8.1,0-12.2c4.2,0,8,0,12,0c0-8,0-15.8,0-23.5c0.9-0.8,1.7-1.4,3-2.5
			c3.1,0,6.8,0,10.8,0c0-4,0-7.7,0-12c4.1,0,8.1,0,12.2,0c0-4.2,0-8,0-12c8,0,15.8,0,23.5,0c0.7-1,1.4-1.8,2.4-3.1
			c0-2.4,0-5.7,0-9.1c3.5,0,6.7,0,9.6,0c1-1,1.7-1.7,2.7-2.7c0-3.5,0-7.2,0-11.2c4,0,7.7,0,12,0c0-4.2,0-8.2,0-12.2
			c4.1,0,8.1,0,12.2,0c4.1,0,8.1,0,12.2,0c8.6,0,17.2,0,25.8,0c16.6,0,33.3,0,50.2,0c0,4.3,0,8,0,12.2c1.7,0,3.2,0,4.6,0
			c12.7,0,25.3,0.3,38-0.1c6-0.2,11.5,3.2,17.1,1.4c1.5-1.3,2.8-2.5,4.1-3.5c0-2.7,0-5.3,0-7.7c0.8-0.8,1.5-1.5,2.2-2.2
			C457.8,540.8,459,540.8,460.3,540.8z"/>
		<path fill="#1F1D1B" d="M390.4,240c-3.8,0-7.6,0-12.2,0c0-4.2,0-8.4,0-12.6c0-4.3,0-8.5,0-13.1c-4,0-7.8,0-11.8,0
			c0-20.9,0-41.5,0-62.4c3.8,0,7.5,0,11.5,0c0-8,0-15.8,0-23.8c4.1-1.3,8.1,0,12.2-0.9c0-12.3,0-24.7,0-37.1c4.5-2,9.7,1.2,13.9-2.6
			c0-3.2,0-6.5,0-10c12.1,0,23.9,0,36.3,0c0-4.1,0-8.1,0-10.9c1.7-3.2,3.8-3,5.8-3c10.6,0,21.3,0,31.9,0c16.2,0,32.4,0,48.4,0
			c0.7,0.7,1.2,1.2,2.1,2.1c0,3.4,0,7.2,0,11.4c4.1,0,8.1,0,12.2,0c0,4.3,0,8,0,12.2c4.2,0,8.1,0,12.2,0c0,4.3,0,8,0,12
			c4,0,7.7,0,12,0c0,4.1,0,8.1,0,12.2c4.2,0,8,0,11.4,0c1,1,1.7,1.7,2.4,2.4c0,3.5,0,7.1,0,11.3c3.9,0.2,7.9,0.1,11.8,0.1
			c4,0,8,0,12.3,0c0,8,0,15.8,0,24.1c-3.7,0-7.6,0-11.8,0c0,16.9,0,33.3,0,50.2c-4.1,0-8.1,0-12.2,0c0,8.3,0,16.1,0,24.4
			c-4.2,0-8.2,0-12.2,0c0-4.3,0-8.6,0-12.8c0-4.3,0.1-8.6,0-12.8c-0.2-4,1-8.2-1-12.1c1.4-0.7,1-2.1,1.1-3.3c0-2.5,0-4.9,0-7.6
			c-4.2,0-8,0-11.4,0c-0.8-0.8-1.3-1.3-2.4-2.4c0-3.4,0-7.3,0-11.3c-12.8,0.4-25.2-0.5-37.5,0.5c-0.4,0-0.7,0.7-1.1,1
			c-0.4-0.3-0.7-0.9-1.1-1c-15.6-1.1-31.2-0.2-46.8-0.5c0-2.9,0-5.9,0-8.8c0-1-0.1-2-1.5-1.9c0-1.1-0.5-1.6-1.5-1.5
			c-2,0-4.1,0-6.1,0c-1.5,0-3,0-4.6,0c0-3.9,0-7.9,0-12.2c-6.9,0-13.3,0-19.7,0c-1.4,0-2.8,0-4.6,0c0,4.3,0,8.2,0,12.2
			c0,4.1,0,8.1,0,12.2s0,8.1,0,12.2c0,0.5,0,1,0,1.5c0,4,0,7.9,0,11.8c-4.9,0-9.3,0-13.9,0c0-8.1,0-15.9,0-24c-3,1-4.9-1.7-7.8-1.5
			c-4.8,0.3-9.6,0.1-14.4,0.1c-1,0-2.1,0-1.9,1.5c0,0.5,0,1,0,1.5c0,3.5,0,7.1,0,10.6c-4,0-8,0-12.2,0c0,4.5-0.1,8.5,0,12.5
			c0.1,3.9-0.3,7.9,0.2,11.8c4.3,0,8.1,0,11.9,0c0,3.9,0,7.9,0,12.2c4.3,0,8.2,0,12.2,0c0,4.5,0,9,0,13.4c-4.3,0.8-8.4-0.4-12.2,0.8
			C390.4,232.5,390.4,236.2,390.4,240z"/>
		<path fill="#272D35" d="M151.9,691.2c7.8,0,15.7,0,23.5,0c0.7,0.7,1.4,1.4,2.4,2.4c0,2.9,0,6.2,0,9.6c12.1,0,23.9,0,36,0
			c0-3.2,0-6.4,0-9.5c1-0.9,1.7-1.5,2.9-2.6c2.7,0,6,0,8.9,0c2.3-8,2.4-15.8,2.1-24c3,0,5.7,0,8.2,0c1.2-1.4,2.2-2.4,4.2-1.7
			c0-4.5,0-8.2,0-12.2c4,0,7.7,0,11.7,0c0-4,0-7.7,0-12c4.2,0,8.1,0,12.2,0c0-4.3,0-8,0-11.8c4.5-2,9.8,1.3,13.9-2.6
			c0-3.2,0-6.4,0-10.4c4.2,1.2,7.5-1.9,11.6-1.4c4,0.4,8.1,0.1,12.6,0.1c0-3.5,0-6.9,0-9.8c1.1-1.1,1.6-1.6,2.4-2.4
			c2.9,0,6.2,0,9.7,0c0-3.5,0-6.7,0-9.7c1-1,1.7-1.7,2.7-2.7c45,0,90.2,0,135.7,0c0-4,0-7.7,0-11.7c12.1,0,23.9,0,36,0
			c0.5,0.5,1.2,1.2,2.1,2.1c-0.7,3.1,1.6,6.9-2.5,9.8c-2.8,0-6.1,0-9.5,0c0,4,0,7.7,0,12.1c4,0,8.2-0.2,12.4,0.1
			c3.8,0.2,8-1.4,11.6,1.9c0,3.2,0,6.5,0,9.7c4,3.7,8.8,1.2,13.6,2.3c0,3.7,0,7.7,0,11.8c4.3,0,8,0,12,0c0,4,0,7.7,0,12
			c4.2,0,8.1,0,12.2,0c0,8.3,0,16.1,0,23.6c1,1,1.7,1.7,2.7,2.7c3,0,6.2,0,9.3,0c1,3.5-0.8,7.2,1.8,10.2c0.6,0.7-0.2,2.2-0.6,3.4
			c-1.2,3.5-2.1,7.2,1.5,10.5c3,0,6.2,0,9.1,0c4.3,3.4,1.2,7.9,2.6,11.7c1.9,0.7,4.2,0.3,5.6,1.9c1.7,0.3,1.9-2,4.3-1
			c0,0,0.7,0.6,2,1.7c0,3.1,0,6.5,0,10c0,4,0,7.9,0,12.3c-13.1-1.4-25.5,2.3-38.1,1.4c-4-0.3-8,0-12,0c0-16.4,0-32.9,0-49.9
			c-3.9,0-7.8,0-11,0c-2.1-1.7-2.8-3.1-2.7-5c0.1-6.3,0.1-12.6,0.1-19.2c-2.8,0-5.5,0-8.1,0c-1.4-1.5-2.5-2.8-4.1-4.6
			c0-2.6,0-5.8,0-9.3c-4,0-7.7,0-12,0c0-4.1,0-8.1,0-12.2c-8.3,0-16.1,0-24.1,0c0-4,0-7.7,0-11.2c-1-1-1.7-1.7-2.7-2.7
			c-3.5,0-7.2,0-11.2,0c-0.3-4.1,3-7.6,1.1-11.8c-33.5,0-67,0-101.2,0c0,3.6,0,7.5,0,11.7c-8.3,0-16.1,0-23.9,0
			c-2,4.5,1.3,9.7-2.6,13.8c-7.8,0-15.6,0-23.6,0c0,4,0,7.7,0,12c-4.1,0-8.1,0-12.2,0c0,4.2,0,8,0,12.2c-4.1,0-8.1,0-12.2,0
			c0,4.2,0,8,0,11.4c-0.8,0.8-1.3,1.3-2.1,2.1c-3.4,0-7.2,0-11.4,0c0,4.1,0,8.1,0,12.2c-4.2,0-8,0-12.2,0c0,4.1,0,8.1,0,12.2
			c-4.2,0-8,0-12.2,0c0,8.7,0,17.2,0,25.9c-4.2,0-8,0-12.2,0c0,4.2,0,8.2,0,12.2c-12.1,0-24.1,0-35.7,0c-1-1-1.6-1.6-2.4-2.4
			c0-3,0-6.2,0-9.1c-0.8-0.8-1.3-1.3-2.2-2.2c-3.2,0-6.7,0-10.2,0c-0.8,0-1.4,0.5-1.2,1.5c-1.5,0-3,0-4.6,0
			c-0.2-0.4-0.3-1.1-0.5-1.2c-0.9-0.2-1.1,0.5-1,1.2c-1.5,0-3,0-4.6,0c0-3.9,0-7.8,0-11.4c-1-1-1.7-1.6-2.4-2.2c-3.9,0-7.6,0-11.3,0
			C151.9,699.3,151.9,695.3,151.9,691.2z"/>
		<path fill="#DAB68C" d="M314.5,202c3.8,0,7.6,0,11.4,0c0.7,0.7,1.4,1.4,2.4,2.4c0,2.9,0,6.1,0,9.6c3.5,0,6.7,0,9.6,0
			c0.8,0.8,1.3,1.3,2.1,2.1c0,3.4,0,7.2,0,11.4c4.1,0,8.1,0,12.2,0c0,4.2,0,8,0,12.2c4.1,0,8.1,0,12.2,0c0,8.3,0,16.1,0,23.6
			c0.8,0.8,1.3,1.3,2.4,2.4c3.4,0,7.4,0,11.4,0c0,24.8,0,49.6,0,74.4c-4.5,0-9,0-13.4,0c-0.8,4.3,0.4,8.4-0.8,12.2
			c-4.1,0-7.9,0-11.7,0c-3.4,0-6.8,0-9.9,0c-1.3,1.4-2.5,2.1-2.3,4c0.3,2.7,0.1,5.4,0.1,8.1c-4.1,0-8.1,0-12.2,0
			c-4.6,0-9.1,0-13.7,0c0.1-4.1-0.7-8.4,2.3-12.2c3.5,0,7.2,0,11.4,0c0-12.8,0-25.3,0-37.9c4,0,8,0,12,0c0-8.3,0-16.1,0-24
			c-8.6,0-17.1,0-25.8,0c0,4,0,7.8,0,11.8c-3.5,0-6.7,0-9.5,0c-1.1,1-1.9,1.7-2.8,2.6c0,3.1,0,6.3,0,9.4c-8.1,1.3-16.2-1.6-24.2,2.4
			c0,3.7,0,7.7,0,11.5c-17,0-33.4,0-49.9,0c0-12.7,0-25.3,0-38c3.5,0,7,0,9.9,0c1.1-1.1,1.6-1.6,2.3-2.3c0-6.2,0.1-12.5,0-18.8
			c0-2,0.6-3.3,2.1-4.5c3.2-0.9,6.8,0.6,10.1-0.7c0-4.1,0-7.9,0-11.6c8.5,0,16.9,0,25.8,0c0-4.3,0-8.2,0-12.2c2.5,0,5-0.2,7.4,0
			c2.3,0.2,3.7-0.8,4.7-2.6c0-3.2,0-6.4,0-9.6c2.5,0,5-0.2,7.4,0c2.3,0.2,3.7-0.8,4.7-2.6c0-3.7,0-7.4,0-11.1c3.9,0,7.8,0,11.1,0
			c2.6-1.5,3.5-3.9,2.3-5.2C313.8,206.7,314.9,204.3,314.5,202z"/>
		<path fill="#DAB68C" d="M566.6,185.3c0,1.2,0.4,2.6-1.1,3.3c2,3.9,0.9,8,1,12.1c0.2,4.3,0,8.6,0,12.8c0,4.3,0,8.6,0,12.8
			c-1.5-0.1-1.5,0.9-1.5,2c0,3.2,0,6.5,0,10.4c-4.3-1.2-7.5,2.2-12.1,1.2c0,4.1,0,8.1,0,12.2c-4.2,0-8,0-12,0c0,4,0,7.7,0,11.7
			c-4.1,1.1-8.1,0-12.2,0.7c0,3.8,0,7.5,0,11.7c-8.2,0-16.1,0-23.7,0c-2.2,3.4-2.2,3.4-2.5,11.8c-0.5,0.5-1.1,1.1-2.1,2.1
			c-7,0-14.5,0-22,0c-8.5,0-17.1,0-25.5,0c-0.9-4.3,0.5-8.4-0.8-12.2c-11.2,0-22,0-32.9,0c-1,0-2,0-3,0c0-4.3,0-8.6,0-13.1
			c-3.8-1.4-7.8,0.1-11.9-0.8c0-3.7,0-7.4,0-11.6c-4.6,0-9,0-13.9,0c0-4.5,0-8.4,0-12.4c0-3.8,0-7.6,0-11.7c3.8-1.2,7.8,0,12.2-0.8
			c0-4.4,0-8.9,0-13.4c0-3.9,0-7.9,0-12.2c-4.3,0-8.2,0-12.2,0c0-8.1,0-16.2,0-24.3c0-3.5,0-7.1,0-10.6c0.4-0.2,1.1-0.3,1.2-0.5
			c0.2-0.9-0.5-1.1-1.2-1c-0.1-1.5,0.9-1.5,1.9-1.5c4.8,0,9.6,0.2,14.4-0.1c2.8-0.2,4.7,2.5,7.8,1.5c0,8.2,0,15.9,0,24
			c4.6,0,9,0,13.9,0c0-3.8,0-7.8,0-11.8c0.5,0,1,0,1.5,0c3.5,0,7.1,0,10.6,0c4.1,0,8.1,0,12.2,0c0,3.9,0,7.9,0,12.2
			c4.8,0,9.2,0,13.7,0c0,3.9,0,7.9,0,12.2c4.3,0,8.2,0,12.2,0c0,4.1,0,8.1-0.1,12.3c-8.4,0.1-16.9,0.1-25.4,0.1c0,4.6,0,9,0,13.3
			c8.6,0,16.8,0,25.3,0c0-4.6,0-9.1,0.1-13.4c4.1-0.1,8.1-0.1,12.3-0.1c-0.2-4.4,0.2-8.3-0.2-12.2c-4.4,0-8.2,0-12,0
			c0-4.1,0-8.1,0-12.2c16.7,0,33.4,0,50.1,0c0,4.1,0,8.1,0,12.3c-4,0.1-7.9,0.1-11.6,0.1c-0.8,0.8-1.3,1.3-1.9,1.9
			c0,3.2,0,6.4,0,9.5c0.7,0.7,1.2,1.2,2.3,2.3c3.4,0,7.3,0,11.4,0c0,4.2,0,8,0,11.6c4.2,0,8.1,0,11.7,0c0-4.6,0-8.8,0-13.1
			c-4.1-0.8-8.1,0.5-11.9-0.7c0-4.1,0-7.9,0-11.5c8-0.1,15.9-0.1,24.3-0.1c0-4.3,0-8.2,0-12.2c3.5,0,6.9,0,10,0
			c1.2-1.7-0.2-3.5,1.4-4.6C565.1,185.3,565.9,185.3,566.6,185.3z M464.9,264.3c8.5,0,17,0,25.5,0c0-8.4,0-16.3,0-24.3
			c-12.4,0-24.5,0-36.5,0c-0.2,0-0.5,0.1-0.6,0.3c-0.2,0.1-0.3,0.4-0.5,0.5c0,3.8,0,7.6,0,11.3c-4,0-8,0-12.2,0
			c0.2,4.4-0.2,8.3,0.2,12.2C449.2,264.3,457,264.3,464.9,264.3z"/>
		<path fill="#CDA97E" d="M578.8,390.4c3.8,0,7.6,0,11.9,0c0,3.9,0,7.8,0,11c3.7,4.6,8.1,1.7,12.3,3c0,7.7,0,15.7,0,23.9
			c4.2,0,7.9,0,12.3,0c0,11,0,21.8,0,32.6c0,2-0.5,4.2,3.7,5.5c2,0,5.7,0,9.7,0c0,16.3,0,32.3,0,48.6c-3.9,0-7.6,0-11,0
			c-4.3,3.4-1.5,7.8-2.5,11.3c0.9,0.9,1.6,1.6,2.6,2.6c3.5,0,7.2,0,11.1,0c0,12.1,0,23.9,0,35.7c-0.5,0.5-1.1,1.1-2.1,2.1
			c-2.9,0-6.4,0-9.9,0c-1.9,0.7-3-1.4-4.7-1.5c-2.7,1.9-5.3,2.8-7.2-0.9c-1.5-3.5,1.8-7.9-2.6-11.3c-2.9,0-6.1,0-8.9,0
			c-4.7-3.4-0.9-8.3-3.1-12.2c-3.6,0-7.3,0-11.5,0c0-4.2,0-8.1,0-12.1c2.5,0,5-0.2,7.4,0c2.3,0.2,3.7-0.8,4.7-2.6c0-3.2,0-6.4,0-9.6
			c4,0,8,0,11.4,0c1.1-1.1,1.6-1.6,2.3-2.3c-0.3-11.7,1-23.7-2.1-35.6c-3.1,0-6.3,0-9.2,0c-4.3-3.4-1.4-7.8-2.6-11.6
			c-0.6-0.6-1.3-1.3-2.3-2.3c-3,0-6.2,0-9.6,0c0-4,0-7.7,0-12c-4.2,0-8.1,0-12.2,0c0-4.3,0-8,0-12c-4,0-7.7,0-11.1,0
			c-1-1-1.7-1.7-2.4-2.4c0-5.8,0-11.7,0-17.5c0-1.3,0-2.5,0-4c1.7-0.7,3.3-1.7,5.1-2c2.2-0.4,4.4-0.1,6.4-0.1
			c2.2-3.1,2.4-6.2,2.2-9.4c-0.1-1.1-0.6-2.7,1.5-2.7c3.4,0,6.8,0,10.6,0c0-2.8,0-5.2,0-7.6C578.8,393.5,578.8,391.9,578.8,390.4z"
			/>
		<path fill="#CDA97E" d="M227.9,290.2c0,12.7,0,25.3,0,38c0,4,0,8,0,12c21,0,41.4,0,62.3,0c0-4,0-8,0-12.1c8.3,0,16.1,0,23.5,0
			c2.3-4.5,2.4-9.1,2.5-13.6c4.4,0,8.1,0,11.9,0c0,12.5,0,25.1,0,37.9c-4.1,0-7.8,0-11.4,0c-3,3.9-2.2,8.1-2.3,12.2
			c-5.5-1.1-10.6,1.5-16,1.5c-6.3,0-12.6,0-18.9,0c-9,0-18,0-27.6,0c0,4.4,0,8.3,0,12.2c-8.4,0-16.2,0-24,0
			c-4.5,1.3-8.5-2.1-13.4-1.4c0-3.9,0-7.8,0-12.1c-8.4,0-16.3,0-24.6,0c0-4.4,0-8.3,0-12.3c0-4,0-8,0-11.8c4.3-0.9,8.4,0.5,12.4-0.9
			c0-12.5,0-24.8,0-37.6c4.1,0,8,0,11.9,0c0-4.3,0-8.1,0-11.9C218.8,290.2,223.3,290.2,227.9,290.2z"/>
		<path fill="#2F5881" d="M502.8,540.8c-4.6,0-9.1,0-13.7,0c2.7-3.5,1-7.7,1.7-11.4c-3.9-2.2-8.8,1.3-12.3-3
			c-0.1-3.1,0.6-6.6-2.4-9.9c-1.2,0-2.9-0.2-4.6,0c-1.9,0.2-2.7-2.2-4.6-1.8c-1.7-3.7-3.9-7.4-0.5-11.4c-0.7-4.9,1.1-9.8-1-14.7
			c-1.2-2.8-0.5-6.4-0.7-9.8c-5.3,0-10.5,0-15.4,0c-1.1-0.8-1.5-2-2.8-1.8c-1.4-0.2-1.6,2.1-2.8,1.6c-3.5-0.6-2.5-4.3-4.8-5.5
			c0.6-2.2,2.3-3.9,1.8-6.5c7.9,0,15.7,0,23.8,0c0,2.4,0,5.1,0,7.9c1.5,1.2,2.9,2.3,4.9,3.8c1.8,0,4.5,0,6.9,0
			c2.4-1.3,2.3-3.3,2.3-5.4c0-13.7,0-27.3,0-41c0-1,0-2,0-2.9c3.8-2.2,8.7,1.5,12.2-3.1c0-11.5,0-23.3,0-35.4c4,0,7.7,0,12.1,0
			c-0.9-8.4,2.3-16.1,1.5-24.4c3.7,0,6.9,0,10.1,0c0.6,0.6,1.1,1.1,2.3,2.3c-1,14.8-3.4,30.3-0.5,45.9c3.8,0,7,0,10.4,0
			c0.8,4,3,7.4,1.9,11.6c2.6,0.6,4.3,3.3,7.3,2.1c0.6-3.8,2.9-7.2,1.9-11.2c1.3-0.7,1.6-2.3,3.2-2.2c0,12.7,0,25.3,0,38
			c0,4.1,0,8.1,0,12.2c-3.8,0-7.6,0-11.9,0c0-3.9,0-7.8,0-11.9c-4.2,0-8,0-12.2,0c0-8.2,0-16.1,0-24.3c-4.7,0-9,0-13.7,0
			c0,3.7,0,7.6,0,11.8c-4.2,0-8,0-12.2,0c0,16.8,0,33.3,0,50.1c-4.2,0-7.9,0-12,0c0,4.1,0,8,0,12.2c3.2,0,6.5,0,9.4,0
			c1,1,1.7,1.7,2.4,2.4c0,3.5,0,7.1,0,11.1c3.9,0,7.8,0,12.2,0C502.8,524.8,502.8,532.8,502.8,540.8z"/>
		<path fill="#DAB68C" d="M240,51.7c16.6,0,33.2,0,50.1,0c0,4.1,0,7.9,0,12.1c4.1,0,8.1,0,12.1,0c0,29.5,0,58.5,0,88c4,0,8,0,12.3,0
			c0,17.1,0,33.7,0,50.3c-4.1,0-8.1,0-12.2,0c0-4,0-8,0-11.8c-4.3-1-8.4,0.5-12.2-0.9c0-7.8,0-15.4,0-23c-0.7-0.7-1.4-1.4-2.4-2.4
			c-3,0-6.2,0-9.6,0c0-3.5,0-6.7,0-9.6c-1-1-1.7-1.8-2.4-2.5c-3.8,0-7.6,0-11.4,0c0-4.1,0-8.1,0-12.2c4.4,0,8.9,0,13.7,0
			c0-4.3,0-8.2,0-12.2c4,0,8,0,12.2,0c0-12.6,0-24.7,0-36.8c0-0.2-0.1-0.5-0.2-0.7c-0.1-0.2-0.4-0.4-0.5-0.5c-3.8,0-7.6,0-11.4,0
			c0-4.5,0-9,0-14.2c-5.9,2.6-11.6,2-17.2,2c-5,0-10.1-0.1-15.1,0.1c-1.9,0-4-0.8-5.7,0.7c0,3.9,0,7.7,0,11.4c-4.1,0-8.1,0-12.2,0
			c0-8,0-16,0-23.8c4.3-1.1,8.1-2.5,12.2-2.2C240,59.2,240,55.4,240,51.7z"/>
		<path fill="#DAB68C" d="M214.2,290.2c0,3.8,0,7.6,0,11.9c-3.9,0-7.8,0-11.9,0c0,12.8,0,25.1,0,37.6c-4,1.4-8.1,0-12.4,0.9
			c0,3.9,0,7.9,0,11.8c-3.8,0-7.6,0-11.9,0c0-3.9,0-7.8,0-11.9c-4.2,0-8,0-12,0c0-20.8,0-41.4,0-62.2c3.6,0,7.3,0,11.5,0
			c0-4.1,0-8,0-12.4c8.5,0,16.6,0,24.6,0c0,4.1,0,8.1,0,12.2c0,3.9,0,7.9,0,12.2C206.3,290.2,210.3,290.2,214.2,290.2z"/>
		<path fill="#CC4040" d="M616.8,703.4c17.1,0,34.1,0,51.7,0c0,4.7,0,9.2,0,13.7c-5.1,0-10.1,0-15.2,0c-7.6,0-15.2,0-22.8,0
			c-1.1,0-1.6,0.5-1.5,1.5c-0.8,2.8,1.8,4.9,1.5,7.6c0.1,1.5-1.5,1.9-2.2,3.2c-3.6,0-7.3,0-11.6,0c0,4.1,0,8.1,0,12.2
			c-2.9-1.1-4.5,1.3-6.4,1.4c-1-0.6-1.4-1.8-3.2-1.5c-0.3,0.6-0.9,1.7-1.5,2.8c-1.8,3,1.1,7.4-2.9,10.6c-3.7,0.7-7.8-0.6-11.5,0.7
			c0,4.1,0,7.9,0,11.6c-4.1,0-8.1,0-12.2,0c0-4,0-7.9,0-12.1c-8.3,0-16,0-23.5,0c-0.8-0.8-1.7-1.2-1.8-1.9
			c-1.2-6.7-0.1-13.5-0.6-20.1c0.8-0.8,1.5-1.5,2.2-2.2c5.6-0.9,11.4,1.2,17-1.8c1.1,2.5,3.8,2.2,5.1,1.4c3.8-2.2,7.7-1.2,11.6-1.3
			c4.7-0.2,9.4,0,14.6,0c-1.2-4.6,1.1-8,1.8-12.5c4.2,1.7,7.7-1.2,11.6-1.6C616.8,710.9,616.8,707.2,616.8,703.4z"/>
		<path fill="#CC4040" d="M171.7,717c1.5,0,3,0,4.6,0c-0.7,2.2,1.8,3.3,1.6,5.5c-0.2,2.2,0,4.4,0,6.8c3.8,0,7.1,0,10,0
			c0.8,0.8,1.3,1.3,1.9,1.9c0.9,3.3-0.5,6.9,0.9,10.4c4,0,7.7,0,11.4,0c0,4.5,0,8.8,0,13.5c-8.1,0-16.1,0-24.5,0
			c1.6,4.6-2.4,7.9-1.2,12c-4.1,0-8.1,0-12.2,0c0-8.5,0-17,0-26c-4.3,0-8.2,0-12.3,0c0-4.2,0-7.9,0-12c-8.2,0-16.2,0-24.2,0
			c0-3.9,0-7.9,0-12.2c-4.8,0-9.2,0-13.7,0c-7.8,0-15.7,0-24.1,0c-0.6-4.4,0-8.8-0.3-13.7c21,0,41.7,0,62.4,0c0,3.9,0,7.8,0,11.4
			c1,1,1.7,1.6,2.4,2.2c3.9,0,7.6,0,11.3,0c1.5,0,3,0,4.6,0C170.7,717,171.2,717,171.7,717z"/>
		<path fill="#EDE8E8" d="M653.2,717c5.1,0,10.1,0,15.2,0c3.8,0,7.6,0,11.8,0c0,3.9,0,7.8,0,12c-12.8,0-25.6,0-39,0
			c0,4.1,0,8.1,0,12.2c-4.3,0-8,0-12,0c0,4.7,0,9.1,0,13.5c19.2-2.6,38.2-0.7,57.2-1.2c2.2-0.1,4.7-0.7,6.2,2.3c0,3.3,0,7.1,0,11.3
			c-33.9,0-67.8,0-101.6,0c0-3.8,0-7.6,0-11.6c3.8-1.2,7.8,0,11.5-0.7c4.1-3.2,1.2-7.6,2.9-10.6c0.6-1.1,1.2-2.2,1.5-2.8
			c1.9-0.3,2.2,0.9,3.2,1.5c2-0.1,3.5-2.6,6.4-1.4c0-4.2,0-8.1,0-12.2c4.2,0,7.9,0,11.6,0c0.7-1.3,2.3-1.6,2.2-3.2
			c0.9-0.2,2.2,0.6,2.7-0.5c1.8-4,6.5-1.2,8.8-3.9c2.9,3.5,5.5-1.4,8.6-0.4C652,721.8,653.6,719.3,653.2,717z"/>
		<path fill="#EDE8E8" d="M127.6,729.2c8,0,16,0,24.2,0c0,4.1,0,7.8,0,12c4.1,0,8,0,12.3,0c0,9,0,17.5,0,26c-33.3,0-66.7,0-100.1,0
			c0-4.2,0-7.9,0-11.7c22.8-3.4,45.6-1.3,68.3-2c2.5-0.1,4.2,2.9,7.2,1.2c0-4.1,0-8.5,0-13.2c-3.9,0-7.6,0-11.9,0
			C127.6,737.2,127.6,733.2,127.6,729.2z"/>
		<path fill="#DAB68C" d="M202,264.3c0-8,0-16,0-24.2c4.1,0,7.8,0,12,0c0-4.1,0-8,0-12.3c9,0,17.5,0,26,0c8,0,15.9,0,24.3,0
			c0,4.3,0,8.2,0,12.2c-3.9,0-7.9,0-12.2,0c0,4.3,0,8.2,0,12.2c-3.9,0-7.9,0-12,0c0,3.6,0,6.8,0,9.7c-0.9,0.9-1.6,1.6-2.6,2.6
			c-3,0-6.2,0-9.7,0c0,4.6,0,9.1,0,13.5c-4.6,0-9.1,0-13.7,0c0-4.4,0-8.9,0-13.7C209.9,264.3,206,264.3,202,264.3z"/>
		<path fill="#2F5881" d="M314.5,364.6c4.6,0,9.1,0,13.7,0c0,4.6,0,9.1,0,13.7c0,16.7,0,33.4,0,50.1c-3.9,0-7.9,0-11.4,0
			c-0.9,0.9-1.5,1.5-2.3,2.3c0,7.7,0,15.6,0,23.5c0,16.2,0,32.4,0,48.6c-4.1,0-8.1,0-12.2,0c0-25.8,0-51.6,0-77.3
			c0-3.2-0.1-6.3,2.3-9.3c3.5,0,7.2,0,11.4,0c0-12.3,0-24.4,0-36.4c0-1.1-0.5-1.6-1.5-1.5C314.5,373.7,314.5,369.2,314.5,364.6z"/>
		<path fill="#9F2F2E" d="M616.8,703.4c0,3.8,0,7.6,0,11.7c-3.9,0.4-7.4,3.3-11.6,1.6c-0.7,4.4-2.9,7.9-1.8,12.5
			c-5.2,0-9.9-0.1-14.6,0c-3.9,0.2-7.8-0.9-11.6,1.3c-1.3,0.8-4.1,1-5.1-1.4c-5.6,2.9-11.4,0.9-17,1.8c-0.6,0.6-1.4,1.4-2.2,2.2
			c0.5,6.6-0.6,13.4,0.6,20.1c0.1,0.6,1,1.1,1.8,1.9c7.5,0,15.3,0,23.5,0c0,4.2,0,8.2,0,12.1c-16.7,0-33.4,0-50.1,0
			c0-12.7,0-25.3,0-38c4,0,8-0.2,12,0c12.6,0.9,25-2.8,38.1-1.4c0-4.4,0-8.4,0-12.3c7.6,0,15.2,0,22.8,0c1.1,0,1.6-0.5,1.5-1.5
			c0-3.4,0-6.9,0-10.6C607.9,703.4,612.4,703.4,616.8,703.4z"/>
		<path fill="#BD9A70" d="M553,420.8c0,5.8,0,11.6,0,17.5c0.7,0.7,1.4,1.4,2.4,2.4c3.4,0,7.2,0,11.1,0c0,4,0,7.7,0,12
			c4.1,0,8.1,0,12.2,0c0,4.3,0,8,0,12c3.5,0,6.7,0,9.6,0c1,1,1.7,1.7,2.3,2.3c1.2,3.8-1.7,8.2,2.6,11.6c2.9,0,6.1,0,9.2,0
			c3.1,12,1.8,23.9,2.1,35.6c-0.7,0.7-1.3,1.3-2.3,2.3c-3.4,0-7.4,0-11.4,0c0-8.5,0-17,0-25.7c-4.1,0-7.8,0-12,0c0-4.1,0-8,0-12.1
			c-4.2,0-7.9,0-12.1,0c0-4.6,0-9,0-12.8c-1.3-1.6-2.4-0.9-3.3-1.1c-1.5-2.1-3-2.1-4.6,0c-1,0-2,0-3,0c-0.2-3,0.4-6.2-0.4-9.1
			c-1.2,0-1.9,0-2.6,0c0-1,0-2,0-3c0.1-1.5-0.9-1.5-1.9-1.5c-2.4,0-4.8,0-7.2,0c0-9.7,0-18.7,0-27.7c0-0.2,0.1-0.5,0.2-0.6
			c0.1-0.2,0.3-0.4,0.6-0.7C547.7,423.2,549.9,419.9,553,420.8z"/>
		<path fill="#9F2F2E" d="M176.2,767.2c-1.2-4.1,2.7-7.4,1.2-12c8.4,0,16.4,0,24.5,0c0-4.8,0-9,0-13.5c-3.7,0-7.4,0-11.4,0
			c-1.4-3.5,0-7.1-0.9-10.4c-0.5-0.5-1.1-1.1-1.9-1.9c-2.9,0-6.2,0-10,0c0-2.4-0.2-4.7,0-6.8c0.2-2.1-2.3-3.3-1.6-5.5
			c-0.2-1,0.4-1.5,1.2-1.5c3.5-0.1,7,0,10.2,0c0.8,0.8,1.4,1.4,2.2,2.2c0,2.9,0,6.2,0,9.1c0.8,0.8,1.3,1.3,2.4,2.4
			c11.6,0,23.6,0,35.7,0c0,1.5,0,3,0,4.6c-0.4,0.2-1.1,0.3-1.2,0.5c-0.2,0.9,0.5,1.1,1.2,1c0,7.1,0,14.2,0,21.3
			c-0.9-0.2-1.4,0.4-1.5,1.2c-0.1,1,0.1,2,1.5,1.9c0,1,0,2,0,3c-0.4,0.2-1.1,0.3-1.2,0.5c-0.2,0.9,0.5,1.1,1.2,1c0,1,0,2,0,3
			c-16.7,0-33.4,0-50.1,0C177.2,767.2,176.7,767.2,176.2,767.2z"/>
		<path fill="#B1926B" d="M264.3,240c0-3.9,0-7.9,0-12.2c-8.4,0-16.3,0-24.3,0c0-4.6,0-9.1,0-13.7c8,0,16,0,24.3,0
			c0-4.5,0-8.5,0-12.5c0-3.9,0-7.9,0-11.5c5,0,9.2,0,13.4,0c0.9,4.1-0.5,8.1,0.8,11.9c8.1,0,15.9,0,23.7,0c0,4.1,0,8.1,0,12.2
			c-3.9,0-7.9,0-12.2,0c0,4.8,0,9.2,0,13.7c-3.9,0-7.9,0-12.2,0c0,4.3,0,8.2,0,12.2C273.4,240,268.9,240,264.3,240z"/>
		<path fill="#BD9A70" d="M578.8,528.7c0,4,0,7.9,0,12.1c4.2,0,7.9,0,11.5,0c2.2,3.9-1.6,8.8,3.1,12.2c2.8,0,6,0,8.9,0
			c4.4,3.3,1.1,7.8,2.6,11.3c2,3.6,4.6,2.7,7.2,0.9c1.7,0.2,2.7,2.2,4.7,1.5c0,4,0,7.9,0,12.2c-11.9,0-23.4,0-34.9,0
			c-0.1-2.3-1.9-1.3-3-1.5c0-3.3,0-6.5,0-10.3c-3.8,0-7.7,0-11.9,0c0-13,0-25.4,0-38.3C570.9,528.7,574.8,528.7,578.8,528.7z"/>
		<path fill="#DAB68C" d="M314.5,364.6c0,4.6,0,9.1,0,13.7c-12.5,0-25.1,0-37.9,0c0,4.1,0,7.8,0,11.8c-16.2,0-32.2,0-48.7,0
			c0-3.9,0-7.9,0-11.8c7.8,0,15.7,0,24,0c0-3.9,0-7.8,0-12.2c9.5,0,18.6,0,27.6,0c6.3,0,12.6,0,18.9,0
			C303.8,366.1,309,363.5,314.5,364.6z"/>
		<path fill="#2F5881" d="M378.3,340.3c0-24.8,0-49.6,0-74.4c3.8,0,7.6,0,11.9,0c0,3.9,0,7.8,0,12.2c9,0,17.6,0,26.1,0
			c0,12.2,0,24.3,0,36.5c-0.8,0-1.5,0-3,0c0-3.9,0.1-7.9,0-11.8c-0.2-3.6,1.1-7.5-1.5-10.8c-0.5-1.5,1.8-1.7,1.5-3.2
			c-0.1-1.7-1.8-2.2-2.9-3.8c-0.1-1.3-0.2-3-0.3-5.1c-6.4,0-12.9,0-19.6,0c0,20.1,0,40,0,60.5C386.2,340.3,382.3,340.3,378.3,340.3z
			"/>
		<path fill="#BD9A70" d="M419.3,278c10.9,0,21.7,0,32.9,0c1.3,3.8-0.1,7.8,0.8,12.2c8.5,0,17,0,25.5,0c0,4.1,0,8.1,0,12.2
			c-4.1,0-8.1,0-12.2,0c-8.6,0-17.2,0-25.8,0c0-3.5,0-6.9,0-9.9c-1-1-1.5-1.5-2.5-2.5c-5.4,0-11.3,0-17.6,0
			C421.9,285.4,418.2,282,419.3,278z"/>
		<path fill="#CDA97E" d="M240,51.7c0,3.8,0,7.6,0,11.9c-4-0.3-7.8,1.2-12.2,2.2c0,7.8,0,15.8,0,23.8c0,4.1,0,8.1,0,12.2
			c0,3.9,0,7.8,0,11.4c-0.9,0.9-1.4,1.4-2.3,2.3c-3.6,0-7.5,0-11.4,0c0-4.6,0-9.1,0-13.7c0-12,0-24,0-36c4.1-3.6,8.8-1.2,13.5-2.2
			c0-3.7,0-7.6,0-11.9C232.1,51.7,236.1,51.7,240,51.7z"/>
		<path fill="#EDE8E8" d="M528.7,767.2c16.7,0,33.4,0,50.1,0c4.1,0,8.1,0,12.2,0c0,3.8,0,7.6,0,11.4c-1.7,1.4-3.8,0.7-5.7,0.7
			c-12.9,0.1-25.7,0.1-38.6,0c-5.9,0-11.8,0.8-18-2.4C528.7,774.1,528.7,770.6,528.7,767.2z"/>
		<path fill="#B1926B" d="M214.2,101.8c0,4.6,0,9.1,0,13.7c0,8.1,0,16.2,0,24.3c0,4.1,0,8.1,0,12.2c-3.8,0-7.6,0-11.4,0
			c-0.1-0.1-0.3-0.3-0.5-0.5c-0.1-0.2-0.2-0.4-0.2-0.7c0-16.1,0-32.3,0-49C206.2,101.8,210.2,101.8,214.2,101.8z"/>
		<path fill="#EDE8E8" d="M177.7,767.2c16.7,0,33.4,0,50.1,0c0.1,4.2,0.4,8.4-3.6,11.8c-15.1,0-30.6,0-46.6,0
			C177.7,775.1,177.7,771.1,177.7,767.2z"/>
		<path fill="#B1926B" d="M227.9,188.4c-3.8,0-7.5,0-11.3,0c-2.7-2.7-2.4-6.1-2.4-9.4c0-9,0-18,0-27c4.6,0,9.1,0,13.7,0
			c0,4.1,0,8.1,0,12.2C227.9,172.2,227.9,180.3,227.9,188.4z"/>
		<path fill="#EDE8E8" d="M302.3,502.8c4.1,0,8.1,0,12.2,0c0,12.7,0,25.3,0,38c-4.1,0-8.1,0-12.2,0c0-12.2,0-24.3,0-36.5
			C302.3,503.9,302.3,503.3,302.3,502.8z"/>
		<path fill="#2F5881" d="M302.3,504.4c0,12.2,0,24.3,0,36.5c-4.1,0-8.1,0-12.2,0c0-12,0-24,0-36.5
			C294.4,504.4,298.4,504.4,302.3,504.4z"/>
		<path fill="#CDA97E" d="M227.9,188.4c0-8.1,0-16.2,0-24.3c4,0.6,8.4-1.5,12.2,2c0,7.9,0,15.9,0,23.8c-4.1,0-8.1,0-12.2,0
			C227.9,189.4,227.9,188.9,227.9,188.4z"/>
		<path fill="#B1926B" d="M227.9,189.9c4.1,0,8.1,0,12.2,0c0,8.1,0,16.2,0,24.3c-3.9,0-7.9,0-12.2,0
			C227.9,205.8,227.9,197.9,227.9,189.9z"/>
		<path fill="#EDE8E8" d="M113.9,717c4.4,0,8.9,0,13.7,0c0,4.3,0,8.2,0,12.2c-4.4,0-8.9,0-13.7,0C113.9,724.9,113.9,721,113.9,717z"
			/>
		<path fill="#B1926B" d="M202,264.3c3.9,0,7.9,0,12.2,0c0,4.8,0,9.2,0,13.7c-4.1,0-8.1,0-12.2,0c0-4.1,0-8.1,0-12.2
			C202,265.3,202,264.8,202,264.3z"/>
		<path fill="#313C46" d="M553,452.7c0,1,0,2,0,3c0,3,0,6.1,0,9.1c-4.1,0-8.1,0-12.2,0c0-4.1,0-8.1,0-12.2
			C544.9,452.7,548.9,452.7,553,452.7z"/>
		<path fill="#BD9A70" d="M591,516.5c0,3.2,0,6.4,0,9.6c-1.1,1.8-2.5,2.7-4.7,2.6c-2.5-0.2-4.9,0-7.4,0c0-3.9,0-7.9,0-12.2
			C583.1,516.5,587,516.5,591,516.5z"/>
		<path fill="#2F5881" d="M466.4,302.3c4.1,0,8.1,0,12.2,0c3.9,0,7.8,0,11.4,0c1.2,1.1,0.6,2.1,0.8,3c-7.3,0-14.7,0-22.1,0
			c-1.4,1.7-0.7,3.8-0.7,5.7c-0.1,8.3,0,16.7-0.1,25c0,1.1,0.6,2.7-1.5,2.7c0-7.1,0-14.2,0-21.3
			C466.4,312.4,466.4,307.4,466.4,302.3z"/>
		<path fill="#2F5881" d="M553,363.1c-2.5,0.7-3.4-1.3-4.3-2.1c-0.7-2.4,2.2-2.8,1.1-5.1c-6.2-1.4-12.6,0.2-18.7,1.4
			c-1.3-1.8-0.6-3.3-0.8-4.8c7.5,0,14.9,0,22.8,0C553,356.2,553,359.6,553,363.1z"/>
		<path fill="#2F5881" d="M515,338.8c-1.5,0.1-1.5-0.9-1.5-1.9c0-5.7,0-11.4,0-17.1c-0.8-0.8-1.5-1.5-2.4-2.4c-6.5,0-13.2,0-19.7,0
			c-1.1-0.9-0.5-2-0.7-2.9c1.7,0.8,3.2,1.7,5.4,1.6c6.2-0.3,12.4-0.1,18.9-0.1C515,323.9,515,331.3,515,338.8z"/>
		<path fill="#2F5881" d="M566.6,390.4c1.6-2.4,3.1-4.8,5-7.6c2.3,0,4.7,0,7.2,0c0,2.5,0,5.1,0,7.6
			C574.7,390.4,570.7,390.4,566.6,390.4z"/>
		<path fill="#92BAB3" d="M528.7,352.4c-0.7,0-1.5,0-2.6,0c-1-2.7-0.1-5.6-0.5-8.4c-0.7-0.7-1.4-1.4-2.2-2.2c-2.3,0-4.8,0.1-7.2,0
			c-0.7,0-1.3-0.6-1.1-1.5c4.4,0,8.9,0,13.7,0C528.7,344.6,528.7,348.5,528.7,352.4z"/>
		<path fill="#B1926B" d="M553,464.9c0-3,0-6.1,0-9.1c0.7,0,1.5,0,2.6,0c0.9,2.9,0.2,6.1,0.4,9.1C555,464.9,554,464.9,553,464.9z"/>
		<path fill="#2F5881" d="M490.7,314.5c-1.7,0-3.8,0.4-2.8-2.5c0.8-1,1.9-0.3,2.8-0.5C490.7,312.4,490.7,313.5,490.7,314.5z"/>
		<path fill="#B1926B" d="M559,464.9c1.5-2.1,3-2.1,4.6,0C562.1,464.9,560.6,464.9,559,464.9z"/>
		<path fill="#CDA97E" d="M578.8,577.3c1.2,0.2,2.9-0.8,3,1.5C580.7,578.6,578.9,579.6,578.8,577.3z"/>
		<path fill="#CC4040" d="M227.9,759.6c-1.4,0.1-1.6-0.9-1.5-1.9c0.1-0.8,0.6-1.3,1.5-1.2C227.9,757.6,227.9,758.6,227.9,759.6z"/>
		<path fill="#9DCFBF" d="M314.5,378.3c1.1,0,1.6,0.5,1.5,1.5C314.9,379.8,314.4,379.3,314.5,378.3z"/>
		<path fill="#B1926B" d="M578.8,367.6c-1.1,0-1.6-0.5-1.5-1.5C578.3,366.1,578.8,366.6,578.8,367.6z"/>
		<path fill="#CC4040" d="M227.9,735.3c-0.7,0.1-1.4-0.1-1.2-1c0.1-0.2,0.8-0.3,1.2-0.5C227.9,734.3,227.9,734.8,227.9,735.3z"/>
		<path fill="#CC4040" d="M227.9,764.1c-0.7,0.1-1.4-0.1-1.2-1c0.1-0.2,0.8-0.3,1.2-0.5C227.9,763.1,227.9,763.6,227.9,764.1z"/>
		<path fill="#2F5881" d="M460.3,540.8c-1.3,0-2.5,0-3.8,0c-0.7,0.7-1.4,1.4-2.2,2.2c0,2.4,0,5,0,7.7c-1.2,1.1-2.6,2.2-4.1,3.5
			c-5.6,1.8-11.2-1.6-17.1-1.4c-12.6,0.4-25.3,0.1-38,0.1c-1.5,0-2.9,0-4.6,0c0-4.2,0-7.9,0-12.2c-16.9,0-33.5,0-50.2,0
			c0-12.5,0-25,0-38c4.2,0,8.2,0,12.2,0c4.5-1.2,8.5,2,13.3,1.6c0,3.2,0,6.4,0,9.8c7.8,4.3,16.2,1.2,24.4,2.6c0,3.6,0,7.3,0,11.5
			c4.1,0,8,0,12.2,0c0,4.2,0,8,0,11.4c1,1,1.7,1.7,2.5,2.5c7.4,0.9,14.5-2.4,22-1.5c3.7,0.4,7.6,0.1,11.2,0.1c3,1.4,2.7,4,2.5,6.8
			c1.3,1.3,2.6,2.7,3.8,3.9c5.5-1.2,6.4-2.4,6.9-9.5c3.7-4.1,3.7-4.1,8.6-5.6C460.8,537.8,460.1,539.4,460.3,540.8z"/>
		<path fill="#92BAB3" d="M352.4,502.8c-4,0-7.9,0-12.2,0c0,13,0,25.5,0,38c-8.6,0-17.2,0-25.8,0c0-12.7,0-25.3,0-38
			c4.5,0,8.9,0,13.7,0c0-8.4,0-16.3,0-24.3c4,0,7.9,0,12.4,0c0,4.4,0,8.3,0,12.2c4.3,0,8.1,0,11.9,0c0,3,0,6.1,0,9.1
			C352.4,500.8,352.4,501.8,352.4,502.8z"/>
		<path fill="#2F5881" d="M466.4,340.3c-1.1,3.2-4,4-6.8,4.4c-1.8,0.2-2.6,1.3-3.3,1.9c-3.1,14.6-4.4,29-3.5,43.7c-3.8,0-7,0-10.1,0
			c-2.1-1.3-2.2-3.1-2.2-5.2c0.1-10.9,0-21.7,0-32.6c3.9,0,7.8,0,12.2,0c0-2.7,0.3-5.2-0.1-7.6c-0.3-2,1.4-3,1.6-4.6
			c0.5,0,1,0,1.5,0C459.3,340.3,462.8,340.3,466.4,340.3z"/>
		<path fill="#2F5881" d="M352.4,352.4c3.8,0,7.6,0,11.7,0c1.2-3.8,0-7.8,0.8-12.2c4.4,0,8.9,0,13.4,0c0,7.8,0,15.7,0,24.1
			c-2.9,0.1-5.8,0.1-8.8,0.2c-2.6,0.1-5.5-0.8-7.9,1.7c-2-1.5-4.3-2.2-6.3-1.6c-2.1-0.4-0.4-3.4-2.9-3.1
			C352.4,358.5,352.4,355.5,352.4,352.4z"/>
		<path fill="#B1926B" d="M566.6,390.4c4.1,0,8.1,0,12.2,0c0,1.5,0,3,0,4.6c-3.4-0.9-6.9-1.7-10.6-2.7c0,3.5,0,6.9,0,10.3
			c-2.1,0-1.5,1.6-1.5,2.7c0.2,3.2,0,6.3-2.2,9.4c-1.9,0-4.2-0.3-6.4,0.1c-1.8,0.3-3.5,1.3-5.1,2c0,1.5,0,2.7,0,4
			c-3-0.9-5.3,2.4-8.2,1.4c-0.3,0.3-0.5,0.5-0.6,0.7c-0.1,0.2-0.2,0.4-0.2,0.6c0,9,0,18,0,27.7c2.4,0,4.8,0,7.2,0c1,0,2,0.1,1.9,1.5
			c-4.1,0-8.1,0-12.2,0c0-12.7,0-25.3,0-38c0.5,0,1,0,1.5,0c3.4,0,6.9,0,10.6,0c0-4.3,0-8.2,0-12.2c3.8,0,7.6,0,11.8,0
			c0.8-3.3,0.2-6.8,0.4-10.2C565.2,391.3,565.2,390.3,566.6,390.4z"/>
		<path fill="#2F5881" d="M352.4,499.8c0-3,0-6.1,0-9.1c0-37.5,0-74.9,0-112.4c0-3.5,0-7.1,0-10.6c0.8,0,1.5,0,2.3,0
			c1,1,1.5,107.5,0.5,131.6C354.5,500.3,353.4,499.6,352.4,499.8z"/>
		<path fill="#92BAB3" d="M352.4,367.6c0,3.5,0,7.1,0,10.6c-4.1,0-8.1,0-12.2,0c0-4.6,0-9.1,0-13.7c0-2.7,0.2-5.5-0.1-8.1
			c-0.2-1.9,1.1-2.6,2.3-4c3.1,0,6.5,0,9.9,0c0,3,0,6.1,0,9.1C352.4,363.6,352.4,365.6,352.4,367.6z"/>
		<path fill="#CDA97E" d="M428.4,340.3c0-0.5,0-1,0-1.5c0-8.1,0-16.2,0-24.3c4.1-0.2,7.7,2.7,12.2,1.3c0,8.7,0,16.6,0,24.5
			C436.5,340.3,432.5,340.3,428.4,340.3z"/>
		<path fill="#9DCFBF" d="M416.8,365.9c-0.8-0.8-1.3-1.3-1.9-1.9c0-3.7,0-7.4,0-11.3c4.3,0,8.6,0,13.1,0c0,4.1,0,8.5,0,13.2
			C424.5,365.9,420.8,365.9,416.8,365.9z"/>
		<path fill="#2F5881" d="M428.4,314.5c0,8.1,0,16.2,0,24.3c-2.6-0.7-5.2-1.5-7.7-2.2c0-3.7,4.2-2,4.5-3.9c0-4.9,0-9.1,0-13.2
			c-3.4-1.1-7.4-1-8.9-5C420.3,314.5,424.4,314.5,428.4,314.5z"/>
		<path fill="#92BAB3" d="M466.4,340.3c-3.5,0-7.1,0-10.6,0c-0.1-1.5,1.5-1.8,2-2.8c1.8-0.8,4,0.7,5.6-1c0-3.3-0.1-6.5,0-9.7
			c0.1-3.1-0.4-6.3,0.4-9.3c1.2,0,1.9,0,2.7,0c0,7.1,0,14.2,0,21.3C466.4,339.3,466.4,339.8,466.4,340.3z"/>
		<path fill="#2F5881" d="M428.4,340.3c4.1,0,8.1,0,12.2,0c0,1,0,2,0,3c0,3,0,6.1,0,9.1c-0.7,0-1.5,0-2.6,0c-1.1-2.7,0-5.7-0.6-8.6
			c-2.7-1.2-5.7,0.1-8.5-0.8C428,342.3,428.6,341.2,428.4,340.3z"/>
		<path fill="#2F5881" d="M553,402.6c0,3.9,0,7.8,0,12.2c-3.8,0-7.2,0-10.6,0c-0.6-3.5,2.7-4.3,3.7-6c3.2-0.4,1.7,2.4,3.1,2.9
			c0.5,0,1,0,1.5,0c0.3-0.4,0.7-0.7,0.8-1.1c0.1-2.3,0-4.5,0.1-6.8C551.5,403,552,402.4,553,402.6z"/>
		<path fill="#2F5881" d="M477,540.8c-3.5,0-7.1,0-10.6,0C469.6,538.7,473.8,538.7,477,540.8z"/>
		<path fill="#272D35" d="M603.1,714c0,1.1-0.5,1.6-1.5,1.5C601.5,714.5,602.1,714,603.1,714z"/>
		<path fill="#CDA97E" d="M528.7,189.9c-16.7,0-33.4,0-50.1,0c0-3.9,0-7.9,0-12.2c-4.3,0-8.2,0-12.2,0c0.7-1.9-1.3-3-1.5-4.6
			c1.5-3.3,1.5-3.3,1.5-9.1c15.6,0.3,31.2-0.6,46.8,0.5c0.4,0,0.7,0.6,1.1,1c0.4-0.4,0.7-1,1.1-1c12.3-1,24.6-0.1,37.5-0.5
			c0,4,0,8,0,11.3c1.1,1.1,1.6,1.6,2.4,2.4c3.5,0,7.2,0,11.4,0c0,2.7,0,5.2,0,7.6c-0.8,0-1.5,0-2.3,0c-1.6,1-0.2,2.8-1.4,4.6
			c-3.1,0-6.6,0-10,0C544.9,189.9,536.8,189.9,528.7,189.9z M516.4,174.2c0.6-3.2-1.5-4.9-2.1-6.8c-3.4,0-6.6,0-10.3,0
			c1.4,3.1-0.3,5.4-1.4,7.9c1,0.8,1.8,1.4,2.8,2.3c2.3,0,5,0,6.2,0C513.9,175.9,515.4,174.9,516.4,174.2z M540.1,174.7
			c1.2-0.9,0.8-2.3,0.7-3.4c-0.1-1.4,0.7-3-0.4-3.9c-4,0-7.7,0-11.3,0c0,3.6,0,7,0,10.3C533.3,178,537.1,177.9,540.1,174.7z"/>
		<path fill="#BD9A70" d="M466.4,164.1c0,5.8,0,5.8-1.5,9.1c0.2,1.6,2.2,2.7,1.5,4.6c-4.6,0-9.1,0-13.7,0c0-3.9,0-7.9,0-11.4
			c-0.9-0.9-1.5-1.5-2.1-2.1c-2,0-4.2,0-5.8,0c-1.7,1.4-3,2.6-4.3,3.6c0,3.5,0,6.7,0,10c-3.5,0-7.1,0-10.6,0c0-1.1-0.5-1.6-1.5-1.5
			c0-4.1,0-8.1,0-12.2c4-0.6,8.4,1.6,12-1.9c0-2.8,0-5.5,0-7.7c-0.9-1.1-1.5-1.9-2.1-2.5c-3.5,0-6.7,0-10,0c0-3.9,0-7.8,0-12.2
			c1.7,0,3.1,0,4.6,0c-0.2,1,0.4,1.5,1.2,1.5c2,0.1,4,0,6.2,0c0,2.5,0,4.7,0,6.5c1.5,1.6,2.8,2.8,4,4.1c2.8,0,5.6,0,8.4,0
			c0,0.5,0,1,0,1.5c0.7,3.6-1.9,8,2.5,10.6C459,164.1,462.7,164.1,466.4,164.1z"/>
		<path fill="#CDA97E" d="M390.4,177.7c0,8.1,0,16.2,0,24.3c-3.8,0-7.6,0-11.9,0c-0.5-3.9-0.1-7.8-0.2-11.8c-0.1-4,0-8,0-12.5
			C382.5,177.7,386.4,177.7,390.4,177.7z"/>
		<path fill="#CDA97E" d="M452.7,151.9c-2.8,0-5.6,0-8.4,0c-1.2-1.2-2.4-2.5-4-4.1c0-1.9,0-4.1,0-6.5c-2.2,0-4.2,0.1-6.2,0
			c-0.8,0-1.4-0.5-1.2-1.5c6.4,0,12.9,0,19.7,0C452.7,144,452.7,148,452.7,151.9z"/>
		<path fill="#CDA97E" d="M466.4,164.1c-3.7,0-7.4,0-11.2,0c-4.4-2.7-1.7-7.1-2.5-10.6c1.5-0.6,3.8,1.4,4.6-1.5c2,0,4.1,0,6.1,0
			c0,1.1,0.5,1.6,1.5,1.5c1.4-0.1,1.5,0.8,1.5,1.9C466.4,158.2,466.4,161.1,466.4,164.1z"/>
		<path fill="#CDA97E" d="M390.4,202c3.9,0,7.9,0,12.2,0c0,4.3,0,8.2,0,12.2c-3.9,0-7.9,0-12.2,0C390.4,209.9,390.4,206,390.4,202z"
			/>
		<path fill="#CDA97E" d="M428.4,151.9c3.3,0,6.5,0,10,0c0.5,0.7,1.2,1.4,2.1,2.5c0,2.2,0,4.9,0,7.7c-3.6,3.5-8,1.4-12,1.9
			C428.4,160,428.4,156,428.4,151.9z"/>
		<path fill="#B1926B" d="M457.3,151.9c-0.7,2.9-3.1,0.9-4.6,1.5c0-0.5,0-1,0-1.5C454.2,151.9,455.7,151.9,457.3,151.9z"/>
		<path fill="#B1926B" d="M464.9,153.4c-1.1,0-1.6-0.5-1.5-1.5C464.4,151.9,464.9,152.4,464.9,153.4z"/>
		<path fill="#CDA97E" d="M390.4,165.6c0.7-0.1,1.4,0.1,1.2,1c-0.1,0.2-0.8,0.3-1.2,0.5C390.4,166.6,390.4,166.1,390.4,165.6z"/>
		<path fill="#CDA97E" d="M428.4,176.2c1.1,0,1.6,0.5,1.5,1.5c-0.5,0-1,0-1.5,0C428.4,177.2,428.4,176.7,428.4,176.2z"/>
		<path fill="#9F2F2E" d="M165.6,717c-3.7,0-7.4,0-11.3,0c-0.6-0.6-1.3-1.2-2.4-2.2c0-3.6,0-7.5,0-11.4c3.7,0,7.4,0,11.3,0
			c0.6,0.6,1.3,1.2,2.4,2.2C165.6,709.2,165.6,713.1,165.6,717z"/>
		<path fill="#9F2F2E" d="M171.7,717c-0.5,0-1,0-1.5,0c-0.1-0.7,0.1-1.4,1-1.2C171.4,715.9,171.5,716.6,171.7,717z"/>
		<path fill="#B1926B" d="M328.1,314.5c-3.8,0-7.6,0-11.9,0c-0.1,4.5-0.2,9.1-2.5,13.6c-7.4,0-15.2,0-23.5,0c0,4.1,0,8.1,0,12.1
			c-21,0-41.4,0-62.3,0c0-4,0-8,0-12c16.5,0,32.9,0,49.9,0c0-3.9,0-7.8,0-11.5c8.1-4,16.2-1.1,24.2-2.4c0-3.1,0-6.3,0-9.4
			c1-0.9,1.7-1.6,2.8-2.6c2.8,0,6,0,9.5,0c0-4,0-7.7,0-11.8c8.7,0,17.2,0,25.8,0c0,7.9,0,15.7,0,24
			C336.1,314.5,332.1,314.5,328.1,314.5z"/>
		<path fill="#CDA97E" d="M227.9,278c0-4.4,0-8.9,0-13.5c3.6,0,6.8,0,9.7,0c0.9-0.9,1.6-1.6,2.6-2.6c0-3,0-6.2,0-9.7
			c4.1,0,8.1,0,12,0c0,3.8,0,7.6,0,11.6c-3.3,1.4-6.8-0.2-10.1,0.7c-1.5,1.2-2.2,2.6-2.1,4.5c0.1,6.3,0,12.6,0,18.8
			c-0.7,0.7-1.2,1.2-2.3,2.3c-2.9,0-6.4,0-9.9,0C227.9,286.1,227.9,282.1,227.9,278z"/>
		<path fill="#CDA97E" d="M264.3,240c4.6,0,9.1,0,13.7,0c0,3.9,0,7.9,0,12.2c-8.9,0-17.4,0-25.8,0c0-3.9,0-7.9,0-12.2
			C256.5,240,260.4,240,264.3,240z"/>
		<path fill="#EDE8E8" d="M340.3,364.6c0,4.6,0,9.1,0,13.7c-4.1,0-8.1,0-12.2,0c0-4.6,0-9.1,0-13.7
			C332.2,364.6,336.2,364.6,340.3,364.6z"/>
		<path fill="#CDA97E" d="M290.2,227.9c0-4.4,0-8.9,0-13.7c4.3,0,8.2,0,12.2,0c0,3.7,0,7.4,0,11.1c-1.1,1.8-2.5,2.8-4.7,2.6
			C295.1,227.7,292.6,227.9,290.2,227.9z"/>
		<path fill="#CDA97E" d="M302.3,214.2c0-4.1,0-8.1,0-12.2c4.1,0,8.1,0,12.2,0c0.4,2.3-0.7,4.6,1.3,6.9c1.1,1.3,0.3,3.8-2.3,5.2
			C310.1,214.2,306.2,214.2,302.3,214.2z"/>
		<path fill="#CDA97E" d="M278,240c0-3.9,0-7.9,0-12.2c4.3,0,8.2,0,12.2,0c0,3.2,0,6.4,0,9.6c-1.1,1.8-2.5,2.7-4.7,2.6
			C283,239.9,280.5,240,278,240z"/>
		<path fill="#9F2F2E" d="M452.7,252.2c0-3.8,0-7.6,0-11.3c0.2-0.2,0.3-0.4,0.5-0.5c0.2-0.1,0.4-0.3,0.6-0.3c12.1,0,24.1,0,36.5,0
			c0,8,0,15.9,0,24.3c-8.5,0-17,0-25.5,0c2.2-4,2.5-8-0.3-12.2C460.5,252.2,456.6,252.2,452.7,252.2z"/>
		<path fill="#CDA97E" d="M428.4,314.5c-4.1,0-8.1,0-12.2,0c0-12.2,0-24.3,0-36.5c1,0,2,0,3,0c-1.1,4,2.7,7.4,1.2,11.9
			c6.2,0,12.1,0,17.6,0c1,1,1.5,1.5,2.5,2.5c0,3,0,6.4,0,9.9c-3.9,0-7.9,0-12.2,0C428.4,306.6,428.4,310.5,428.4,314.5z"/>
		<path fill="#786346" d="M478.3,214.4c0,4.3,0,8.7,0,13.3c-8.5,0-16.7,0-25.3,0c0-4.3,0-8.7,0-13.3
			C461.6,214.4,470,214.4,478.3,214.4z"/>
		<path fill="#786346" d="M528.7,202.3c0,3.5,0,7.3,0,11.4c3.8,1.2,7.8,0,11.9,0.7c0,4.2,0,8.5,0,13.1c-3.6,0-7.5,0-11.7,0
			c0-3.6,0-7.3,0-11.6c-4.1,0-8,0-11.4,0c-1.1-1.1-1.6-1.6-2.3-2.3c0-3,0-6.2,0-9.5c0.5-0.5,1.1-1.1,1.9-1.9
			C520.7,202.3,524.7,202.3,528.7,202.3z"/>
		<path fill="#CC4040" d="M452.7,252.2c3.9,0,7.8,0,11.9,0c2.8,4.1,2.5,8.1,0.3,12.2c-7.8,0-15.7,0-24.1,0
			c-0.4-3.8-0.1-7.7-0.2-12.2C444.8,252.2,448.7,252.2,452.7,252.2z"/>
		<path fill="#786346" d="M528.7,189.9c8.1,0,16.2,0,24.3,0c0,3.9,0,7.9,0,12.2c-8.4,0-16.3,0-24.3,0
			C528.7,198,528.7,193.9,528.7,189.9z"/>
		<path fill="#786346" d="M452.7,177.7c4.6,0,9.1,0,13.7,0c0,4.1,0,8.1,0,12.2c-4.4,0-8.9,0-13.7,0
			C452.7,185.6,452.7,181.7,452.7,177.7z"/>
		<path fill="#CDA97E" d="M440.6,177.7c0-3.2,0-6.5,0-10c1.2-1,2.5-2.1,4.3-3.6c1.5,0,3.7,0,5.8,0c0.7,0.7,1.2,1.2,2.1,2.1
			c0,3.5,0,7.5,0,11.4C448.7,177.7,444.6,177.7,440.6,177.7z"/>
		<path fill="#786346" d="M478.5,214.2c0-4.1,0-8.1,0-12.2c3.8,0,7.6,0,12,0c0.4,3.8,0.1,7.7,0.2,12.2
			C486.5,214.2,482.5,214.2,478.5,214.2z"/>
		<path fill="#786346" d="M478.5,202c-3.9,0-7.9,0-12.2,0c0-4.3,0-8.2,0-12.2c4.1,0,8.1,0,12.2,0C478.5,193.9,478.5,198,478.5,202z"
			/>
		<path fill="#BD9A70" d="M568.2,402.6c0-3.4,0-6.8,0-10.3c3.7,0.9,7.2,1.8,10.6,2.7c0,2.4,0,4.8,0,7.6
			C575,402.6,571.6,402.6,568.2,402.6z"/>
		<path fill="#B1926B" d="M227.9,278c0,4.1,0,8.1,0,12.2c-4.6,0-9.1,0-13.7,0c0-4.1,0-8.1,0-12.2C218.8,278,223.3,278,227.9,278z"/>
		<path fill="#CDA97E" d="M240,214.2c0-8.1,0-16.2,0-24.3c4,0,7.9,0,12.2,0c0-13,0-25.5,0-38c4.1,0,8.1,0,12.2,0c3.8,0,7.6,0,11.4,0
			c0.7,0.7,1.4,1.4,2.4,2.5c0,2.9,0,6.1,0,9.6c3.5,0,6.7,0,9.6,0c1,1,1.7,1.7,2.4,2.4c0,7.6,0,15.2,0,23c3.8,1.4,7.8-0.1,12.2,0.9
			c0,3.9,0,7.8,0,11.8c-7.8,0-15.7,0-23.7,0c-1.4-3.8,0.1-7.8-0.8-11.9c-4.2,0-8.4,0-13.4,0c0,3.7,0,7.6,0,11.5c0,4,0,8,0,12.5
			C256.1,214.2,248,214.2,240,214.2z"/>
		<path fill="#B1926B" d="M240,89.6c0-3.8,0-7.6,0-11.4c1.7-1.4,3.8-0.6,5.7-0.7c5-0.1,10.1,0,15.1-0.1c5.6,0,11.2,0.6,17.2-2
			c0,5.2,0,9.7,0,14.2C265.3,89.6,252.7,89.6,240,89.6z"/>
		<path fill="#B1926B" d="M278,89.6c3.8,0,7.6,0,11.4,0c0.2,0.2,0.4,0.3,0.5,0.5c0.1,0.2,0.2,0.4,0.2,0.7c0,12.1,0,24.2,0,36.8
			c-4.2,0-8.2,0-12.2,0C278,114.9,278,102.3,278,89.6z"/>
		<path fill="#B1926B" d="M278,127.6c0,3.9,0,7.9,0,12.2c-4.8,0-9.2,0-13.7,0c0-3.9,0-7.9,0-12.2C269.1,127.6,273.6,127.6,278,127.6
			z"/>
		<path fill="#B1926B" d="M264.3,151.9c-4.1,0-8.1,0-12.2,0c0-4.1,0-8.1,0-12.2c4.1,0,8.1,0,12.2,0
			C264.3,143.8,264.3,147.9,264.3,151.9z"/>
		<path fill="#B1926B" d="M227.9,101.8c0-4.1,0-8.1,0-12.2c4.1,0,8.1,0,12.2,0c0,3.9,0,7.9,0,12.2
			C235.7,101.8,231.8,101.8,227.9,101.8z"/>
		<path fill="#CDA97E" d="M214.2,278c0,4.1,0,8.1,0,12.2c-3.9,0-7.9,0-12.2,0c0-4.3,0-8.2,0-12.2C206.1,278,210.2,278,214.2,278z"/>
		<path fill="#FEFEFE" d="M653.2,717c0.4,2.3-1.2,4.8-2.7,4.3c-3.1-1-5.7,3.8-8.6,0.4c-2.3,2.7-7-0.1-8.8,3.9
			c-0.5,1.1-1.8,0.3-2.7,0.5c0.3-2.7-2.3-4.8-1.5-7.6c1.1,0,1.6-0.5,1.5-1.5C638,717,645.6,717,653.2,717z"/>
		<path fill="#EDE8E8" d="M630.5,717c0,1.1-0.5,1.6-1.5,1.5C628.9,717.5,629.4,717,630.5,717z"/>
		<path fill="#EDE8E8" d="M328.1,478.5c0,8,0,15.9,0,24.3c-4.8,0-9.2,0-13.7,0c0-16.2,0-32.4,0-48.6c2.4,0.7,3.8-1.9,6.2-1.6
			c2.5,0.4,5,0.1,7.5,0.1C328.1,461.3,328.1,469.9,328.1,478.5z"/>
		<path fill="#FEFEFE" d="M328.1,378.3c4.1,0,8.1,0,12.2,0c0,8.3,0,16.6,0,24.9c0,8.4,0.2,16.9-0.1,25.2c-4.5,0-8.2,0-12,0
			C328.1,411.7,328.1,395,328.1,378.3z"/>
		<path fill="#FEFEFE" d="M328.1,452.7c-2.5,0-5.1,0.3-7.5-0.1c-2.4-0.4-3.8,2.3-6.2,1.6c0-7.9,0-15.9,0-23.5
			c0.8-0.8,1.3-1.3,2.3-2.3c3.5,0,7.5,0,11.4,0C328.1,436.5,328.1,444.6,328.1,452.7z"/>
		<path fill="#DAB68C" d="M428.4,314.5c0-3.9,0-7.9,0-12.2c4.3,0,8.2,0,12.2,0c8.6,0,17.2,0,25.8,0c0,5.1,0,10.1,0,15.2
			c-0.7,0-1.5,0-2.7,0c-0.8,3-0.3,6.2-0.4,9.3c-0.1,3.2,0,6.4,0,9.7c-1.6,1.7-3.8,0.1-5.6,1c-0.5,1-2.1,1.3-2,2.8c-0.5,0-1,0-1.5,0
			c-1,0-2,0-3,0c-3.5,0-7.1,0-10.6,0c0-7.9,0-15.9,0-24.5C436.1,317.2,432.5,314.3,428.4,314.5z"/>
		<path fill="#DAB68C" d="M227.9,101.8c3.9,0,7.9,0,12.2,0c0-4.3,0-8.2,0-12.2c12.7,0,25.3,0,38,0c0,12.7,0,25.3,0,38
			c-4.4,0-8.9,0-13.7,0c0,4.3,0,8.2,0,12.2c-4.1,0-8.1,0-12.2,0c0-8.6,0-17.2,0.1-25.9c3.8-0.1,7.8-0.1,11.7-0.1c0-4.1,0-8,0-11.8
			c-4,0-7.7,0-11.6,0c0,4.1,0,8-0.1,11.9c-4.1,0.1-8.1,0.1-12.3,0.1c0,4.8,0,9,0,13.3c0,4.2-0.1,8.4,0.1,12.5c4.5,0,8.3,0,12.1,0
			c0,4.1,0,8.1,0,12.2c0,12.5,0,25,0,38c-4.2,0-8.2,0-12.2,0c0-7.9,0-15.9,0-23.8c-3.8-3.5-8.2-1.4-12.2-2c0-4.1,0-8.1,0-12.2
			c0-3.9,0-7.9,0-12.2c-4.8,0-9.2,0-13.7,0c0-8.1,0-16.2,0-24.3c3.9,0,7.8,0,11.4,0c0.9-0.9,1.4-1.4,2.3-2.3
			C227.9,109.6,227.9,105.7,227.9,101.8z"/>
		<path fill="#CDA97E" d="M214.2,139.8c4.4,0,8.9,0,13.7,0c0,4.3,0,8.2,0,12.2c-4.6,0-9.1,0-13.7,0
			C214.2,147.9,214.2,143.8,214.2,139.8z"/>
		<path fill="#9DCFBF" d="M328.1,452.7c0-8.1,0-16.2,0-24.3c3.8,0,7.5,0,12,0c0.3-8.4,0.1-16.8,0.1-25.2c0-8.3,0-16.6,0-24.9
			c4.1,0,8.1,0,12.2,0c0,37.5,0,74.9,0,112.4c-3.8,0-7.6,0-11.9,0c0-3.9,0-7.8,0-12.2c-4.5,0-8.5,0-12.4,0
			C328.1,469.9,328.1,461.3,328.1,452.7z"/>
		<path fill="#92BAB3" d="M451.2,340.3c1,0,2,0,3,0c-0.2,1.6-1.9,2.6-1.6,4.6c0.4,2.4,0.1,4.8,0.1,7.6c-4.3,0-8.2,0-12.2,0
			c0-3,0-6.1,0-9.1c2,0,1.7,1.6,1.5,2.6c-0.5,2.4,0.9,3.7,2.1,4.8c2.4,0,4.6,0,7.1,0C451.2,347.1,451.2,343.7,451.2,340.3z"/>
		<path fill="#CDA97E" d="M451.2,340.3c0,3.4,0,6.8,0,10.4c-2.5,0-4.7,0-7.1,0c-1.3-1.1-2.6-2.4-2.1-4.8c0.2-1,0.5-2.6-1.5-2.6
			c0-1,0-2,0-3C444.1,340.3,447.6,340.3,451.2,340.3z"/>
		<path fill="#DAB68C" d="M478.5,189.9c-4.1,0-8.1,0-12.2,0c0-4.1,0-8.1,0-12.2c3.9,0,7.9,0,12.2,0C478.5,182,478.5,186,478.5,189.9
			z"/>
		<path fill="#BD9A70" d="M516.4,174.2c-1,0.7-2.5,1.7-4.9,3.4c-1.3,0-4,0-6.2,0c-1.1-0.9-1.8-1.5-2.8-2.3c1.1-2.4,2.8-4.7,1.4-7.9
			c3.8,0,7,0,10.3,0C514.9,169.3,517,171,516.4,174.2z"/>
		<path fill="#BD9A70" d="M540.1,174.7c-3,3.2-6.8,3.3-11.1,2.9c0-3.3,0-6.7,0-10.3c3.6,0,7.3,0,11.3,0c1.1,0.9,0.4,2.5,0.4,3.9
			C540.8,172.4,541.3,173.8,540.1,174.7z"/>
		<path fill="#B1926B" d="M252.2,139.8c-3.8,0-7.6,0-12.1,0c-0.2-4.1-0.1-8.3-0.1-12.5c0-4.3,0-8.5,0-13.3c4.2,0,8.2,0,12.2,0
			C252.2,122.5,252.2,131.2,252.2,139.8z"/>
		<path fill="#B1926B" d="M252.4,113.7c0-3.7,0-7.7,0-11.8c3.9,0,7.6,0,11.6,0c0,3.8,0,7.7,0,11.8
			C260.1,113.7,256.1,113.7,252.4,113.7z"/>
	</g>
</g>
</svg>
